<?xml version="1.0" standalone="no"?>
<!DOCTYPE svg PUBLIC "-//W3C//DTD SVG 1.1//EN" "http://www.w3.org/Graphics/SVG/1.1/DTD/svg11.dtd" >
<svg>
<metadata>
Created by FontForge 20090622 at Sun May 26 19:31:16 2019
 By deploy user
&#194;&#169; 2015-2017 Apple Inc. All rights reserved.
</metadata>
<defs>
<font id="SFProDisplay-Light" horiz-adv-x="1674" >
  <font-face 
    font-family="SF Pro Display"
    font-weight="300"
    font-stretch="normal"
    units-per-em="2048"
    panose-1="0 0 4 0 0 0 0 0 0 0"
    ascent="1638"
    descent="-410"
    x-height="1040"
    cap-height="1443"
    bbox="-812 -588 2502 2169"
    underline-thickness="95"
    underline-position="-275"
    unicode-range="U+0020-U+1F189"
  />
<missing-glyph horiz-adv-x="2048" 
d="M100 -494v308h1848v-308h-1848zM100 -67v308h1848v-308h-1848zM100 361v307h1848v-307h-1848zM100 788v307h1848v-307h-1848zM100 1215v308h1848v-308h-1848zM100 1642v308h1848v-308h-1848z" />
    <glyph glyph-name="uni2460" unicode="&#x31;&#x20dd;" 
d="M918 390h-102v589h-6l-170 -114v95l176 119h102v-689zM837 55q181 0 333 89t239.5 242t87.5 334t-87.5 334t-239.5 242t-333 89t-333 -89t-239.5 -242t-87.5 -334t87.5 -334t239.5 -242t333 -89zM837 -46q-155 0 -297 61t-245 164t-164 245t-61 297t61 297t164 245
t245 164t297 61t297 -61t245 -164t164 -245t61 -297t-61 -297t-164 -245t-245 -164t-297 -61z" />
    <glyph glyph-name="uni2461" unicode="&#x32;&#x20dd;" 
d="M702 884h-99v5q0 83 63.5 143t171.5 60q103 0 166 -53t63 -136q0 -57 -29 -102.5t-93 -113.5l-193 -209v-5h331v-83h-473v64l272 289q41 44 62 78.5t21 74.5q0 51 -36.5 83t-92.5 32q-60 0 -97 -35t-37 -87v-5zM837 55q181 0 333 89t239.5 242t87.5 334t-87.5 334
t-239.5 242t-333 89t-333 -89t-239.5 -242t-87.5 -334t87.5 -334t239.5 -242t333 -89zM837 -46q-155 0 -297 61t-245 164t-164 245t-61 297t61 297t164 245t245 164t297 61t297 -61t245 -164t164 -245t61 -297t-61 -297t-164 -245t-245 -164t-297 -61z" />
    <glyph glyph-name="uni2462" unicode="&#x33;&#x20dd;" 
d="M759 706v79h78q56 0 93.5 33.5t37.5 83.5q-1 49 -38 80t-95 31q-55 0 -92.5 -29t-40.5 -71h-96q2 77 65 128t166 51t167 -49.5t66 -126.5q1 -65 -41.5 -109.5t-94.5 -53.5v-5q62 -7 110 -51t49 -117q1 -91 -73 -147t-185 -56q-107 0 -173.5 52t-71.5 129h96q4 -43 46 -72
t103 -30q69 0 112.5 35.5t43.5 91.5q-2 54 -43.5 88.5t-106.5 34.5h-82zM837 55q181 0 333 89t239.5 242t87.5 334t-87.5 334t-239.5 242t-333 89t-333 -89t-239.5 -242t-87.5 -334t87.5 -334t239.5 -242t333 -89zM837 -46q-155 0 -297 61t-245 164t-164 245t-61 297t61 297
t164 245t245 164t297 61t297 -61t245 -164t164 -245t61 -297t-61 -297t-164 -245t-245 -164t-297 -61z" />
    <glyph glyph-name="uni2463" unicode="&#x34;&#x20dd;" 
d="M835 1079h151v-465h97v-82h-97v-142h-97v142h-349v84l68 113l73.5 116l83 127zM638 614h251v387h-6q-169 -251 -245 -383v-4zM837 55q181 0 333 89t239.5 242t87.5 334t-87.5 334t-239.5 242t-333 89t-333 -89t-239.5 -242t-87.5 -334t87.5 -334t239.5 -242t333 -89z
M837 -46q-155 0 -297 61t-245 164t-164 245t-61 297t61 297t164 245t245 164t297 61t297 -61t245 -164t164 -245t61 -297t-61 -297t-164 -245t-245 -164t-297 -61z" />
    <glyph glyph-name="uni2464" unicode="&#x35;&#x20dd;" 
d="M596 557h96q9 -46 51 -72.5t97 -26.5q64 0 109.5 43t45.5 113q0 65 -44 105.5t-109 40.5q-91 0 -141 -76h-91l32 395h416v-82h-332l-19 -225h5q19 27 59.5 47t94.5 20q99 0 164.5 -61t65.5 -162q0 -107 -72.5 -173t-188.5 -66q-100 0 -167 51.5t-72 128.5zM837 55
q181 0 333 89t239.5 242t87.5 334t-87.5 334t-239.5 242t-333 89t-333 -89t-239.5 -242t-87.5 -334t87.5 -334t239.5 -242t333 -89zM837 -46q-155 0 -297 61t-245 164t-164 245t-61 297t61 297t164 245t245 164t297 61t297 -61t245 -164t164 -245t61 -297t-61 -297
t-164 -245t-245 -164t-297 -61z" />
    <glyph glyph-name="uni2465" unicode="&#x36;&#x20dd;" 
d="M859 382q-56 0 -105.5 20t-90.5 60t-65 109t-24 159q0 172 77 270t211 98q97 0 165.5 -51t82.5 -133h-100q-14 44 -53.5 70t-94.5 26q-92 0 -141.5 -76t-48.5 -210h2q22 55 78 89.5t131 34.5q104 0 171.5 -64t67.5 -161q0 -105 -74.5 -173t-188.5 -68zM858 470
q69 0 117 43t48 105q0 64 -47 105t-118 41q-70 0 -118 -41t-48 -101q0 -64 48 -108t118 -44zM837 55q181 0 333 89t239.5 242t87.5 334t-87.5 334t-239.5 242t-333 89t-333 -89t-239.5 -242t-87.5 -334t87.5 -334t239.5 -242t333 -89zM837 -46q-155 0 -297 61t-245 164
t-164 245t-61 297t61 297t164 245t245 164t297 61t297 -61t245 -164t164 -245t61 -297t-61 -297t-164 -245t-245 -164t-297 -61z" />
    <glyph glyph-name="uni2466" unicode="&#x37;&#x20dd;" 
d="M614 1072h473v-85l-296 -604h-109l300 601v5h-368v83zM837 55q181 0 333 89t239.5 242t87.5 334t-87.5 334t-239.5 242t-333 89t-333 -89t-239.5 -242t-87.5 -334t87.5 -334t239.5 -242t333 -89zM837 -46q-155 0 -297 61t-245 164t-164 245t-61 297t61 297t164 245
t245 164t297 61t297 -61t245 -164t164 -245t61 -297t-61 -297t-164 -245t-245 -164t-297 -61z" />
    <glyph glyph-name="uni2467" unicode="&#x38;&#x20dd;" 
d="M838 452q70 0 116 37.5t46 94.5t-46 94t-116 37q-71 0 -117.5 -37.5t-46.5 -93.5q0 -57 46.5 -94.5t117.5 -37.5zM838 786q59 0 97.5 33t38.5 83q0 51 -38 83t-98 32t-98.5 -32t-38.5 -83q0 -50 38.5 -83t98.5 -33zM836 377q-117 0 -190 56t-73 146q0 63 42 111t108 62v4
q-56 17 -89 58.5t-33 96.5q0 79 66.5 130t170.5 51q103 0 169.5 -51t66.5 -130q0 -54 -33.5 -96.5t-88.5 -58.5v-4q66 -14 108 -61.5t42 -110.5q0 -90 -74 -146.5t-192 -56.5zM837 55q181 0 333 89t239.5 242t87.5 334t-87.5 334t-239.5 242t-333 89t-333 -89t-239.5 -242
t-87.5 -334t87.5 -334t239.5 -242t333 -89zM837 -46q-155 0 -297 61t-245 164t-164 245t-61 297t61 297t164 245t245 164t297 61t297 -61t245 -164t164 -245t61 -297t-61 -297t-164 -245t-245 -164t-297 -61z" />
    <glyph glyph-name="uni2468" unicode="&#x39;&#x20dd;" 
d="M836 382q-99 0 -167.5 50.5t-82.5 131.5h100q13 -44 52.5 -69.5t97.5 -25.5q89 0 139.5 74.5t49.5 212.5h-1q-20 -55 -77 -89.5t-131 -34.5q-104 0 -173 63.5t-69 161.5q0 104 75 172.5t189 68.5q54 0 102.5 -19t90.5 -58t66.5 -108.5t24.5 -162.5q0 -172 -76 -270
t-210 -98zM838 715q70 0 118.5 41.5t48.5 101.5q0 64 -48 107.5t-118 43.5t-117.5 -43t-47.5 -105q0 -63 46.5 -104.5t117.5 -41.5zM837 55q181 0 333 89t239.5 242t87.5 334t-87.5 334t-239.5 242t-333 89t-333 -89t-239.5 -242t-87.5 -334t87.5 -334t239.5 -242t333 -89z
M837 -46q-155 0 -297 61t-245 164t-164 245t-61 297t61 297t164 245t245 164t297 61t297 -61t245 -164t164 -245t61 -297t-61 -297t-164 -245t-245 -164t-297 -61z" />
    <glyph glyph-name="uni24B6" unicode="A&#x20dd;" 
d="M725 682h225l-109 312h-8zM631 406h-104l251 689h118l251 -689h-104l-69 199h-273zM837 55q181 0 333 89t239.5 242t87.5 334t-87.5 334t-239.5 242t-333 89t-333 -89t-239.5 -242t-87.5 -334t87.5 -334t239.5 -242t333 -89zM837 -46q-155 0 -297 61t-245 164t-164 245
t-61 297t61 297t164 245t245 164t297 61t297 -61t245 -164t164 -245t61 -297t-61 -297t-164 -245t-245 -164t-297 -61z" />
    <glyph glyph-name="uni24B7" unicode="B&#x20dd;" 
d="M607 389v689h277q94 0 150 -46.5t56 -123.5q0 -60 -32.5 -100t-85.5 -52v-5q69 -8 113 -52t44 -117q0 -90 -67 -141.5t-179 -51.5h-276zM708 999v-218h125q76 0 116 29.5t40 80.5t-33.5 79.5t-93.5 28.5h-154zM708 707v-239h134q94 0 138 29t44 88q0 57 -38.5 89.5
t-108.5 32.5h-169zM837 55q181 0 333 89t239.5 242t87.5 334t-87.5 334t-239.5 242t-333 89t-333 -89t-239.5 -242t-87.5 -334t87.5 -334t239.5 -242t333 -89zM837 -46q-155 0 -297 61t-245 164t-164 245t-61 297t61 297t164 245t245 164t297 61t297 -61t245 -164t164 -245
t61 -297t-61 -297t-164 -245t-245 -164t-297 -61z" />
    <glyph glyph-name="uni24B8" unicode="C&#x20dd;" 
d="M1025 596h104q-14 -100 -93.5 -162t-197.5 -62q-142 0 -229 99t-87 259t87 259t229 99q120 0 200.5 -64.5t91.5 -168.5h-102q-8 66 -60.5 107.5t-127.5 41.5q-96 0 -155.5 -76t-59.5 -198t59.5 -198t155.5 -76q74 0 125 39.5t60 100.5zM837 55q181 0 333 89t239.5 242
t87.5 334t-87.5 334t-239.5 242t-333 89t-333 -89t-239.5 -242t-87.5 -334t87.5 -334t239.5 -242t333 -89zM837 -46q-155 0 -297 61t-245 164t-164 245t-61 297t61 297t164 245t245 164t297 61t297 -61t245 -164t164 -245t61 -297t-61 -297t-164 -245t-245 -164t-297 -61z
" />
    <glyph glyph-name="uni24B9" unicode="D&#x20dd;" 
d="M603 1071h238q155 0 236 -88.5t81 -250.5q0 -164 -81 -253t-236 -89h-238v681zM706 988v-515h123q109 0 165.5 65t56.5 193q0 125 -56.5 191t-165.5 66h-123zM837 55q181 0 333 89t239.5 242t87.5 334t-87.5 334t-239.5 242t-333 89t-333 -89t-239.5 -242t-87.5 -334
t87.5 -334t239.5 -242t333 -89zM837 -46q-155 0 -297 61t-245 164t-164 245t-61 297t61 297t164 245t245 164t297 61t297 -61t245 -164t164 -245t61 -297t-61 -297t-164 -245t-245 -164t-297 -61z" />
    <glyph glyph-name="uni24BA" unicode="E&#x20dd;" 
d="M1064 469v-83h-445v689h445v-83h-343v-216h324v-79h-324v-228h343zM837 55q181 0 333 89t239.5 242t87.5 334t-87.5 334t-239.5 242t-333 89t-333 -89t-239.5 -242t-87.5 -334t87.5 -334t239.5 -242t333 -89zM837 -46q-155 0 -297 61t-245 164t-164 245t-61 297t61 297
t164 245t245 164t297 61t297 -61t245 -164t164 -245t61 -297t-61 -297t-164 -245t-245 -164t-297 -61z" />
    <glyph glyph-name="uni24BB" unicode="F&#x20dd;" 
d="M750 386h-103v689h439v-84h-336v-229h308v-82h-308v-294zM837 55q181 0 333 89t239.5 242t87.5 334t-87.5 334t-239.5 242t-333 89t-333 -89t-239.5 -242t-87.5 -334t87.5 -334t239.5 -242t333 -89zM837 -46q-155 0 -297 61t-245 164t-164 245t-61 297t61 297t164 245
t245 164t297 61t297 -61t245 -164t164 -245t61 -297t-61 -297t-164 -245t-245 -164t-297 -61z" />
    <glyph glyph-name="uni24BC" unicode="G&#x20dd;" 
d="M1027 616v52h-182v77h280v-108q0 -120 -75 -192.5t-210 -72.5q-142 0 -230 99t-88 259t88 259t230 99q117 0 196 -61.5t93 -161.5h-102q-10 61 -61.5 100t-124.5 39q-97 0 -156.5 -75t-59.5 -199q0 -123 59.5 -198.5t156.5 -75.5q88 0 137 43.5t49 116.5zM837 55
q181 0 333 89t239.5 242t87.5 334t-87.5 334t-239.5 242t-333 89t-333 -89t-239.5 -242t-87.5 -334t87.5 -334t239.5 -242t333 -89zM837 -46q-155 0 -297 61t-245 164t-164 245t-61 297t61 297t164 245t245 164t297 61t297 -61t245 -164t164 -245t61 -297t-61 -297
t-164 -245t-245 -164t-297 -61z" />
    <glyph glyph-name="uni24BD" unicode="H&#x20dd;" 
d="M1117 386h-102v314h-355v-314h-103v689h103v-292h355v292h102v-689zM837 55q181 0 333 89t239.5 242t87.5 334t-87.5 334t-239.5 242t-333 89t-333 -89t-239.5 -242t-87.5 -334t87.5 -334t239.5 -242t333 -89zM837 -46q-155 0 -297 61t-245 164t-164 245t-61 297t61 297
t164 245t245 164t297 61t297 -61t245 -164t164 -245t61 -297t-61 -297t-164 -245t-245 -164t-297 -61z" />
    <glyph glyph-name="uni24BE" unicode="I&#x20dd;" 
d="M889 386h-104v689h104v-689zM837 55q181 0 333 89t239.5 242t87.5 334t-87.5 334t-239.5 242t-333 89t-333 -89t-239.5 -242t-87.5 -334t87.5 -334t239.5 -242t333 -89zM837 -46q-155 0 -297 61t-245 164t-164 245t-61 297t61 297t164 245t245 164t297 61t297 -61
t245 -164t164 -245t61 -297t-61 -297t-164 -245t-245 -164t-297 -61z" />
    <glyph glyph-name="uni24BF" unicode="J&#x20dd;" 
d="M587 566h100q1 -46 34 -75.5t83 -29.5q57 0 87.5 34.5t30.5 94.5v485h102v-482q0 -104 -58.5 -162t-161.5 -58q-99 0 -157.5 55t-59.5 138zM837 55q181 0 333 89t239.5 242t87.5 334t-87.5 334t-239.5 242t-333 89t-333 -89t-239.5 -242t-87.5 -334t87.5 -334t239.5 -242
t333 -89zM837 -46q-155 0 -297 61t-245 164t-164 245t-61 297t61 297t164 245t245 164t297 61t297 -61t245 -164t164 -245t61 -297t-61 -297t-164 -245t-245 -164t-297 -61z" />
    <glyph glyph-name="uni24C0" unicode="&#x212a;&#x20dd;" 
d="M1127 1075l-270 -295l285 -394h-127l-234 327l-87 -91v-236h-102v689h102v-333h5l310 333h118zM837 55q181 0 333 89t239.5 242t87.5 334t-87.5 334t-239.5 242t-333 89t-333 -89t-239.5 -242t-87.5 -334t87.5 -334t239.5 -242t333 -89zM837 -46q-155 0 -297 61t-245 164
t-164 245t-61 297t61 297t164 245t245 164t297 61t297 -61t245 -164t164 -245t61 -297t-61 -297t-164 -245t-245 -164t-297 -61z" />
    <glyph glyph-name="uni24C1" unicode="L&#x20dd;" 
d="M1093 472v-86h-433v689h103v-603h330zM837 55q181 0 333 89t239.5 242t87.5 334t-87.5 334t-239.5 242t-333 89t-333 -89t-239.5 -242t-87.5 -334t87.5 -334t239.5 -242t333 -89zM837 -46q-155 0 -297 61t-245 164t-164 245t-61 297t61 297t164 245t245 164t297 61
t297 -61t245 -164t164 -245t61 -297t-61 -297t-164 -245t-245 -164t-297 -61z" />
    <glyph glyph-name="uni24C2" unicode="M&#x20dd;" 
d="M591 386h-92v689h109l228 -565h4l227 565h108v-689h-92v521h-6l-201 -507h-78l-201 507h-6v-521zM837 55q181 0 333 89t239.5 242t87.5 334t-87.5 334t-239.5 242t-333 89t-333 -89t-239.5 -242t-87.5 -334t87.5 -334t239.5 -242t333 -89zM837 -46q-155 0 -297 61
t-245 164t-164 245t-61 297t61 297t164 245t245 164t297 61t297 -61t245 -164t164 -245t61 -297t-61 -297t-164 -245t-245 -164t-297 -61z" />
    <glyph glyph-name="uni24C3" unicode="N&#x20dd;" 
d="M658 386h-98v689h95l356 -528h5v528h98v-689h-95l-356 529h-5v-529zM837 55q181 0 333 89t239.5 242t87.5 334t-87.5 334t-239.5 242t-333 89t-333 -89t-239.5 -242t-87.5 -334t87.5 -334t239.5 -242t333 -89zM837 -46q-155 0 -297 61t-245 164t-164 245t-61 297t61 297
t164 245t245 164t297 61t297 -61t245 -164t164 -245t61 -297t-61 -297t-164 -245t-245 -164t-297 -61z" />
    <glyph glyph-name="uni24C4" unicode="O&#x20dd;" 
d="M837 456q96 0 156.5 74t60.5 200t-60.5 200t-156.5 74t-157 -74t-61 -200t61 -200t157 -74zM837 372q-140 0 -230.5 97t-90.5 261q0 165 90.5 261.5t230.5 96.5t230.5 -97t90.5 -261t-90.5 -261t-230.5 -97zM837 55q181 0 333 89t239.5 242t87.5 334t-87.5 334
t-239.5 242t-333 89t-333 -89t-239.5 -242t-87.5 -334t87.5 -334t239.5 -242t333 -89zM837 -46q-155 0 -297 61t-245 164t-164 245t-61 297t61 297t164 245t245 164t297 61t297 -61t245 -164t164 -245t61 -297t-61 -297t-164 -245t-245 -164t-297 -61z" />
    <glyph glyph-name="uni24C5" unicode="P&#x20dd;" 
d="M893 1075q105 0 168.5 -62t63.5 -158t-63 -157.5t-169 -61.5h-165v-250h-102v689h267zM1020 855q0 64 -38 101t-103 37h-151v-276h151q65 0 103 37t38 101zM837 55q181 0 333 89t239.5 242t87.5 334t-87.5 334t-239.5 242t-333 89t-333 -89t-239.5 -242t-87.5 -334
t87.5 -334t239.5 -242t333 -89zM837 -46q-155 0 -297 61t-245 164t-164 245t-61 297t61 297t164 245t245 164t297 61t297 -61t245 -164t164 -245t61 -297t-61 -297t-164 -245t-245 -164t-297 -61z" />
    <glyph glyph-name="uni24C6" unicode="Q&#x20dd;" 
d="M1122 311h-102l-62 84q-55 -23 -121 -23q-140 0 -230.5 97t-90.5 261q0 165 90.5 261.5t230.5 96.5t230.5 -97t90.5 -261q0 -196 -127 -294zM837 456q38 0 68 12l-88 122h101l57 -78q79 74 79 218q0 126 -60.5 200t-156.5 74t-157 -74t-61 -200t61 -200t157 -74zM837 55
q181 0 333 89t239.5 242t87.5 334t-87.5 334t-239.5 242t-333 89t-333 -89t-239.5 -242t-87.5 -334t87.5 -334t239.5 -242t333 -89zM837 -46q-155 0 -297 61t-245 164t-164 245t-61 297t61 297t164 245t245 164t297 61t297 -61t245 -164t164 -245t61 -297t-61 -297
t-164 -245t-245 -164t-297 -61z" />
    <glyph glyph-name="uni24C7" unicode="R&#x20dd;" 
d="M866 1075q109 0 173 -57.5t64 -153.5q0 -72 -40 -123.5t-102 -70.5l153 -284h-115l-140 269h-159v-269h-101v689h267zM700 733h151q68 0 107 34t39 95q0 62 -39 97t-104 35h-154v-261zM837 55q181 0 333 89t239.5 242t87.5 334t-87.5 334t-239.5 242t-333 89t-333 -89
t-239.5 -242t-87.5 -334t87.5 -334t239.5 -242t333 -89zM837 -46q-155 0 -297 61t-245 164t-164 245t-61 297t61 297t164 245t245 164t297 61t297 -61t245 -164t164 -245t61 -297t-61 -297t-164 -245t-245 -164t-297 -61z" />
    <glyph glyph-name="uni24C8" unicode="S&#x20dd;" 
d="M564 575h101q5 -53 54 -87.5t120 -34.5q72 0 118.5 33.5t46.5 85.5q0 77 -130 109l-115 27q-175 41 -175 181q0 89 71.5 145t184.5 56q112 0 183 -54.5t72 -142.5h-98q-5 51 -49.5 84t-108.5 33t-108 -33.5t-44 -82.5q0 -34 30 -60.5t83 -39.5l114 -26
q100 -24 145.5 -68.5t45.5 -118.5q0 -96 -74 -152t-199 -56q-119 0 -192 55t-76 147zM837 55q181 0 333 89t239.5 242t87.5 334t-87.5 334t-239.5 242t-333 89t-333 -89t-239.5 -242t-87.5 -334t87.5 -334t239.5 -242t333 -89zM837 -46q-155 0 -297 61t-245 164t-164 245
t-61 297t61 297t164 245t245 164t297 61t297 -61t245 -164t164 -245t61 -297t-61 -297t-164 -245t-245 -164t-297 -61z" />
    <glyph glyph-name="uni24C9" unicode="T&#x20dd;" 
d="M889 366h-104v605h-219v84h542v-84h-219v-605zM837 55q181 0 333 89t239.5 242t87.5 334t-87.5 334t-239.5 242t-333 89t-333 -89t-239.5 -242t-87.5 -334t87.5 -334t239.5 -242t333 -89zM837 -46q-155 0 -297 61t-245 164t-164 245t-61 297t61 297t164 245t245 164
t297 61t297 -61t245 -164t164 -245t61 -297t-61 -297t-164 -245t-245 -164t-297 -61z" />
    <glyph glyph-name="uni24CA" unicode="U&#x20dd;" 
d="M837 436q79 0 128 46t49 125v446h102v-453q0 -113 -76.5 -181t-202.5 -68t-202.5 68t-76.5 181v453h102v-446q0 -79 49 -125t128 -46zM837 55q181 0 333 89t239.5 242t87.5 334t-87.5 334t-239.5 242t-333 89t-333 -89t-239.5 -242t-87.5 -334t87.5 -334t239.5 -242
t333 -89zM837 -46q-155 0 -297 61t-245 164t-164 245t-61 297t61 297t164 245t245 164t297 61t297 -61t245 -164t164 -245t61 -297t-61 -297t-164 -245t-245 -164t-297 -61z" />
    <glyph glyph-name="uni24CB" unicode="V&#x20dd;" 
d="M774 364l-253 689h118l195 -581h6l195 581h118l-253 -689h-126zM837 55q181 0 333 89t239.5 242t87.5 334t-87.5 334t-239.5 242t-333 89t-333 -89t-239.5 -242t-87.5 -334t87.5 -334t239.5 -242t333 -89zM837 -46q-155 0 -297 61t-245 164t-164 245t-61 297t61 297
t164 245t245 164t297 61t297 -61t245 -164t164 -245t61 -297t-61 -297t-164 -245t-245 -164t-297 -61z" />
    <glyph glyph-name="uni24CC" unicode="W&#x20dd;" 
d="M837 903l-148 -539h-100l-188 689h112l129 -554h6l145 554h93l145 -554h5l129 554h112l-187 -689h-101l-148 539h-4zM837 55q181 0 333 89t239.5 242t87.5 334t-87.5 334t-239.5 242t-333 89t-333 -89t-239.5 -242t-87.5 -334t87.5 -334t239.5 -242t333 -89zM837 -46
q-155 0 -297 61t-245 164t-164 245t-61 297t61 297t164 245t245 164t297 61t297 -61t245 -164t164 -245t61 -297t-61 -297t-164 -245t-245 -164t-297 -61z" />
    <glyph glyph-name="uni24CD" unicode="X&#x20dd;" 
d="M1124 1079l-232 -346l228 -343h-119l-173 268h-5l-174 -268h-114l228 346l-226 343h122l171 -271h6l171 271h117zM837 55q181 0 333 89t239.5 242t87.5 334t-87.5 334t-239.5 242t-333 89t-333 -89t-239.5 -242t-87.5 -334t87.5 -334t239.5 -242t333 -89zM837 -46
q-155 0 -297 61t-245 164t-164 245t-61 297t61 297t164 245t245 164t297 61t297 -61t245 -164t164 -245t61 -297t-61 -297t-164 -245t-245 -164t-297 -61z" />
    <glyph glyph-name="uni24CE" unicode="Y&#x20dd;" 
d="M889 387h-103v281l-252 407h116l186 -308h4l186 308h113l-250 -405v-283zM837 55q181 0 333 89t239.5 242t87.5 334t-87.5 334t-239.5 242t-333 89t-333 -89t-239.5 -242t-87.5 -334t87.5 -334t239.5 -242t333 -89zM837 -46q-155 0 -297 61t-245 164t-164 245t-61 297
t61 297t164 245t245 164t297 61t297 -61t245 -164t164 -245t61 -297t-61 -297t-164 -245t-245 -164t-297 -61z" />
    <glyph glyph-name="uni24CF" unicode="Z&#x20dd;" 
d="M574 390v71l387 528v6h-375v84h499v-71l-385 -528v-6h394v-84h-520zM837 55q181 0 333 89t239.5 242t87.5 334t-87.5 334t-239.5 242t-333 89t-333 -89t-239.5 -242t-87.5 -334t87.5 -334t239.5 -242t333 -89zM837 -46q-155 0 -297 61t-245 164t-164 245t-61 297t61 297
t164 245t245 164t297 61t297 -61t245 -164t164 -245t61 -297t-61 -297t-164 -245t-245 -164t-297 -61z" />
    <glyph glyph-name="uni24EA" unicode="&#x30;&#x20dd;" 
d="M837 461q73 0 117 72.5t44 197.5q0 124 -44 197t-117 73t-117 -73t-44 -197q0 -125 44 -197.5t117 -72.5zM837 373q-116 0 -187.5 96t-71.5 262q0 165 71.5 261t187.5 96t187.5 -96t71.5 -261q0 -166 -71.5 -262t-187.5 -96zM837 55q181 0 333 89t239.5 242t87.5 334
t-87.5 334t-239.5 242t-333 89t-333 -89t-239.5 -242t-87.5 -334t87.5 -334t239.5 -242t333 -89zM837 -46q-155 0 -297 61t-245 164t-164 245t-61 297t61 297t164 245t245 164t297 61t297 -61t245 -164t164 -245t61 -297t-61 -297t-164 -245t-245 -164t-297 -61z" />
    <glyph glyph-name="uni24FF" unicode="&#x30;&#x20dd;&#x25cf;" 
d="M834 441q-77 0 -121 77t-44 213q0 135 44 212.5t121 77.5t121 -77.5t44 -212.5q0 -136 -44 -213t-121 -77zM834 340q131 0 209 105.5t78 285.5q0 179 -78 284.5t-209 105.5q-130 0 -208.5 -105.5t-78.5 -284.5q0 -180 78.5 -285.5t208.5 -105.5zM837 -46q-155 0 -297 61
t-245 164t-164 245t-61 297t61 297t164 245t245 164t297 61t297 -61t245 -164t164 -245t61 -297t-61 -297t-164 -245t-245 -164t-297 -61z" />
    <glyph glyph-name="uni278A" unicode="&#x31;&#x20dd;&#x25cf;" 
d="M930 360v751h-118l-190 -130v-114l186 126h2v-633h120zM837 -46q-155 0 -297 61t-245 164t-164 245t-61 297t61 297t164 245t245 164t297 61t297 -61t245 -164t164 -245t61 -297t-61 -297t-164 -245t-245 -164t-297 -61z" />
    <glyph glyph-name="uni278B" unicode="&#x32;&#x20dd;&#x25cf;" 
d="M694 892v8q1 55 38.5 91.5t99.5 36.5q56 0 94.5 -33.5t38.5 -85.5q0 -43 -21.5 -79.5t-64.5 -82.5l-294 -313v-75h518v99h-354v1l216 231q63 69 92 117.5t29 108.5q0 91 -70.5 149.5t-181.5 58.5q-119 0 -187.5 -65.5t-69.5 -158.5v-8h117zM837 -46q-155 0 -297 61
t-245 164t-164 245t-61 297t61 297t164 245t245 164t297 61t297 -61t245 -164t164 -245t61 -297t-61 -297t-164 -245t-245 -164t-297 -61z" />
    <glyph glyph-name="uni278C" unicode="&#x33;&#x20dd;&#x25cf;" 
d="M747 699h93q67 0 110 -36t44 -92q0 -58 -44.5 -94t-117.5 -36q-63 1 -107 32t-51 75h-112q5 -88 78 -145.5t191 -57.5q122 0 203.5 61.5t80.5 162.5q-2 79 -52 127.5t-115 55.5v1q54 12 98.5 60.5t43.5 117.5q-2 84 -73 139.5t-183 55.5q-113 -1 -181.5 -57.5
t-73.5 -143.5h114q5 45 43 75t96 30q61 0 99.5 -32.5t38.5 -82.5q0 -51 -38.5 -85.5t-97.5 -34.5h-87v-96zM837 -46q-155 0 -297 61t-245 164t-164 245t-61 297t61 297t164 245t245 164t297 61t297 -61t245 -164t164 -245t61 -297t-61 -297t-164 -245t-245 -164t-297 -61z
" />
    <glyph glyph-name="uni278D" unicode="&#x34;&#x20dd;&#x25cf;" 
d="M830 1111q-265 -408 -319 -502v-97h375v-152h116v152h104v98h-104v501h-172zM886 610h-259v2q88 150 258 401h1v-403zM837 -46q-155 0 -297 61t-245 164t-164 245t-61 297t61 297t164 245t245 164t297 61t297 -61t245 -164t164 -245t61 -297t-61 -297t-164 -245
t-245 -164t-297 -61z" />
    <glyph glyph-name="uni278E" unicode="&#x35;&#x20dd;&#x25cf;" 
d="M569 547q5 -86 79 -143.5t184 -57.5q127 0 206 72t79 190q0 110 -72.5 177.5t-179.5 67.5q-56 0 -99 -20.5t-65 -49.5h-1l19 231h355v97h-455l-34 -434h106q51 80 148 80q68 0 113.5 -42.5t45.5 -110.5q0 -72 -47 -116.5t-113 -44.5q-57 0 -102 28.5t-54 75.5h-113z
M837 -46q-155 0 -297 61t-245 164t-164 245t-61 297t61 297t164 245t245 164t297 61t297 -61t245 -164t164 -245t61 -297t-61 -297t-164 -245t-245 -164t-297 -61z" />
    <glyph glyph-name="uni278F" unicode="&#x36;&#x20dd;&#x25cf;" 
d="M864 349q125 0 207 74t82 189q0 106 -73 175.5t-187 69.5q-81 0 -141.5 -36t-84.5 -94h-3q1 141 53 220.5t149 79.5q59 0 101 -26t57 -73h117q-17 90 -92 146.5t-182 56.5q-148 0 -232 -107t-84 -294q0 -97 26 -172t70 -119.5t99 -67t118 -22.5zM862 452q-73 0 -124 46
t-51 113q0 64 51 107t126 43q74 0 123.5 -43.5t49.5 -110.5q0 -65 -51 -110t-124 -45zM837 -46q-155 0 -297 61t-245 164t-164 245t-61 297t61 297t164 245t245 164t297 61t297 -61t245 -164t164 -245t61 -297t-61 -297t-164 -245t-245 -164t-297 -61z" />
    <glyph glyph-name="uni2790" unicode="&#x37;&#x20dd;&#x25cf;" 
d="M589 1104v-100h395v-2l-328 -649h129l321 652v99h-517zM837 -46q-155 0 -297 61t-245 164t-164 245t-61 297t61 297t164 245t245 164t297 61t297 -61t245 -164t164 -245t61 -297t-61 -297t-164 -245t-245 -164t-297 -61z" />
    <glyph glyph-name="uni2791" unicode="&#x38;&#x20dd;&#x25cf;" 
d="M835 796q-62 0 -101.5 33.5t-39.5 85.5q0 53 39.5 86t101.5 33t101.5 -33.5t39.5 -85.5t-40 -85.5t-101 -33.5zM835 436q-74 0 -122 39t-48 98t48.5 97.5t121.5 38.5t121 -38.5t48 -97.5t-48 -98t-121 -39zM835 345q128 0 208.5 61.5t80.5 160.5q0 68 -44 119.5
t-117 67.5v1q61 19 95.5 65t34.5 106q0 88 -72 144t-186 56t-186 -56t-72 -144q0 -60 34.5 -105.5t95.5 -65.5v-1q-73 -16 -117 -67.5t-44 -119.5q0 -99 80.5 -160.5t208.5 -61.5zM837 -46q-155 0 -297 61t-245 164t-164 245t-61 297t61 297t164 245t245 164t297 61t297 -61
t245 -164t164 -245t61 -297t-61 -297t-164 -245t-245 -164t-297 -61z" />
    <glyph glyph-name="uni2792" unicode="&#x39;&#x20dd;&#x25cf;" 
d="M838 349q147 0 231 107t84 293q0 101 -27 177t-72.5 119.5t-99 64.5t-113.5 21q-126 0 -208 -74.5t-82 -189.5q0 -107 75.5 -176t188.5 -69q79 0 139.5 36.5t83.5 94.5h2q1 -144 -52.5 -222.5t-149.5 -78.5q-60 0 -102.5 26t-56.5 71h-117q16 -88 92 -144t184 -56z
M841 720q-76 0 -125 43t-49 109q0 65 50.5 110t124.5 45t124.5 -45.5t50.5 -112.5q0 -64 -50.5 -106.5t-125.5 -42.5zM837 -46q-155 0 -297 61t-245 164t-164 245t-61 297t61 297t164 245t245 164t297 61t297 -61t245 -164t164 -245t61 -297t-61 -297t-164 -245t-245 -164
t-297 -61z" />
    <glyph glyph-name="uni1F130" unicode="A&#x20de;" 
d="M725 668h225l-109 312h-8zM631 392h-104l251 689h118l251 -689h-104l-69 199h-273zM336 1462h1002q101 0 169.5 -68t68.5 -168v-1009q0 -100 -68.5 -167.5t-169.5 -67.5h-1002q-101 0 -170 67.5t-69 167.5v1009q0 100 69 168t170 68zM1475 1225q0 62 -41.5 103t-105.5 41
h-982q-64 0 -105.5 -40.5t-41.5 -103.5v-1006q0 -63 41.5 -103.5t105.5 -40.5h982q64 0 105.5 40.5t41.5 103.5v1006z" />
    <glyph glyph-name="uni1F131" unicode="B&#x20de;" 
d="M607 389v689h277q94 0 150 -46.5t56 -123.5q0 -60 -32.5 -100t-85.5 -52v-5q69 -8 113 -52t44 -117q0 -90 -67 -141.5t-179 -51.5h-276zM708 999v-218h125q76 0 116 29.5t40 80.5t-33.5 79.5t-93.5 28.5h-154zM708 707v-239h134q94 0 138 29t44 88q0 57 -38.5 89.5
t-108.5 32.5h-169zM336 1462h1002q101 0 169.5 -68t68.5 -168v-1009q0 -100 -68.5 -167.5t-169.5 -67.5h-1002q-101 0 -170 67.5t-69 167.5v1009q0 100 69 168t170 68zM1475 1225q0 62 -41.5 103t-105.5 41h-982q-64 0 -105.5 -40.5t-41.5 -103.5v-1006q0 -63 41.5 -103.5
t105.5 -40.5h982q64 0 105.5 40.5t41.5 103.5v1006z" />
    <glyph glyph-name="uni1F132" unicode="C&#x20de;" 
d="M1025 596h104q-14 -100 -93.5 -162t-197.5 -62q-142 0 -229 99t-87 259t87 259t229 99q120 0 200.5 -64.5t91.5 -168.5h-102q-8 66 -60.5 107.5t-127.5 41.5q-96 0 -155.5 -76t-59.5 -198t59.5 -198t155.5 -76q74 0 125 39.5t60 100.5zM336 1462h1002q101 0 169.5 -68
t68.5 -168v-1009q0 -100 -68.5 -167.5t-169.5 -67.5h-1002q-101 0 -170 67.5t-69 167.5v1009q0 100 69 168t170 68zM1475 1225q0 62 -41.5 103t-105.5 41h-982q-64 0 -105.5 -40.5t-41.5 -103.5v-1006q0 -63 41.5 -103.5t105.5 -40.5h982q64 0 105.5 40.5t41.5 103.5v1006z
" />
    <glyph glyph-name="uni1F133" unicode="D&#x20de;" 
d="M588 1071h238q154 0 235 -88.5t81 -250.5q0 -164 -81 -253t-235 -89h-238v681zM690 988v-515h123q222 0 222 258q0 125 -56.5 191t-165.5 66h-123zM336 1462h1002q101 0 169.5 -68t68.5 -168v-1009q0 -100 -68.5 -167.5t-169.5 -67.5h-1002q-101 0 -170 67.5t-69 167.5
v1009q0 100 69 168t170 68zM1475 1225q0 62 -41.5 103t-105.5 41h-982q-64 0 -105.5 -40.5t-41.5 -103.5v-1006q0 -63 41.5 -103.5t105.5 -40.5h982q64 0 105.5 40.5t41.5 103.5v1006z" />
    <glyph glyph-name="uni1F134" unicode="E&#x20de;" 
d="M1064 469v-83h-445v689h445v-83h-343v-216h324v-79h-324v-228h343zM336 1462h1002q101 0 169.5 -68t68.5 -168v-1009q0 -100 -68.5 -167.5t-169.5 -67.5h-1002q-101 0 -170 67.5t-69 167.5v1009q0 100 69 168t170 68zM1475 1225q0 62 -41.5 103t-105.5 41h-982
q-64 0 -105.5 -40.5t-41.5 -103.5v-1006q0 -63 41.5 -103.5t105.5 -40.5h982q64 0 105.5 40.5t41.5 103.5v1006z" />
    <glyph glyph-name="uni1F135" unicode="F&#x20de;" 
d="M750 386h-103v689h439v-84h-336v-229h308v-82h-308v-294zM336 1462h1002q101 0 169.5 -68t68.5 -168v-1009q0 -100 -68.5 -167.5t-169.5 -67.5h-1002q-101 0 -170 67.5t-69 167.5v1009q0 100 69 168t170 68zM1475 1225q0 62 -41.5 103t-105.5 41h-982q-64 0 -105.5 -40.5
t-41.5 -103.5v-1006q0 -63 41.5 -103.5t105.5 -40.5h982q64 0 105.5 40.5t41.5 103.5v1006z" />
    <glyph glyph-name="uni1F136" unicode="G&#x20de;" 
d="M1027 616v52h-182v77h280v-108q0 -120 -75 -192.5t-210 -72.5q-142 0 -230 99t-88 259t88 259t230 99q117 0 196 -61.5t93 -161.5h-102q-10 61 -61.5 100t-124.5 39q-97 0 -156.5 -75t-59.5 -199q0 -123 59.5 -198.5t156.5 -75.5q88 0 137 43.5t49 116.5zM336 1462h1002
q101 0 169.5 -68t68.5 -168v-1009q0 -100 -68.5 -167.5t-169.5 -67.5h-1002q-101 0 -170 67.5t-69 167.5v1009q0 100 69 168t170 68zM1475 1225q0 62 -41.5 103t-105.5 41h-982q-64 0 -105.5 -40.5t-41.5 -103.5v-1006q0 -63 41.5 -103.5t105.5 -40.5h982q64 0 105.5 40.5
t41.5 103.5v1006z" />
    <glyph glyph-name="uni1F137" unicode="H&#x20de;" 
d="M1117 386h-102v314h-355v-314h-103v689h103v-292h355v292h102v-689zM336 1462h1002q101 0 169.5 -68t68.5 -168v-1009q0 -100 -68.5 -167.5t-169.5 -67.5h-1002q-101 0 -170 67.5t-69 167.5v1009q0 100 69 168t170 68zM1475 1225q0 62 -41.5 103t-105.5 41h-982
q-64 0 -105.5 -40.5t-41.5 -103.5v-1006q0 -63 41.5 -103.5t105.5 -40.5h982q64 0 105.5 40.5t41.5 103.5v1006z" />
    <glyph glyph-name="uni1F138" unicode="I&#x20de;" 
d="M889 386h-104v689h104v-689zM336 1462h1002q101 0 169.5 -68t68.5 -168v-1009q0 -100 -68.5 -167.5t-169.5 -67.5h-1002q-101 0 -170 67.5t-69 167.5v1009q0 100 69 168t170 68zM1475 1225q0 62 -41.5 103t-105.5 41h-982q-64 0 -105.5 -40.5t-41.5 -103.5v-1006
q0 -63 41.5 -103.5t105.5 -40.5h982q64 0 105.5 40.5t41.5 103.5v1006z" />
    <glyph glyph-name="uni1F139" unicode="J&#x20de;" 
d="M587 566h100q1 -46 34 -75.5t83 -29.5q57 0 87.5 34.5t30.5 94.5v485h102v-482q0 -104 -58.5 -162t-161.5 -58q-99 0 -157.5 55t-59.5 138zM336 1462h1002q101 0 169.5 -68t68.5 -168v-1009q0 -100 -68.5 -167.5t-169.5 -67.5h-1002q-101 0 -170 67.5t-69 167.5v1009
q0 100 69 168t170 68zM1475 1225q0 62 -41.5 103t-105.5 41h-982q-64 0 -105.5 -40.5t-41.5 -103.5v-1006q0 -63 41.5 -103.5t105.5 -40.5h982q64 0 105.5 40.5t41.5 103.5v1006z" />
    <glyph glyph-name="uni1F13A" unicode="&#x212a;&#x20de;" 
d="M1127 1075l-270 -295l285 -394h-127l-234 327l-87 -91v-236h-102v689h102v-333h5l310 333h118zM336 1462h1002q101 0 169.5 -68t68.5 -168v-1009q0 -100 -68.5 -167.5t-169.5 -67.5h-1002q-101 0 -170 67.5t-69 167.5v1009q0 100 69 168t170 68zM1475 1225
q0 62 -41.5 103t-105.5 41h-982q-64 0 -105.5 -40.5t-41.5 -103.5v-1006q0 -63 41.5 -103.5t105.5 -40.5h982q64 0 105.5 40.5t41.5 103.5v1006z" />
    <glyph glyph-name="uni1F13B" unicode="L&#x20de;" 
d="M1100 472v-86h-433v689h103v-603h330zM336 1462h1002q101 0 169.5 -68t68.5 -168v-1009q0 -100 -68.5 -167.5t-169.5 -67.5h-1002q-101 0 -170 67.5t-69 167.5v1009q0 100 69 168t170 68zM1475 1225q0 62 -41.5 103t-105.5 41h-982q-64 0 -105.5 -40.5t-41.5 -103.5
v-1006q0 -63 41.5 -103.5t105.5 -40.5h982q64 0 105.5 40.5t41.5 103.5v1006z" />
    <glyph glyph-name="uni1F13C" unicode="M&#x20de;" 
d="M591 386h-92v689h109l228 -565h4l227 565h108v-689h-92v521h-6l-201 -507h-78l-201 507h-6v-521zM336 1462h1002q101 0 169.5 -68t68.5 -168v-1009q0 -100 -68.5 -167.5t-169.5 -67.5h-1002q-101 0 -170 67.5t-69 167.5v1009q0 100 69 168t170 68zM1475 1225
q0 62 -41.5 103t-105.5 41h-982q-64 0 -105.5 -40.5t-41.5 -103.5v-1006q0 -63 41.5 -103.5t105.5 -40.5h982q64 0 105.5 40.5t41.5 103.5v1006z" />
    <glyph glyph-name="uni1F13D" unicode="N&#x20de;" 
d="M658 386h-98v689h95l356 -528h5v528h98v-689h-95l-356 529h-5v-529zM336 1462h1002q101 0 169.5 -68t68.5 -168v-1009q0 -100 -68.5 -167.5t-169.5 -67.5h-1002q-101 0 -170 67.5t-69 167.5v1009q0 100 69 168t170 68zM1475 1225q0 62 -41.5 103t-105.5 41h-982
q-64 0 -105.5 -40.5t-41.5 -103.5v-1006q0 -63 41.5 -103.5t105.5 -40.5h982q64 0 105.5 40.5t41.5 103.5v1006z" />
    <glyph glyph-name="uni1F13E" unicode="O&#x20de;" 
d="M837 456q96 0 156.5 74t60.5 200t-60.5 200t-156.5 74t-157 -74t-61 -200t61 -200t157 -74zM837 372q-140 0 -230.5 97t-90.5 261q0 165 90.5 261.5t230.5 96.5t230.5 -97t90.5 -261t-90.5 -261t-230.5 -97zM336 1462h1002q101 0 169.5 -68t68.5 -168v-1009
q0 -100 -68.5 -167.5t-169.5 -67.5h-1002q-101 0 -170 67.5t-69 167.5v1009q0 100 69 168t170 68zM1475 1225q0 62 -41.5 103t-105.5 41h-982q-64 0 -105.5 -40.5t-41.5 -103.5v-1006q0 -63 41.5 -103.5t105.5 -40.5h982q64 0 105.5 40.5t41.5 103.5v1006z" />
    <glyph glyph-name="uni1F13F" unicode="P&#x20de;" 
d="M893 1075q105 0 168.5 -62t63.5 -158t-63 -157.5t-169 -61.5h-165v-250h-102v689h267zM1020 855q0 64 -38 101t-103 37h-151v-276h151q65 0 103 37t38 101zM336 1462h1002q101 0 169.5 -68t68.5 -168v-1009q0 -100 -68.5 -167.5t-169.5 -67.5h-1002q-101 0 -170 67.5
t-69 167.5v1009q0 100 69 168t170 68zM1475 1225q0 62 -41.5 103t-105.5 41h-982q-64 0 -105.5 -40.5t-41.5 -103.5v-1006q0 -63 41.5 -103.5t105.5 -40.5h982q64 0 105.5 40.5t41.5 103.5v1006z" />
    <glyph glyph-name="uni1F140" unicode="Q&#x20de;" 
d="M1122 311h-102l-62 84q-55 -23 -121 -23q-140 0 -230.5 97t-90.5 261q0 165 90.5 261.5t230.5 96.5t230.5 -97t90.5 -261q0 -196 -127 -294zM837 456q38 0 68 12l-88 122h101l57 -78q79 74 79 218q0 126 -60.5 200t-156.5 74t-157 -74t-61 -200t61 -200t157 -74z
M336 1462h1002q101 0 169.5 -68t68.5 -168v-1009q0 -100 -68.5 -167.5t-169.5 -67.5h-1002q-101 0 -170 67.5t-69 167.5v1009q0 100 69 168t170 68zM1475 1225q0 62 -41.5 103t-105.5 41h-982q-64 0 -105.5 -40.5t-41.5 -103.5v-1006q0 -63 41.5 -103.5t105.5 -40.5h982
q64 0 105.5 40.5t41.5 103.5v1006z" />
    <glyph glyph-name="uni1F141" unicode="R&#x20de;" 
d="M866 1075q109 0 173 -57.5t64 -153.5q0 -72 -40 -123.5t-102 -70.5l153 -284h-115l-140 269h-159v-269h-101v689h267zM700 733h151q68 0 107 34t39 95q0 62 -39 97t-104 35h-154v-261zM336 1462h1002q101 0 169.5 -68t68.5 -168v-1009q0 -100 -68.5 -167.5t-169.5 -67.5
h-1002q-101 0 -170 67.5t-69 167.5v1009q0 100 69 168t170 68zM1475 1225q0 62 -41.5 103t-105.5 41h-982q-64 0 -105.5 -40.5t-41.5 -103.5v-1006q0 -63 41.5 -103.5t105.5 -40.5h982q64 0 105.5 40.5t41.5 103.5v1006z" />
    <glyph glyph-name="uni1F142" unicode="S&#x20de;" 
d="M564 575h101q5 -53 54 -87.5t120 -34.5q72 0 118.5 33.5t46.5 85.5q0 77 -130 109l-115 27q-175 41 -175 181q0 89 71.5 145t184.5 56q112 0 183 -54.5t72 -142.5h-98q-5 51 -49.5 84t-108.5 33t-108 -33.5t-44 -82.5q0 -34 30 -60.5t83 -39.5l114 -26
q100 -24 145.5 -68.5t45.5 -118.5q0 -96 -74 -152t-199 -56q-119 0 -192 55t-76 147zM336 1462h1002q101 0 169.5 -68t68.5 -168v-1009q0 -100 -68.5 -167.5t-169.5 -67.5h-1002q-101 0 -170 67.5t-69 167.5v1009q0 100 69 168t170 68zM1475 1225q0 62 -41.5 103t-105.5 41
h-982q-64 0 -105.5 -40.5t-41.5 -103.5v-1006q0 -63 41.5 -103.5t105.5 -40.5h982q64 0 105.5 40.5t41.5 103.5v1006z" />
    <glyph glyph-name="uni1F143" unicode="T&#x20de;" 
d="M889 380h-104v604h-219v85h542v-85h-219v-604zM336 1462h1002q101 0 169.5 -68t68.5 -168v-1009q0 -100 -68.5 -167.5t-169.5 -67.5h-1002q-101 0 -170 67.5t-69 167.5v1009q0 100 69 168t170 68zM1475 1225q0 62 -41.5 103t-105.5 41h-982q-64 0 -105.5 -40.5
t-41.5 -103.5v-1006q0 -63 41.5 -103.5t105.5 -40.5h982q64 0 105.5 40.5t41.5 103.5v1006z" />
    <glyph glyph-name="uni1F144" unicode="U&#x20de;" 
d="M837 450q79 0 128 46t49 125v446h102v-453q0 -113 -76.5 -181.5t-202.5 -68.5t-202.5 68.5t-76.5 181.5v453h102v-446q0 -79 49 -125t128 -46zM336 1462h1002q101 0 169.5 -68t68.5 -168v-1009q0 -100 -68.5 -167.5t-169.5 -67.5h-1002q-101 0 -170 67.5t-69 167.5v1009
q0 100 69 168t170 68zM1475 1225q0 62 -41.5 103t-105.5 41h-982q-64 0 -105.5 -40.5t-41.5 -103.5v-1006q0 -63 41.5 -103.5t105.5 -40.5h982q64 0 105.5 40.5t41.5 103.5v1006z" />
    <glyph glyph-name="uni1F145" unicode="V&#x20de;" 
d="M774 378l-253 688h118l195 -580h6l195 580h118l-253 -688h-126zM336 1462h1002q101 0 169.5 -68t68.5 -168v-1009q0 -100 -68.5 -167.5t-169.5 -67.5h-1002q-101 0 -170 67.5t-69 167.5v1009q0 100 69 168t170 68zM1475 1225q0 62 -41.5 103t-105.5 41h-982
q-64 0 -105.5 -40.5t-41.5 -103.5v-1006q0 -63 41.5 -103.5t105.5 -40.5h982q64 0 105.5 40.5t41.5 103.5v1006z" />
    <glyph glyph-name="uni1F146" unicode="W&#x20de;" 
d="M837 917l-148 -539h-100l-188 688h112l129 -553h6l145 553h93l145 -553h5l129 553h112l-187 -688h-101l-148 539h-4zM336 1462h1002q101 0 169.5 -68t68.5 -168v-1009q0 -100 -68.5 -167.5t-169.5 -67.5h-1002q-101 0 -170 67.5t-69 167.5v1009q0 100 69 168t170 68z
M1475 1225q0 62 -41.5 103t-105.5 41h-982q-64 0 -105.5 -40.5t-41.5 -103.5v-1006q0 -63 41.5 -103.5t105.5 -40.5h982q64 0 105.5 40.5t41.5 103.5v1006z" />
    <glyph glyph-name="uni1F147" unicode="X&#x20de;" 
d="M1124 1079l-232 -346l228 -343h-119l-173 268h-5l-174 -268h-114l228 346l-226 343h122l171 -271h6l171 271h117zM336 1462h1002q101 0 169.5 -68t68.5 -168v-1009q0 -100 -68.5 -167.5t-169.5 -67.5h-1002q-101 0 -170 67.5t-69 167.5v1009q0 100 69 168t170 68z
M1475 1225q0 62 -41.5 103t-105.5 41h-982q-64 0 -105.5 -40.5t-41.5 -103.5v-1006q0 -63 41.5 -103.5t105.5 -40.5h982q64 0 105.5 40.5t41.5 103.5v1006z" />
    <glyph glyph-name="uni1F148" unicode="Y&#x20de;" 
d="M889 390h-103v282l-252 407h116l186 -309h4l186 309h113l-250 -406v-283zM336 1462h1002q101 0 169.5 -68t68.5 -168v-1009q0 -100 -68.5 -167.5t-169.5 -67.5h-1002q-101 0 -170 67.5t-69 167.5v1009q0 100 69 168t170 68zM1475 1225q0 62 -41.5 103t-105.5 41h-982
q-64 0 -105.5 -40.5t-41.5 -103.5v-1006q0 -63 41.5 -103.5t105.5 -40.5h982q64 0 105.5 40.5t41.5 103.5v1006z" />
    <glyph glyph-name="uni1F149" unicode="Z&#x20de;" 
d="M574 390v71l387 528v6h-375v84h499v-71l-385 -528v-6h394v-84h-520zM336 1462h1002q101 0 169.5 -68t68.5 -168v-1009q0 -100 -68.5 -167.5t-169.5 -67.5h-1002q-101 0 -170 67.5t-69 167.5v1009q0 100 69 168t170 68zM1475 1225q0 62 -41.5 103t-105.5 41h-982
q-64 0 -105.5 -40.5t-41.5 -103.5v-1006q0 -63 41.5 -103.5t105.5 -40.5h982q64 0 105.5 40.5t41.5 103.5v1006z" />
    <glyph glyph-name="uni1F150" unicode="A&#x20dd;&#x25cf;" 
d="M952 683h-230l113 324h4zM619 376l74 213h288l73 -213h126l-273 752h-140l-273 -752h125zM837 -46q-155 0 -297 61t-245 164t-164 245t-61 297t61 297t164 245t245 164t297 61t297 -61t245 -164t164 -245t61 -297t-61 -297t-164 -245t-245 -164t-297 -61z" />
    <glyph glyph-name="uni1F151" unicode="B&#x20dd;&#x25cf;" 
d="M579 360h303q125 0 198 56.5t73 154.5q0 75 -45 125t-121 61v1q57 16 90 60t33 106q0 84 -61.5 135.5t-165.5 51.5h-304v-751zM699 1017h160q62 0 96.5 -30t34.5 -82q0 -54 -41.5 -84t-120.5 -30h-129v226zM699 701h177q72 0 112.5 -33.5t40.5 -92.5q0 -121 -192 -121
h-138v247zM837 -46q-155 0 -297 61t-245 164t-164 245t-61 297t61 297t164 245t245 164t297 61t297 -61t245 -164t164 -245t61 -297t-61 -297t-164 -245t-245 -164t-297 -61z" />
    <glyph glyph-name="uni1F152" unicode="C&#x20dd;&#x25cf;" 
d="M1035 584q-12 -59 -65.5 -98t-128.5 -39q-100 0 -162.5 78t-62.5 205q0 126 63 205t162 79q75 0 130 -43t67 -105h122q-14 114 -101.5 184t-219.5 70q-155 0 -251.5 -108t-96.5 -282t96.5 -282t251.5 -108q129 0 215.5 67t103.5 177h-123zM837 -46q-155 0 -297 61
t-245 164t-164 245t-61 297t61 297t164 245t245 164t297 61t297 -61t245 -164t164 -245t61 -297t-61 -297t-164 -245t-245 -164t-297 -61z" />
    <glyph glyph-name="uni1F153" unicode="D&#x20dd;&#x25cf;" 
d="M573 1104v-743h263q167 0 256.5 96t89.5 277q0 178 -89.5 274t-256.5 96h-263zM694 1004h128q115 0 175.5 -69t60.5 -203q0 -271 -236 -271h-128v543zM837 -46q-155 0 -297 61t-245 164t-164 245t-61 297t61 297t164 245t245 164t297 61t297 -61t245 -164t164 -245
t61 -297t-61 -297t-164 -245t-245 -164t-297 -61z" />
    <glyph glyph-name="uni1F154" unicode="E&#x20dd;&#x25cf;" 
d="M1084 456h-369v234h348v95h-348v223h369v100h-490v-752h490v100zM837 -46q-155 0 -297 61t-245 164t-164 245t-61 297t61 297t164 245t245 164t297 61t297 -61t245 -164t164 -245t61 -297t-61 -297t-164 -245t-245 -164t-297 -61z" />
    <glyph glyph-name="uni1F155" unicode="F&#x20dd;&#x25cf;" 
d="M744 356v316h331v100h-331v235h361v101h-482v-752h121zM837 -46q-155 0 -297 61t-245 164t-164 245t-61 297t61 297t164 245t245 164t297 61t297 -61t245 -164t164 -245t61 -297t-61 -297t-164 -245t-245 -164t-297 -61z" />
    <glyph glyph-name="uni1F156" unicode="G&#x20dd;&#x25cf;" 
d="M1037 626q0 -76 -51 -125t-144 -49q-101 0 -163.5 75.5t-62.5 202.5t62.5 203t163.5 76q79 0 132 -36t62 -89h123q-14 103 -102 169.5t-216 66.5q-155 0 -252.5 -108t-97.5 -282t97 -281.5t252 -107.5q144 0 230 84t86 215v119h-304v-103h185v-30zM837 -46
q-155 0 -297 61t-245 164t-164 245t-61 297t61 297t164 245t245 164t297 61t297 -61t245 -164t164 -245t61 -297t-61 -297t-164 -245t-245 -164t-297 -61z" />
    <glyph glyph-name="uni1F157" unicode="H&#x20dd;&#x25cf;" 
d="M1145 356v752h-120v-315h-375v315h-121v-752h121v337h375v-337h120zM837 -46q-155 0 -297 61t-245 164t-164 245t-61 297t61 297t164 245t245 164t297 61t297 -61t245 -164t164 -245t61 -297t-61 -297t-164 -245t-245 -164t-297 -61z" />
    <glyph glyph-name="uni1F158" unicode="I&#x20dd;&#x25cf;" 
d="M897 356v752h-120v-752h120zM837 -46q-155 0 -297 61t-245 164t-164 245t-61 297t61 297t164 245t245 164t297 61t297 -61t245 -164t164 -245t61 -297t-61 -297t-164 -245t-245 -164t-297 -61z" />
    <glyph glyph-name="uni1F159" unicode="J&#x20dd;&#x25cf;" 
d="M563 559q1 -97 66.5 -156.5t172.5 -59.5q114 0 178 63.5t64 177.5v524h-121v-528q0 -63 -31.5 -97.5t-91.5 -34.5q-52 0 -84.5 31t-34.5 80h-118zM837 -46q-155 0 -297 61t-245 164t-164 245t-61 297t61 297t164 245t245 164t297 61t297 -61t245 -164t164 -245t61 -297
t-61 -297t-164 -245t-245 -164t-297 -61z" />
    <glyph glyph-name="uni1F15A" unicode="&#x212a;&#x20dd;&#x25cf;" 
d="M1154 1108h-139l-330 -356h-1v356h-121v-752h121v257l87 92l250 -349h148l-311 428zM837 -46q-155 0 -297 61t-245 164t-164 245t-61 297t61 297t164 245t245 164t297 61t297 -61t245 -164t164 -245t61 -297t-61 -297t-164 -245t-245 -164t-297 -61z" />
    <glyph glyph-name="uni1F15B" unicode="L&#x20dd;&#x25cf;" 
d="M1112 459h-355v649h-121v-752h476v103zM837 -46q-155 0 -297 61t-245 164t-164 245t-61 297t61 297t164 245t245 164t297 61t297 -61t245 -164t164 -245t61 -297t-61 -297t-164 -245t-245 -164t-297 -61z" />
    <glyph glyph-name="uni1F15C" unicode="M&#x20dd;&#x25cf;" 
d="M577 356v563h1l213 -545h92l212 542h2v-560h110v752h-129l-241 -608h-1l-240 608h-129v-752h110zM837 -46q-155 0 -297 61t-245 164t-164 245t-61 297t61 297t164 245t245 164t297 61t297 -61t245 -164t164 -245t61 -297t-61 -297t-164 -245t-245 -164t-297 -61z" />
    <glyph glyph-name="uni1F15D" unicode="N&#x20dd;&#x25cf;" 
d="M650 356v565h1l377 -565h113v752h-117v-565h-1l-379 565h-111v-752h117zM837 -46q-155 0 -297 61t-245 164t-164 245t-61 297t61 297t164 245t245 164t297 61t297 -61t245 -164t164 -245t61 -297t-61 -297t-164 -245t-245 -164t-297 -61z" />
    <glyph glyph-name="uni1F15E" unicode="O&#x20dd;&#x25cf;" 
d="M837 443q-100 0 -164 77.5t-64 209.5t64 210t164 78t164 -78t64 -210t-64 -209.5t-164 -77.5zM837 340q153 0 251.5 105.5t98.5 284.5q0 180 -98.5 285t-251.5 105t-251.5 -105t-98.5 -285q0 -179 98.5 -284.5t251.5 -105.5zM837 -46q-155 0 -297 61t-245 164t-164 245
t-61 297t61 297t164 245t245 164t297 61t297 -61t245 -164t164 -245t61 -297t-61 -297t-164 -245t-245 -164t-297 -61z" />
    <glyph glyph-name="uni1F15F" unicode="P&#x20dd;&#x25cf;" 
d="M892 1108h-293v-752h121v271h172q114 0 185 66t71 173t-71 174.5t-185 67.5zM1024 866q0 -65 -40 -104t-107 -39h-157v287h157q68 0 107.5 -39t39.5 -105zM837 -46q-155 0 -297 61t-245 164t-164 245t-61 297t61 297t164 245t245 164t297 61t297 -61t245 -164t164 -245
t61 -297t-61 -297t-164 -245t-245 -164t-297 -61z" />
    <glyph glyph-name="uni1F160" unicode="Q&#x20dd;&#x25cf;" 
d="M1156 277l-101 138q132 106 132 315q0 180 -98.5 285t-251.5 105t-251.5 -105t-98.5 -285q0 -179 98.5 -284.5t251.5 -105.5q69 0 129 24l63 -87h127zM837 443q-100 0 -164 77.5t-64 209.5t64 210t164 78t164 -78t64 -210q0 -145 -79 -222l-57 79h-124l96 -134
q-33 -10 -64 -10zM837 -46q-155 0 -297 61t-245 164t-164 245t-61 297t61 297t164 245t245 164t297 61t297 -61t245 -164t164 -245t61 -297t-61 -297t-164 -245t-245 -164t-297 -61z" />
    <glyph glyph-name="uni1F161" unicode="R&#x20dd;&#x25cf;" 
d="M691 741v269h160q68 0 108.5 -37t40.5 -99q0 -61 -40.5 -97t-110.5 -36h-158zM864 1108h-292v-752h119v292h161l150 -292h137l-166 309q69 21 110 78.5t41 133.5q0 105 -71 168t-189 63zM837 -46q-155 0 -297 61t-245 164t-164 245t-61 297t61 297t164 245t245 164
t297 61t297 -61t245 -164t164 -245t61 -297t-61 -297t-164 -245t-245 -164t-297 -61z" />
    <glyph glyph-name="uni1F162" unicode="S&#x20dd;&#x25cf;" 
d="M537 568q3 -103 84.5 -165t210.5 -62q136 0 217.5 62t81.5 166q0 82 -51 132t-160 76l-122 29q-56 13 -86.5 40t-30.5 63q0 53 43.5 86t114.5 33q69 0 115 -34.5t51 -88.5h115q-2 95 -79.5 157.5t-200.5 62.5q-124 0 -202 -62t-78 -160q0 -155 192 -200l123 -30
q72 -17 104 -44t32 -69q0 -55 -47.5 -88t-124.5 -33q-76 0 -127.5 36.5t-55.5 92.5h-119zM837 -46q-155 0 -297 61t-245 164t-164 245t-61 297t61 297t164 245t245 164t297 61t297 -61t245 -164t164 -245t61 -297t-61 -297t-164 -245t-245 -164t-297 -61z" />
    <glyph glyph-name="uni1F163" unicode="T&#x20dd;&#x25cf;" 
d="M898 336v651h234v101h-590v-101h235v-651h121zM837 -46q-155 0 -297 61t-245 164t-164 245t-61 297t61 297t164 245t245 164t297 61t297 -61t245 -164t164 -245t61 -297t-61 -297t-164 -245t-245 -164t-297 -61z" />
    <glyph glyph-name="uni1F164" unicode="U&#x20dd;&#x25cf;" 
d="M837 423q-85 0 -135 47.5t-50 131.5v484h-121v-493q0 -123 84 -198t222 -75q137 0 221.5 75t84.5 198v493h-121v-484q0 -83 -50 -131t-135 -48zM837 -46q-155 0 -297 61t-245 164t-164 245t-61 297t61 297t164 245t245 164t297 61t297 -61t245 -164t164 -245t61 -297
t-61 -297t-164 -245t-245 -164t-297 -61z" />
    <glyph glyph-name="uni1F165" unicode="V&#x20dd;&#x25cf;" 
d="M907 334l276 752h-138l-206 -627h-4l-206 627h-138l275 -752h141zM837 -46q-155 0 -297 61t-245 164t-164 245t-61 297t61 297t164 245t245 164t297 61t297 -61t245 -164t164 -245t61 -297t-61 -297t-164 -245t-245 -164t-297 -61z" />
    <glyph glyph-name="uni1F166" unicode="W&#x20dd;&#x25cf;" 
d="M837 909h4l157 -575h119l204 752h-133l-133 -596h-4l-156 596h-112l-155 -596h-4l-134 596h-133l205 -752h118zM837 -46q-155 0 -297 61t-245 164t-164 245t-61 297t61 297t164 245t245 164t297 61t297 -61t245 -164t164 -245t61 -297t-61 -297t-164 -245t-245 -164
t-297 -61z" />
    <glyph glyph-name="uni1F167" unicode="X&#x20dd;&#x25cf;" 
d="M1158 1112h-139l-182 -293h-4l-185 293h-144l246 -374l-249 -377h136l187 289h3l186 -289h141l-249 373zM837 -46q-155 0 -297 61t-245 164t-164 245t-61 297t61 297t164 245t245 164t297 61t297 -61t245 -164t164 -245t61 -297t-61 -297t-164 -245t-245 -164t-297 -61z
" />
    <glyph glyph-name="uni1F168" unicode="Y&#x20dd;&#x25cf;" 
d="M777 357h120v306l275 445h-137l-196 -332h-4l-197 332h-136l275 -445v-306zM837 -46q-155 0 -297 61t-245 164t-164 245t-61 297t61 297t164 245t245 164t297 61t297 -61t245 -164t164 -245t61 -297t-61 -297t-164 -245t-245 -164t-297 -61z" />
    <glyph glyph-name="uni1F169" unicode="Z&#x20dd;&#x25cf;" 
d="M549 361h570v100h-425v1l416 566v84h-548v-100h404v-2l-417 -566v-83zM837 -46q-155 0 -297 61t-245 164t-164 245t-61 297t61 297t164 245t245 164t297 61t297 -61t245 -164t164 -245t61 -297t-61 -297t-164 -245t-245 -164t-297 -61z" />
    <glyph glyph-name="uni1F170" unicode="A&#x20de;&#x25a0;" 
d="M952 669h-230l113 324h4zM619 363l74 213h288l73 -213h126l-273 751h-140l-273 -751h125zM336 1462h1002q101 0 169.5 -68t68.5 -168v-1009q0 -100 -68.5 -167.5t-169.5 -67.5h-1002q-101 0 -170 67.5t-69 167.5v1009q0 100 69 168t170 68z" />
    <glyph glyph-name="uni1F171" unicode="B&#x20de;&#x25a0;" 
d="M579 360h303q123 0 197 56t74 155q0 78 -46 126.5t-120 59.5v1q55 15 89 58.5t34 107.5q0 85 -62 136t-165 51h-304v-751zM699 1017h160q62 0 96.5 -30t34.5 -82q0 -54 -41 -84t-121 -30h-129v226zM699 701h177q72 0 112.5 -33.5t40.5 -92.5q0 -121 -192 -121h-138v247z
M336 1462h1002q101 0 169.5 -68t68.5 -168v-1009q0 -100 -68.5 -167.5t-169.5 -67.5h-1002q-101 0 -170 67.5t-69 167.5v1009q0 100 69 168t170 68z" />
    <glyph glyph-name="uni1F172" unicode="C&#x20de;&#x25a0;" 
d="M1035 584q-12 -59 -65.5 -98t-128.5 -39q-100 0 -162.5 78t-62.5 205q0 126 63 205t162 79q75 0 130 -43t67 -105h122q-14 114 -101.5 184t-219.5 70q-155 0 -251.5 -108t-96.5 -282t96.5 -282t251.5 -108q129 0 215.5 67t103.5 177h-123zM336 1462h1002q101 0 169.5 -68
t68.5 -168v-1009q0 -100 -68.5 -167.5t-169.5 -67.5h-1002q-101 0 -170 67.5t-69 167.5v1009q0 100 69 168t170 68z" />
    <glyph glyph-name="uni1F173" unicode="D&#x20de;&#x25a0;" 
d="M558 1104v-743h263q168 0 256.5 96.5t88.5 276.5q0 176 -88.5 273t-256.5 97h-263zM678 1004h128q116 0 176 -69.5t60 -202.5q0 -271 -236 -271h-128v543zM336 1462h1002q101 0 169.5 -68t68.5 -168v-1009q0 -100 -68.5 -167.5t-169.5 -67.5h-1002q-101 0 -170 67.5
t-69 167.5v1009q0 100 69 168t170 68z" />
    <glyph glyph-name="uni1F174" unicode="E&#x20de;&#x25a0;" 
d="M1084 456h-369v234h348v95h-348v223h369v100h-490v-752h490v100zM336 1462h1002q101 0 169.5 -68t68.5 -168v-1009q0 -100 -68.5 -167.5t-169.5 -67.5h-1002q-101 0 -170 67.5t-69 167.5v1009q0 100 69 168t170 68z" />
    <glyph glyph-name="uni1F175" unicode="F&#x20de;&#x25a0;" 
d="M744 356v316h331v100h-331v235h361v101h-482v-752h121zM336 1462h1002q101 0 169.5 -68t68.5 -168v-1009q0 -100 -68.5 -167.5t-169.5 -67.5h-1002q-101 0 -170 67.5t-69 167.5v1009q0 100 69 168t170 68z" />
    <glyph glyph-name="uni1F176" unicode="G&#x20de;&#x25a0;" 
d="M1037 626q0 -76 -51 -125t-144 -49q-101 0 -163.5 75.5t-62.5 202.5t62.5 203t163.5 76q79 0 132 -36t62 -89h123q-14 103 -102 169.5t-216 66.5q-155 0 -252.5 -108t-97.5 -282t97 -281.5t252 -107.5q144 0 230 84t86 215v119h-304v-103h185v-30zM336 1462h1002
q101 0 169.5 -68t68.5 -168v-1009q0 -100 -68.5 -167.5t-169.5 -67.5h-1002q-101 0 -170 67.5t-69 167.5v1009q0 100 69 168t170 68z" />
    <glyph glyph-name="uni1F177" unicode="H&#x20de;&#x25a0;" 
d="M1145 356v752h-120v-315h-375v315h-121v-752h121v337h375v-337h120zM336 1462h1002q101 0 169.5 -68t68.5 -168v-1009q0 -100 -68.5 -167.5t-169.5 -67.5h-1002q-101 0 -170 67.5t-69 167.5v1009q0 100 69 168t170 68z" />
    <glyph glyph-name="uni1F178" unicode="I&#x20de;&#x25a0;" 
d="M897 356v752h-120v-752h120zM336 1462h1002q101 0 169.5 -68t68.5 -168v-1009q0 -100 -68.5 -167.5t-169.5 -67.5h-1002q-101 0 -170 67.5t-69 167.5v1009q0 100 69 168t170 68z" />
    <glyph glyph-name="uni1F179" unicode="J&#x20de;&#x25a0;" 
d="M563 559q1 -95 65 -155.5t174 -60.5q113 0 177.5 63t64.5 178v524h-121v-528q0 -64 -31.5 -98t-91.5 -34q-52 0 -84.5 31t-34.5 80h-118zM336 1462h1002q101 0 169.5 -68t68.5 -168v-1009q0 -100 -68.5 -167.5t-169.5 -67.5h-1002q-101 0 -170 67.5t-69 167.5v1009
q0 100 69 168t170 68z" />
    <glyph glyph-name="uni1F17A" unicode="&#x212a;&#x20de;&#x25a0;" 
d="M1154 1108h-139l-330 -356h-1v356h-121v-752h121v257l87 92l250 -349h148q-37 54 -159 220l-152 208zM336 1462h1002q101 0 169.5 -68t68.5 -168v-1009q0 -100 -68.5 -167.5t-169.5 -67.5h-1002q-101 0 -170 67.5t-69 167.5v1009q0 100 69 168t170 68z" />
    <glyph glyph-name="uni1F17B" unicode="L&#x20de;&#x25a0;" 
d="M1119 459h-355v649h-121v-752h476v103zM336 1462h1002q101 0 169.5 -68t68.5 -168v-1009q0 -100 -68.5 -167.5t-169.5 -67.5h-1002q-101 0 -170 67.5t-69 167.5v1009q0 100 69 168t170 68z" />
    <glyph glyph-name="uni1F17C" unicode="M&#x20de;&#x25a0;" 
d="M577 356v563h1l213 -545h92l212 542h2v-560h110v752h-129l-241 -608h-1l-240 608h-129v-752h110zM336 1462h1002q101 0 169.5 -68t68.5 -168v-1009q0 -100 -68.5 -167.5t-169.5 -67.5h-1002q-101 0 -170 67.5t-69 167.5v1009q0 100 69 168t170 68z" />
    <glyph glyph-name="uni1F17D" unicode="N&#x20de;&#x25a0;" 
d="M650 356v565h1l377 -565h113v752h-117v-565h-1l-379 565h-111v-752h117zM336 1462h1002q101 0 169.5 -68t68.5 -168v-1009q0 -100 -68.5 -167.5t-169.5 -67.5h-1002q-101 0 -170 67.5t-69 167.5v1009q0 100 69 168t170 68z" />
    <glyph glyph-name="uni1F17E" unicode="O&#x20de;&#x25a0;" 
d="M837 443q-100 0 -164 77.5t-64 209.5t64 210t164 78t164 -78t64 -210t-64 -209.5t-164 -77.5zM837 340q153 0 251.5 105.5t98.5 284.5q0 180 -98.5 285t-251.5 105t-251.5 -105t-98.5 -285q0 -179 98.5 -284.5t251.5 -105.5zM336 1462h1002q101 0 169.5 -68t68.5 -168
v-1009q0 -100 -68.5 -167.5t-169.5 -67.5h-1002q-101 0 -170 67.5t-69 167.5v1009q0 100 69 168t170 68z" />
    <glyph glyph-name="uni1F17F" unicode="P&#x20de;&#x25a0;" 
d="M892 1108h-293v-752h121v271h172q116 0 186 67t70 172t-70 173.5t-186 68.5zM1024 866q0 -65 -40 -104t-107 -39h-157v287h157q68 0 107.5 -38.5t39.5 -105.5zM336 1462h1002q101 0 169.5 -68t68.5 -168v-1009q0 -100 -68.5 -167.5t-169.5 -67.5h-1002q-101 0 -170 67.5
t-69 167.5v1009q0 100 69 168t170 68z" />
    <glyph glyph-name="uni1F180" unicode="Q&#x20de;&#x25a0;" 
d="M1156 277l-101 138q132 106 132 315q0 180 -98.5 285t-251.5 105t-251.5 -105t-98.5 -285q0 -179 98.5 -284.5t251.5 -105.5q69 0 129 24l63 -87h127zM837 443q-100 0 -164 77.5t-64 209.5t64 210t164 78t164 -78t64 -210q0 -145 -79 -222l-57 79h-124l96 -134
q-33 -10 -64 -10zM336 1462h1002q101 0 169.5 -68t68.5 -168v-1009q0 -100 -68.5 -167.5t-169.5 -67.5h-1002q-101 0 -170 67.5t-69 167.5v1009q0 100 69 168t170 68z" />
    <glyph glyph-name="uni1F181" unicode="R&#x20de;&#x25a0;" 
d="M691 741v269h160q67 0 108 -36.5t41 -99.5q0 -62 -41 -97.5t-110 -35.5h-158zM864 1108h-292v-752h119v292h161l150 -292h137l-166 309q67 20 109 76.5t42 135.5q0 105 -70 168t-190 63zM336 1462h1002q101 0 169.5 -68t68.5 -168v-1009q0 -100 -68.5 -167.5
t-169.5 -67.5h-1002q-101 0 -170 67.5t-69 167.5v1009q0 100 69 168t170 68z" />
    <glyph glyph-name="uni1F182" unicode="S&#x20de;&#x25a0;" 
d="M537 568q3 -103 84.5 -165t210.5 -62q136 0 217.5 62t81.5 166q0 82 -51 132t-160 76l-122 29q-56 13 -86.5 40t-30.5 63q0 53 43.5 86t114.5 33q69 0 115 -34.5t51 -88.5h115q-2 95 -79.5 157.5t-200.5 62.5q-124 0 -202 -62t-78 -160q0 -155 192 -200l123 -30
q72 -17 104 -44t32 -69q0 -55 -47.5 -88t-124.5 -33q-76 0 -127.5 36.5t-55.5 92.5h-119zM336 1462h1002q101 0 169.5 -68t68.5 -168v-1009q0 -100 -68.5 -167.5t-169.5 -67.5h-1002q-101 0 -170 67.5t-69 167.5v1009q0 100 69 168t170 68z" />
    <glyph glyph-name="uni1F183" unicode="T&#x20de;&#x25a0;" 
d="M898 350v651h234v101h-590v-101h235v-651h121zM336 1462h1002q101 0 169.5 -68t68.5 -168v-1009q0 -100 -68.5 -167.5t-169.5 -67.5h-1002q-101 0 -170 67.5t-69 167.5v1009q0 100 69 168t170 68z" />
    <glyph glyph-name="uni1F184" unicode="U&#x20de;&#x25a0;" 
d="M837 437q-85 0 -135 47.5t-50 131.5v484h-121v-493q0 -124 84 -198.5t222 -74.5q137 0 221.5 75t84.5 198v493h-121v-484q0 -83 -50 -131t-135 -48zM336 1462h1002q101 0 169.5 -68t68.5 -168v-1009q0 -100 -68.5 -167.5t-169.5 -67.5h-1002q-101 0 -170 67.5t-69 167.5
v1009q0 100 69 168t170 68z" />
    <glyph glyph-name="uni1F185" unicode="V&#x20de;&#x25a0;" 
d="M907 348l276 752h-138l-206 -627h-4l-206 627h-138l275 -752h141zM336 1462h1002q101 0 169.5 -68t68.5 -168v-1009q0 -100 -68.5 -167.5t-169.5 -67.5h-1002q-101 0 -170 67.5t-69 167.5v1009q0 100 69 168t170 68z" />
    <glyph glyph-name="uni1F186" unicode="W&#x20de;&#x25a0;" 
d="M837 923h4l157 -575h119l204 752h-133l-133 -597h-4l-156 597h-112l-155 -597h-4l-134 597h-133l205 -752h118zM336 1462h1002q101 0 169.5 -68t68.5 -168v-1009q0 -100 -68.5 -167.5t-169.5 -67.5h-1002q-101 0 -170 67.5t-69 167.5v1009q0 100 69 168t170 68z" />
    <glyph glyph-name="uni1F187" unicode="X&#x20de;&#x25a0;" 
d="M1158 1112h-139l-182 -293h-4l-185 293h-144l246 -374l-249 -377h136l187 289h3l186 -289h141l-249 373zM336 1462h1002q101 0 169.5 -68t68.5 -168v-1009q0 -100 -68.5 -167.5t-169.5 -67.5h-1002q-101 0 -170 67.5t-69 167.5v1009q0 100 69 168t170 68z" />
    <glyph glyph-name="uni1F188" unicode="Y&#x20de;&#x25a0;" 
d="M777 361h120v306l275 445h-137l-196 -333h-4l-197 333h-136l275 -445v-306zM336 1462h1002q101 0 169.5 -68t68.5 -168v-1009q0 -100 -68.5 -167.5t-169.5 -67.5h-1002q-101 0 -170 67.5t-69 167.5v1009q0 100 69 168t170 68z" />
    <glyph glyph-name="uni1F189" unicode="Z&#x20de;&#x25a0;" 
d="M549 361h570v100h-425v1l416 566v84h-548v-100h404v-2l-417 -566v-83zM336 1462h1002q101 0 169.5 -68t68.5 -168v-1009q0 -100 -68.5 -167.5t-169.5 -67.5h-1002q-101 0 -170 67.5t-69 167.5v1009q0 100 69 168t170 68z" />
    <glyph glyph-name="plus.uc.whitecircle" unicode="&#x2b;&#x20dd;" 
d="M880 689v-224h-87v224h-216v82h216v215h87v-215h216v-82h-216zM837 55q181 0 333 89t239.5 242t87.5 334t-87.5 334t-239.5 242t-333 89t-333 -89t-239.5 -242t-87.5 -334t87.5 -334t239.5 -242t333 -89zM837 -46q-155 0 -297 61t-245 164t-164 245t-61 297t61 297
t164 245t245 164t297 61t297 -61t245 -164t164 -245t61 -297t-61 -297t-164 -245t-245 -164t-297 -61z" />
    <glyph glyph-name="minus.uc.whitecircle" unicode="&#x2212;&#x20dd;" 
d="M1084 685h-494v84h494v-84zM837 55q181 0 333 89t239.5 242t87.5 334t-87.5 334t-239.5 242t-333 89t-333 -89t-239.5 -242t-87.5 -334t87.5 -334t239.5 -242t333 -89zM837 -46q-155 0 -297 61t-245 164t-164 245t-61 297t61 297t164 245t245 164t297 61t297 -61
t245 -164t164 -245t61 -297t-61 -297t-164 -245t-245 -164t-297 -61z" />
    <glyph glyph-name="multiply.uc.whitecircle" unicode="&#xd7;&#x20dd;" 
d="M838 786l162 157l62 -59l-162 -157l162 -158l-62 -58l-162 157l-164 -160l-62 59l165 160l-162 157l61 59zM837 55q181 0 333 89t239.5 242t87.5 334t-87.5 334t-239.5 242t-333 89t-333 -89t-239.5 -242t-87.5 -334t87.5 -334t239.5 -242t333 -89zM837 -46
q-155 0 -297 61t-245 164t-164 245t-61 297t61 297t164 245t245 164t297 61t297 -61t245 -164t164 -245t61 -297t-61 -297t-164 -245t-245 -164t-297 -61z" />
    <glyph glyph-name="divide.uc.whitecircle" unicode="&#xf7;&#x20dd;" 
d="M1084 690h-494v74h494v-74zM769 925q0 29 19 47.5t48 18.5q30 0 50.5 -18.5t20.5 -47.5q0 -27 -20.5 -45.5t-50.5 -18.5q-29 0 -48 18t-19 46zM769 531q0 28 19.5 47t48.5 19q30 0 50 -18.5t20 -47.5q0 -28 -20 -46t-50 -18q-29 0 -48.5 18t-19.5 46zM837 55
q181 0 333 89t239.5 242t87.5 334t-87.5 334t-239.5 242t-333 89t-333 -89t-239.5 -242t-87.5 -334t87.5 -334t239.5 -242t333 -89zM837 -46q-155 0 -297 61t-245 164t-164 245t-61 297t61 297t164 245t245 164t297 61t297 -61t245 -164t164 -245t61 -297t-61 -297
t-164 -245t-245 -164t-297 -61z" />
    <glyph glyph-name="equal.uc.whitecircle" unicode="&#x3d;&#x20dd;" 
d="M1074 582h-474v77h474v-77zM1074 795h-474v78h474v-78zM837 55q181 0 333 89t239.5 242t87.5 334t-87.5 334t-239.5 242t-333 89t-333 -89t-239.5 -242t-87.5 -334t87.5 -334t239.5 -242t333 -89zM837 -46q-155 0 -297 61t-245 164t-164 245t-61 297t61 297t164 245
t245 164t297 61t297 -61t245 -164t164 -245t61 -297t-61 -297t-164 -245t-245 -164t-297 -61z" />
    <glyph glyph-name="greater.uc.whitecircle" unicode="&#x3e;&#x20dd;" 
d="M1094 754v-72l-463 -253v100l350 189v4l-350 193v102zM837 55q181 0 333 89t239.5 242t87.5 334t-87.5 334t-239.5 242t-333 89t-333 -89t-239.5 -242t-87.5 -334t87.5 -334t239.5 -242t333 -89zM837 -46q-155 0 -297 61t-245 164t-164 245t-61 297t61 297t164 245
t245 164t297 61t297 -61t245 -164t164 -245t61 -297t-61 -297t-164 -245t-245 -164t-297 -61z" />
    <glyph glyph-name="less.uc.whitecircle" unicode="&#x3c;&#x20dd;" 
d="M581 682v72l462 263v-102l-350 -193v-4l350 -189v-100zM837 55q181 0 333 89t239.5 242t87.5 334t-87.5 334t-239.5 242t-333 89t-333 -89t-239.5 -242t-87.5 -334t87.5 -334t239.5 -242t333 -89zM837 -46q-155 0 -297 61t-245 164t-164 245t-61 297t61 297t164 245
t245 164t297 61t297 -61t245 -164t164 -245t61 -297t-61 -297t-164 -245t-245 -164t-297 -61z" />
    <glyph glyph-name="numbersign.whitecircle" unicode="&#x23;&#x20dd;" 
d="M1118 812h-115l-33 -155h109l-16 -74h-109l-41 -196h-81l42 196h-145l-42 -196h-81l41 196h-111l15 74h112l33 155h-106l15 74h108l39 190h81l-40 -190h145l40 190h80l-39 -190h114zM774 815l-35 -165h154l35 165h-154zM837 55q181 0 333 89t239.5 242t87.5 334
t-87.5 334t-239.5 242t-333 89t-333 -89t-239.5 -242t-87.5 -334t87.5 -334t239.5 -242t333 -89zM837 -46q-155 0 -297 61t-245 164t-164 245t-61 297t61 297t164 245t245 164t297 61t297 -61t245 -164t164 -245t61 -297t-61 -297t-164 -245t-245 -164t-297 -61z" />
    <glyph glyph-name="uni25BC.whitecircle" unicode="&#x25bc;&#x20dd;" 
d="M1129 924l-292 -494l-292 494h584zM837 55q181 0 333 89t239.5 242t87.5 334t-87.5 334t-239.5 242t-333 89t-333 -89t-239.5 -242t-87.5 -334t87.5 -334t239.5 -242t333 -89zM837 -46q-155 0 -297 61t-245 164t-164 245t-61 297t61 297t164 245t245 164t297 61t297 -61
t245 -164t164 -245t61 -297t-61 -297t-164 -245t-245 -164t-297 -61z" />
    <glyph glyph-name="uni25B2.whitecircle" unicode="&#x25b2;&#x20dd;" 
d="M1129 525h-584l292 494zM837 55q181 0 333 89t239.5 242t87.5 334t-87.5 334t-239.5 242t-333 89t-333 -89t-239.5 -242t-87.5 -334t87.5 -334t239.5 -242t333 -89zM837 -46q-155 0 -297 61t-245 164t-164 245t-61 297t61 297t164 245t245 164t297 61t297 -61t245 -164
t164 -245t61 -297t-61 -297t-164 -245t-245 -164t-297 -61z" />
    <glyph glyph-name="uni25C0.whitecircle" unicode="&#x25c0;&#x20dd;" 
d="M1031 433l-494 292l494 292v-584zM837 55q181 0 333 89t239.5 242t87.5 334t-87.5 334t-239.5 242t-333 89t-333 -89t-239.5 -242t-87.5 -334t87.5 -334t239.5 -242t333 -89zM837 -46q-155 0 -297 61t-245 164t-164 245t-61 297t61 297t164 245t245 164t297 61t297 -61
t245 -164t164 -245t61 -297t-61 -297t-164 -245t-245 -164t-297 -61z" />
    <glyph glyph-name="uni25B6.whitecircle" unicode="&#x25b6;&#x20dd;" 
d="M643 433v584l494 -292zM837 55q181 0 333 89t239.5 242t87.5 334t-87.5 334t-239.5 242t-333 89t-333 -89t-239.5 -242t-87.5 -334t87.5 -334t239.5 -242t333 -89zM837 -46q-155 0 -297 61t-245 164t-164 245t-61 297t61 297t164 245t245 164t297 61t297 -61t245 -164
t164 -245t61 -297t-61 -297t-164 -245t-245 -164t-297 -61z" />
    <glyph glyph-name="question.whitecircle" unicode="&#x3f;&#x20dd;" 
d="M749 449q0 30 21.5 49t53.5 19q34 0 55.5 -19t21.5 -49q0 -28 -22 -47t-55 -19q-32 0 -53.5 19t-21.5 47zM774 604v36q-2 50 21.5 86.5t72.5 70.5t68.5 58t19.5 60q0 47 -34.5 73.5t-87.5 26.5q-57 0 -90 -33.5t-34 -83.5h-95q-1 95 64 145.5t160 50.5q94 0 156.5 -46.5
t62.5 -127.5q0 -56 -26.5 -92t-79.5 -73q-51 -36 -68 -58.5t-17 -61.5v-31h-93zM837 55q181 0 333 89t239.5 242t87.5 334t-87.5 334t-239.5 242t-333 89t-333 -89t-239.5 -242t-87.5 -334t87.5 -334t239.5 -242t333 -89zM837 -46q-155 0 -297 61t-245 164t-164 245t-61 297
t61 297t164 245t245 164t297 61t297 -61t245 -164t164 -245t61 -297t-61 -297t-164 -245t-245 -164t-297 -61z" />
    <glyph glyph-name="exclam.whitecircle" unicode="&#x21;&#x20dd;" 
d="M761 449q0 30 21.5 49.5t54.5 19.5q34 0 55.5 -19.5t21.5 -49.5q0 -28 -22 -47t-55 -19q-34 0 -55 18.5t-21 47.5zM783 1079h109l-11 -455h-88zM837 55q181 0 333 89t239.5 242t87.5 334t-87.5 334t-239.5 242t-333 89t-333 -89t-239.5 -242t-87.5 -334t87.5 -334
t239.5 -242t333 -89zM837 -46q-155 0 -297 61t-245 164t-164 245t-61 297t61 297t164 245t245 164t297 61t297 -61t245 -164t164 -245t61 -297t-61 -297t-164 -245t-245 -164t-297 -61z" />
    <glyph glyph-name="uni2717.whitecircle" unicode="&#x2717;&#x20dd;" 
d="M840 791l266 265l66 -65l-265 -266l265 -267l-66 -66l-266 265l-266 -265l-67 66l265 267l-266 266l66 67zM837 55q181 0 333 89t239.5 242t87.5 334t-87.5 334t-239.5 242t-333 89t-333 -89t-239.5 -242t-87.5 -334t87.5 -334t239.5 -242t333 -89zM837 -46
q-155 0 -297 61t-245 164t-164 245t-61 297t61 297t164 245t245 164t297 61t297 -61t245 -164t164 -245t61 -297t-61 -297t-164 -245t-245 -164t-297 -61z" />
    <glyph glyph-name="uni2713.whitecircle" unicode="&#x2713;&#x20dd;" 
d="M1255 960l-541 -540l-283 283l70 70l213 -214l470 472zM837 55q181 0 333 89t239.5 242t87.5 334t-87.5 334t-239.5 242t-333 89t-333 -89t-239.5 -242t-87.5 -334t87.5 -334t239.5 -242t333 -89zM837 -46q-155 0 -297 61t-245 164t-164 245t-61 297t61 297t164 245
t245 164t297 61t297 -61t245 -164t164 -245t61 -297t-61 -297t-164 -245t-245 -164t-297 -61z" />
    <glyph glyph-name="zero.whitesquare" unicode="&#x30;&#x20de;" 
d="M837 461q73 0 117 72.5t44 197.5q0 124 -44 197t-117 73t-117 -73t-44 -197q0 -125 44 -197.5t117 -72.5zM837 373q-116 0 -187.5 96t-71.5 262q0 165 71.5 261t187.5 96t187.5 -96t71.5 -261q0 -166 -71.5 -262t-187.5 -96zM336 1462h1002q101 0 169.5 -68t68.5 -168
v-1009q0 -100 -68.5 -167.5t-169.5 -67.5h-1002q-101 0 -170 67.5t-69 167.5v1009q0 100 69 168t170 68zM1475 1225q0 62 -41.5 103t-105.5 41h-982q-64 0 -105.5 -40.5t-41.5 -103.5v-1006q0 -63 41.5 -103.5t105.5 -40.5h982q64 0 105.5 40.5t41.5 103.5v1006z" />
    <glyph glyph-name="one.whitesquare" unicode="&#x31;&#x20de;" 
d="M925 390h-103v589h-5l-170 -114v95l175 119h103v-689zM336 1462h1002q101 0 169.5 -68t68.5 -168v-1009q0 -100 -68.5 -167.5t-169.5 -67.5h-1002q-101 0 -170 67.5t-69 167.5v1009q0 100 69 168t170 68zM1475 1225q0 62 -41.5 103t-105.5 41h-982q-64 0 -105.5 -40.5
t-41.5 -103.5v-1006q0 -63 41.5 -103.5t105.5 -40.5h982q64 0 105.5 40.5t41.5 103.5v1006z" />
    <glyph glyph-name="two.whitesquare" unicode="&#x32;&#x20de;" 
d="M702 884h-99v5q0 83 63.5 143t171.5 60q103 0 166 -53t63 -136q0 -57 -29 -102.5t-93 -113.5l-193 -209v-5h331v-83h-473v64l272 289q41 44 62 78.5t21 74.5q0 51 -36.5 83t-92.5 32q-60 0 -97 -35t-37 -87v-5zM336 1462h1002q101 0 169.5 -68t68.5 -168v-1009
q0 -100 -68.5 -167.5t-169.5 -67.5h-1002q-101 0 -170 67.5t-69 167.5v1009q0 100 69 168t170 68zM1475 1225q0 62 -41.5 103t-105.5 41h-982q-64 0 -105.5 -40.5t-41.5 -103.5v-1006q0 -63 41.5 -103.5t105.5 -40.5h982q64 0 105.5 40.5t41.5 103.5v1006z" />
    <glyph glyph-name="three.whitesquare" unicode="&#x33;&#x20de;" 
d="M759 706v79h78q56 0 93.5 33.5t37.5 83.5q-1 49 -38 80t-95 31q-55 0 -92.5 -29t-40.5 -71h-96q2 77 65 128t166 51t167 -49.5t66 -126.5q1 -65 -41.5 -109.5t-94.5 -53.5v-5q62 -7 110 -51t49 -117q1 -91 -73 -147t-185 -56q-107 0 -173.5 52t-71.5 129h96q4 -43 46 -72
t103 -30q69 0 112.5 35.5t43.5 91.5q-2 54 -43.5 88.5t-106.5 34.5h-82zM336 1462h1002q101 0 169.5 -68t68.5 -168v-1009q0 -100 -68.5 -167.5t-169.5 -67.5h-1002q-101 0 -170 67.5t-69 167.5v1009q0 100 69 168t170 68zM1475 1225q0 62 -41.5 103t-105.5 41h-982
q-64 0 -105.5 -40.5t-41.5 -103.5v-1006q0 -63 41.5 -103.5t105.5 -40.5h982q64 0 105.5 40.5t41.5 103.5v1006z" />
    <glyph glyph-name="four.whitesquare" unicode="&#x34;&#x20de;" 
d="M849 1079h151v-465h97v-82h-97v-142h-97v142h-350v84q35 61 83 136l124.5 191.5zM651 614h252v387h-6q-168 -248 -246 -383v-4zM336 1462h1002q101 0 169.5 -68t68.5 -168v-1009q0 -100 -68.5 -167.5t-169.5 -67.5h-1002q-101 0 -170 67.5t-69 167.5v1009q0 100 69 168
t170 68zM1475 1225q0 62 -41.5 103t-105.5 41h-982q-64 0 -105.5 -40.5t-41.5 -103.5v-1006q0 -63 41.5 -103.5t105.5 -40.5h982q64 0 105.5 40.5t41.5 103.5v1006z" />
    <glyph glyph-name="five.whitesquare" unicode="&#x35;&#x20de;" 
d="M596 557h96q9 -46 51 -72.5t97 -26.5q64 0 109.5 43t45.5 113q0 65 -44 105.5t-109 40.5q-91 0 -141 -76h-91l32 395h416v-82h-332l-19 -225h5q19 27 59.5 47t94.5 20q99 0 164.5 -61t65.5 -162q0 -107 -72.5 -173t-188.5 -66q-100 0 -167 51.5t-72 128.5zM336 1462h1002
q101 0 169.5 -68t68.5 -168v-1009q0 -100 -68.5 -167.5t-169.5 -67.5h-1002q-101 0 -170 67.5t-69 167.5v1009q0 100 69 168t170 68zM1475 1225q0 62 -41.5 103t-105.5 41h-982q-64 0 -105.5 -40.5t-41.5 -103.5v-1006q0 -63 41.5 -103.5t105.5 -40.5h982q64 0 105.5 40.5
t41.5 103.5v1006z" />
    <glyph glyph-name="six.whitesquare" unicode="&#x36;&#x20de;" 
d="M859 382q-56 0 -105.5 20t-90.5 60t-65 109t-24 159q0 172 77 270t211 98q97 0 165.5 -51t82.5 -133h-100q-14 44 -53.5 70t-94.5 26q-92 0 -141.5 -76t-48.5 -210h2q22 55 78 89.5t131 34.5q104 0 171.5 -64t67.5 -161q0 -105 -74.5 -173t-188.5 -68zM858 470
q69 0 117 43t48 105q0 64 -47 105t-118 41q-70 0 -118 -41t-48 -101q0 -64 48 -108t118 -44zM336 1462h1002q101 0 169.5 -68t68.5 -168v-1009q0 -100 -68.5 -167.5t-169.5 -67.5h-1002q-101 0 -170 67.5t-69 167.5v1009q0 100 69 168t170 68zM1475 1225q0 62 -41.5 103
t-105.5 41h-982q-64 0 -105.5 -40.5t-41.5 -103.5v-1006q0 -63 41.5 -103.5t105.5 -40.5h982q64 0 105.5 40.5t41.5 103.5v1006z" />
    <glyph glyph-name="seven.whitesquare" unicode="&#x37;&#x20de;" 
d="M607 1079h473v-85l-296 -604h-109l301 601v5h-369v83zM336 1462h1002q101 0 169.5 -68t68.5 -168v-1009q0 -100 -68.5 -167.5t-169.5 -67.5h-1002q-101 0 -170 67.5t-69 167.5v1009q0 100 69 168t170 68zM1475 1225q0 62 -41.5 103t-105.5 41h-982q-64 0 -105.5 -40.5
t-41.5 -103.5v-1006q0 -63 41.5 -103.5t105.5 -40.5h982q64 0 105.5 40.5t41.5 103.5v1006z" />
    <glyph glyph-name="eight.whitesquare" unicode="&#x38;&#x20de;" 
d="M838 452q70 0 116 37.5t46 94.5t-46 94t-116 37q-71 0 -117.5 -37.5t-46.5 -93.5q0 -57 46.5 -94.5t117.5 -37.5zM838 786q59 0 97.5 33t38.5 83q0 51 -38 83t-98 32t-98.5 -32t-38.5 -83q0 -50 38.5 -83t98.5 -33zM836 377q-117 0 -190 56t-73 146q0 63 42 111t108 62v4
q-56 17 -89 58.5t-33 96.5q0 79 66.5 130t170.5 51q103 0 169.5 -51t66.5 -130q0 -54 -33.5 -96.5t-88.5 -58.5v-4q66 -14 108 -61.5t42 -110.5q0 -90 -74 -146.5t-192 -56.5zM336 1462h1002q101 0 169.5 -68t68.5 -168v-1009q0 -100 -68.5 -167.5t-169.5 -67.5h-1002
q-101 0 -170 67.5t-69 167.5v1009q0 100 69 168t170 68zM1475 1225q0 62 -41.5 103t-105.5 41h-982q-64 0 -105.5 -40.5t-41.5 -103.5v-1006q0 -63 41.5 -103.5t105.5 -40.5h982q64 0 105.5 40.5t41.5 103.5v1006z" />
    <glyph glyph-name="nine.whitesquare" unicode="&#x39;&#x20de;" 
d="M836 382q-99 0 -167.5 50.5t-82.5 131.5h100q13 -44 52.5 -69.5t97.5 -25.5q89 0 139.5 74.5t49.5 212.5h-1q-20 -55 -77 -89.5t-131 -34.5q-104 0 -173 63.5t-69 161.5q0 104 75 172.5t189 68.5q54 0 102.5 -19t90.5 -58t66.5 -108.5t24.5 -162.5q0 -172 -76 -270
t-210 -98zM838 715q70 0 118.5 41.5t48.5 101.5q0 64 -48 107.5t-118 43.5t-117.5 -43t-47.5 -105q0 -63 46.5 -104.5t117.5 -41.5zM336 1462h1002q101 0 169.5 -68t68.5 -168v-1009q0 -100 -68.5 -167.5t-169.5 -67.5h-1002q-101 0 -170 67.5t-69 167.5v1009q0 100 69 168
t170 68zM1475 1225q0 62 -41.5 103t-105.5 41h-982q-64 0 -105.5 -40.5t-41.5 -103.5v-1006q0 -63 41.5 -103.5t105.5 -40.5h982q64 0 105.5 40.5t41.5 103.5v1006z" />
    <glyph glyph-name="plus.uc.whitesquare" unicode="&#x2b;&#x20de;" 
d="M880 689v-224h-87v224h-216v82h216v215h87v-215h216v-82h-216zM336 1462h1002q101 0 169.5 -68t68.5 -168v-1009q0 -100 -68.5 -167.5t-169.5 -67.5h-1002q-101 0 -170 67.5t-69 167.5v1009q0 100 69 168t170 68zM1475 1225q0 62 -41.5 103t-105.5 41h-982
q-64 0 -105.5 -40.5t-41.5 -103.5v-1006q0 -63 41.5 -103.5t105.5 -40.5h982q64 0 105.5 40.5t41.5 103.5v1006z" />
    <glyph glyph-name="minus.uc.whitesquare" unicode="&#x2212;&#x20de;" 
d="M1084 685h-494v84h494v-84zM336 1462h1002q101 0 169.5 -68t68.5 -168v-1009q0 -100 -68.5 -167.5t-169.5 -67.5h-1002q-101 0 -170 67.5t-69 167.5v1009q0 100 69 168t170 68zM1475 1225q0 62 -41.5 103t-105.5 41h-982q-64 0 -105.5 -40.5t-41.5 -103.5v-1006
q0 -63 41.5 -103.5t105.5 -40.5h982q64 0 105.5 40.5t41.5 103.5v1006z" />
    <glyph glyph-name="multiply.uc.whitesquare" unicode="&#xd7;&#x20de;" 
d="M838 786l162 157l62 -59l-162 -157l162 -158l-62 -58l-162 157l-164 -160l-62 59l165 160l-162 157l61 59zM336 1462h1002q101 0 169.5 -68t68.5 -168v-1009q0 -100 -68.5 -167.5t-169.5 -67.5h-1002q-101 0 -170 67.5t-69 167.5v1009q0 100 69 168t170 68zM1475 1225
q0 62 -41.5 103t-105.5 41h-982q-64 0 -105.5 -40.5t-41.5 -103.5v-1006q0 -63 41.5 -103.5t105.5 -40.5h982q64 0 105.5 40.5t41.5 103.5v1006z" />
    <glyph glyph-name="divide.uc.whitesquare" unicode="&#xf7;&#x20de;" 
d="M1084 690h-494v74h494v-74zM769 925q0 29 19 47.5t48 18.5q30 0 50.5 -18.5t20.5 -47.5q0 -27 -20.5 -45.5t-50.5 -18.5q-29 0 -48 18t-19 46zM769 531q0 28 19.5 47t48.5 19q30 0 50 -18.5t20 -47.5q0 -28 -20 -46t-50 -18q-29 0 -48.5 18t-19.5 46zM336 1462h1002
q101 0 169.5 -68t68.5 -168v-1009q0 -100 -68.5 -167.5t-169.5 -67.5h-1002q-101 0 -170 67.5t-69 167.5v1009q0 100 69 168t170 68zM1475 1225q0 62 -41.5 103t-105.5 41h-982q-64 0 -105.5 -40.5t-41.5 -103.5v-1006q0 -63 41.5 -103.5t105.5 -40.5h982q64 0 105.5 40.5
t41.5 103.5v1006z" />
    <glyph glyph-name="equal.uc.whitesquare" unicode="&#x3d;&#x20de;" 
d="M1074 582h-474v77h474v-77zM1074 795h-474v78h474v-78zM336 1462h1002q101 0 169.5 -68t68.5 -168v-1009q0 -100 -68.5 -167.5t-169.5 -67.5h-1002q-101 0 -170 67.5t-69 167.5v1009q0 100 69 168t170 68zM1475 1225q0 62 -41.5 103t-105.5 41h-982q-64 0 -105.5 -40.5
t-41.5 -103.5v-1006q0 -63 41.5 -103.5t105.5 -40.5h982q64 0 105.5 40.5t41.5 103.5v1006z" />
    <glyph glyph-name="greater.uc.whitesquare" unicode="&#x3e;&#x20de;" 
d="M1094 754v-72l-463 -253v100l350 189v4l-350 193v102zM336 1462h1002q101 0 169.5 -68t68.5 -168v-1009q0 -100 -68.5 -167.5t-169.5 -67.5h-1002q-101 0 -170 67.5t-69 167.5v1009q0 100 69 168t170 68zM1475 1225q0 62 -41.5 103t-105.5 41h-982q-64 0 -105.5 -40.5
t-41.5 -103.5v-1006q0 -63 41.5 -103.5t105.5 -40.5h982q64 0 105.5 40.5t41.5 103.5v1006z" />
    <glyph glyph-name="less.uc.whitesquare" unicode="&#x3c;&#x20de;" 
d="M581 682v72l462 263v-102l-350 -193v-4l350 -189v-100zM336 1462h1002q101 0 169.5 -68t68.5 -168v-1009q0 -100 -68.5 -167.5t-169.5 -67.5h-1002q-101 0 -170 67.5t-69 167.5v1009q0 100 69 168t170 68zM1475 1225q0 62 -41.5 103t-105.5 41h-982q-64 0 -105.5 -40.5
t-41.5 -103.5v-1006q0 -63 41.5 -103.5t105.5 -40.5h982q64 0 105.5 40.5t41.5 103.5v1006z" />
    <glyph glyph-name="numbersign.whitesquare" unicode="&#x23;&#x20de;" 
d="M1118 812h-115l-33 -155h109l-16 -74h-109l-41 -196h-81l42 196h-145l-42 -196h-81l41 196h-111l15 74h112l33 155h-106l15 74h108l39 190h81l-40 -190h145l40 190h80l-39 -190h114zM774 815l-35 -165h154l35 165h-154zM336 1462h1002q101 0 169.5 -68t68.5 -168v-1009
q0 -100 -68.5 -167.5t-169.5 -67.5h-1002q-101 0 -170 67.5t-69 167.5v1009q0 100 69 168t170 68zM1475 1225q0 62 -41.5 103t-105.5 41h-982q-64 0 -105.5 -40.5t-41.5 -103.5v-1006q0 -63 41.5 -103.5t105.5 -40.5h982q64 0 105.5 40.5t41.5 103.5v1006z" />
    <glyph glyph-name="uni25BC.whitesquare" unicode="&#x25bc;&#x20de;" 
d="M1130 924l-292 -494l-293 494h585zM336 1462h1002q101 0 169.5 -68t68.5 -168v-1009q0 -100 -68.5 -167.5t-169.5 -67.5h-1002q-101 0 -170 67.5t-69 167.5v1009q0 100 69 168t170 68zM1475 1225q0 62 -41.5 103t-105.5 41h-982q-64 0 -105.5 -40.5t-41.5 -103.5v-1006
q0 -63 41.5 -103.5t105.5 -40.5h982q64 0 105.5 40.5t41.5 103.5v1006z" />
    <glyph glyph-name="uni25B2.whitesquare" unicode="&#x25b2;&#x20de;" 
d="M1129 525h-584l292 494zM336 1462h1002q101 0 169.5 -68t68.5 -168v-1009q0 -100 -68.5 -167.5t-169.5 -67.5h-1002q-101 0 -170 67.5t-69 167.5v1009q0 100 69 168t170 68zM1475 1225q0 62 -41.5 103t-105.5 41h-982q-64 0 -105.5 -40.5t-41.5 -103.5v-1006
q0 -63 41.5 -103.5t105.5 -40.5h982q64 0 105.5 40.5t41.5 103.5v1006z" />
    <glyph glyph-name="uni25C0.whitesquare" unicode="&#x25c0;&#x20de;" 
d="M1031 433l-494 292l494 292v-584zM336 1462h1002q101 0 169.5 -68t68.5 -168v-1009q0 -100 -68.5 -167.5t-169.5 -67.5h-1002q-101 0 -170 67.5t-69 167.5v1009q0 100 69 168t170 68zM1475 1225q0 62 -41.5 103t-105.5 41h-982q-64 0 -105.5 -40.5t-41.5 -103.5v-1006
q0 -63 41.5 -103.5t105.5 -40.5h982q64 0 105.5 40.5t41.5 103.5v1006z" />
    <glyph glyph-name="uni25B6.whitesquare" unicode="&#x25b6;&#x20de;" 
d="M643 433v584l494 -292zM336 1462h1002q101 0 169.5 -68t68.5 -168v-1009q0 -100 -68.5 -167.5t-169.5 -67.5h-1002q-101 0 -170 67.5t-69 167.5v1009q0 100 69 168t170 68zM1475 1225q0 62 -41.5 103t-105.5 41h-982q-64 0 -105.5 -40.5t-41.5 -103.5v-1006
q0 -63 41.5 -103.5t105.5 -40.5h982q64 0 105.5 40.5t41.5 103.5v1006z" />
    <glyph glyph-name="question.whitesquare" unicode="&#x3f;&#x20de;" 
d="M749 449q0 30 21.5 49t53.5 19q34 0 55.5 -19t21.5 -49q0 -28 -22 -47t-55 -19q-32 0 -53.5 19t-21.5 47zM615 898q-1 95 64 145.5t160 50.5q94 0 156.5 -46.5t62.5 -127.5q0 -56 -26.5 -92t-79.5 -73q-51 -36 -68 -58.5t-17 -61.5v-31h-93v36q-2 50 21.5 86.5t72.5 70.5
t68.5 58t19.5 60q0 47 -34.5 73.5t-87.5 26.5q-57 0 -90 -33.5t-34 -83.5h-95zM336 1462h1002q101 0 169.5 -68t68.5 -168v-1009q0 -100 -68.5 -167.5t-169.5 -67.5h-1002q-101 0 -170 67.5t-69 167.5v1009q0 100 69 168t170 68zM1475 1225q0 62 -41.5 103t-105.5 41h-982
q-64 0 -105.5 -40.5t-41.5 -103.5v-1006q0 -63 41.5 -103.5t105.5 -40.5h982q64 0 105.5 40.5t41.5 103.5v1006z" />
    <glyph glyph-name="exclam.whitesquare" unicode="&#x21;&#x20de;" 
d="M761 449q0 30 21.5 49.5t54.5 19.5q34 0 55.5 -19.5t21.5 -49.5q0 -28 -22 -47t-55 -19q-34 0 -55 18.5t-21 47.5zM783 1079h109l-11 -455h-88zM336 1462h1002q101 0 169.5 -68t68.5 -168v-1009q0 -100 -68.5 -167.5t-169.5 -67.5h-1002q-101 0 -170 67.5t-69 167.5v1009
q0 100 69 168t170 68zM1475 1225q0 62 -41.5 103t-105.5 41h-982q-64 0 -105.5 -40.5t-41.5 -103.5v-1006q0 -63 41.5 -103.5t105.5 -40.5h982q64 0 105.5 40.5t41.5 103.5v1006z" />
    <glyph glyph-name="uni2717.whitesquare" unicode="&#x2717;&#x20de;" 
d="M840 791l266 265l66 -65l-265 -266l265 -267l-66 -66l-266 265l-266 -265l-67 66l265 267l-266 266l66 67zM336 1462h1002q101 0 169.5 -68t68.5 -168v-1009q0 -100 -68.5 -167.5t-169.5 -67.5h-1002q-101 0 -170 67.5t-69 167.5v1009q0 100 69 168t170 68zM1475 1225
q0 62 -41.5 103t-105.5 41h-982q-64 0 -105.5 -40.5t-41.5 -103.5v-1006q0 -63 41.5 -103.5t105.5 -40.5h982q64 0 105.5 40.5t41.5 103.5v1006z" />
    <glyph glyph-name="uni2713.whitesquare" unicode="&#x2713;&#x20de;" 
d="M1255 960l-541 -540l-283 283l70 70l213 -214l470 472zM336 1462h1002q101 0 169.5 -68t68.5 -168v-1009q0 -100 -68.5 -167.5t-169.5 -67.5h-1002q-101 0 -170 67.5t-69 167.5v1009q0 100 69 168t170 68zM1475 1225q0 62 -41.5 103t-105.5 41h-982q-64 0 -105.5 -40.5
t-41.5 -103.5v-1006q0 -63 41.5 -103.5t105.5 -40.5h982q64 0 105.5 40.5t41.5 103.5v1006z" />
    <glyph glyph-name="plus.uc.blackcircle" unicode="&#x2b;&#x20dd;&#x25cf;" 
d="M890 682h232v98h-232v231h-106v-231h-232v-98h232v-241h106v241zM837 -46q-155 0 -297 61t-245 164t-164 245t-61 297t61 297t164 245t245 164t297 61t297 -61t245 -164t164 -245t61 -297t-61 -297t-164 -245t-245 -164t-297 -61z" />
    <glyph glyph-name="minus.uc.blackcircle" unicode="&#x2212;&#x20dd;&#x25cf;" 
d="M1108 678v100h-542v-100h542zM837 -46q-155 0 -297 61t-245 164t-164 245t-61 297t61 297t164 245t245 164t297 61t297 -61t245 -164t164 -245t61 -297t-61 -297t-164 -245t-245 -164t-297 -61z" />
    <glyph glyph-name="multiply.uc.blackcircle" unicode="&#xd7;&#x20dd;&#x25cf;" 
d="M835 796l-174 168l-75 -72l174 -169l-174 -168l75 -71l174 167l174 -167l74 71l-174 168l174 169l-74 72zM837 -46q-155 0 -297 61t-245 164t-164 245t-61 297t61 297t164 245t245 164t297 61t297 -61t245 -164t164 -245t61 -297t-61 -297t-164 -245t-245 -164t-297 -61z
" />
    <glyph glyph-name="divide.uc.blackcircle" unicode="&#xf7;&#x20dd;&#x25cf;" 
d="M757 942q0 -32 23 -53t56 -21q34 0 58 21.5t24 53.5q0 33 -23.5 55t-58.5 22q-33 0 -56 -22.5t-23 -55.5zM1108 682v91h-542v-91h542zM757 515q0 -33 23 -54t57 -21t57.5 21.5t23.5 53.5q0 33 -23.5 55t-57.5 22t-57 -22t-23 -55zM837 -46q-155 0 -297 61t-245 164
t-164 245t-61 297t61 297t164 245t245 164t297 61t297 -61t245 -164t164 -245t61 -297t-61 -297t-164 -245t-245 -164t-297 -61z" />
    <glyph glyph-name="equal.uc.blackcircle" unicode="&#x3d;&#x20dd;&#x25cf;" 
d="M1096 795v95h-518v-95h518zM1096 565v94h-518v-94h518zM837 -46q-155 0 -297 61t-245 164t-164 245t-61 297t61 297t164 245t245 164t297 61t297 -61t245 -164t164 -245t61 -297t-61 -297t-164 -245t-245 -164t-297 -61z" />
    <glyph glyph-name="greater.uc.blackcircle" unicode="&#x3e;&#x20dd;&#x25cf;" 
d="M1113 760l-508 288v-119l379 -209v-2l-379 -201v-119l508 277v85zM837 -46q-155 0 -297 61t-245 164t-164 245t-61 297t61 297t164 245t245 164t297 61t297 -61t245 -164t164 -245t61 -297t-61 -297t-164 -245t-245 -164t-297 -61z" />
    <glyph glyph-name="less.uc.blackcircle" unicode="&#x3c;&#x20dd;&#x25cf;" 
d="M555 675l508 -277v119l-378 201v2l378 209v119l-508 -288v-85zM837 -46q-155 0 -297 61t-245 164t-164 245t-61 297t61 297t164 245t245 164t297 61t297 -61t245 -164t164 -245t61 -297t-61 -297t-164 -245t-245 -164t-297 -61z" />
    <glyph glyph-name="numbersign.blackcircle" unicode="&#x23;&#x20dd;&#x25cf;" 
d="M773 818h156l-36 -169h-156zM1143 815l18 89h-122l43 203h-98l-42 -203h-146l43 203h-98l-42 -203h-117l-18 -89h115l-33 -158h-121l-18 -91h119l-44 -210h98l44 210h147l-45 -210h98l44 210h116l19 91h-116l33 158h123zM837 -46q-155 0 -297 61t-245 164t-164 245
t-61 297t61 297t164 245t245 164t297 61t297 -61t245 -164t164 -245t61 -297t-61 -297t-164 -245t-245 -164t-297 -61z" />
    <glyph glyph-name="uni25BC.blackcircle" unicode="&#x25bc;&#x20dd;&#x25cf;" 
d="M1156 952h-637l318 -540zM837 -46q-155 0 -297 61t-245 164t-164 245t-61 297t61 297t164 245t245 164t297 61t297 -61t245 -164t164 -245t61 -297t-61 -297t-164 -245t-245 -164t-297 -61z" />
    <glyph glyph-name="uni25B2.blackcircle" unicode="&#x25b2;&#x20dd;&#x25cf;" 
d="M1156 508l-319 539l-318 -539h637zM837 -46q-155 0 -297 61t-245 164t-164 245t-61 297t61 297t164 245t245 164t297 61t297 -61t245 -164t164 -245t61 -297t-61 -297t-164 -245t-245 -164t-297 -61z" />
    <glyph glyph-name="uni25C0.blackcircle" unicode="&#x25c0;&#x20dd;&#x25cf;" 
d="M1054 412v636l-540 -318zM837 -46q-155 0 -297 61t-245 164t-164 245t-61 297t61 297t164 245t245 164t297 61t297 -61t245 -164t164 -245t61 -297t-61 -297t-164 -245t-245 -164t-297 -61z" />
    <glyph glyph-name="uni25B6.blackcircle" unicode="&#x25b6;&#x20dd;&#x25cf;" 
d="M620 412l540 318l-540 318v-636zM837 -46q-155 0 -297 61t-245 164t-164 245t-61 297t61 297t164 245t245 164t297 61t297 -61t245 -164t164 -245t61 -297t-61 -297t-164 -245t-245 -164t-297 -61z" />
    <glyph glyph-name="question.blackcircle" unicode="&#x3f;&#x20dd;&#x25cf;" 
d="M733 427q0 -34 24.5 -56t62.5 -22q39 0 64 22.5t25 55.5q0 35 -25 57t-64 22q-37 0 -62 -22.5t-25 -56.5zM761 591h110v37q0 41 17.5 64t71.5 61q38 27 60.5 48.5t39.5 56.5t17 77q0 88 -69.5 140t-171.5 52q-104 0 -175 -55t-71 -161v-3h112q2 55 36 89.5t93 34.5
q53 0 89.5 -27t36.5 -75q0 -37 -21.5 -63t-71.5 -60q-55 -38 -80.5 -77.5t-22.5 -94.5v-44zM837 -46q-155 0 -297 61t-245 164t-164 245t-61 297t61 297t164 245t245 164t297 61t297 -61t245 -164t164 -245t61 -297t-61 -297t-164 -245t-245 -164t-297 -61z" />
    <glyph glyph-name="exclam.blackcircle" unicode="&#x21;&#x20dd;&#x25cf;" 
d="M772 1111l12 -499h106l12 499h-130zM749 427q0 -33 25 -55t63 -22t63 22t25 55q0 34 -25 56.5t-63 22.5t-63 -22.5t-25 -56.5zM837 -46q-155 0 -297 61t-245 164t-164 245t-61 297t61 297t164 245t245 164t297 61t297 -61t245 -164t164 -245t61 -297t-61 -297t-164 -245
t-245 -164t-297 -61z" />
    <glyph glyph-name="uni2717.blackcircle" unicode="&#x2717;&#x20dd;&#x25cf;" 
d="M840 800l-289 290l-75 -74l288 -290l-287 -288l75 -75l288 288l288 -288l74 75l-288 288l288 288l-74 74zM837 -46q-155 0 -297 61t-245 164t-164 245t-61 297t61 297t164 245t245 164t297 61t297 -61t245 -164t164 -245t61 -297t-61 -297t-164 -245t-245 -164t-297 -61z
" />
    <glyph glyph-name="uni2713.blackcircle" unicode="&#x2713;&#x20dd;&#x25cf;" 
d="M703 395l588 588l-78 80l-511 -512l-228 230l-79 -79zM837 -46q-155 0 -297 61t-245 164t-164 245t-61 297t61 297t164 245t245 164t297 61t297 -61t245 -164t164 -245t61 -297t-61 -297t-164 -245t-245 -164t-297 -61z" />
    <glyph glyph-name="zero.blacksquare" unicode="&#x30;&#x20de;&#x25a0;" 
d="M834 441q-77 0 -121 77t-44 213q0 135 44 212.5t121 77.5t121 -77.5t44 -212.5q0 -136 -44 -213t-121 -77zM834 340q131 0 209 105.5t78 285.5q0 179 -78 284.5t-209 105.5q-130 0 -208.5 -105.5t-78.5 -284.5q0 -180 78.5 -285.5t208.5 -105.5zM336 1462h1002
q101 0 169.5 -68t68.5 -168v-1009q0 -100 -68.5 -167.5t-169.5 -67.5h-1002q-101 0 -170 67.5t-69 167.5v1009q0 100 69 168t170 68z" />
    <glyph glyph-name="one.blacksquare" unicode="&#x31;&#x20de;&#x25a0;" 
d="M937 360v751h-118l-190 -130v-114l186 126h2v-633h120zM336 1462h1002q101 0 169.5 -68t68.5 -168v-1009q0 -100 -68.5 -167.5t-169.5 -67.5h-1002q-101 0 -170 67.5t-69 167.5v1009q0 100 69 168t170 68z" />
    <glyph glyph-name="two.blacksquare" unicode="&#x32;&#x20de;&#x25a0;" 
d="M694 892v8q1 55 38.5 91.5t99.5 36.5q56 0 94.5 -33.5t38.5 -85.5q0 -43 -21.5 -79.5t-64.5 -82.5l-294 -313v-75h518v99h-354v1l216 231q63 69 92 117.5t29 108.5q0 91 -70.5 149.5t-181.5 58.5q-119 0 -187.5 -65.5t-69.5 -158.5v-8h117zM336 1462h1002
q101 0 169.5 -68t68.5 -168v-1009q0 -100 -68.5 -167.5t-169.5 -67.5h-1002q-101 0 -170 67.5t-69 167.5v1009q0 100 69 168t170 68z" />
    <glyph glyph-name="three.blacksquare" unicode="&#x33;&#x20de;&#x25a0;" 
d="M747 699h93q67 0 110 -36t44 -92q0 -58 -44.5 -94t-117.5 -36q-63 1 -107 32t-51 75h-112q5 -88 78 -145.5t191 -57.5q122 0 203.5 61.5t80.5 162.5q-2 79 -52 127.5t-115 55.5v1q54 12 98.5 60.5t43.5 117.5q-2 84 -73 139.5t-183 55.5q-113 -1 -181.5 -57.5
t-73.5 -143.5h114q5 45 43 75t96 30q61 0 99.5 -32.5t38.5 -82.5q0 -51 -38.5 -85.5t-97.5 -34.5h-87v-96zM336 1462h1002q101 0 169.5 -68t68.5 -168v-1009q0 -100 -68.5 -167.5t-169.5 -67.5h-1002q-101 0 -170 67.5t-69 167.5v1009q0 100 69 168t170 68z" />
    <glyph glyph-name="four.blacksquare" unicode="&#x34;&#x20de;&#x25a0;" 
d="M844 1111q-259 -395 -319 -502v-97h375v-152h116v152h104v98h-104v501h-172zM900 610h-259v2q88 150 258 401h1v-403zM336 1462h1002q101 0 169.5 -68t68.5 -168v-1009q0 -100 -68.5 -167.5t-169.5 -67.5h-1002q-101 0 -170 67.5t-69 167.5v1009q0 100 69 168t170 68z
" />
    <glyph glyph-name="five.blacksquare" unicode="&#x35;&#x20de;&#x25a0;" 
d="M569 547q5 -86 79 -143.5t184 -57.5q127 0 206 72t79 190q0 110 -72.5 177.5t-179.5 67.5q-56 0 -99 -20.5t-65 -49.5h-1q10 145 19 231h355v97h-455l-34 -434h106q51 80 148 80q68 0 113.5 -42.5t45.5 -110.5q0 -72 -47 -116.5t-113 -44.5q-57 0 -102 28.5t-54 75.5
h-113zM336 1462h1002q101 0 169.5 -68t68.5 -168v-1009q0 -100 -68.5 -167.5t-169.5 -67.5h-1002q-101 0 -170 67.5t-69 167.5v1009q0 100 69 168t170 68z" />
    <glyph glyph-name="six.blacksquare" unicode="&#x36;&#x20de;&#x25a0;" 
d="M864 349q125 0 207 74t82 189q0 106 -73 175.5t-187 69.5q-81 0 -141.5 -36t-84.5 -94h-3q1 141 53 220.5t149 79.5q59 0 101 -26t57 -73h117q-17 90 -92 146.5t-182 56.5q-148 0 -232 -107t-84 -294q0 -97 26 -172t70 -119.5t99 -67t118 -22.5zM862 452q-73 0 -124 46
t-51 113q0 64 51 107t126 43q74 0 123.5 -43.5t49.5 -110.5q0 -65 -51 -110t-124 -45zM336 1462h1002q101 0 169.5 -68t68.5 -168v-1009q0 -100 -68.5 -167.5t-169.5 -67.5h-1002q-101 0 -170 67.5t-69 167.5v1009q0 100 69 168t170 68z" />
    <glyph glyph-name="seven.blacksquare" unicode="&#x37;&#x20de;&#x25a0;" 
d="M582 1111v-100h395v-2l-328 -649h129l322 652v99h-518zM336 1462h1002q101 0 169.5 -68t68.5 -168v-1009q0 -100 -68.5 -167.5t-169.5 -67.5h-1002q-101 0 -170 67.5t-69 167.5v1009q0 100 69 168t170 68z" />
    <glyph glyph-name="eight.blacksquare" unicode="&#x38;&#x20de;&#x25a0;" 
d="M835 796q-62 0 -101.5 33.5t-39.5 85.5q0 53 39.5 86t101.5 33t101.5 -33.5t39.5 -85.5t-40 -85.5t-101 -33.5zM835 436q-74 0 -122 39t-48 98t48.5 97.5t121.5 38.5t121 -38.5t48 -97.5t-48 -98t-121 -39zM835 345q128 0 208.5 61.5t80.5 160.5q0 68 -44 119.5
t-117 67.5v1q61 19 95.5 65t34.5 106q0 88 -72 144t-186 56t-186 -56t-72 -144q0 -60 34.5 -105.5t95.5 -65.5v-1q-73 -16 -117 -67.5t-44 -119.5q0 -99 80.5 -160.5t208.5 -61.5zM336 1462h1002q101 0 169.5 -68t68.5 -168v-1009q0 -100 -68.5 -167.5t-169.5 -67.5h-1002
q-101 0 -170 67.5t-69 167.5v1009q0 100 69 168t170 68z" />
    <glyph glyph-name="nine.blacksquare" unicode="&#x39;&#x20de;&#x25a0;" 
d="M838 349q147 0 231 107t84 293q0 101 -27 177t-72.5 119.5t-99 64.5t-113.5 21q-126 0 -208 -74.5t-82 -189.5q0 -107 75.5 -176t188.5 -69q79 0 139.5 36.5t83.5 94.5h2q1 -144 -52.5 -222.5t-149.5 -78.5q-60 0 -102.5 26t-56.5 71h-117q16 -88 92 -144t184 -56z
M841 720q-76 0 -125 43t-49 109q0 65 50.5 110t124.5 45t124.5 -45.5t50.5 -112.5q0 -64 -50.5 -106.5t-125.5 -42.5zM336 1462h1002q101 0 169.5 -68t68.5 -168v-1009q0 -100 -68.5 -167.5t-169.5 -67.5h-1002q-101 0 -170 67.5t-69 167.5v1009q0 100 69 168t170 68z" />
    <glyph glyph-name="plus.uc.blacksquare" unicode="&#x2b;&#x20de;&#x25a0;" 
d="M890 682h232v98h-232v231h-106v-231h-232v-98h232v-241h106v241zM336 1462h1002q101 0 169.5 -68t68.5 -168v-1009q0 -100 -68.5 -167.5t-169.5 -67.5h-1002q-101 0 -170 67.5t-69 167.5v1009q0 100 69 168t170 68z" />
    <glyph glyph-name="minus.uc.blacksquare" unicode="&#x2212;&#x20de;&#x25a0;" 
d="M1108 678v100h-542v-100h542zM336 1462h1002q101 0 169.5 -68t68.5 -168v-1009q0 -100 -68.5 -167.5t-169.5 -67.5h-1002q-101 0 -170 67.5t-69 167.5v1009q0 100 69 168t170 68z" />
    <glyph glyph-name="multiply.uc.blacksquare" unicode="&#xd7;&#x20de;&#x25a0;" 
d="M835 796l-174 168l-75 -72l174 -169l-174 -168l75 -71l174 167l174 -167l74 71l-174 168l174 169l-74 72zM336 1462h1002q101 0 169.5 -68t68.5 -168v-1009q0 -100 -68.5 -167.5t-169.5 -67.5h-1002q-101 0 -170 67.5t-69 167.5v1009q0 100 69 168t170 68z" />
    <glyph glyph-name="divide.uc.blacksquare" unicode="&#xf7;&#x20de;&#x25a0;" 
d="M757 942q0 -32 23 -53t56 -21q34 0 58 21.5t24 53.5q0 33 -23.5 55t-58.5 22q-33 0 -56 -22.5t-23 -55.5zM1108 682v91h-542v-91h542zM757 515q0 -33 23 -54t57 -21t57.5 21.5t23.5 53.5q0 33 -23.5 55t-57.5 22t-57 -22t-23 -55zM336 1462h1002q101 0 169.5 -68
t68.5 -168v-1009q0 -100 -68.5 -167.5t-169.5 -67.5h-1002q-101 0 -170 67.5t-69 167.5v1009q0 100 69 168t170 68z" />
    <glyph glyph-name="equal.uc.blacksquare" unicode="&#x3d;&#x20de;&#x25a0;" 
d="M1096 795v95h-518v-95h518zM1096 565v94h-518v-94h518zM336 1462h1002q101 0 169.5 -68t68.5 -168v-1009q0 -100 -68.5 -167.5t-169.5 -67.5h-1002q-101 0 -170 67.5t-69 167.5v1009q0 100 69 168t170 68z" />
    <glyph glyph-name="greater.uc.blacksquare" unicode="&#x3e;&#x20de;&#x25a0;" 
d="M1113 760l-508 288v-119l379 -209v-2l-379 -201v-119l508 277v85zM336 1462h1002q101 0 169.5 -68t68.5 -168v-1009q0 -100 -68.5 -167.5t-169.5 -67.5h-1002q-101 0 -170 67.5t-69 167.5v1009q0 100 69 168t170 68z" />
    <glyph glyph-name="less.uc.blacksquare" unicode="&#x3c;&#x20de;&#x25a0;" 
d="M555 675l508 -277v119l-183.5 98.5t-194.5 102.5v2l378 209v119l-508 -288v-85zM336 1462h1002q101 0 169.5 -68t68.5 -168v-1009q0 -100 -68.5 -167.5t-169.5 -67.5h-1002q-101 0 -170 67.5t-69 167.5v1009q0 100 69 168t170 68z" />
    <glyph glyph-name="numbersign.blacksquare" unicode="&#x23;&#x20de;&#x25a0;" 
d="M773 818h156l-36 -169h-156zM1143 815l18 89h-122l43 203h-98l-42 -203h-146l43 203h-98l-42 -203h-117l-18 -89h115l-33 -158h-121l-18 -91h119l-44 -210h98l44 210h147l-45 -210h98l44 210h116l19 91h-116l33 158h123zM336 1462h1002q101 0 169.5 -68t68.5 -168v-1009
q0 -100 -68.5 -167.5t-169.5 -67.5h-1002q-101 0 -170 67.5t-69 167.5v1009q0 100 69 168t170 68z" />
    <glyph glyph-name="uni25BC.blacksquare" unicode="&#x25bc;&#x20de;&#x25a0;" 
d="M1156 949h-637l318 -541zM336 1462h1002q101 0 169.5 -68t68.5 -168v-1009q0 -100 -68.5 -167.5t-169.5 -67.5h-1002q-101 0 -170 67.5t-69 167.5v1009q0 100 69 168t170 68z" />
    <glyph glyph-name="uni25B2.blacksquare" unicode="&#x25b2;&#x20de;&#x25a0;" 
d="M1156 508l-319 539l-318 -539h637zM336 1462h1002q101 0 169.5 -68t68.5 -168v-1009q0 -100 -68.5 -167.5t-169.5 -67.5h-1002q-101 0 -170 67.5t-69 167.5v1009q0 100 69 168t170 68z" />
    <glyph glyph-name="uni25C0.blacksquare" unicode="&#x25c0;&#x20de;&#x25a0;" 
d="M1054 412v636l-540 -318zM336 1462h1002q101 0 169.5 -68t68.5 -168v-1009q0 -100 -68.5 -167.5t-169.5 -67.5h-1002q-101 0 -170 67.5t-69 167.5v1009q0 100 69 168t170 68z" />
    <glyph glyph-name="uni25B6.blacksquare" unicode="&#x25b6;&#x20de;&#x25a0;" 
d="M620 412l540 318l-540 318v-636zM336 1462h1002q101 0 169.5 -68t68.5 -168v-1009q0 -100 -68.5 -167.5t-169.5 -67.5h-1002q-101 0 -170 67.5t-69 167.5v1009q0 100 69 168t170 68z" />
    <glyph glyph-name="question.blacksquare" unicode="&#x3f;&#x20de;&#x25a0;" 
d="M733 427q0 -34 24.5 -56t62.5 -22q39 0 64 22.5t25 55.5q0 35 -25 57t-64 22q-37 0 -62 -22.5t-25 -56.5zM836 1127q-104 0 -175 -55t-71 -161v-3h112q2 55 36 89.5t93 34.5q53 0 89.5 -27t36.5 -75q0 -37 -21.5 -63t-71.5 -60q-55 -38 -80.5 -77.5t-22.5 -94.5v-44h110
v37q0 41 17.5 64t71.5 61q38 27 60.5 48.5t39.5 56.5t17 77q0 88 -69.5 140t-171.5 52zM336 1462h1002q101 0 169.5 -68t68.5 -168v-1009q0 -100 -68.5 -167.5t-169.5 -67.5h-1002q-101 0 -170 67.5t-69 167.5v1009q0 100 69 168t170 68z" />
    <glyph glyph-name="exclam.blacksquare" unicode="&#x21;&#x20de;&#x25a0;" 
d="M772 1111l12 -499h106l12 499h-130zM749 427q0 -33 25 -55t63 -22t63 22t25 55q0 34 -25 56.5t-63 22.5t-63 -22.5t-25 -56.5zM336 1462h1002q101 0 169.5 -68t68.5 -168v-1009q0 -100 -68.5 -167.5t-169.5 -67.5h-1002q-101 0 -170 67.5t-69 167.5v1009q0 100 69 168
t170 68z" />
    <glyph glyph-name="uni2717.blacksquare" unicode="&#x2717;&#x20de;&#x25a0;" 
d="M476 1016l288 -290l-287 -288l75 -75l288 288l288 -288l74 75l-288 288l288 288l-74 74l-288 -288l-289 290zM336 1462h1002q101 0 169.5 -68t68.5 -168v-1009q0 -100 -68.5 -167.5t-169.5 -67.5h-1002q-101 0 -170 67.5t-69 167.5v1009q0 100 69 168t170 68z" />
    <glyph glyph-name="uni2713.blacksquare" unicode="&#x2713;&#x20de;&#x25a0;" 
d="M703 395l588 588l-78 80l-511 -512l-228 230l-79 -79zM336 1462h1002q101 0 169.5 -68t68.5 -168v-1009q0 -100 -68.5 -167.5t-169.5 -67.5h-1002q-101 0 -170 67.5t-69 167.5v1009q0 100 69 168t170 68z" />
    <glyph glyph-name=".notdef" horiz-adv-x="2048" 
d="M100 -494v308h1848v-308h-1848zM100 -67v308h1848v-308h-1848zM100 361v307h1848v-307h-1848zM100 788v307h1848v-307h-1848zM100 1215v308h1848v-308h-1848zM100 1642v308h1848v-308h-1848z" />
    <glyph glyph-name=".null" horiz-adv-x="0" 
 />
    <glyph glyph-name="nonmarkingreturn" horiz-adv-x="0" 
 />
    <glyph glyph-name="space" unicode=" " horiz-adv-x="419" 
 />
    <glyph glyph-name="exclam" unicode="!" horiz-adv-x="531" 
d="M196 1443h138l-8 -987h-121zM265 -9q-39 0 -66 27t-27 66q0 40 27 67t66 27q40 0 67 -27t27 -67q0 -39 -27 -66t-67 -27z" />
    <glyph glyph-name="quotedbl" unicode="&#x22;" horiz-adv-x="703" 
d="M246 955h-123v488h123v-488zM580 955h-123v488h123v-488z" />
    <glyph glyph-name="numbersign" unicode="#" horiz-adv-x="1236" 
d="M642 0l86 419h-365l-86 -419h-111l86 419h-249l22 111h251l78 395h-259l22 110h260l85 410h111l-84 -410h364l86 410h111l-85 -410h267l-21 -110h-268l-81 -395h277l-21 -111h-278l-86 -419h-112zM385 528h367l80 398h-367z" />
    <glyph glyph-name="dollar" unicode="$" horiz-adv-x="1218" 
d="M655 659v-521q153 9 233.5 79.5t80.5 178.5q0 98 -65.5 159t-223.5 98zM549 814l11 -3v493q-130 -12 -207.5 -81.5t-77.5 -163.5q0 -89 65.5 -149.5t208.5 -95.5zM655 789l46 -11q202 -48 301.5 -136t99.5 -237q0 -169 -126 -271.5t-321 -114.5v-175h-95v176
q-192 13 -320.5 120t-134.5 275h133q12 -115 94.5 -189.5t227.5 -86.5v543l-31 7q-194 47 -290.5 134.5t-96.5 227.5q0 156 117.5 257.5t300.5 114.5v167h95v-167q181 -12 301.5 -115.5t126.5 -260.5h-132q-9 109 -90 177.5t-206 79.5v-515z" />
    <glyph glyph-name="percent" unicode="%" horiz-adv-x="1526" 
d="M329 782q-129 0 -207 92.5t-78 244.5q0 154 78 246.5t207 92.5t206.5 -92.5t77.5 -246.5q0 -152 -77.5 -244.5t-206.5 -92.5zM329 874q83 0 133 67t50 178q0 112 -50 178.5t-133 66.5t-133.5 -66.5t-50.5 -178.5q0 -111 50 -178t134 -67zM336 0h-125l980 1443h124z
M1198 -14q-129 0 -207 92.5t-78 245.5t78 245.5t207 92.5t206.5 -92.5t77.5 -245.5t-77.5 -245.5t-206.5 -92.5zM1198 79q83 0 133 67t50 178t-50 178t-133 67t-133.5 -67t-50.5 -178t50 -178t134 -67z" />
    <glyph glyph-name="ampersand" unicode="&#x26;" horiz-adv-x="1372" 
d="M1184 0l-159 168q-92 -90 -217.5 -140.5t-257.5 -50.5q-208 0 -339.5 111.5t-131.5 287.5q0 242 279 391q9 4 27 13.5l32 17t17 8.5q-109 112 -152.5 189.5t-43.5 157.5q0 133 102.5 222.5t253.5 89.5q152 0 252 -88t100 -224q0 -108 -76 -196.5t-250 -178.5l397 -425
q93 158 93 401v58h127v-59q0 -291 -131 -491l250 -262h-172zM437 684q-117 -67 -170 -139.5t-53 -160.5q0 -128 96.5 -209.5t250.5 -81.5q106 0 211 44.5t171 117.5l-434 468q-41 -18 -72 -39zM545 856q145 72 209 141t64 151q0 90 -63.5 149t-160.5 59q-96 0 -161 -60.5
t-65 -149.5q0 -63 38.5 -126t138.5 -164z" />
    <glyph glyph-name="quotesingle" unicode="'" horiz-adv-x="369" 
d="M246 955h-123v488h123v-488z" />
    <glyph glyph-name="parenleft" unicode="(" horiz-adv-x="626" 
d="M191 569q0 521 277 874h115q-113 -137 -185 -383.5t-72 -490.5t72 -489.5t185 -383.5h-115q-277 353 -277 873z" />
    <glyph glyph-name="parenright" unicode=")" horiz-adv-x="626" 
d="M435 570q0 -521 -277 -874h-115q112 138 184.5 384t72.5 490q0 243 -72.5 489t-184.5 384h115q277 -353 277 -873z" />
    <glyph glyph-name="asterisk" unicode="*" horiz-adv-x="789" 
d="M649 924l-209 130l3 -236h-98l4 236l-211 -130l-45 81l212 126l-210 127l44 79l210 -128l-3 234h97l-3 -235l209 129l46 -79l-213 -127l214 -127z" />
    <glyph glyph-name="plus" unicode="+" horiz-adv-x="1218" 
d="M671 510v-434h-124v434h-409v124h409v434h124v-434h409v-124h-409z" />
    <glyph glyph-name="comma" unicode="," horiz-adv-x="509" 
d="M213 -276h-111l96 482h141z" />
    <glyph glyph-name="hyphen" unicode="&#x2011;" horiz-adv-x="874" 
d="M765 521h-656v124h656v-124z" />
    <glyph glyph-name="hyphen" unicode="-" horiz-adv-x="874" 
d="M765 521h-656v124h656v-124z" />
    <glyph glyph-name="period" unicode="." horiz-adv-x="509" 
d="M255 -9q-39 0 -66.5 27t-27.5 66q0 40 27.5 67t66.5 27t66 -27t27 -67q0 -39 -27 -66t-66 -27z" />
    <glyph glyph-name="slash" unicode="/" horiz-adv-x="626" 
d="M116 -304h-116l510 1747h116z" />
    <glyph glyph-name="zero" unicode="0" horiz-adv-x="1222" 
d="M611 -23q-245 0 -384 200.5t-139 544.5q0 342 140 543t383 201q244 0 383 -200.5t139 -542.5q0 -344 -139 -545t-383 -201zM611 97q181 0 283 168t102 457q0 287 -102.5 455t-282.5 168q-179 0 -282 -169t-103 -453q0 -290 102 -458t283 -168z" />
    <glyph glyph-name="one" unicode="1" horiz-adv-x="863" 
d="M485 0v1297h-4l-189 -127.5t-198 -132.5v139q18 11 192 132t197 135h134v-1443h-132z" />
    <glyph glyph-name="two" unicode="2" horiz-adv-x="1152" 
d="M115 1038q1 185 134.5 306.5t333.5 121.5q192 0 317.5 -115.5t125.5 -282.5q0 -117 -68 -229t-260 -310l-386 -403v-4h751v-122h-941v96l510 536q155 162 206.5 248t51.5 181q0 121 -86 203t-221 82q-143 0 -239 -87.5t-97 -220.5h-132z" />
    <glyph glyph-name="three" unicode="3" horiz-adv-x="1183" 
d="M399 689v117h168q144 0 235 77t91 197q0 119 -82.5 192.5t-226.5 73.5q-138 0 -231 -73.5t-101 -194.5h-132q13 174 141 281t323 107q202 0 324.5 -105.5t122.5 -263.5q0 -132 -83.5 -223t-224.5 -119v-4q163 -13 261.5 -108.5t98.5 -247.5q0 -182 -141 -300t-353 -118
q-215 0 -353.5 111.5t-145.5 285.5h132q6 -123 108.5 -200t258.5 -77t255 82.5t100 211.5q1 141 -98 219.5t-273 78.5h-174z" />
    <glyph glyph-name="four" unicode="4" horiz-adv-x="1213" 
d="M807 0v326h-732v125q222 373 665 994h200v-998h215v-121h-215v-326h-133zM213 451v-4h594v878h-2q-364 -504 -592 -874z" />
    <glyph glyph-name="five" unicode="5" horiz-adv-x="1186" 
d="M605 -23q-130 0 -237.5 51t-172.5 142t-74 206h134q14 -121 113 -199.5t239 -78.5q161 0 264.5 102.5t103.5 261.5q0 157 -102.5 260t-259.5 103q-111 0 -200 -49t-143 -142h-123l78 809h800v-122h-687l-57 -544h3q54 79 147 122.5t204 43.5q206 0 341.5 -135.5
t135.5 -342.5q0 -214 -143 -351t-364 -137z" />
    <glyph glyph-name="six" unicode="6" horiz-adv-x="1206" 
d="M629 -23q-65 0 -126.5 15t-123.5 47.5t-113 89t-90.5 132.5t-62 186.5t-22.5 243.5q0 363 145.5 569t402.5 206q180 0 307.5 -98t157.5 -261h-138q-29 110 -117 174t-211 64q-198 0 -306.5 -176.5t-108.5 -497.5h3q42 120 158 197t267 77q206 0 342.5 -136t136.5 -341
q0 -212 -142 -351.5t-359 -139.5zM628 99q152 0 257.5 106t105.5 259q0 155 -102.5 257.5t-259.5 102.5q-154 0 -260.5 -101.5t-106.5 -248.5q0 -158 105.5 -266.5t260.5 -108.5z" />
    <glyph glyph-name="seven" unicode="7" horiz-adv-x="1105" 
d="M213 0l669 1317v4h-803v122h940v-128l-661 -1315h-145z" />
    <glyph glyph-name="eight" unicode="8" horiz-adv-x="1211" 
d="M605 -23q-226 0 -370 117t-144 298q0 136 89 238t233 133v3q-124 34 -197 120.5t-73 202.5q0 164 130.5 270.5t331.5 106.5t331 -106.5t130 -270.5q0 -114 -72.5 -201t-196.5 -122v-3q144 -31 233 -133t89 -238q0 -182 -143.5 -298.5t-370.5 -116.5zM605 97
q166 0 270.5 85.5t104.5 217.5q0 130 -104.5 213t-270.5 83q-165 0 -270 -83t-105 -213q0 -132 104.5 -217.5t270.5 -85.5zM605 818q143 0 234.5 73t91.5 187q0 117 -90.5 193t-235.5 76q-144 0 -235 -76t-91 -193q0 -114 91.5 -187t234.5 -73z" />
    <glyph glyph-name="nine" unicode="9" horiz-adv-x="1206" 
d="M568 -23q-184 0 -312 98t-157 258h138q28 -110 116 -173t216 -63q189 0 302 169.5t112 507.5h-3q-41 -122 -159 -199t-266 -77q-206 0 -342.5 135.5t-136.5 338.5q0 214 142 354t359 140q54 0 106 -10t106 -34.5t101 -61.5t89 -94t72 -129.5t47 -170.5t17 -214
q0 -363 -145 -569t-402 -206zM577 619q155 0 261.5 102t106.5 248q0 157 -106 265.5t-261 108.5q-154 0 -259 -106t-105 -261q0 -152 103 -254.5t260 -102.5z" />
    <glyph glyph-name="colon" unicode=":" horiz-adv-x="509" 
d="M255 -9q-39 0 -66.5 27t-27.5 66q0 40 27.5 67t66.5 27t66 -27t27 -67q0 -39 -27 -66t-66 -27zM255 837q-39 0 -66.5 27t-27.5 66q0 40 27.5 67t66.5 27t66 -27t27 -67q0 -39 -27 -66t-66 -27z" />
    <glyph glyph-name="semicolon" unicode=";" horiz-adv-x="509" 
d="M255 837q-39 0 -66.5 27t-27.5 66q0 40 27.5 67t66.5 27t66 -27t27 -67q0 -39 -27 -66t-66 -27zM213 -276h-111l96 482h141z" />
    <glyph glyph-name="less" unicode="&#x3c;" horiz-adv-x="1218" 
d="M1080 942l-783 -362v-8l783 -368v-140l-942 449v117l942 450v-138z" />
    <glyph glyph-name="equal" unicode="=" horiz-adv-x="1218" 
d="M1066 298h-914v118h914v-118zM1066 728h-914v118h914v-118z" />
    <glyph glyph-name="greater" unicode="&#x3e;" horiz-adv-x="1218" 
d="M138 203l783 361v8l-783 369v139l942 -449v-116l-942 -451v139z" />
    <glyph glyph-name="question" unicode="?" horiz-adv-x="972" 
d="M58 1079q9 164 120.5 270.5t298.5 106.5q179 0 294.5 -102t115.5 -256q0 -108 -52.5 -190.5t-158.5 -150.5q-98 -63 -133 -115.5t-35 -136.5v-75h-133v94q-1 98 45 168t152 139q95 63 134.5 122t39.5 139q0 107 -77 176t-197 69t-197 -70t-87 -188h-130zM443 -9
q-39 0 -66 27t-27 66q0 40 27 67t66 27q40 0 67 -27t27 -67q0 -39 -27 -66t-67 -27z" />
    <glyph glyph-name="at" unicode="@" horiz-adv-x="1770" 
d="M878 906q-109 0 -174 -85t-65 -227q0 -141 64.5 -225.5t173.5 -84.5q111 0 177 86t66 229q0 141 -65 224t-177 83zM910 1434q231 0 413.5 -93t284.5 -263t102 -388q0 -240 -94 -381t-258 -141q-90 0 -153.5 50.5t-74.5 133.5h-7q-34 -86 -101.5 -131.5t-160.5 -45.5
q-155 0 -250.5 116.5t-95.5 305.5q0 184 96.5 300t249.5 116q87 0 156.5 -44t97.5 -117h7v141h116v-572q0 -70 36 -110.5t103 -40.5q102 0 163 112t61 310q0 286 -195 464.5t-505 178.5q-201 0 -362 -94t-251.5 -262t-90.5 -379q0 -225 94 -392.5t257 -254t373 -86.5
q221 0 332 44v-99q-127 -44 -333 -44q-243 0 -430.5 98.5t-295 289.5t-107.5 448q0 182 61 336.5t169 263t261 169.5t332 61z" />
    <glyph glyph-name="A" unicode="A" horiz-adv-x="1262" 
d="M1094 0l-160 442h-606l-160 -442h-145l540 1443h136l539 -1443h-144zM628 1274l-259 -714h524l-259 714h-6z" />
    <glyph glyph-name="B" unicode="B" horiz-adv-x="1205" 
d="M657 0h-522v1443h519q186 0 301 -98t115 -258q0 -120 -74.5 -212t-189.5 -113v-7q152 -18 245.5 -114.5t93.5 -244.5q0 -185 -130 -290.5t-358 -105.5zM271 1322v-520h314q164 0 255.5 71t91.5 199q0 118 -81.5 184t-225.5 66h-354zM271 121h367q176 0 271.5 73.5
t95.5 208.5t-99.5 208t-285.5 73h-349v-563z" />
    <glyph glyph-name="C" unicode="C" horiz-adv-x="1371" 
d="M720 -23q-295 0 -469 202.5t-174 545.5q0 339 174.5 540t468.5 201q151 0 277.5 -61t207.5 -171t100 -249h-137q-30 156 -155 255t-293 99q-230 0 -366.5 -166.5t-136.5 -447.5q0 -285 136.5 -453t367.5 -168q173 0 294 87t153 236h137q-38 -211 -194 -330.5t-391 -119.5
z" />
    <glyph glyph-name="D" unicode="D" horiz-adv-x="1364" 
d="M135 1443h468q324 0 504 -189.5t180 -531.5q0 -343 -179.5 -532.5t-504.5 -189.5h-468v1443zM272 1319v-1195h323q266 0 409.5 155t143.5 442q0 288 -143.5 443t-409.5 155h-323z" />
    <glyph glyph-name="E" unicode="E" horiz-adv-x="1104" 
d="M1006 124v-124h-871v1443h871v-124h-735v-519h698v-122h-698v-554h735z" />
    <glyph glyph-name="F" unicode="F" horiz-adv-x="1061" 
d="M271 0h-136v1443h856v-124h-720v-542h662v-122h-662v-655z" />
    <glyph glyph-name="G" unicode="G" horiz-adv-x="1409" 
d="M1324 586q0 -286 -159 -447.5t-440 -161.5q-293 0 -470.5 206t-177.5 547q0 335 176.5 535.5t471.5 200.5q227 0 388 -125t202 -332h-142q-44 154 -163.5 242t-284.5 88q-235 0 -371.5 -163.5t-136.5 -445.5q0 -286 138 -456t370 -170q209 0 336 123t127 327v51h-448v120
h584v-139z" />
    <glyph glyph-name="H" unicode="H" horiz-adv-x="1387" 
d="M1252 0h-137v677h-844v-677h-136v1443h136v-642h844v642h137v-1443z" />
    <glyph glyph-name="I" unicode="I" horiz-adv-x="406" 
d="M271 0h-136v1443h136v-1443z" />
    <glyph glyph-name="J" unicode="J" horiz-adv-x="987" 
d="M42 331h135q5 -104 77.5 -169t184.5 -65q132 0 204.5 78t72.5 222v1046h136v-1048q0 -199 -109.5 -312t-303.5 -113q-173 0 -284.5 101t-112.5 260z" />
    <glyph glyph-name="K" unicode="&#x212a;" horiz-adv-x="1209" 
d="M271 0h-136v1443h136v-748h8l686 748h173l-593 -638l652 -805h-175l-573 708l-178 -193v-515z" />
    <glyph glyph-name="K" unicode="K" horiz-adv-x="1209" 
d="M271 0h-136v1443h136v-748h8l686 748h173l-593 -638l652 -805h-175l-573 708l-178 -193v-515z" />
    <glyph glyph-name="L" unicode="L" horiz-adv-x="1052" 
d="M994 124v-124h-859v1443h136v-1319h723z" />
    <glyph glyph-name="M" unicode="M" horiz-adv-x="1660" 
d="M1525 0h-128v1184h-6l-502 -1184h-119l-501 1184h-6v-1184h-128v1443h157l535 -1269h6l534 1269h158v-1443z" />
    <glyph glyph-name="N" unicode="N" horiz-adv-x="1393" 
d="M270 0h-135v1443h135l846 -1205h7v1205h135v-1443h-132l-849 1206h-7v-1206z" />
    <glyph glyph-name="O" unicode="O" horiz-adv-x="1465" 
d="M732 1466q302 0 479 -201t177 -544t-177 -543.5t-479 -200.5t-478.5 200.5t-176.5 543.5t177 544t478 201zM732 1339q-237 0 -376 -167t-139 -451t139 -450.5t376 -166.5t376.5 167t139.5 450q0 284 -139.5 451t-376.5 167z" />
    <glyph glyph-name="P" unicode="P" horiz-adv-x="1150" 
d="M135 1443h491q207 0 335 -124t128 -325t-129 -325.5t-335 -124.5h-354v-544h-136v1443zM271 1321v-655h323q166 0 260.5 87t94.5 241t-94 240.5t-261 86.5h-323z" />
    <glyph glyph-name="Q" unicode="Q" horiz-adv-x="1465" 
d="M732 -23q-302 0 -478.5 200.5t-176.5 543.5t177 544t478 201q302 0 479 -201t177 -544q0 -213 -71.5 -375.5t-204.5 -256.5l188 -258h-154l-145 198q-122 -52 -269 -52zM732 104q102 0 190 34l-187 257h154l143 -196q104 77 159.5 211.5t55.5 310.5q0 284 -139 451
t-376 167t-376 -167t-139 -451q0 -283 139.5 -450t375.5 -167z" />
    <glyph glyph-name="R" unicode="R" horiz-adv-x="1193" 
d="M271 1321v-609h362q158 0 245 80t87 225q0 143 -89.5 223.5t-247.5 80.5h-357zM271 591v-591h-136v1443h509q211 0 336.5 -114.5t125.5 -307.5q0 -153 -82 -262t-227 -146l350 -613h-160l-332 591h-22h-362z" />
    <glyph glyph-name="S" unicode="S" horiz-adv-x="1181" 
d="M64 385h137q13 -129 123.5 -206.5t280.5 -77.5q163 0 267.5 78t104.5 201q0 103 -73.5 167t-238.5 102l-157 35q-213 47 -310 141t-97 245q0 174 139.5 285t353.5 111q211 0 350.5 -112.5t145.5 -286.5h-137q-11 124 -110 199.5t-252 75.5q-150 0 -250 -73t-100 -193
q0 -99 72 -162.5t231 -99.5l157 -36q222 -50 319 -139.5t97 -240.5q0 -192 -142 -306.5t-377 -114.5q-230 0 -376.5 112t-157.5 296z" />
    <glyph glyph-name="T" unicode="T" horiz-adv-x="1165" 
d="M651 0h-137v1319h-476v124h1090v-124h-477v-1319z" />
    <glyph glyph-name="U" unicode="U" horiz-adv-x="1386" 
d="M271 1443v-931q0 -184 113 -296t309 -112t309 112t113 296v931h137v-939q0 -236 -151 -381.5t-408 -145.5t-407.5 145.5t-150.5 381.5v939h136z" />
    <glyph glyph-name="V" unicode="V" horiz-adv-x="1262" 
d="M699 0h-136l-540 1443h145l460 -1273h6l461 1273h144z" />
    <glyph glyph-name="W" unicode="W" horiz-adv-x="1854" 
d="M923 1209l-355 -1209h-127l-397 1443h142l318 -1233h6l349 1233h136l348 -1233h7l317 1233h143l-398 -1443h-126l-355 1209h-8z" />
    <glyph glyph-name="X" unicode="X" horiz-adv-x="1263" 
d="M43 0l502 722v5l-497 716h164l421 -613h5l425 613h156l-506 -722v-4l499 -717h-164l-420 610h-5l-424 -610h-156z" />
    <glyph glyph-name="Y" unicode="Y" horiz-adv-x="1219" 
d="M678 0h-137v624l-517 819h156l427 -685h5l427 685h156l-517 -819v-624z" />
    <glyph glyph-name="Z" unicode="Z" horiz-adv-x="1224" 
d="M87 0v99l866 1214v6h-838v124h1011v-100l-864 -1213v-6h876v-124h-1051z" />
    <glyph glyph-name="bracketleft" unicode="[" horiz-adv-x="626" 
d="M204 1443h399v-106h-271v-1536h271v-105h-399v1747z" />
    <glyph glyph-name="backslash" unicode="\" horiz-adv-x="626" 
d="M510 -304l-510 1747h116l510 -1747h-116z" />
    <glyph glyph-name="bracketright" unicode="]" horiz-adv-x="626" 
d="M422 -304h-399v105h270v1537h-270v105h399v-1747z" />
    <glyph glyph-name="asciicircum" unicode="^" horiz-adv-x="789" 
d="M390 1275l-195 -410h-123l257 530h131l257 -530h-125l-194 410h-8z" />
    <glyph glyph-name="underscore" unicode="_" horiz-adv-x="819" 
d="M877 -222h-935v100h935v-100z" />
    <glyph glyph-name="grave" unicode="`" horiz-adv-x="1024" 
d="M572 1199l-226 301h147l186 -301h-107z" />
    <glyph glyph-name="a" unicode="a" horiz-adv-x="1014" 
d="M449 97q137 0 231 85t94 209v115l-308 -21q-123 -8 -189 -59.5t-66 -137.5q0 -85 66 -138t172 -53zM422 -17q-154 0 -249.5 84.5t-95.5 220.5q0 134 96.5 212t276.5 90l324 20v90q0 113 -68 176.5t-189 63.5q-114 0 -185.5 -53t-88.5 -148h-128q11 142 120.5 230
t284.5 88q178 0 282 -93t104 -252v-712h-126v198h-3q-43 -97 -141 -156t-214 -59z" />
    <glyph glyph-name="b" unicode="b" horiz-adv-x="1117" 
d="M614 -17q-123 0 -218.5 63.5t-142.5 173.5h-3v-220h-127v1443h133v-620h3q45 108 140 171t216 63q196 0 317.5 -147.5t121.5 -389.5t-121.5 -389.5t-318.5 -147.5zM589 940q-147 0 -240.5 -117t-93.5 -303q0 -187 93.5 -303.5t240.5 -116.5q150 0 239.5 114.5t89.5 305.5
t-89.5 305.5t-239.5 114.5z" />
    <glyph glyph-name="c" unicode="c" horiz-adv-x="1012" 
d="M960 711h-130q-22 101 -100.5 165t-196.5 64q-153 0 -244.5 -114t-91.5 -306q0 -194 92 -307t245 -113q116 0 194.5 60t101.5 162h131q-22 -150 -139.5 -244.5t-288.5 -94.5q-214 0 -342.5 144.5t-128.5 392.5q0 245 128.5 391t341.5 146q177 0 292.5 -100t135.5 -246z
" />
    <glyph glyph-name="d" unicode="d" horiz-adv-x="1119" 
d="M507 -17q-198 0 -321.5 148t-123.5 389q0 242 122.5 389.5t319.5 147.5q123 0 218.5 -63.5t137.5 -167.5h3v617h133v-1443h-126v220h-3q-45 -107 -141 -172t-219 -65zM530 940q-150 0 -241 -115t-91 -305t91 -305t241 -115q149 0 241.5 116t92.5 304t-92.5 304
t-241.5 116z" />
    <glyph glyph-name="e" unicode="e" horiz-adv-x="1040" 
d="M525 941q-139 0 -228.5 -96.5t-97.5 -251.5h642q-2 155 -89 251.5t-227 96.5zM833 295h131q-24 -137 -141.5 -224.5t-287.5 -87.5q-219 0 -346 143.5t-127 390.5q0 243 127 391.5t338 148.5q206 0 328 -140t122 -373v-56h-779v-8q0 -176 92 -278.5t248 -102.5
q115 0 194 54t101 142z" />
    <glyph glyph-name="f" unicode="f" horiz-adv-x="581" 
d="M167 0v930h-145v110h145v132q0 274 266 274q52 0 96 -8v-109q-37 7 -77 7q-153 0 -153 -167v-129h224v-110h-223v-930h-133z" />
    <glyph glyph-name="g" unicode="g" horiz-adv-x="1107" 
d="M525 107q150 0 242.5 114.5t92.5 301.5t-92.5 302t-242.5 115q-147 0 -237 -114.5t-90 -303.5q0 -188 90 -301.5t237 -113.5zM538 -385q-168 0 -286.5 82t-140.5 207h137q26 -78 105.5 -126.5t190.5 -48.5q145 0 230.5 77.5t85.5 205.5v209h-3q-43 -103 -138.5 -167
t-217.5 -64q-198 0 -318.5 146t-120.5 387q0 242 121 388t321 146q122 0 217.5 -64.5t142.5 -172.5h3v220h126v-1023q0 -182 -123.5 -292t-331.5 -110z" />
    <glyph glyph-name="h" unicode="h" horiz-adv-x="1082" 
d="M123 0v1443h133v-595h3q40 97 130 153t213 56q170 0 271 -105t101 -280v-672h-133v650q0 136 -73 212.5t-204 76.5q-140 0 -224 -90t-84 -237v-612h-133z" />
    <glyph glyph-name="i" unicode="i" horiz-adv-x="378" 
d="M123 0v1040h132v-1040h-132zM189 1256q-37 0 -63 25.5t-26 62.5t26 62.5t63 25.5t63 -25.5t26 -62.5t-26 -62.5t-63 -25.5z" />
    <glyph glyph-name="j" unicode="j" horiz-adv-x="378" 
d="M255 1040v-1106q0 -149 -72.5 -219t-226.5 -70q-31 0 -32 1v112h27q93 0 132.5 40t39.5 134v1108h132zM188 1256q-37 0 -63 25.5t-26 62.5t26 62.5t63 25.5t63 -25.5t26 -62.5t-26 -62.5t-63 -25.5z" />
    <glyph glyph-name="k" unicode="k" horiz-adv-x="957" 
d="M256 548l514 492h164l-467 -449l476 -591h-155l-416 510l-116 -107v-403h-133v1443h133v-895z" />
    <glyph glyph-name="l" unicode="l" horiz-adv-x="378" 
d="M123 0v1443h132v-1443h-132z" />
    <glyph glyph-name="m" unicode="m" horiz-adv-x="1621" 
d="M114 0v1040h125v-192h3q35 95 114 152t189 57q112 0 191.5 -59.5t109.5 -159.5h3q38 98 125.5 158.5t202.5 60.5q152 0 244 -94.5t92 -251.5v-711h-132v681q0 121 -64 189.5t-177 68.5q-115 0 -187.5 -79.5t-72.5 -204.5v-655h-133v693q0 111 -65.5 178.5t-172.5 67.5
q-115 0 -189 -84t-74 -216v-639h-132z" />
    <glyph glyph-name="n" unicode="n" horiz-adv-x="1062" 
d="M114 0v1040h125v-192h3q41 97 130.5 153t212.5 56q171 0 269.5 -103t98.5 -280v-674h-132v653q0 136 -71.5 211t-202.5 75q-135 0 -218 -89t-83 -234v-616h-132z" />
    <glyph glyph-name="o" unicode="o" horiz-adv-x="1072" 
d="M536 -17q-214 0 -344 145.5t-130 391.5t130.5 391.5t343.5 145.5q214 0 344 -145.5t130 -391.5t-130 -391.5t-344 -145.5zM536 100q155 0 247.5 112t92.5 308t-92.5 308t-247.5 112t-247 -112t-92 -308t92 -308t247 -112z" />
    <glyph glyph-name="p" unicode="p" horiz-adv-x="1107" 
d="M601 1057q198 0 320.5 -147.5t122.5 -389.5t-121.5 -389.5t-318.5 -147.5q-123 0 -217.5 63.5t-136.5 167.5h-4v-558h-132v1384h125v-220h4q44 106 139 171.5t219 65.5zM578 100q151 0 241 114.5t90 305.5q0 190 -90.5 305t-240.5 115q-148 0 -240 -116.5t-92 -303.5
q0 -188 92 -304t240 -116z" />
    <glyph glyph-name="q" unicode="q" horiz-adv-x="1110" 
d="M505 1057q125 0 220.5 -64.5t140.5 -172.5h4v220h126v-1384h-133v561h-3q-44 -106 -139.5 -170t-217.5 -64q-198 0 -319.5 147.5t-121.5 389.5t122 389.5t321 147.5zM527 100q148 0 242 116.5t94 303.5t-94 303.5t-242 116.5q-149 0 -239 -114.5t-90 -305.5t90 -305.5
t239 -114.5z" />
    <glyph glyph-name="r" unicode="r" horiz-adv-x="615" 
d="M114 0v1040h125v-185h3q29 95 98 148.5t165 53.5q38 0 82 -11v-130q-32 15 -99 15q-110 0 -176 -78t-66 -205v-648h-132z" />
    <glyph glyph-name="s" unicode="s" horiz-adv-x="927" 
d="M93 762q0 129 103.5 212t266.5 83q165 0 269 -87.5t113 -230.5h-127q-13 98 -80 153.5t-175 55.5q-106 0 -172.5 -50.5t-66.5 -128.5q0 -64 47 -105t150 -66l157 -37q155 -37 220.5 -101.5t65.5 -175.5q0 -132 -110.5 -216.5t-281.5 -84.5q-175 0 -285 86t-124 229h132
q15 -98 87.5 -152t189.5 -54t188 50t71 132q0 68 -43.5 108.5t-147.5 65.5l-156 37q-149 35 -220 102t-71 175z" />
    <glyph glyph-name="t" unicode="t" horiz-adv-x="582" 
d="M171 1300h132v-260h205v-110h-205v-668q0 -80 33 -116.5t105 -36.5q56 0 72 4v-113q-28 -6 -98 -6q-131 0 -187.5 60.5t-56.5 201.5v674h-155v110h155v260z" />
    <glyph glyph-name="u" unicode="u" horiz-adv-x="1062" 
d="M948 1040v-1040h-125v193h-3q-42 -97 -132.5 -153.5t-212.5 -56.5q-169 0 -268 102.5t-99 278.5v676h133v-653q0 -138 70.5 -212t201.5 -74q136 0 219.5 88t83.5 234v617h132z" />
    <glyph glyph-name="v" unicode="v" horiz-adv-x="946" 
d="M930 1040l-386 -1040h-141l-387 1040h140l316 -901h3l317 901h138z" />
    <glyph glyph-name="w" unicode="w" horiz-adv-x="1430" 
d="M1410 1040l-295 -1040h-140l-259 863h-3l-258 -863h-140l-296 1040h134l233 -892h3l259 892h134l259 -892h3l233 892h133z" />
    <glyph glyph-name="x" unicode="x" horiz-adv-x="921" 
d="M461 427h-3l-287 -427h-148l365 523l-361 517h150l285 -417h3l284 417h149l-363 -512l360 -528h-149z" />
    <glyph glyph-name="y" unicode="y" horiz-adv-x="951" 
d="M189 -376q-36 0 -66 6v113q24 -6 62 -6q72 0 115.5 40t78.5 138l27 78l-389 1047h142l316 -908h3l316 908h140l-409 -1103q-68 -183 -138 -248t-198 -65z" />
    <glyph glyph-name="z" unicode="z" horiz-adv-x="932" 
d="M80 0v98l619 829v3h-619v110h771v-100l-619 -827v-3h621v-110h-773z" />
    <glyph glyph-name="braceleft" unicode="{" horiz-adv-x="626" 
d="M148 569q112 -11 165.5 -67.5t53.5 -164.5v-297q0 -126 48 -180.5t155 -54.5h33v-109h-44q-164 0 -241 79.5t-77 249.5v259q0 121 -48 169t-170 48v157q122 0 170 48t48 170v240q0 170 76.5 248.5t241.5 78.5h44v-109h-33q-108 0 -155.5 -53t-47.5 -179v-279
q0 -108 -53.5 -164.5t-165.5 -67.5v-22z" />
    <glyph glyph-name="bar" unicode="|" horiz-adv-x="626" 
d="M370 -304h-114v1747h114v-1747z" />
    <glyph glyph-name="braceright" unicode="}" horiz-adv-x="626" 
d="M478 570q-113 11 -166 67t-53 165v296q0 126 -48 181t-155 55h-33v109h44q164 0 241 -79.5t77 -249.5v-259q0 -122 48 -169.5t170 -47.5v-157q-122 0 -170 -48t-48 -171v-240q0 -169 -76.5 -247.5t-241.5 -78.5h-44v109h33q108 0 155.5 53t47.5 179v278q0 109 53 165.5
t166 67.5v22z" />
    <glyph glyph-name="asciitilde" unicode="~" horiz-adv-x="1218" 
d="M824 397q-71 0 -126.5 29.5t-143.5 107.5q-56 50 -91.5 69t-72.5 19q-65 0 -104 -51.5t-43 -144.5h-120q0 155 77 237t190 82q68 0 124.5 -30.5t139.5 -107.5q57 -51 94 -69.5t75 -18.5q67 0 107.5 53.5t45.5 147.5h119q0 -154 -79.5 -238.5t-191.5 -84.5z" />
    <glyph glyph-name="nonbreakingspace" unicode="&#xa0;" horiz-adv-x="405" 
 />
    <glyph glyph-name="exclamdown" unicode="&#xa1;" horiz-adv-x="531" 
d="M196 -340l9 986h121l8 -986h-138zM265 927q-39 0 -66 27t-27 67t27 66.5t66 26.5q40 0 67 -26.5t27 -66.5t-27 -67t-67 -27z" />
    <glyph glyph-name="cent" unicode="&#xa2;" horiz-adv-x="1218" 
d="M588 295v854q-143 -18 -225.5 -131t-82.5 -296q0 -186 82.5 -297.5t225.5 -129.5zM963 524h131q-21 -145 -133.5 -240.5t-277.5 -107.5v-176h-95v177q-203 18 -322.5 163t-119.5 382q0 234 119.5 380.5t322.5 164.5v176h95v-176q170 -12 280 -113t130 -242h-130
q-21 98 -94 162.5t-186 75.5v-856q111 10 185 70.5t95 159.5z" />
    <glyph glyph-name="sterling" unicode="&#xa3;" horiz-adv-x="1218" 
d="M310 128h831v-118h-1054v117q140 22 216 121t76 230q0 70 -31 190h-246v106h218q-34 136 -34 222q0 206 130 327t357 121q92 0 170.5 -16t123.5 -38v-121q-116 54 -283 54q-169 0 -263.5 -87t-94.5 -231q0 -96 36 -231h501v-106h-473q24 -98 24 -185q0 -128 -58 -226
t-146 -125v-4z" />
    <glyph glyph-name="currency" unicode="&#xa4;" horiz-adv-x="1218" 
d="M325 656q0 -118 83.5 -202t201.5 -84t202 84t84 202t-84 202t-202 84t-201.5 -84t-83.5 -202zM1088 1052l-167 -168q75 -102 75 -228q0 -128 -76 -229l168 -168l-83 -82l-167 168q-102 -75 -228 -75t-228 75l-169 -168l-82 82l169 169q-75 102 -75 228t75 228l-169 168
l82 82l168 -168q101 76 229 76q127 0 229 -75l166 167z" />
    <glyph glyph-name="yen" unicode="&#xa5;" horiz-adv-x="1218" 
d="M1182 1421l-456 -730h304v-95h-353v-172h353v-95h-353v-326h-134v326h-344v95h344v172h-344v95h295l-457 730h155l415 -684h5l415 684h155z" />
    <glyph glyph-name="brokenbar" unicode="&#xa6;" horiz-adv-x="626" 
d="M370 743h-114v700h114v-700zM370 -304h-114v697h114v-697z" />
    <glyph glyph-name="section" unicode="&#xa7;" horiz-adv-x="1080" 
d="M482 380l79 -17q105 1 174.5 60.5t69.5 148.5q0 147 -205 193l-80 18q-104 -1 -174.5 -61t-70.5 -149q0 -145 207 -193zM545 -250q-164 0 -274 80t-120 207h134q12 -78 85.5 -126t181.5 -48q110 0 180 51t70 131q0 66 -52 110t-165 73l-128 33q-164 43 -240.5 112.5
t-76.5 175.5q0 98 62.5 168.5t174.5 97.5v11q-226 80 -226 268q0 133 106.5 217t275.5 84q161 0 265.5 -75.5t120.5 -203.5h-131q-12 75 -82.5 120.5t-175.5 45.5q-109 0 -178 -50.5t-69 -129.5q0 -68 51.5 -112t164.5 -72l127 -34q162 -41 238 -109.5t76 -172.5t-71 -181
t-187 -99v-12q250 -60 250 -257q0 -133 -108.5 -218t-278.5 -85z" />
    <glyph glyph-name="dieresis" unicode="&#xa8;" horiz-adv-x="1024" 
d="M341 1256q-36 0 -62 25.5t-26 62.5t26 62.5t62 25.5q37 0 63 -25.5t26 -62.5t-26 -62.5t-63 -25.5zM683 1256q-37 0 -63 25.5t-26 62.5t26 62.5t63 25.5t62.5 -25.5t25.5 -62.5t-25.5 -62.5t-62.5 -25.5z" />
    <glyph glyph-name="copyright" unicode="&#xa9;" horiz-adv-x="1717" 
d="M859 -158q-163 0 -308 60.5t-249 164t-165 249.5t-61 310q0 165 61 311t165 249.5t249 163.5t308 60t308 -60t249.5 -163.5t165 -249.5t60.5 -311q0 -164 -60.5 -310t-165 -250t-249.5 -164t-308 -60zM859 -49q140 0 264.5 51.5t214.5 140.5t142 215t52 268
q0 191 -89 346t-243 242t-341 87q-140 0 -264.5 -51.5t-214.5 -140t-142.5 -214.5t-52.5 -269q0 -142 52.5 -268t142.5 -215t214.5 -140.5t264.5 -51.5zM1225 780h-108q-21 77 -86 126t-163 49q-128 0 -206 -87.5t-78 -237.5q0 -153 78 -242t206 -89q99 0 164 45.5t84 123.5
h109q-20 -119 -114.5 -192.5t-242.5 -73.5q-178 0 -286.5 115.5t-108.5 312.5q0 194 108.5 308.5t286.5 114.5q146 0 241.5 -78.5t115.5 -194.5z" />
    <glyph glyph-name="a.sups" unicode="&#xaa;" horiz-adv-x="619" 
d="M276 933q75 0 127.5 42t52.5 104v59l-171 -11q-67 -5 -103 -30.5t-36 -68.5q0 -42 36.5 -68.5t93.5 -26.5zM250 850q-91 0 -148 48.5t-57 126.5q0 77 58.5 122t168.5 52l184 11v46q0 56 -37.5 88t-103.5 32q-62 0 -101.5 -26.5t-49.5 -74.5h-95q7 84 73.5 135t175.5 51
t173 -53.5t64 -142.5v-406h-96v105h-3q-25 -52 -82 -83t-124 -31z" />
    <glyph glyph-name="guillemotleft" unicode="&#xab;" horiz-adv-x="1209" 
d="M301 572v-12l357 -411h-157l-358 414v6l358 414h157zM709 572v-12l358 -411h-157l-359 414v6l359 414h157z" />
    <glyph glyph-name="logicalnot" unicode="&#xac;" horiz-adv-x="1218" 
d="M1055 634v-558h-124v435h-768v123h892z" />
    <glyph glyph-name="registered" unicode="&#xae;" horiz-adv-x="1132" 
d="M566 617q-191 0 -324 131t-133 320q0 188 133 319t324 131t324 -130.5t133 -319.5t-133 -320t-324 -131zM566 699q155 0 262 107t107 262t-107 262t-262 107q-154 0 -261.5 -107.5t-107.5 -261.5t107.5 -261.5t261.5 -107.5zM470 854h-76v449h202q68 0 111 -38.5
t43 -98.5q0 -53 -28 -87.5t-79 -44.5l129 -180h-94l-115 170h-93v-170zM470 1237v-152h110q42 0 65 20.5t23 57.5q0 74 -87 74h-111z" />
    <glyph glyph-name="macron" unicode="&#xaf;" horiz-adv-x="1024" 
d="M781 1385v-95h-538v95h538z" />
    <glyph glyph-name="degree" unicode="&#xb0;" horiz-adv-x="789" 
d="M395 845q-120 0 -203 83t-83 202t83 202t203 83q119 0 202 -83t83 -202q0 -118 -83 -201.5t-202 -83.5zM395 957q71 0 120.5 50t49.5 123t-49.5 124t-120.5 51q-70 0 -120.5 -51t-50.5 -124q0 -72 50.5 -122.5t120.5 -50.5z" />
    <glyph glyph-name="plusminus" unicode="&#xb1;" horiz-adv-x="1218" 
d="M1090 76h-961v114h961v-114zM667 642v-319h-115v319h-423v115h423v311h115v-311h423v-115h-423z" />
    <glyph glyph-name="two.sups" unicode="&#xb2;" horiz-adv-x="601" 
d="M57 1342q1 95 70.5 155.5t176.5 60.5q105 0 171.5 -56t66.5 -140q0 -59 -34 -109.5t-130 -138.5l-176 -161v-3h355v-91h-494v78l254 237q73 68 97.5 104.5t24.5 75.5q0 49 -38 81.5t-97 32.5q-64 0 -106 -35.5t-43 -90.5h-98z" />
    <glyph glyph-name="three.sups" unicode="&#xb3;" horiz-adv-x="620" 
d="M214 1171v82h81q66 0 106.5 30.5t40.5 79.5q0 48 -36 76.5t-101 28.5q-62 0 -102.5 -29t-44.5 -79h-97q5 89 72.5 143.5t171.5 54.5q107 0 172.5 -50t65.5 -130q0 -63 -41.5 -105.5t-110.5 -55.5v-3q81 -7 129.5 -51t48.5 -114q0 -90 -73 -147t-188 -57q-114 0 -186.5 56
t-76.5 145h100q3 -48 48 -78t115 -30q68 0 111.5 32t44.5 83q0 56 -44.5 87t-122.5 31h-83z" />
    <glyph glyph-name="acute" unicode="&#xb4;" horiz-adv-x="1024" 
d="M452 1199h-106l186 301h147z" />
    <glyph glyph-name="mugreek" unicode="&#x3bc;" horiz-adv-x="1168" 
d="M114 -344v1384h132v-646q0 -140 70 -216t199 -76q139 0 221 88.5t82 234.5v615h132v-800q0 -71 23.5 -102.5t74.5 -31.5q36 0 58 9l2 -112q-34 -12 -84 -12q-86 0 -134 38.5t-63 121.5q-1 5 -2.5 23.5t-1.5 19.5h-2q-44 -98 -125.5 -154.5t-184.5 -56.5q-93 0 -164.5 43
t-98.5 114h-2v-484h-132z" />
    <glyph glyph-name="mugreek" unicode="&#xb5;" horiz-adv-x="1168" 
d="M114 -344v1384h132v-646q0 -140 70 -216t199 -76q139 0 221 88.5t82 234.5v615h132v-800q0 -71 23.5 -102.5t74.5 -31.5q36 0 58 9l2 -112q-34 -12 -84 -12q-86 0 -134 38.5t-63 121.5q-1 5 -2.5 23.5t-1.5 19.5h-2q-44 -98 -125.5 -154.5t-184.5 -56.5q-93 0 -164.5 43
t-98.5 114h-2v-484h-132z" />
    <glyph glyph-name="paragraph" unicode="&#xb6;" horiz-adv-x="1080" 
d="M672 -195h-116l-1 899h-17q-174 0 -288.5 103.5t-114.5 260.5q0 165 114 270t290 105h133v-1638zM829 -195v1638h116v-1638h-116z" />
    <glyph glyph-name="periodcentered" unicode="&#xb7;" horiz-adv-x="509" 
d="M255 426q-39 0 -66.5 27.5t-27.5 66.5t27.5 66.5t66.5 27.5t66 -27.5t27 -66.5t-27 -66.5t-66 -27.5z" />
    <glyph glyph-name="cedilla" unicode="&#xb8;" horiz-adv-x="1024" 
d="M410 -215v59l76 163h97v-7l-62 -131q98 -2 154.5 -44t56.5 -116q0 -80 -66 -126.5t-167 -48.5q-92 -2 -140 15v85q46 -13 115 -13q60 0 103 22.5t43 62.5q0 79 -148 79h-62z" />
    <glyph glyph-name="one.sups" unicode="&#xb9;" horiz-adv-x="464" 
d="M238 859v579h-2q-6 -3 -94 -59t-95 -60v102q8 4 95.5 61.5t94.5 61.5h104v-685h-103z" />
    <glyph glyph-name="o.sups" unicode="&#xba;" horiz-adv-x="650" 
d="M325 848q-131 0 -209.5 82.5t-78.5 224.5q0 141 78.5 223.5t209.5 82.5q130 0 209 -82.5t79 -223.5q0 -142 -78.5 -224.5t-209.5 -82.5zM325 935q85 0 135 58.5t50 161.5t-50 161.5t-135 58.5t-135.5 -58.5t-50.5 -161.5t50.5 -161.5t135.5 -58.5z" />
    <glyph glyph-name="guillemotright" unicode="&#xbb;" horiz-adv-x="1209" 
d="M908 560v12l-357 411h157l359 -414v-6l-359 -414h-157zM500 560v12l-357 411h157l358 -414v-6l-358 -414h-157z" />
    <glyph glyph-name="onequarter" unicode="&#xbc;" horiz-adv-x="1339" 
d="M238 759v579h-2q-6 -3 -94 -59t-95 -60v102q8 4 95.5 61.5t94.5 61.5h104v-685h-103zM216 0h-125l980 1443h124zM1108 0v139h-361v95q101 170 312 451h149v-455h102v-91h-102v-139h-100zM841 230v-3h268v374h-1q-171 -215 -267 -371z" />
    <glyph glyph-name="onehalf" unicode="&#xbd;" horiz-adv-x="1398" 
d="M238 759v579h-2q-6 -3 -94 -59t-95 -60v102q8 4 95.5 61.5t94.5 61.5h104v-685h-103zM216 0h-125l980 1443h124zM854 483q1 95 70.5 155.5t176.5 60.5q105 0 171.5 -56t66.5 -140q0 -59 -34 -109.5t-130 -138.5l-176 -161v-3h355v-91h-494v78l254 237q73 68 97.5 104.5
t24.5 75.5q0 49 -38 81.5t-97 32.5q-64 0 -106 -35.5t-43 -90.5h-98z" />
    <glyph glyph-name="threequarters" unicode="&#xbe;" horiz-adv-x="1495" 
d="M214 1071v82h81q66 0 106.5 30.5t40.5 79.5q0 48 -36 76.5t-101 28.5q-62 0 -102.5 -29t-44.5 -79h-97q5 89 72.5 143.5t171.5 54.5q107 0 172.5 -50t65.5 -130q0 -63 -41.5 -105.5t-110.5 -55.5v-3q81 -7 129.5 -51t48.5 -114q0 -91 -73 -147.5t-188 -56.5
q-114 0 -186.5 56t-76.5 145h100q3 -48 48 -78t115 -30q68 0 111.5 32t44.5 83q0 56 -44.5 87t-122.5 31h-83zM372 0h-125l980 1443h124zM1264 0v139h-361v95q101 170 312 451h149v-455h102v-91h-102v-139h-100zM997 230v-3h268v374h-1q-171 -215 -267 -371z" />
    <glyph glyph-name="questiondown" unicode="&#xbf;" horiz-adv-x="972" 
d="M914 19q-9 -165 -120.5 -271.5t-298.5 -106.5q-180 0 -295 102t-115 257q0 107 52.5 189.5t157.5 151.5q98 63 133 115t35 136v75h133v-94q1 -98 -44.5 -167.5t-152.5 -139.5q-94 -62 -133.5 -121t-39.5 -138q0 -108 76.5 -177.5t197.5 -69.5q120 0 197 70t87 189h130z
M519 927q-40 0 -67 27t-27 67t27 66.5t67 26.5t66.5 -26.5t26.5 -66.5t-26.5 -67t-66.5 -27z" />
    <glyph glyph-name="Agrave" unicode="&#xc0;" horiz-adv-x="1262" 
d="M1094 0l-160 442h-606l-160 -442h-145l540 1443h136l539 -1443h-144zM628 1274l-259 -714h524l-259 714h-6zM568 1557l-228 289h151l184 -289h-107z" />
    <glyph glyph-name="Aacute" unicode="&#xc1;" horiz-adv-x="1262" 
d="M1094 0l-160 442h-606l-160 -442h-145l540 1443h136l539 -1443h-144zM628 1274l-259 -714h524l-259 714h-6zM693 1557h-106l184 289h151z" />
    <glyph glyph-name="Acircumflex" unicode="&#xc2;" horiz-adv-x="1262" 
d="M1094 0l-160 442h-606l-160 -442h-145l540 1443h136l539 -1443h-144zM628 1274l-259 -714h524l-259 714h-6zM579 1846h104l268 -294h-128l-190 211h-4l-190 -211h-128z" />
    <glyph glyph-name="Atilde" unicode="&#xc3;" horiz-adv-x="1262" 
d="M1094 0l-160 442h-606l-160 -442h-145l540 1443h136l539 -1443h-144zM628 1274l-259 -714h524l-259 714h-6zM747 1586q-47 0 -85 22.5t-58.5 50t-46 50t-51.5 22.5q-39 0 -60 -35t-21 -102h-93q0 107 47.5 169t132.5 62q38 0 68.5 -15t50.5 -36.5t37.5 -42.5t38 -36
t43.5 -15q41 0 64 35t23 101h93q0 -106 -48.5 -168t-134.5 -62z" />
    <glyph glyph-name="Adieresis" unicode="&#xc4;" horiz-adv-x="1262" 
d="M1094 0l-160 442h-606l-160 -442h-145l540 1443h136l539 -1443h-144zM628 1274l-259 -714h524l-259 714h-6zM460 1623q-36 0 -62 26t-26 62q0 37 26 63t62 26q37 0 63 -26t26 -63q0 -36 -26 -62t-63 -26zM802 1623q-37 0 -63 26t-26 62q0 37 26 63t63 26t62.5 -26
t25.5 -63q0 -36 -25.5 -62t-62.5 -26z" />
    <glyph glyph-name="Aring" unicode="&#x212b;" horiz-adv-x="1262" 
d="M1094 0l-160 442h-606l-160 -442h-145l540 1443h136l539 -1443h-144zM628 1274l-259 -714h524l-259 714h-6zM631 1516q-75 0 -128.5 54t-53.5 129t53.5 128.5t128.5 53.5t128.5 -53.5t53.5 -128.5t-53.5 -129t-128.5 -54zM631 1588q46 0 78 32t32 79q0 46 -32 78t-78 32
t-78 -32t-32 -78q0 -47 32 -79t78 -32z" />
    <glyph glyph-name="Aring" unicode="&#xc5;" horiz-adv-x="1262" 
d="M1094 0l-160 442h-606l-160 -442h-145l540 1443h136l539 -1443h-144zM628 1274l-259 -714h524l-259 714h-6zM631 1516q-75 0 -128.5 54t-53.5 129t53.5 128.5t128.5 53.5t128.5 -53.5t53.5 -128.5t-53.5 -129t-128.5 -54zM631 1588q46 0 78 32t32 79q0 46 -32 78t-78 32
t-78 -32t-32 -78q0 -47 32 -79t78 -32z" />
    <glyph glyph-name="AE" unicode="&#xc6;" horiz-adv-x="1941" 
d="M808 1327l-374 -766h544v766h-170zM978 0v443h-600l-214 -443h-141l702 1443h1091v-124h-702v-526h665v-122h-665v-547h702v-124h-838z" />
    <glyph glyph-name="Ccedilla" unicode="&#xc7;" horiz-adv-x="1371" 
d="M1305 985h-137q-30 156 -155 255t-293 99q-230 0 -366.5 -166.5t-136.5 -447.5q0 -285 136.5 -453t367.5 -168q173 0 294 87t153 236h137q-36 -196 -174.5 -314t-349.5 -134l-52 -110q98 -2 154.5 -44t56.5 -116q0 -80 -66 -126.5t-167 -48.5q-92 -2 -140 15v85
q45 -13 115 -13q60 0 103 22.5t43 62.5q0 79 -148 79h-62v59l62 134q-278 14 -440.5 215.5t-162.5 531.5q0 339 174.5 540t468.5 201q151 0 277.5 -61t207.5 -171t100 -249z" />
    <glyph glyph-name="Egrave" unicode="&#xc8;" horiz-adv-x="1104" 
d="M1006 124v-124h-871v1443h871v-124h-735v-519h698v-122h-698v-554h735zM508 1557l-228 289h151l184 -289h-107z" />
    <glyph glyph-name="Eacute" unicode="&#xc9;" horiz-adv-x="1104" 
d="M1006 124v-124h-871v1443h871v-124h-735v-519h698v-122h-698v-554h735zM633 1557h-106l184 289h151z" />
    <glyph glyph-name="Ecircumflex" unicode="&#xca;" horiz-adv-x="1104" 
d="M1006 124v-124h-871v1443h871v-124h-735v-519h698v-122h-698v-554h735zM519 1846h104l268 -294h-128l-190 211h-4l-190 -211h-128z" />
    <glyph glyph-name="Edieresis" unicode="&#xcb;" horiz-adv-x="1104" 
d="M1006 124v-124h-871v1443h871v-124h-735v-519h698v-122h-698v-554h735zM400 1623q-36 0 -62 26t-26 62q0 37 26 63t62 26q37 0 63 -26t26 -63q0 -36 -26 -62t-63 -26zM742 1623q-37 0 -63 26t-26 62q0 37 26 63t63 26t62.5 -26t25.5 -63q0 -36 -25.5 -62t-62.5 -26z" />
    <glyph glyph-name="Igrave" unicode="&#xcc;" horiz-adv-x="406" 
d="M271 0h-136v1443h136v-1443zM140 1557l-228 289h151l184 -289h-107z" />
    <glyph glyph-name="Iacute" unicode="&#xcd;" horiz-adv-x="406" 
d="M271 0h-136v1443h136v-1443zM265 1557h-106l184 289h151z" />
    <glyph glyph-name="Icircumflex" unicode="&#xce;" horiz-adv-x="406" 
d="M271 0h-136v1443h136v-1443zM151 1846h104l268 -294h-128l-190 211h-4l-190 -211h-128z" />
    <glyph glyph-name="Idieresis" unicode="&#xcf;" horiz-adv-x="406" 
d="M271 0h-136v1443h136v-1443zM32 1623q-36 0 -62 26t-26 62q0 37 26 63t62 26q37 0 63 -26t26 -63q0 -36 -26 -62t-63 -26zM374 1623q-37 0 -63 26t-26 62q0 37 26 63t63 26t62.5 -26t25.5 -63q0 -36 -25.5 -62t-62.5 -26z" />
    <glyph glyph-name="Eth" unicode="&#xd0;" horiz-adv-x="1364" 
d="M272 124h323q266 0 409.5 155t143.5 442q0 288 -143.5 443t-409.5 155h-323v-514h367v-124h-367v-557zM135 1443h468q324 0 504 -189.5t180 -531.5q0 -343 -179.5 -532.5t-504.5 -189.5h-468v681h-130v124h130v638z" />
    <glyph glyph-name="Ntilde" unicode="&#xd1;" horiz-adv-x="1393" 
d="M270 0h-135v1443h135l846 -1205h7v1205h135v-1443h-132l-849 1206h-7v-1206zM812 1586q-47 0 -85 22.5t-58.5 50t-46 50t-51.5 22.5q-39 0 -60 -35t-21 -102h-93q0 107 47.5 169t132.5 62q38 0 68.5 -15t50.5 -36.5t37.5 -42.5t38 -36t43.5 -15q41 0 64 35t23 101h93
q0 -106 -48.5 -168t-134.5 -62z" />
    <glyph glyph-name="Ograve" unicode="&#xd2;" horiz-adv-x="1465" 
d="M732 1466q302 0 479 -201t177 -544t-177 -543.5t-479 -200.5t-478.5 200.5t-176.5 543.5t177 544t478 201zM732 1339q-237 0 -376 -167t-139 -451t139 -450.5t376 -166.5t376.5 167t139.5 450q0 284 -139.5 451t-376.5 167zM669 1557l-228 289h151l184 -289h-107z" />
    <glyph glyph-name="Oacute" unicode="&#xd3;" horiz-adv-x="1465" 
d="M732 1466q302 0 479 -201t177 -544t-177 -543.5t-479 -200.5t-478.5 200.5t-176.5 543.5t177 544t478 201zM732 1339q-237 0 -376 -167t-139 -451t139 -450.5t376 -166.5t376.5 167t139.5 450q0 284 -139.5 451t-376.5 167zM794 1557h-106l184 289h151z" />
    <glyph glyph-name="Ocircumflex" unicode="&#xd4;" horiz-adv-x="1465" 
d="M732 1466q302 0 479 -201t177 -544t-177 -543.5t-479 -200.5t-478.5 200.5t-176.5 543.5t177 544t478 201zM732 1339q-237 0 -376 -167t-139 -451t139 -450.5t376 -166.5t376.5 167t139.5 450q0 284 -139.5 451t-376.5 167zM680 1846h104l268 -294h-128l-190 211h-4
l-190 -211h-128z" />
    <glyph glyph-name="Otilde" unicode="&#xd5;" horiz-adv-x="1465" 
d="M732 1466q302 0 479 -201t177 -544t-177 -543.5t-479 -200.5t-478.5 200.5t-176.5 543.5t177 544t478 201zM732 1339q-237 0 -376 -167t-139 -451t139 -450.5t376 -166.5t376.5 167t139.5 450q0 284 -139.5 451t-376.5 167zM848 1586q-47 0 -85 22.5t-58.5 50t-46 50
t-51.5 22.5q-39 0 -60 -35t-21 -102h-93q0 107 47.5 169t132.5 62q38 0 68.5 -15t50.5 -36.5t37.5 -42.5t38 -36t43.5 -15q41 0 64 35t23 101h93q0 -106 -48.5 -168t-134.5 -62z" />
    <glyph glyph-name="Odieresis" unicode="&#xd6;" horiz-adv-x="1465" 
d="M732 1466q302 0 479 -201t177 -544t-177 -543.5t-479 -200.5t-478.5 200.5t-176.5 543.5t177 544t478 201zM732 1339q-237 0 -376 -167t-139 -451t139 -450.5t376 -166.5t376.5 167t139.5 450q0 284 -139.5 451t-376.5 167zM561 1623q-36 0 -62 26t-26 62q0 37 26 63
t62 26q37 0 63 -26t26 -63q0 -36 -26 -62t-63 -26zM903 1623q-37 0 -63 26t-26 62q0 37 26 63t63 26t62.5 -26t25.5 -63q0 -36 -25.5 -62t-62.5 -26z" />
    <glyph glyph-name="multiply" unicode="&#xd7;" horiz-adv-x="1218" 
d="M609 491l-345 -345l-81 80l345 346l-345 346l81 81l345 -346l346 346l80 -80l-344 -347l344 -346l-81 -80z" />
    <glyph glyph-name="Oslash" unicode="&#xd8;" horiz-adv-x="1465" 
d="M1142 1141l-738 -931q134 -115 328 -115q240 0 381.5 169.5t141.5 456.5q0 256 -113 420zM336 283l742 933q-137 132 -346 132q-240 0 -381 -169.5t-141 -457.5q0 -270 126 -438zM1366 1425l-141 -178q163 -199 163 -526q0 -343 -177 -543.5t-479 -200.5q-242 0 -407 133
l-118 -149l-79 60l125 157q-176 201 -176 543q0 343 177 544t478 201q257 0 426 -149l130 163z" />
    <glyph glyph-name="Ugrave" unicode="&#xd9;" horiz-adv-x="1386" 
d="M271 1443v-931q0 -184 113 -296t309 -112t309 112t113 296v931h137v-939q0 -236 -151 -381.5t-408 -145.5t-407.5 145.5t-150.5 381.5v939h136zM630 1557l-228 289h151l184 -289h-107z" />
    <glyph glyph-name="Uacute" unicode="&#xda;" horiz-adv-x="1386" 
d="M271 1443v-931q0 -184 113 -296t309 -112t309 112t113 296v931h137v-939q0 -236 -151 -381.5t-408 -145.5t-407.5 145.5t-150.5 381.5v939h136zM755 1557h-106l184 289h151z" />
    <glyph glyph-name="Ucircumflex" unicode="&#xdb;" horiz-adv-x="1386" 
d="M271 1443v-931q0 -184 113 -296t309 -112t309 112t113 296v931h137v-939q0 -236 -151 -381.5t-408 -145.5t-407.5 145.5t-150.5 381.5v939h136zM641 1846h104l268 -294h-128l-190 211h-4l-190 -211h-128z" />
    <glyph glyph-name="Udieresis" unicode="&#xdc;" horiz-adv-x="1386" 
d="M271 1443v-931q0 -184 113 -296t309 -112t309 112t113 296v931h137v-939q0 -236 -151 -381.5t-408 -145.5t-407.5 145.5t-150.5 381.5v939h136zM522 1623q-36 0 -62 26t-26 62q0 37 26 63t62 26q37 0 63 -26t26 -63q0 -36 -26 -62t-63 -26zM864 1623q-37 0 -63 26t-26 62
q0 37 26 63t63 26t62.5 -26t25.5 -63q0 -36 -25.5 -62t-62.5 -26z" />
    <glyph glyph-name="Yacute" unicode="&#xdd;" horiz-adv-x="1219" 
d="M678 0h-137v624l-517 819h156l427 -685h5l427 685h156l-517 -819v-624zM671 1557h-106l184 289h151z" />
    <glyph glyph-name="Thorn" unicode="&#xde;" horiz-adv-x="1222" 
d="M161 1443h137v-274h386q184 0 307.5 -111t123.5 -299q0 -126 -58.5 -220.5t-156 -142.5t-217.5 -48h-385v-348h-137v1443zM298 1046v-576h352q149 0 237 75.5t88 213.5q0 137 -88 212t-237 75h-352z" />
    <glyph glyph-name="germandbls" unicode="&#xdf;" horiz-adv-x="1137" 
d="M285 0h-130v1073q0 173 105.5 276.5t285.5 103.5q172 0 281 -100t109 -255q0 -122 -65 -217t-168 -124v-3q156 -20 248.5 -119.5t92.5 -247.5q0 -178 -121.5 -290.5t-315.5 -112.5q-77 0 -150 14v118q58 -16 141 -16q139 0 227 81t88 208q0 131 -97.5 212t-260.5 81h-75
v128h68q114 0 186 79.5t72 201.5q0 107 -72 176.5t-186 69.5q-123 0 -193 -74.5t-70 -202.5v-1060z" />
    <glyph glyph-name="agrave" unicode="&#xe0;" horiz-adv-x="1014" 
d="M449 97q137 0 231 85t94 209v115l-308 -21q-123 -8 -189 -59.5t-66 -137.5q0 -85 66 -138t172 -53zM422 -17q-154 0 -249.5 84.5t-95.5 220.5q0 134 96.5 212t276.5 90l324 20v90q0 113 -68 176.5t-189 63.5q-114 0 -185.5 -53t-88.5 -148h-128q11 142 120.5 230
t284.5 88q178 0 282 -93t104 -252v-712h-126v198h-3q-43 -97 -141 -156t-214 -59zM458 1199l-226 301h147l186 -301h-107z" />
    <glyph glyph-name="aacute" unicode="&#xe1;" horiz-adv-x="1014" 
d="M449 97q137 0 231 85t94 209v115l-308 -21q-123 -8 -189 -59.5t-66 -137.5q0 -85 66 -138t172 -53zM422 -17q-154 0 -249.5 84.5t-95.5 220.5q0 134 96.5 212t276.5 90l324 20v90q0 113 -68 176.5t-189 63.5q-114 0 -185.5 -53t-88.5 -148h-128q11 142 120.5 230
t284.5 88q178 0 282 -93t104 -252v-712h-126v198h-3q-43 -97 -141 -156t-214 -59zM566 1199h-107l186 301h147z" />
    <glyph glyph-name="acircumflex" unicode="&#xe2;" horiz-adv-x="1014" 
d="M449 97q137 0 231 85t94 209v115l-308 -21q-123 -8 -189 -59.5t-66 -137.5q0 -85 66 -138t172 -53zM422 -17q-154 0 -249.5 84.5t-95.5 220.5q0 134 96.5 212t276.5 90l324 20v90q0 113 -68 176.5t-189 63.5q-114 0 -185.5 -53t-88.5 -148h-128q11 142 120.5 230
t284.5 88q178 0 282 -93t104 -252v-712h-126v198h-3q-43 -97 -141 -156t-214 -59zM564 1500l254 -301h-124l-180 213h-4l-180 -213h-124l254 301h104z" />
    <glyph glyph-name="atilde" unicode="&#xe3;" horiz-adv-x="1014" 
d="M449 97q137 0 231 85t94 209v115l-308 -21q-123 -8 -189 -59.5t-66 -137.5q0 -85 66 -138t172 -53zM422 -17q-154 0 -249.5 84.5t-95.5 220.5q0 134 96.5 212t276.5 90l324 20v90q0 113 -68 176.5t-189 63.5q-114 0 -185.5 -53t-88.5 -148h-128q11 142 120.5 230
t284.5 88q178 0 282 -93t104 -252v-712h-126v198h-3q-43 -97 -141 -156t-214 -59zM628 1218q-47 0 -85 22.5t-58.5 50t-46 50t-51.5 22.5q-39 0 -60 -34.5t-21 -101.5h-93q0 106 47.5 168t132.5 62q38 0 68.5 -15t50.5 -36.5t37.5 -42.5t38 -36t43.5 -15q41 0 64 35.5
t23 100.5h93q0 -105 -48.5 -167.5t-134.5 -62.5z" />
    <glyph glyph-name="adieresis" unicode="&#xe4;" horiz-adv-x="1014" 
d="M449 97q137 0 231 85t94 209v115l-308 -21q-123 -8 -189 -59.5t-66 -137.5q0 -85 66 -138t172 -53zM422 -17q-154 0 -249.5 84.5t-95.5 220.5q0 134 96.5 212t276.5 90l324 20v90q0 113 -68 176.5t-189 63.5q-114 0 -185.5 -53t-88.5 -148h-128q11 142 120.5 230
t284.5 88q178 0 282 -93t104 -252v-712h-126v198h-3q-43 -97 -141 -156t-214 -59zM341 1256q-36 0 -62 25.5t-26 62.5t26 62.5t62 25.5q37 0 63 -25.5t26 -62.5t-26 -62.5t-63 -25.5zM683 1256q-37 0 -63 25.5t-26 62.5t26 62.5t63 25.5t62.5 -25.5t25.5 -62.5t-25.5 -62.5
t-62.5 -25.5z" />
    <glyph glyph-name="aring" unicode="&#xe5;" horiz-adv-x="1014" 
d="M449 97q137 0 231 85t94 209v115l-308 -21q-123 -8 -189 -59.5t-66 -137.5q0 -85 66 -138t172 -53zM422 -17q-154 0 -249.5 84.5t-95.5 220.5q0 134 96.5 212t276.5 90l324 20v90q0 113 -68 176.5t-189 63.5q-114 0 -185.5 -53t-88.5 -148h-128q11 142 120.5 230
t284.5 88q178 0 282 -93t104 -252v-712h-126v198h-3q-43 -97 -141 -156t-214 -59zM512 1149q-75 0 -128.5 54t-53.5 129t53.5 128.5t128.5 53.5t128.5 -53.5t53.5 -128.5t-53.5 -129t-128.5 -54zM512 1221q46 0 78 32t32 79q0 46 -32 78t-78 32t-78 -32t-32 -78
q0 -47 32 -79t78 -32z" />
    <glyph glyph-name="ae" unicode="&#xe6;" horiz-adv-x="1734" 
d="M1240 -17q-136 0 -238 66.5t-152 186.5h-8q-54 -119 -159.5 -186t-243.5 -67q-166 0 -266 83t-100 220q0 132 98 207.5t282 85.5l320 18v94q0 112 -73 180.5t-194 68.5q-112 0 -183.5 -55t-82.5 -147h-129q10 141 116.5 230t274.5 89q138 0 234.5 -62.5t124.5 -172.5h7
q50 111 146 173t227 62q197 0 313.5 -139t116.5 -371v-56h-766v-10q0 -172 92 -277t245 -105q111 0 186 53.5t99 142.5h131q-24 -137 -139 -224.5t-279 -87.5zM1231 941q-139 0 -228 -95.5t-98 -249.5h631q-2 156 -85 250.5t-220 94.5zM444 97q138 0 233.5 86.5t95.5 209.5
v100l-305 -19q-127 -8 -193.5 -55.5t-66.5 -130.5q0 -84 65 -137.5t171 -53.5z" />
    <glyph glyph-name="ccedilla" unicode="&#xe7;" horiz-adv-x="1012" 
d="M830 322h131q-20 -135 -118.5 -226.5t-245.5 -108.5l-56 -118q98 -2 154.5 -44t56.5 -116q0 -80 -66 -126.5t-167 -48.5q-92 -2 -140 15v85q45 -13 115 -13q60 0 103 22.5t43 62.5q0 79 -148 79h-62v59l65 140q-198 14 -315.5 157t-117.5 379q0 245 128.5 391t341.5 146
q177 0 292.5 -100t135.5 -246h-130q-22 101 -100.5 165t-196.5 64q-153 0 -244.5 -114t-91.5 -306q0 -194 92 -307t245 -113q116 0 194.5 60t101.5 162z" />
    <glyph glyph-name="egrave" unicode="&#xe8;" horiz-adv-x="1040" 
d="M525 941q-139 0 -228.5 -96.5t-97.5 -251.5h642q-2 155 -89 251.5t-227 96.5zM833 295h131q-24 -137 -141.5 -224.5t-287.5 -87.5q-219 0 -346 143.5t-127 390.5q0 243 127 391.5t338 148.5q206 0 328 -140t122 -373v-56h-779v-8q0 -176 92 -278.5t248 -102.5
q115 0 194 54t101 142zM473 1199l-226 301h147l186 -301h-107z" />
    <glyph glyph-name="eacute" unicode="&#xe9;" horiz-adv-x="1040" 
d="M525 941q-139 0 -228.5 -96.5t-97.5 -251.5h642q-2 155 -89 251.5t-227 96.5zM833 295h131q-24 -137 -141.5 -224.5t-287.5 -87.5q-219 0 -346 143.5t-127 390.5q0 243 127 391.5t338 148.5q206 0 328 -140t122 -373v-56h-779v-8q0 -176 92 -278.5t248 -102.5
q115 0 194 54t101 142zM581 1199h-107l186 301h147z" />
    <glyph glyph-name="ecircumflex" unicode="&#xea;" horiz-adv-x="1040" 
d="M525 941q-139 0 -228.5 -96.5t-97.5 -251.5h642q-2 155 -89 251.5t-227 96.5zM833 295h131q-24 -137 -141.5 -224.5t-287.5 -87.5q-219 0 -346 143.5t-127 390.5q0 243 127 391.5t338 148.5q206 0 328 -140t122 -373v-56h-779v-8q0 -176 92 -278.5t248 -102.5
q115 0 194 54t101 142zM579 1500l254 -301h-124l-180 213h-4l-180 -213h-124l254 301h104z" />
    <glyph glyph-name="edieresis" unicode="&#xeb;" horiz-adv-x="1040" 
d="M525 941q-139 0 -228.5 -96.5t-97.5 -251.5h642q-2 155 -89 251.5t-227 96.5zM833 295h131q-24 -137 -141.5 -224.5t-287.5 -87.5q-219 0 -346 143.5t-127 390.5q0 243 127 391.5t338 148.5q206 0 328 -140t122 -373v-56h-779v-8q0 -176 92 -278.5t248 -102.5
q115 0 194 54t101 142zM356 1256q-36 0 -62 25.5t-26 62.5t26 62.5t62 25.5q37 0 63 -25.5t26 -62.5t-26 -62.5t-63 -25.5zM698 1256q-37 0 -63 25.5t-26 62.5t26 62.5t63 25.5t62.5 -25.5t25.5 -62.5t-25.5 -62.5t-62.5 -25.5z" />
    <glyph glyph-name="igrave" unicode="&#xec;" horiz-adv-x="378" 
d="M123 0v1040h132v-1040h-132zM135 1199l-226 301h147l186 -301h-107z" />
    <glyph glyph-name="iacute" unicode="&#xed;" horiz-adv-x="378" 
d="M123 0v1040h132v-1040h-132zM243 1199h-107l186 301h147z" />
    <glyph glyph-name="icircumflex" unicode="&#xee;" horiz-adv-x="378" 
d="M123 0v1040h132v-1040h-132zM241 1500l254 -301h-124l-180 213h-4l-180 -213h-124l254 301h104z" />
    <glyph glyph-name="idieresis" unicode="&#xef;" horiz-adv-x="378" 
d="M123 0v1040h132v-1040h-132zM18 1256q-36 0 -62 25.5t-26 62.5t26 62.5t62 25.5q37 0 63 -25.5t26 -62.5t-26 -62.5t-63 -25.5zM360 1256q-37 0 -63 25.5t-26 62.5t26 62.5t63 25.5t62.5 -25.5t25.5 -62.5t-25.5 -62.5t-62.5 -25.5z" />
    <glyph glyph-name="eth" unicode="&#xf0;" horiz-adv-x="1090" 
d="M548 101q152 0 241.5 112t89.5 285q0 188 -90 295.5t-242 107.5q-148 0 -242 -105t-94 -284q0 -189 90 -300t247 -111zM823 1391l-184 -101q188 -131 277.5 -311.5t89.5 -420.5q0 -122 -29 -226t-85 -182.5t-144 -123t-199 -44.5q-221 0 -347.5 143.5t-126.5 386.5
q0 228 129 366.5t323 138.5q107 0 187.5 -49.5t127.5 -135.5h11q-29 108 -113 210t-209 188l-291 -160v106l201 111q-97 54 -205 95v100q179 -59 313 -136l273 151z" />
    <glyph glyph-name="ntilde" unicode="&#xf1;" horiz-adv-x="1062" 
d="M114 0v1040h125v-192h3q41 97 130.5 153t212.5 56q171 0 269.5 -103t98.5 -280v-674h-132v653q0 136 -71.5 211t-202.5 75q-135 0 -218 -89t-83 -234v-616h-132zM649 1218q-47 0 -85 22.5t-58.5 50t-46 50t-51.5 22.5q-39 0 -60 -34.5t-21 -101.5h-93q0 106 47.5 168
t132.5 62q38 0 68.5 -15t50.5 -36.5t37.5 -42.5t38 -36t43.5 -15q41 0 64 35.5t23 100.5h93q0 -105 -48.5 -167.5t-134.5 -62.5z" />
    <glyph glyph-name="ograve" unicode="&#xf2;" horiz-adv-x="1072" 
d="M536 -17q-214 0 -344 145.5t-130 391.5t130.5 391.5t343.5 145.5q214 0 344 -145.5t130 -391.5t-130 -391.5t-344 -145.5zM536 100q155 0 247.5 112t92.5 308t-92.5 308t-247.5 112t-247 -112t-92 -308t92 -308t247 -112zM483 1199l-226 301h147l186 -301h-107z" />
    <glyph glyph-name="oacute" unicode="&#xf3;" horiz-adv-x="1072" 
d="M536 -17q-214 0 -344 145.5t-130 391.5t130.5 391.5t343.5 145.5q214 0 344 -145.5t130 -391.5t-130 -391.5t-344 -145.5zM536 100q155 0 247.5 112t92.5 308t-92.5 308t-247.5 112t-247 -112t-92 -308t92 -308t247 -112zM591 1199h-107l186 301h147z" />
    <glyph glyph-name="ocircumflex" unicode="&#xf4;" horiz-adv-x="1072" 
d="M536 -17q-214 0 -344 145.5t-130 391.5t130.5 391.5t343.5 145.5q214 0 344 -145.5t130 -391.5t-130 -391.5t-344 -145.5zM536 100q155 0 247.5 112t92.5 308t-92.5 308t-247.5 112t-247 -112t-92 -308t92 -308t247 -112zM589 1500l254 -301h-124l-180 213h-4l-180 -213
h-124l254 301h104z" />
    <glyph glyph-name="otilde" unicode="&#xf5;" horiz-adv-x="1072" 
d="M536 -17q-214 0 -344 145.5t-130 391.5t130.5 391.5t343.5 145.5q214 0 344 -145.5t130 -391.5t-130 -391.5t-344 -145.5zM536 100q155 0 247.5 112t92.5 308t-92.5 308t-247.5 112t-247 -112t-92 -308t92 -308t247 -112zM652 1218q-47 0 -85 22.5t-58.5 50t-46 50
t-51.5 22.5q-39 0 -60 -34.5t-21 -101.5h-93q0 106 47.5 168t132.5 62q38 0 68.5 -15t50.5 -36.5t37.5 -42.5t38 -36t43.5 -15q41 0 64 35.5t23 100.5h93q0 -105 -48.5 -167.5t-134.5 -62.5z" />
    <glyph glyph-name="odieresis" unicode="&#xf6;" horiz-adv-x="1072" 
d="M536 -17q-214 0 -344 145.5t-130 391.5t130.5 391.5t343.5 145.5q214 0 344 -145.5t130 -391.5t-130 -391.5t-344 -145.5zM536 100q155 0 247.5 112t92.5 308t-92.5 308t-247.5 112t-247 -112t-92 -308t92 -308t247 -112zM366 1256q-36 0 -62 25.5t-26 62.5t26 62.5
t62 25.5q37 0 63 -25.5t26 -62.5t-26 -62.5t-63 -25.5zM708 1256q-37 0 -63 25.5t-26 62.5t26 62.5t63 25.5t62.5 -25.5t25.5 -62.5t-25.5 -62.5t-62.5 -25.5z" />
    <glyph glyph-name="divide" unicode="&#xf7;" horiz-adv-x="1218" 
d="M610 874q-40 0 -66 26t-26 66t26 66.5t66 26.5q39 0 66 -26.5t27 -66.5q0 -39 -27 -65.5t-66 -26.5zM610 84q-40 0 -66 26.5t-26 66.5q0 39 26 65.5t66 26.5q39 0 66 -26.5t27 -65.5q0 -40 -27 -66.5t-66 -26.5zM1080 513h-942v117h942v-117z" />
    <glyph glyph-name="oslash" unicode="&#xf8;" horiz-adv-x="1072" 
d="M802 812l-468 -651q82 -67 202 -67q157 0 250.5 114t93.5 312q0 180 -78 292zM269 231l469 649q-84 66 -202 66q-157 0 -250 -114t-93 -312q0 -177 76 -289zM961 1034l-85 -118q134 -147 134 -396q0 -246 -130 -391.5t-344 -145.5q-157 0 -272 81l-69 -96l-78 53l77 106
q-132 146 -132 393q0 246 130.5 391.5t343.5 145.5q157 0 272 -81l78 108z" />
    <glyph glyph-name="ugrave" unicode="&#xf9;" horiz-adv-x="1062" 
d="M948 1040v-1040h-125v193h-3q-42 -97 -132.5 -153.5t-212.5 -56.5q-169 0 -268 102.5t-99 278.5v676h133v-653q0 -138 70.5 -212t201.5 -74q136 0 219.5 88t83.5 234v617h132zM475 1199l-226 301h147l186 -301h-107z" />
    <glyph glyph-name="uacute" unicode="&#xfa;" horiz-adv-x="1062" 
d="M948 1040v-1040h-125v193h-3q-42 -97 -132.5 -153.5t-212.5 -56.5q-169 0 -268 102.5t-99 278.5v676h133v-653q0 -138 70.5 -212t201.5 -74q136 0 219.5 88t83.5 234v617h132zM583 1199h-107l186 301h147z" />
    <glyph glyph-name="ucircumflex" unicode="&#xfb;" horiz-adv-x="1062" 
d="M948 1040v-1040h-125v193h-3q-42 -97 -132.5 -153.5t-212.5 -56.5q-169 0 -268 102.5t-99 278.5v676h133v-653q0 -138 70.5 -212t201.5 -74q136 0 219.5 88t83.5 234v617h132zM581 1500l254 -301h-124l-180 213h-4l-180 -213h-124l254 301h104z" />
    <glyph glyph-name="udieresis" unicode="&#xfc;" horiz-adv-x="1062" 
d="M948 1040v-1040h-125v193h-3q-42 -97 -132.5 -153.5t-212.5 -56.5q-169 0 -268 102.5t-99 278.5v676h133v-653q0 -138 70.5 -212t201.5 -74q136 0 219.5 88t83.5 234v617h132zM358 1256q-36 0 -62 25.5t-26 62.5t26 62.5t62 25.5q37 0 63 -25.5t26 -62.5t-26 -62.5
t-63 -25.5zM700 1256q-37 0 -63 25.5t-26 62.5t26 62.5t63 25.5t62.5 -25.5t25.5 -62.5t-25.5 -62.5t-62.5 -25.5z" />
    <glyph glyph-name="yacute" unicode="&#xfd;" horiz-adv-x="951" 
d="M189 -376q-36 0 -66 6v113q24 -6 62 -6q72 0 115.5 40t78.5 138l27 78l-389 1047h142l316 -908h3l316 908h140l-409 -1103q-68 -183 -138 -248t-198 -65zM531 1199h-107l186 301h147z" />
    <glyph glyph-name="thorn" unicode="&#xfe;" horiz-adv-x="1115" 
d="M615 1057q198 0 317.5 -146.5t119.5 -390.5q0 -242 -120 -389.5t-317 -147.5q-120 0 -213 57t-136 157h-12v-554h-131v1800h126v-615h11q48 106 142.5 167.5t212.5 61.5zM585 100q153 0 242.5 113.5t89.5 306.5q0 192 -89.5 306t-241.5 114q-151 0 -242.5 -114.5
t-91.5 -305.5q0 -190 91.5 -305t241.5 -115z" />
    <glyph glyph-name="ydieresis" unicode="&#xff;" horiz-adv-x="951" 
d="M189 -376q-36 0 -66 6v113q24 -6 62 -6q72 0 115.5 40t78.5 138l27 78l-389 1047h142l316 -908h3l316 908h140l-409 -1103q-68 -183 -138 -248t-198 -65zM306 1256q-36 0 -62 25.5t-26 62.5t26 62.5t62 25.5q37 0 63 -25.5t26 -62.5t-26 -62.5t-63 -25.5zM648 1256
q-37 0 -63 25.5t-26 62.5t26 62.5t63 25.5t62.5 -25.5t25.5 -62.5t-25.5 -62.5t-62.5 -25.5z" />
    <glyph glyph-name="Amacron" unicode="&#x100;" horiz-adv-x="1262" 
d="M1094 0l-160 442h-606l-160 -442h-145l540 1443h136l539 -1443h-144zM628 1274l-259 -714h524l-259 714h-6zM900 1753v-95h-538v95h538z" />
    <glyph glyph-name="amacron" unicode="&#x101;" horiz-adv-x="1014" 
d="M449 97q137 0 231 85t94 209v115l-308 -21q-123 -8 -189 -59.5t-66 -137.5q0 -85 66 -138t172 -53zM422 -17q-154 0 -249.5 84.5t-95.5 220.5q0 134 96.5 212t276.5 90l324 20v90q0 113 -68 176.5t-189 63.5q-114 0 -185.5 -53t-88.5 -148h-128q11 142 120.5 230
t284.5 88q178 0 282 -93t104 -252v-712h-126v198h-3q-43 -97 -141 -156t-214 -59zM781 1385v-95h-538v95h538z" />
    <glyph glyph-name="Abreve" unicode="&#x102;" horiz-adv-x="1262" 
d="M1094 0l-160 442h-606l-160 -442h-145l540 1443h136l539 -1443h-144zM628 1274l-259 -714h524l-259 714h-6zM338 1832h99q8 -88 59.5 -138t134.5 -50t134.5 50t59.5 138h99q-9 -121 -87 -199t-206 -78t-206 78t-87 199z" />
    <glyph glyph-name="abreve" unicode="&#x103;" horiz-adv-x="1014" 
d="M449 97q137 0 231 85t94 209v115l-308 -21q-123 -8 -189 -59.5t-66 -137.5q0 -85 66 -138t172 -53zM422 -17q-154 0 -249.5 84.5t-95.5 220.5q0 134 96.5 212t276.5 90l324 20v90q0 113 -68 176.5t-189 63.5q-114 0 -185.5 -53t-88.5 -148h-128q11 142 120.5 230
t284.5 88q178 0 282 -93t104 -252v-712h-126v198h-3q-43 -97 -141 -156t-214 -59zM224 1485h103q0 -91 48.5 -143.5t136.5 -52.5t136.5 52.5t48.5 143.5h103q0 -130 -76.5 -207.5t-211.5 -77.5t-211.5 77.5t-76.5 207.5z" />
    <glyph glyph-name="Aogonek" unicode="&#x104;" horiz-adv-x="1262" 
d="M369 560h524l-259 714h-6zM699 1443l539 -1443q-190 -88 -190 -198q0 -53 33 -76t82 -23q43 0 70 11v-96q-46 -16 -96 -16q-87 0 -147.5 43.5t-60.5 129.5q0 132 163 231l-158 436h-606l-160 -442h-145l540 1443h136z" />
    <glyph glyph-name="aogonek" unicode="&#x105;" horiz-adv-x="1014" 
d="M774 391v115l-308 -21q-123 -8 -189 -59.5t-66 -137.5q0 -85 66 -138t172 -53q137 0 231 85t94 209zM906 712v-712q-190 -88 -190 -198q0 -53 33 -76t81 -23q42 0 71 11v-96q-46 -16 -96 -16q-88 0 -148 43.5t-60 129.5q0 141 183 243v180h-3q-43 -97 -141 -156t-214 -59
q-154 0 -249.5 84.5t-95.5 220.5q0 134 96.5 212t276.5 90l324 20v90q0 113 -68 176.5t-189 63.5q-114 0 -185.5 -53t-88.5 -148h-128q11 142 120.5 230t284.5 88q178 0 282 -93t104 -252z" />
    <glyph glyph-name="Cacute" unicode="&#x106;" horiz-adv-x="1371" 
d="M720 -23q-295 0 -469 202.5t-174 545.5q0 339 174.5 540t468.5 201q151 0 277.5 -61t207.5 -171t100 -249h-137q-30 156 -155 255t-293 99q-230 0 -366.5 -166.5t-136.5 -447.5q0 -285 136.5 -453t367.5 -168q173 0 294 87t153 236h137q-38 -211 -194 -330.5t-391 -119.5
zM782 1557h-106l184 289h151z" />
    <glyph glyph-name="cacute" unicode="&#x107;" horiz-adv-x="1012" 
d="M960 711h-130q-22 101 -100.5 165t-196.5 64q-153 0 -244.5 -114t-91.5 -306q0 -194 92 -307t245 -113q116 0 194.5 60t101.5 162h131q-22 -150 -139.5 -244.5t-288.5 -94.5q-214 0 -342.5 144.5t-128.5 392.5q0 245 128.5 391t341.5 146q177 0 292.5 -100t135.5 -246z
M585 1199h-107l186 301h147z" />
    <glyph glyph-name="Ccircumflex" unicode="&#x108;" horiz-adv-x="1371" 
d="M720 -23q-295 0 -469 202.5t-174 545.5q0 339 174.5 540t468.5 201q151 0 277.5 -61t207.5 -171t100 -249h-137q-30 156 -155 255t-293 99q-230 0 -366.5 -166.5t-136.5 -447.5q0 -285 136.5 -453t367.5 -168q173 0 294 87t153 236h137q-38 -211 -194 -330.5t-391 -119.5
zM668 1846h104l268 -294h-128l-190 211h-4l-190 -211h-128z" />
    <glyph glyph-name="ccircumflex" unicode="&#x109;" horiz-adv-x="1012" 
d="M960 711h-130q-22 101 -100.5 165t-196.5 64q-153 0 -244.5 -114t-91.5 -306q0 -194 92 -307t245 -113q116 0 194.5 60t101.5 162h131q-22 -150 -139.5 -244.5t-288.5 -94.5q-214 0 -342.5 144.5t-128.5 392.5q0 245 128.5 391t341.5 146q177 0 292.5 -100t135.5 -246z
M583 1500l254 -301h-124l-180 213h-4l-180 -213h-124l254 301h104z" />
    <glyph glyph-name="Cdotaccent" unicode="&#x10a;" horiz-adv-x="1371" 
d="M720 -23q-295 0 -469 202.5t-174 545.5q0 339 174.5 540t468.5 201q151 0 277.5 -61t207.5 -171t100 -249h-137q-30 156 -155 255t-293 99q-230 0 -366.5 -166.5t-136.5 -447.5q0 -285 136.5 -453t367.5 -168q173 0 294 87t153 236h137q-38 -211 -194 -330.5t-391 -119.5
zM720 1623q-37 0 -63 26t-26 62q0 37 26 63t63 26t63 -26t26 -63q0 -36 -26 -62t-63 -26z" />
    <glyph glyph-name="cdotaccent" unicode="&#x10b;" horiz-adv-x="1012" 
d="M960 711h-130q-22 101 -100.5 165t-196.5 64q-153 0 -244.5 -114t-91.5 -306q0 -194 92 -307t245 -113q116 0 194.5 60t101.5 162h131q-22 -150 -139.5 -244.5t-288.5 -94.5q-214 0 -342.5 144.5t-128.5 392.5q0 245 128.5 391t341.5 146q177 0 292.5 -100t135.5 -246z
M531 1256q-37 0 -63 25.5t-26 62.5t26 62.5t63 25.5t63 -25.5t26 -62.5t-26 -62.5t-63 -25.5z" />
    <glyph glyph-name="Ccaron" unicode="&#x10c;" horiz-adv-x="1371" 
d="M720 -23q-295 0 -469 202.5t-174 545.5q0 339 174.5 540t468.5 201q151 0 277.5 -61t207.5 -171t100 -249h-137q-30 156 -155 255t-293 99q-230 0 -366.5 -166.5t-136.5 -447.5q0 -285 136.5 -453t367.5 -168q173 0 294 87t153 236h137q-38 -211 -194 -330.5t-391 -119.5
zM772 1552h-104l-268 294h128l190 -211h4l190 211h128z" />
    <glyph glyph-name="ccaron" unicode="&#x10d;" horiz-adv-x="1012" 
d="M960 711h-130q-22 101 -100.5 165t-196.5 64q-153 0 -244.5 -114t-91.5 -306q0 -194 92 -307t245 -113q116 0 194.5 60t101.5 162h131q-22 -150 -139.5 -244.5t-288.5 -94.5q-214 0 -342.5 144.5t-128.5 392.5q0 245 128.5 391t341.5 146q177 0 292.5 -100t135.5 -246z
M479 1199l-254 301h124l180 -214h4l180 214h124l-254 -301h-104z" />
    <glyph glyph-name="Dcaron" unicode="&#x10e;" horiz-adv-x="1364" 
d="M135 1443h468q324 0 504 -189.5t180 -531.5q0 -343 -179.5 -532.5t-504.5 -189.5h-468v1443zM272 1319v-1195h323q266 0 409.5 155t143.5 442q0 288 -143.5 443t-409.5 155h-323zM592 1552h-104l-268 294h128l190 -211h4l190 211h128z" />
    <glyph glyph-name="dcaron" unicode="&#x10f;" horiz-adv-x="1253" 
d="M1139 1505h115l-23 -431h-92v431zM507 -17q-198 0 -321.5 148t-123.5 389q0 242 122.5 389.5t319.5 147.5q123 0 218.5 -63.5t137.5 -167.5h3v617h133v-1443h-126v220h-3q-45 -107 -141 -172t-219 -65zM530 940q-150 0 -241 -115t-91 -305t91 -305t241 -115
q149 0 241.5 116t92.5 304t-92.5 304t-241.5 116z" />
    <glyph glyph-name="Dcroat" unicode="&#x110;" horiz-adv-x="1364" 
d="M272 124h323q266 0 409.5 155t143.5 442q0 288 -143.5 443t-409.5 155h-323v-514h367v-124h-367v-557zM135 1443h468q324 0 504 -189.5t180 -531.5q0 -343 -179.5 -532.5t-504.5 -189.5h-468v681h-130v124h130v638z" />
    <glyph glyph-name="dcroat" unicode="&#x111;" horiz-adv-x="1119" 
d="M530 100q149 0 241.5 116t92.5 304t-92.5 304t-241.5 116q-150 0 -241 -115t-91 -305t91 -305t241 -115zM1162 1323v-97h-166v-1226h-126v220h-3q-45 -107 -141 -172t-219 -65q-198 0 -321.5 148t-123.5 389q0 242 122.5 389.5t319.5 147.5q123 0 218.5 -63.5
t137.5 -167.5h3v400h-252v97h252v120h133v-120h166z" />
    <glyph glyph-name="Emacron" unicode="&#x112;" horiz-adv-x="1104" 
d="M1006 124v-124h-871v1443h871v-124h-735v-519h698v-122h-698v-554h735zM840 1753v-95h-538v95h538z" />
    <glyph glyph-name="emacron" unicode="&#x113;" horiz-adv-x="1040" 
d="M525 941q-139 0 -228.5 -96.5t-97.5 -251.5h642q-2 155 -89 251.5t-227 96.5zM833 295h131q-24 -137 -141.5 -224.5t-287.5 -87.5q-219 0 -346 143.5t-127 390.5q0 243 127 391.5t338 148.5q206 0 328 -140t122 -373v-56h-779v-8q0 -176 92 -278.5t248 -102.5
q115 0 194 54t101 142zM796 1385v-95h-538v95h538z" />
    <glyph glyph-name="Ebreve" unicode="&#x114;" horiz-adv-x="1104" 
d="M1006 124v-124h-871v1443h871v-124h-735v-519h698v-122h-698v-554h735zM278 1832h99q8 -88 59.5 -138t134.5 -50t134.5 50t59.5 138h99q-9 -121 -87 -199t-206 -78t-206 78t-87 199z" />
    <glyph glyph-name="ebreve" unicode="&#x115;" horiz-adv-x="1040" 
d="M525 941q-139 0 -228.5 -96.5t-97.5 -251.5h642q-2 155 -89 251.5t-227 96.5zM833 295h131q-24 -137 -141.5 -224.5t-287.5 -87.5q-219 0 -346 143.5t-127 390.5q0 243 127 391.5t338 148.5q206 0 328 -140t122 -373v-56h-779v-8q0 -176 92 -278.5t248 -102.5
q115 0 194 54t101 142zM239 1485h103q0 -91 48.5 -143.5t136.5 -52.5t136.5 52.5t48.5 143.5h103q0 -130 -76.5 -207.5t-211.5 -77.5t-211.5 77.5t-76.5 207.5z" />
    <glyph glyph-name="Edotaccent" unicode="&#x116;" horiz-adv-x="1104" 
d="M1006 124v-124h-871v1443h871v-124h-735v-519h698v-122h-698v-554h735zM571 1623q-37 0 -63 26t-26 62q0 37 26 63t63 26t63 -26t26 -63q0 -36 -26 -62t-63 -26z" />
    <glyph glyph-name="edotaccent" unicode="&#x117;" horiz-adv-x="1040" 
d="M525 941q-139 0 -228.5 -96.5t-97.5 -251.5h642q-2 155 -89 251.5t-227 96.5zM833 295h131q-24 -137 -141.5 -224.5t-287.5 -87.5q-219 0 -346 143.5t-127 390.5q0 243 127 391.5t338 148.5q206 0 328 -140t122 -373v-56h-779v-8q0 -176 92 -278.5t248 -102.5
q115 0 194 54t101 142zM527 1256q-37 0 -63 25.5t-26 62.5t26 62.5t63 25.5t63 -25.5t26 -62.5t-26 -62.5t-63 -25.5z" />
    <glyph glyph-name="Eogonek" unicode="&#x118;" horiz-adv-x="1104" 
d="M1006 1319h-735v-519h698v-122h-698v-554h735v-124q-190 -88 -190 -198q0 -53 33 -76t81 -23q42 0 71 11v-96q-46 -16 -96 -16q-87 0 -147.5 43.5t-60.5 129.5q0 127 152 225h-714v1443h871v-124z" />
    <glyph glyph-name="eogonek" unicode="&#x119;" horiz-adv-x="1040" 
d="M199 593h642q-2 155 -89 251.5t-227 96.5q-139 0 -228.5 -96.5t-97.5 -251.5zM977 488h-779v-8q0 -176 92 -278.5t248 -102.5q115 0 194 54t101 142h131q-24 -142 -150 -230q-87 -75 -134.5 -137.5t-47.5 -122.5q0 -42 25 -72t81 -30q38 0 80 14v-96q-52 -19 -106 -19
q-86 0 -143.5 44t-57.5 126q0 113 120 219q-48 -8 -96 -8q-219 0 -346 143.5t-127 390.5q0 243 127 391.5t338 148.5q206 0 328 -140t122 -373v-56z" />
    <glyph glyph-name="Ecaron" unicode="&#x11a;" horiz-adv-x="1104" 
d="M1006 124v-124h-871v1443h871v-124h-735v-519h698v-122h-698v-554h735zM623 1552h-104l-268 294h128l190 -211h4l190 211h128z" />
    <glyph glyph-name="ecaron" unicode="&#x11b;" horiz-adv-x="1040" 
d="M525 941q-139 0 -228.5 -96.5t-97.5 -251.5h642q-2 155 -89 251.5t-227 96.5zM833 295h131q-24 -137 -141.5 -224.5t-287.5 -87.5q-219 0 -346 143.5t-127 390.5q0 243 127 391.5t338 148.5q206 0 328 -140t122 -373v-56h-779v-8q0 -176 92 -278.5t248 -102.5
q115 0 194 54t101 142zM475 1199l-254 301h124l180 -214h4l180 214h124l-254 -301h-104z" />
    <glyph glyph-name="Gcircumflex" unicode="&#x11c;" horiz-adv-x="1409" 
d="M1324 586q0 -286 -159 -447.5t-440 -161.5q-293 0 -470.5 206t-177.5 547q0 335 176.5 535.5t471.5 200.5q227 0 388 -125t202 -332h-142q-44 154 -163.5 242t-284.5 88q-235 0 -371.5 -163.5t-136.5 -445.5q0 -286 138 -456t370 -170q209 0 336 123t127 327v51h-448v120
h584v-139zM673 1846h104l268 -294h-128l-190 211h-4l-190 -211h-128z" />
    <glyph glyph-name="gcircumflex" unicode="&#x11d;" horiz-adv-x="1107" 
d="M525 107q150 0 242.5 114.5t92.5 301.5t-92.5 302t-242.5 115q-147 0 -237 -114.5t-90 -303.5q0 -188 90 -301.5t237 -113.5zM538 -385q-168 0 -286.5 82t-140.5 207h137q26 -78 105.5 -126.5t190.5 -48.5q145 0 230.5 77.5t85.5 205.5v209h-3q-43 -103 -138.5 -167
t-217.5 -64q-198 0 -318.5 146t-120.5 387q0 242 121 388t321 146q122 0 217.5 -64.5t142.5 -172.5h3v220h126v-1023q0 -182 -123.5 -292t-331.5 -110zM591 1500l254 -301h-124l-180 213h-4l-180 -213h-124l254 301h104z" />
    <glyph glyph-name="Gbreve" unicode="&#x11e;" horiz-adv-x="1409" 
d="M1324 586q0 -286 -159 -447.5t-440 -161.5q-293 0 -470.5 206t-177.5 547q0 335 176.5 535.5t471.5 200.5q227 0 388 -125t202 -332h-142q-44 154 -163.5 242t-284.5 88q-235 0 -371.5 -163.5t-136.5 -445.5q0 -286 138 -456t370 -170q209 0 336 123t127 327v51h-448v120
h584v-139zM432 1832h99q8 -88 59.5 -138t134.5 -50t134.5 50t59.5 138h99q-9 -121 -87 -199t-206 -78t-206 78t-87 199z" />
    <glyph glyph-name="gbreve" unicode="&#x11f;" horiz-adv-x="1107" 
d="M525 107q150 0 242.5 114.5t92.5 301.5t-92.5 302t-242.5 115q-147 0 -237 -114.5t-90 -303.5q0 -188 90 -301.5t237 -113.5zM538 -385q-168 0 -286.5 82t-140.5 207h137q26 -78 105.5 -126.5t190.5 -48.5q145 0 230.5 77.5t85.5 205.5v209h-3q-43 -103 -138.5 -167
t-217.5 -64q-198 0 -318.5 146t-120.5 387q0 242 121 388t321 146q122 0 217.5 -64.5t142.5 -172.5h3v220h126v-1023q0 -182 -123.5 -292t-331.5 -110zM251 1485h103q0 -91 48.5 -143.5t136.5 -52.5t136.5 52.5t48.5 143.5h103q0 -130 -76.5 -207.5t-211.5 -77.5
t-211.5 77.5t-76.5 207.5z" />
    <glyph glyph-name="Gdotaccent" unicode="&#x120;" horiz-adv-x="1409" 
d="M1324 586q0 -286 -159 -447.5t-440 -161.5q-293 0 -470.5 206t-177.5 547q0 335 176.5 535.5t471.5 200.5q227 0 388 -125t202 -332h-142q-44 154 -163.5 242t-284.5 88q-235 0 -371.5 -163.5t-136.5 -445.5q0 -286 138 -456t370 -170q209 0 336 123t127 327v51h-448v120
h584v-139zM725 1623q-37 0 -63 26t-26 62q0 37 26 63t63 26t63 -26t26 -63q0 -36 -26 -62t-63 -26z" />
    <glyph glyph-name="gdotaccent" unicode="&#x121;" horiz-adv-x="1107" 
d="M525 107q150 0 242.5 114.5t92.5 301.5t-92.5 302t-242.5 115q-147 0 -237 -114.5t-90 -303.5q0 -188 90 -301.5t237 -113.5zM538 -385q-168 0 -286.5 82t-140.5 207h137q26 -78 105.5 -126.5t190.5 -48.5q145 0 230.5 77.5t85.5 205.5v209h-3q-43 -103 -138.5 -167
t-217.5 -64q-198 0 -318.5 146t-120.5 387q0 242 121 388t321 146q122 0 217.5 -64.5t142.5 -172.5h3v220h126v-1023q0 -182 -123.5 -292t-331.5 -110zM539 1256q-37 0 -63 25.5t-26 62.5t26 62.5t63 25.5t63 -25.5t26 -62.5t-26 -62.5t-63 -25.5z" />
    <glyph glyph-name="Gcommaaccent" unicode="&#x122;" horiz-adv-x="1409" 
d="M1324 586q0 -286 -159 -447.5t-440 -161.5q-293 0 -470.5 206t-177.5 547q0 335 176.5 535.5t471.5 200.5q227 0 388 -125t202 -332h-142q-44 154 -163.5 242t-284.5 88q-235 0 -371.5 -163.5t-136.5 -445.5q0 -286 138 -456t370 -170q209 0 336 123t127 327v51h-448v120
h584v-139zM659 -483h-103l106 352h124z" />
    <glyph glyph-name="gcommaaccent" unicode="&#x123;" horiz-adv-x="1107" 
d="M605 1550h103l-106 -351h-125zM525 107q150 0 242.5 114.5t92.5 301.5t-92.5 302t-242.5 115q-147 0 -237 -114.5t-90 -303.5q0 -188 90 -301.5t237 -113.5zM538 -385q-168 0 -286.5 82t-140.5 207h137q26 -78 105.5 -126.5t190.5 -48.5q145 0 230.5 77.5t85.5 205.5v209
h-3q-43 -103 -138.5 -167t-217.5 -64q-198 0 -318.5 146t-120.5 387q0 242 121 388t321 146q122 0 217.5 -64.5t142.5 -172.5h3v220h126v-1023q0 -182 -123.5 -292t-331.5 -110z" />
    <glyph glyph-name="Hcircumflex" unicode="&#x124;" horiz-adv-x="1387" 
d="M1252 0h-137v677h-844v-677h-136v1443h136v-642h844v642h137v-1443zM641 1846h104l268 -294h-128l-190 211h-4l-190 -211h-128z" />
    <glyph glyph-name="hcircumflex" unicode="&#x125;" horiz-adv-x="1082" 
d="M123 0v1443h133v-595h3q40 97 130 153t213 56q170 0 271 -105t101 -280v-672h-133v650q0 136 -73 212.5t-204 76.5q-140 0 -224 -90t-84 -237v-612h-133zM138 1846h104l268 -294h-128l-190 211h-4l-190 -211h-128z" />
    <glyph glyph-name="Hbar" unicode="&#x126;" horiz-adv-x="1387" 
d="M1115 801v290h-844v-290h844zM1392 1201v-110h-140v-1091h-137v677h-844v-677h-136v1091h-140v110h140v242h136v-242h844v242h137v-242h140z" />
    <glyph glyph-name="hbar" unicode="&#x127;" horiz-adv-x="1082" 
d="M256 848h3q40 97 130 153t213 56q170 0 271 -105t101 -280v-672h-133v650q0 136 -73 212.5t-204 76.5q-140 0 -224 -90t-84 -237v-612h-133v1226h-126v97h126v120h133v-120h294v-97h-294v-378z" />
    <glyph glyph-name="Itilde" unicode="&#x128;" horiz-adv-x="406" 
d="M271 0h-136v1443h136v-1443zM319 1586q-47 0 -85 22.5t-58.5 50t-46 50t-51.5 22.5q-39 0 -60 -35t-21 -102h-93q0 107 47.5 169t132.5 62q38 0 68.5 -15t50.5 -36.5t37.5 -42.5t38 -36t43.5 -15q41 0 64 35t23 101h93q0 -106 -48.5 -168t-134.5 -62z" />
    <glyph glyph-name="itilde" unicode="&#x129;" horiz-adv-x="378" 
d="M123 0v1040h132v-1040h-132zM305 1218q-47 0 -85 22.5t-58.5 50t-46 50t-51.5 22.5q-39 0 -60 -34.5t-21 -101.5h-93q0 106 47.5 168t132.5 62q38 0 68.5 -15t50.5 -36.5t37.5 -42.5t38 -36t43.5 -15q41 0 64 35.5t23 100.5h93q0 -105 -48.5 -167.5t-134.5 -62.5z" />
    <glyph glyph-name="Imacron" unicode="&#x12a;" horiz-adv-x="406" 
d="M271 0h-136v1443h136v-1443zM472 1753v-95h-538v95h538z" />
    <glyph glyph-name="imacron" unicode="&#x12b;" horiz-adv-x="378" 
d="M123 0v1040h132v-1040h-132zM418 1385v-95h-458v95h458z" />
    <glyph glyph-name="Ibreve" unicode="&#x12c;" horiz-adv-x="406" 
d="M271 0h-136v1443h136v-1443zM-90 1832h99q8 -88 59.5 -138t134.5 -50t134.5 50t59.5 138h99q-9 -121 -87 -199t-206 -78t-206 78t-87 199z" />
    <glyph glyph-name="ibreve" unicode="&#x12d;" horiz-adv-x="378" 
d="M123 0v1040h132v-1040h-132zM-99 1485h103q0 -91 48.5 -143.5t136.5 -52.5t136.5 52.5t48.5 143.5h103q0 -130 -76.5 -207.5t-211.5 -77.5t-211.5 77.5t-76.5 207.5z" />
    <glyph glyph-name="Iogonek" unicode="&#x12e;" horiz-adv-x="406" 
d="M271 1443v-1443q-190 -88 -190 -198q0 -53 33 -76t82 -23q42 0 70 11v-96q-46 -16 -96 -16q-87 0 -147.5 43.5t-60.5 129.5q0 135 173 238v1430h136z" />
    <glyph glyph-name="iogonek" unicode="&#x12f;" horiz-adv-x="378" 
d="M189 1256q-37 0 -63 25.5t-26 62.5t26 62.5t63 25.5t63 -25.5t26 -62.5t-26 -62.5t-63 -25.5zM123 15v1025h132v-1040q-190 -88 -190 -198q0 -53 33 -76t82 -23q42 0 70 11v-96q-46 -16 -96 -16q-87 0 -147.5 43.5t-60.5 129.5q0 137 177 240z" />
    <glyph glyph-name="Idotaccent" unicode="&#x130;" horiz-adv-x="406" 
d="M271 0h-136v1443h136v-1443zM203 1623q-37 0 -63 26t-26 62q0 37 26 63t63 26t63 -26t26 -63q0 -36 -26 -62t-63 -26z" />
    <glyph glyph-name="dotlessi" unicode="&#x131;" horiz-adv-x="378" 
d="M123 0v1040h132v-1040h-132z" />
    <glyph glyph-name="IJ" unicode="&#x132;" horiz-adv-x="1393" 
d="M271 0h-136v1443h136v-1443zM448 331h135q5 -104 77.5 -169t184.5 -65q132 0 204.5 78t72.5 222v1046h136v-1048q0 -199 -109.5 -312t-303.5 -113q-173 0 -284.5 101t-112.5 260z" />
    <glyph glyph-name="ij" unicode="&#x133;" horiz-adv-x="757" 
d="M123 0v1040h132v-1040h-132zM189 1256q-37 0 -63 25.5t-26 62.5t26 62.5t63 25.5t63 -25.5t26 -62.5t-26 -62.5t-63 -25.5zM633 1040v-1106q0 -149 -72.5 -219t-226.5 -70q-31 0 -32 1v112h27q93 0 132.5 40t39.5 134v1108h132zM566 1256q-37 0 -63 25.5t-26 62.5
t26 62.5t63 25.5t63 -25.5t26 -62.5t-26 -62.5t-63 -25.5z" />
    <glyph glyph-name="Jcircumflex" unicode="&#x134;" horiz-adv-x="987" 
d="M42 331h135q5 -104 77.5 -169t184.5 -65q132 0 204.5 78t72.5 222v1046h136v-1048q0 -199 -109.5 -312t-303.5 -113q-173 0 -284.5 101t-112.5 260zM732 1846h104l268 -294h-128l-190 211h-4l-190 -211h-128z" />
    <glyph glyph-name="jcircumflex" unicode="&#x135;" horiz-adv-x="378" 
d="M255 1040v-1106q0 -149 -72.5 -219t-226.5 -70q-31 0 -32 1v112h27q93 0 132.5 40t39.5 134v1108h132zM240 1500l254 -301h-124l-180 213h-4l-180 -213h-124l254 301h104z" />
    <glyph glyph-name="Kcommaaccent" unicode="&#x136;" horiz-adv-x="1209" 
d="M271 0h-136v1443h136v-748h8l686 748h173l-593 -638l652 -805h-175l-573 708l-178 -193v-515zM515 -483h-103l106 352h124z" />
    <glyph glyph-name="kcommaaccent" unicode="&#x137;" horiz-adv-x="957" 
d="M256 548l514 492h164l-467 -449l476 -591h-155l-416 510l-116 -107v-403h-133v1443h133v-895zM443 -483h-103l106 352h124z" />
    <glyph glyph-name="Lacute" unicode="&#x139;" horiz-adv-x="1052" 
d="M994 124v-124h-859v1443h136v-1319h723zM265 1557h-106l184 289h151z" />
    <glyph glyph-name="lacute" unicode="&#x13a;" horiz-adv-x="378" 
d="M123 0v1443h132v-1443h-132zM251 1557h-106l184 289h151z" />
    <glyph glyph-name="Lcommaaccent" unicode="&#x13b;" horiz-adv-x="1052" 
d="M994 124v-124h-859v1443h136v-1319h723zM498 -483h-103l106 352h124z" />
    <glyph glyph-name="lcommaaccent" unicode="&#x13c;" horiz-adv-x="378" 
d="M123 0v1443h132v-1443h-132zM123 -483h-103l106 352h124z" />
    <glyph glyph-name="Lcaron" unicode="&#x13d;" horiz-adv-x="1052" 
d="M994 124v-124h-859v1443h136v-1319h723zM540 1500h131l-39 -470h-92v470z" />
    <glyph glyph-name="lcaron" unicode="&#x13e;" horiz-adv-x="512" 
d="M123 0v1443h132v-1443h-132zM399 1500h115l-23 -432h-92v432z" />
    <glyph glyph-name="Lslash" unicode="&#x141;" horiz-adv-x="1061" 
d="M280 124h723v-124h-859v702l-124 -61v110l124 61v631h136v-563l357 176v-111l-357 -176v-645z" />
    <glyph glyph-name="lslash" unicode="&#x142;" horiz-adv-x="378" 
d="M374 931v-110l-119 -62v-759h-132v691l-118 -61v111l118 61v641h132v-573z" />
    <glyph glyph-name="Nacute" unicode="&#x143;" horiz-adv-x="1393" 
d="M270 0h-135v1443h135l846 -1205h7v1205h135v-1443h-132l-849 1206h-7v-1206zM758 1557h-106l184 289h151z" />
    <glyph glyph-name="nacute" unicode="&#x144;" horiz-adv-x="1062" 
d="M114 0v1040h125v-192h3q41 97 130.5 153t212.5 56q171 0 269.5 -103t98.5 -280v-674h-132v653q0 136 -71.5 211t-202.5 75q-135 0 -218 -89t-83 -234v-616h-132zM588 1199h-107l186 301h147z" />
    <glyph glyph-name="Ncommaaccent" unicode="&#x145;" horiz-adv-x="1393" 
d="M270 0h-135v1443h135l846 -1205h7v1205h135v-1443h-132l-849 1206h-7v-1206zM630 -483h-103l106 352h124z" />
    <glyph glyph-name="ncommaaccent" unicode="&#x146;" horiz-adv-x="1062" 
d="M114 0v1040h125v-192h3q41 97 130.5 153t212.5 56q171 0 269.5 -103t98.5 -280v-674h-132v653q0 136 -71.5 211t-202.5 75q-135 0 -218 -89t-83 -234v-616h-132zM468 -483h-103l106 352h124z" />
    <glyph glyph-name="Ncaron" unicode="&#x147;" horiz-adv-x="1393" 
d="M270 0h-135v1443h135l846 -1205h7v1205h135v-1443h-132l-849 1206h-7v-1206zM748 1552h-104l-268 294h128l190 -211h4l190 211h128z" />
    <glyph glyph-name="ncaron" unicode="&#x148;" horiz-adv-x="1062" 
d="M114 0v1040h125v-192h3q41 97 130.5 153t212.5 56q171 0 269.5 -103t98.5 -280v-674h-132v653q0 136 -71.5 211t-202.5 75q-135 0 -218 -89t-83 -234v-616h-132zM482 1199l-254 301h124l180 -214h4l180 214h124l-254 -301h-104z" />
    <glyph glyph-name="eng" unicode="&#x14b;" horiz-adv-x="1062" 
d="M114 0v1040h125v-192h3q41 97 130.5 153t212.5 56q171 0 269.5 -103t98.5 -280v-771q0 -134 -72 -196t-180 -62q-61 0 -111 24v105q37 -14 78 -14q153 0 153 159v734q0 136 -71.5 211t-202.5 75q-135 0 -218 -89t-83 -234v-616h-132z" />
    <glyph glyph-name="Omacron" unicode="&#x14c;" horiz-adv-x="1465" 
d="M732 1466q302 0 479 -201t177 -544t-177 -543.5t-479 -200.5t-478.5 200.5t-176.5 543.5t177 544t478 201zM732 1339q-237 0 -376 -167t-139 -451t139 -450.5t376 -166.5t376.5 167t139.5 450q0 284 -139.5 451t-376.5 167zM1001 1753v-95h-538v95h538z" />
    <glyph glyph-name="omacron" unicode="&#x14d;" horiz-adv-x="1072" 
d="M536 -17q-214 0 -344 145.5t-130 391.5t130.5 391.5t343.5 145.5q214 0 344 -145.5t130 -391.5t-130 -391.5t-344 -145.5zM536 100q155 0 247.5 112t92.5 308t-92.5 308t-247.5 112t-247 -112t-92 -308t92 -308t247 -112zM806 1385v-95h-538v95h538z" />
    <glyph glyph-name="Obreve" unicode="&#x14e;" horiz-adv-x="1465" 
d="M732 1466q302 0 479 -201t177 -544t-177 -543.5t-479 -200.5t-478.5 200.5t-176.5 543.5t177 544t478 201zM732 1339q-237 0 -376 -167t-139 -451t139 -450.5t376 -166.5t376.5 167t139.5 450q0 284 -139.5 451t-376.5 167zM439 1832h99q8 -88 59.5 -138t134.5 -50
t134.5 50t59.5 138h99q-9 -121 -87 -199t-206 -78t-206 78t-87 199z" />
    <glyph glyph-name="obreve" unicode="&#x14f;" horiz-adv-x="1072" 
d="M536 -17q-214 0 -344 145.5t-130 391.5t130.5 391.5t343.5 145.5q214 0 344 -145.5t130 -391.5t-130 -391.5t-344 -145.5zM536 100q155 0 247.5 112t92.5 308t-92.5 308t-247.5 112t-247 -112t-92 -308t92 -308t247 -112zM249 1485h103q0 -91 48.5 -143.5t136.5 -52.5
t136.5 52.5t48.5 143.5h103q0 -130 -76.5 -207.5t-211.5 -77.5t-211.5 77.5t-76.5 207.5z" />
    <glyph glyph-name="Ohungarumlaut" unicode="&#x150;" horiz-adv-x="1465" 
d="M732 1466q302 0 479 -201t177 -544t-177 -543.5t-479 -200.5t-478.5 200.5t-176.5 543.5t177 544t478 201zM732 1339q-237 0 -376 -167t-139 -451t139 -450.5t376 -166.5t376.5 167t139.5 450q0 284 -139.5 451t-376.5 167zM545 1558l132 288h140l-174 -288h-98z
M815 1558l172 288h146l-211 -288h-107z" />
    <glyph glyph-name="ohungarumlaut" unicode="&#x151;" horiz-adv-x="1072" 
d="M536 -17q-214 0 -344 145.5t-130 391.5t130.5 391.5t343.5 145.5q214 0 344 -145.5t130 -391.5t-130 -391.5t-344 -145.5zM536 100q155 0 247.5 112t92.5 308t-92.5 308t-247.5 112t-247 -112t-92 -308t92 -308t247 -112zM345 1199l139 301h141l-182 -301h-98zM616 1199
l180 301h146l-220 -301h-106z" />
    <glyph glyph-name="OE" unicode="&#x152;" horiz-adv-x="2200" 
d="M739 1339q-240 0 -381 -167t-141 -451q0 -283 141 -450t381 -167q239 0 380 167t141 450t-141 450.5t-380 167.5zM1262 0v290q-71 -149 -208 -231t-315 -82q-305 0 -483.5 200.5t-178.5 543.5q0 344 178.5 544.5t483.5 200.5q180 0 316 -80.5t207 -229.5v287h849v-124
h-712v-519h674v-122h-674v-554h712v-124h-849z" />
    <glyph glyph-name="oe" unicode="&#x153;" horiz-adv-x="1852" 
d="M1349 -17q-140 0 -250 72.5t-154 188.5h-7q-52 -124 -155.5 -193t-246.5 -69q-216 0 -345 145.5t-129 391.5t129 391.5t345 145.5q143 0 246 -70t156 -197h7q44 120 149.5 194t245.5 74q206 0 328 -140t122 -372v-57h-778v-9q0 -170 93 -275t246 -105q114 0 193 54.5
t103 141.5h131q-24 -135 -143 -223.5t-286 -88.5zM1653 593q-2 155 -89 251.5t-226 96.5q-137 0 -227 -96.5t-99 -251.5h641zM197 519q0 -195 91 -307.5t248 -112.5t248 112.5t91 307.5t-91 307.5t-248 112.5t-248 -112.5t-91 -307.5z" />
    <glyph glyph-name="Racute" unicode="&#x154;" horiz-adv-x="1193" 
d="M271 1321v-609h362q158 0 245 80t87 225q0 143 -89.5 223.5t-247.5 80.5h-357zM271 591v-591h-136v1443h509q211 0 336.5 -114.5t125.5 -307.5q0 -153 -82 -262t-227 -146l350 -613h-160l-332 591h-22h-362zM593 1557h-106l184 289h151z" />
    <glyph glyph-name="racute" unicode="&#x155;" horiz-adv-x="615" 
d="M114 0v1040h125v-185h3q29 95 98 148.5t165 53.5q38 0 82 -11v-130q-32 15 -99 15q-110 0 -176 -78t-66 -205v-648h-132zM398 1199h-107l186 301h147z" />
    <glyph glyph-name="Rcommaaccent" unicode="&#x156;" horiz-adv-x="1193" 
d="M271 1321v-609h362q158 0 245 80t87 225q0 143 -89.5 223.5t-247.5 80.5h-357zM271 591v-591h-136v1443h509q211 0 336.5 -114.5t125.5 -307.5q0 -153 -82 -262t-227 -146l350 -613h-160l-332 591h-22h-362zM465 -483h-103l106 352h124z" />
    <glyph glyph-name="rcommaaccent" unicode="&#x157;" horiz-adv-x="615" 
d="M114 0v1040h125v-185h3q29 95 98 148.5t165 53.5q38 0 82 -11v-130q-32 15 -99 15q-110 0 -176 -78t-66 -205v-648h-132zM114 -483h-103l106 352h124z" />
    <glyph glyph-name="Rcaron" unicode="&#x158;" horiz-adv-x="1193" 
d="M271 1321v-609h362q158 0 245 80t87 225q0 143 -89.5 223.5t-247.5 80.5h-357zM271 591v-591h-136v1443h509q211 0 336.5 -114.5t125.5 -307.5q0 -153 -82 -262t-227 -146l350 -613h-160l-332 591h-22h-362zM583 1552h-104l-268 294h128l190 -211h4l190 211h128z" />
    <glyph glyph-name="rcaron" unicode="&#x159;" horiz-adv-x="615" 
d="M114 0v1040h125v-185h3q29 95 98 148.5t165 53.5q38 0 82 -11v-130q-32 15 -99 15q-110 0 -176 -78t-66 -205v-648h-132zM292 1199l-254 301h124l180 -214h4l180 214h124l-254 -301h-104z" />
    <glyph glyph-name="Sacute" unicode="&#x15a;" horiz-adv-x="1181" 
d="M64 385h137q13 -129 123.5 -206.5t280.5 -77.5q163 0 267.5 78t104.5 201q0 103 -73.5 167t-238.5 102l-157 35q-213 47 -310 141t-97 245q0 174 139.5 285t353.5 111q211 0 350.5 -112.5t145.5 -286.5h-137q-11 124 -110 199.5t-252 75.5q-150 0 -250 -73t-100 -193
q0 -99 72 -162.5t231 -99.5l157 -36q222 -50 319 -139.5t97 -240.5q0 -192 -142 -306.5t-377 -114.5q-230 0 -376.5 112t-157.5 296zM662 1557h-106l184 289h151z" />
    <glyph glyph-name="sacute" unicode="&#x15b;" horiz-adv-x="927" 
d="M93 762q0 129 103.5 212t266.5 83q165 0 269 -87.5t113 -230.5h-127q-13 98 -80 153.5t-175 55.5q-106 0 -172.5 -50.5t-66.5 -128.5q0 -64 47 -105t150 -66l157 -37q155 -37 220.5 -101.5t65.5 -175.5q0 -132 -110.5 -216.5t-281.5 -84.5q-175 0 -285 86t-124 229h132
q15 -98 87.5 -152t189.5 -54t188 50t71 132q0 68 -43.5 108.5t-147.5 65.5l-156 37q-149 35 -220 102t-71 175zM522 1199h-107l186 301h147z" />
    <glyph glyph-name="Scircumflex" unicode="&#x15c;" horiz-adv-x="1181" 
d="M64 385h137q13 -129 123.5 -206.5t280.5 -77.5q163 0 267.5 78t104.5 201q0 103 -73.5 167t-238.5 102l-157 35q-213 47 -310 141t-97 245q0 174 139.5 285t353.5 111q211 0 350.5 -112.5t145.5 -286.5h-137q-11 124 -110 199.5t-252 75.5q-150 0 -250 -73t-100 -193
q0 -99 72 -162.5t231 -99.5l157 -36q222 -50 319 -139.5t97 -240.5q0 -192 -142 -306.5t-377 -114.5q-230 0 -376.5 112t-157.5 296zM548 1846h104l268 -294h-128l-190 211h-4l-190 -211h-128z" />
    <glyph glyph-name="scircumflex" unicode="&#x15d;" horiz-adv-x="927" 
d="M93 762q0 129 103.5 212t266.5 83q165 0 269 -87.5t113 -230.5h-127q-13 98 -80 153.5t-175 55.5q-106 0 -172.5 -50.5t-66.5 -128.5q0 -64 47 -105t150 -66l157 -37q155 -37 220.5 -101.5t65.5 -175.5q0 -132 -110.5 -216.5t-281.5 -84.5q-175 0 -285 86t-124 229h132
q15 -98 87.5 -152t189.5 -54t188 50t71 132q0 68 -43.5 108.5t-147.5 65.5l-156 37q-149 35 -220 102t-71 175zM520 1500l254 -301h-124l-180 213h-4l-180 -213h-124l254 301h104z" />
    <glyph glyph-name="Scedilla" unicode="&#x15e;" horiz-adv-x="1181" 
d="M544 814l157 -36q222 -50 319 -139.5t97 -240.5q0 -181 -126.5 -293.5t-340.5 -125.5l-52 -110q98 -2 154.5 -44t56.5 -116q0 -80 -66 -126.5t-167 -48.5q-92 -2 -140 15v85q46 -13 115 -13q60 0 103 22.5t43 62.5q0 79 -148 79h-62v59l63 134q-212 13 -344 123.5
t-142 283.5h137q13 -129 123.5 -206.5t280.5 -77.5q163 0 267.5 78t104.5 201q0 103 -73.5 167t-238.5 102l-157 35q-213 47 -310 141t-97 245q0 174 139.5 285t353.5 111q211 0 350.5 -112.5t145.5 -286.5h-137q-11 124 -110 199.5t-252 75.5q-150 0 -250 -73t-100 -193
q0 -99 72 -162.5t231 -99.5z" />
    <glyph glyph-name="scedilla" unicode="&#x15f;" horiz-adv-x="927" 
d="M421 598l157 -37q155 -37 220.5 -101.5t65.5 -175.5q0 -120 -94 -202t-243 -96l-55 -117q98 -2 154.5 -44t56.5 -116q0 -80 -66 -126.5t-167 -48.5q-92 -2 -140 15v85q46 -13 115 -13q60 0 103 22.5t43 62.5q0 79 -148 79h-62v59l66 141q-157 11 -254 95.5t-110 217.5
h132q15 -98 87.5 -152t189.5 -54t188 50t71 132q0 68 -43.5 108.5t-147.5 65.5l-156 37q-149 35 -220 102t-71 175q0 129 103.5 212t266.5 83q165 0 269 -87.5t113 -230.5h-127q-13 98 -80 153.5t-175 55.5q-106 0 -172.5 -50.5t-66.5 -128.5q0 -64 47 -105t150 -66z" />
    <glyph glyph-name="Scaron" unicode="&#x160;" horiz-adv-x="1181" 
d="M64 385h137q13 -129 123.5 -206.5t280.5 -77.5q163 0 267.5 78t104.5 201q0 103 -73.5 167t-238.5 102l-157 35q-213 47 -310 141t-97 245q0 174 139.5 285t353.5 111q211 0 350.5 -112.5t145.5 -286.5h-137q-11 124 -110 199.5t-252 75.5q-150 0 -250 -73t-100 -193
q0 -99 72 -162.5t231 -99.5l157 -36q222 -50 319 -139.5t97 -240.5q0 -192 -142 -306.5t-377 -114.5q-230 0 -376.5 112t-157.5 296zM652 1552h-104l-268 294h128l190 -211h4l190 211h128z" />
    <glyph glyph-name="scaron" unicode="&#x161;" horiz-adv-x="927" 
d="M93 762q0 129 103.5 212t266.5 83q165 0 269 -87.5t113 -230.5h-127q-13 98 -80 153.5t-175 55.5q-106 0 -172.5 -50.5t-66.5 -128.5q0 -64 47 -105t150 -66l157 -37q155 -37 220.5 -101.5t65.5 -175.5q0 -132 -110.5 -216.5t-281.5 -84.5q-175 0 -285 86t-124 229h132
q15 -98 87.5 -152t189.5 -54t188 50t71 132q0 68 -43.5 108.5t-147.5 65.5l-156 37q-149 35 -220 102t-71 175zM416 1199l-254 301h124l180 -214h4l180 214h124l-254 -301h-104z" />
    <glyph glyph-name="Tcedilla" unicode="&#x162;" horiz-adv-x="1165" 
d="M651 7v-7l-62 -131q98 -2 154.5 -44t56.5 -116q0 -80 -66 -126.5t-167 -48.5q-93 -2 -141 15v85q46 -13 116 -13q60 0 103 22.5t43 62.5q0 79 -148 79h-62v59l73 156h-37v1319h-476v124h1090v-124h-477v-1312z" />
    <glyph glyph-name="tcedilla" unicode="&#x163;" horiz-adv-x="582" 
d="M419 -6l-59 -125q98 -2 154.5 -44t56.5 -116q0 -80 -66 -126.5t-167 -48.5q-92 -2 -140 15v85q46 -13 115 -13q60 0 103 22.5t43 62.5q0 79 -148 79h-62v59l74 159q-80 19 -116 79t-36 174v674h-155v110h155v260h132v-260h205v-110h-205v-668q0 -80 33 -116.5t105 -36.5
q56 0 72 4v-113q-26 -6 -94 -6z" />
    <glyph glyph-name="Tcaron" unicode="&#x164;" horiz-adv-x="1165" 
d="M651 0h-137v1319h-476v124h1090v-124h-477v-1319zM635 1552h-104l-268 294h128l190 -211h4l190 211h128z" />
    <glyph glyph-name="tcaron" unicode="&#x165;" horiz-adv-x="602" 
d="M171 1300h132v-260h205v-110h-205v-668q0 -80 33 -116.5t105 -36.5q56 0 72 4v-113q-28 -6 -98 -6q-131 0 -187.5 60.5t-56.5 201.5v674h-155v110h155v260zM444 1618h115l-24 -432h-91v432z" />
    <glyph glyph-name="Tbar" unicode="&#x166;" horiz-adv-x="1165" 
d="M1128 1319h-477v-541h341v-110h-341v-668h-137v668h-340v110h340v541h-476v124h1090v-124z" />
    <glyph glyph-name="tbar" unicode="&#x167;" horiz-adv-x="582" 
d="M514 529h-211v-267q0 -80 33 -116.5t105 -36.5q56 0 72 4v-113q-28 -6 -98 -6q-131 0 -187.5 60.5t-56.5 201.5v273h-155v98h155v303h-155v110h155v260h132v-260h205v-110h-205v-303h211v-98z" />
    <glyph glyph-name="Utilde" unicode="&#x168;" horiz-adv-x="1386" 
d="M271 1443v-931q0 -184 113 -296t309 -112t309 112t113 296v931h137v-939q0 -236 -151 -381.5t-408 -145.5t-407.5 145.5t-150.5 381.5v939h136zM809 1586q-47 0 -85 22.5t-58.5 50t-46 50t-51.5 22.5q-39 0 -60 -35t-21 -102h-93q0 107 47.5 169t132.5 62q38 0 68.5 -15
t50.5 -36.5t37.5 -42.5t38 -36t43.5 -15q41 0 64 35t23 101h93q0 -106 -48.5 -168t-134.5 -62z" />
    <glyph glyph-name="utilde" unicode="&#x169;" horiz-adv-x="1062" 
d="M948 1040v-1040h-125v193h-3q-42 -97 -132.5 -153.5t-212.5 -56.5q-169 0 -268 102.5t-99 278.5v676h133v-653q0 -138 70.5 -212t201.5 -74q136 0 219.5 88t83.5 234v617h132zM644 1218q-47 0 -85 22.5t-58.5 50t-46 50t-51.5 22.5q-39 0 -60 -34.5t-21 -101.5h-93
q0 106 47.5 168t132.5 62q38 0 68.5 -15t50.5 -36.5t37.5 -42.5t38 -36t43.5 -15q41 0 64 35.5t23 100.5h93q0 -105 -48.5 -167.5t-134.5 -62.5z" />
    <glyph glyph-name="Umacron" unicode="&#x16a;" horiz-adv-x="1386" 
d="M271 1443v-931q0 -184 113 -296t309 -112t309 112t113 296v931h137v-939q0 -236 -151 -381.5t-408 -145.5t-407.5 145.5t-150.5 381.5v939h136zM962 1753v-95h-538v95h538z" />
    <glyph glyph-name="umacron" unicode="&#x16b;" horiz-adv-x="1062" 
d="M948 1040v-1040h-125v193h-3q-42 -97 -132.5 -153.5t-212.5 -56.5q-169 0 -268 102.5t-99 278.5v676h133v-653q0 -138 70.5 -212t201.5 -74q136 0 219.5 88t83.5 234v617h132zM798 1385v-95h-538v95h538z" />
    <glyph glyph-name="Ubreve" unicode="&#x16c;" horiz-adv-x="1386" 
d="M271 1443v-931q0 -184 113 -296t309 -112t309 112t113 296v931h137v-939q0 -236 -151 -381.5t-408 -145.5t-407.5 145.5t-150.5 381.5v939h136zM400 1832h99q8 -88 59.5 -138t134.5 -50t134.5 50t59.5 138h99q-9 -121 -87 -199t-206 -78t-206 78t-87 199z" />
    <glyph glyph-name="ubreve" unicode="&#x16d;" horiz-adv-x="1062" 
d="M948 1040v-1040h-125v193h-3q-42 -97 -132.5 -153.5t-212.5 -56.5q-169 0 -268 102.5t-99 278.5v676h133v-653q0 -138 70.5 -212t201.5 -74q136 0 219.5 88t83.5 234v617h132zM241 1485h103q0 -91 48.5 -143.5t136.5 -52.5t136.5 52.5t48.5 143.5h103
q0 -130 -76.5 -207.5t-211.5 -77.5t-211.5 77.5t-76.5 207.5z" />
    <glyph glyph-name="Uring" unicode="&#x16e;" horiz-adv-x="1386" 
d="M271 1443v-931q0 -184 113 -296t309 -112t309 112t113 296v931h137v-939q0 -236 -151 -381.5t-408 -145.5t-407.5 145.5t-150.5 381.5v939h136zM693 1516q-75 0 -128.5 54t-53.5 129t53.5 128.5t128.5 53.5t128.5 -53.5t53.5 -128.5t-53.5 -129t-128.5 -54zM693 1588
q46 0 78 32t32 79q0 46 -32 78t-78 32t-78 -32t-32 -78q0 -47 32 -79t78 -32z" />
    <glyph glyph-name="uring" unicode="&#x16f;" horiz-adv-x="1062" 
d="M948 1040v-1040h-125v193h-3q-42 -97 -132.5 -153.5t-212.5 -56.5q-169 0 -268 102.5t-99 278.5v676h133v-653q0 -138 70.5 -212t201.5 -74q136 0 219.5 88t83.5 234v617h132zM529 1149q-75 0 -128.5 54t-53.5 129t53.5 128.5t128.5 53.5t128.5 -53.5t53.5 -128.5
t-53.5 -129t-128.5 -54zM529 1221q46 0 78 32t32 79q0 46 -32 78t-78 32t-78 -32t-32 -78q0 -47 32 -79t78 -32z" />
    <glyph glyph-name="Uhungarumlaut" unicode="&#x170;" horiz-adv-x="1386" 
d="M271 1443v-931q0 -184 113 -296t309 -112t309 112t113 296v931h137v-939q0 -236 -151 -381.5t-408 -145.5t-407.5 145.5t-150.5 381.5v939h136zM506 1558l132 288h140l-174 -288h-98zM776 1558l172 288h146l-211 -288h-107z" />
    <glyph glyph-name="uhungarumlaut" unicode="&#x171;" horiz-adv-x="1062" 
d="M948 1040v-1040h-125v193h-3q-42 -97 -132.5 -153.5t-212.5 -56.5q-169 0 -268 102.5t-99 278.5v676h133v-653q0 -138 70.5 -212t201.5 -74q136 0 219.5 88t83.5 234v617h132zM337 1199l139 301h141l-182 -301h-98zM608 1199l180 301h146l-220 -301h-106z" />
    <glyph glyph-name="Uogonek" unicode="&#x172;" horiz-adv-x="1386" 
d="M1115 1443h137v-939q0 -135 -51.5 -243.5t-147.5 -178.5q-96 -80 -149.5 -147t-53.5 -130q0 -42 25 -72t81 -30q38 0 80 14v-96q-54 -19 -107 -19q-85 0 -142.5 44t-57.5 126q0 114 123 222q-76 -17 -159 -17q-257 0 -407.5 145.5t-150.5 381.5v939h136v-931
q0 -184 113 -296t309 -112t309 112t113 296v931z" />
    <glyph glyph-name="uogonek" unicode="&#x173;" horiz-adv-x="1062" 
d="M948 1040v-1040q-190 -88 -190 -198q0 -53 33 -76t82 -23q43 0 70 11v-96q-46 -16 -96 -16q-87 0 -147.5 43.5t-60.5 129.5q0 140 184 244v174h-3q-42 -97 -132.5 -153.5t-212.5 -56.5q-169 0 -268 102.5t-99 278.5v676h133v-653q0 -138 70.5 -212t201.5 -74
q136 0 219.5 88t83.5 234v617h132z" />
    <glyph glyph-name="Wcircumflex" unicode="&#x174;" horiz-adv-x="1854" 
d="M923 1209l-355 -1209h-127l-397 1443h142l318 -1233h6l349 1233h136l348 -1233h7l317 1233h143l-398 -1443h-126l-355 1209h-8zM875 1846h104l268 -294h-128l-190 211h-4l-190 -211h-128z" />
    <glyph glyph-name="wcircumflex" unicode="&#x175;" horiz-adv-x="1430" 
d="M1410 1040l-295 -1040h-140l-259 863h-3l-258 -863h-140l-296 1040h134l233 -892h3l259 892h134l259 -892h3l233 892h133zM767 1500l254 -301h-124l-180 213h-4l-180 -213h-124l254 301h104z" />
    <glyph glyph-name="Ycircumflex" unicode="&#x176;" horiz-adv-x="1219" 
d="M678 0h-137v624l-517 819h156l427 -685h5l427 685h156l-517 -819v-624zM557 1846h104l268 -294h-128l-190 211h-4l-190 -211h-128z" />
    <glyph glyph-name="ycircumflex" unicode="&#x177;" horiz-adv-x="951" 
d="M189 -376q-36 0 -66 6v113q24 -6 62 -6q72 0 115.5 40t78.5 138l27 78l-389 1047h142l316 -908h3l316 908h140l-409 -1103q-68 -183 -138 -248t-198 -65zM529 1500l254 -301h-124l-180 213h-4l-180 -213h-124l254 301h104z" />
    <glyph glyph-name="Ydieresis" unicode="&#x178;" horiz-adv-x="1219" 
d="M678 0h-137v624l-517 819h156l427 -685h5l427 685h156l-517 -819v-624zM438 1623q-36 0 -62 26t-26 62q0 37 26 63t62 26q37 0 63 -26t26 -63q0 -36 -26 -62t-63 -26zM780 1623q-37 0 -63 26t-26 62q0 37 26 63t63 26t62.5 -26t25.5 -63q0 -36 -25.5 -62t-62.5 -26z" />
    <glyph glyph-name="Zacute" unicode="&#x179;" horiz-adv-x="1224" 
d="M87 0v99l866 1214v6h-838v124h1011v-100l-864 -1213v-6h876v-124h-1051zM674 1557h-106l184 289h151z" />
    <glyph glyph-name="zacute" unicode="&#x17a;" horiz-adv-x="932" 
d="M80 0v98l619 829v3h-619v110h771v-100l-619 -827v-3h621v-110h-773zM520 1199h-107l186 301h147z" />
    <glyph glyph-name="Zdotaccent" unicode="&#x17b;" horiz-adv-x="1224" 
d="M87 0v99l866 1214v6h-838v124h1011v-100l-864 -1213v-6h876v-124h-1051zM612 1623q-37 0 -63 26t-26 62q0 37 26 63t63 26t63 -26t26 -63q0 -36 -26 -62t-63 -26z" />
    <glyph glyph-name="zdotaccent" unicode="&#x17c;" horiz-adv-x="932" 
d="M80 0v98l619 829v3h-619v110h771v-100l-619 -827v-3h621v-110h-773zM466 1256q-37 0 -63 25.5t-26 62.5t26 62.5t63 25.5t63 -25.5t26 -62.5t-26 -62.5t-63 -25.5z" />
    <glyph glyph-name="Zcaron" unicode="&#x17d;" horiz-adv-x="1224" 
d="M87 0v99l866 1214v6h-838v124h1011v-100l-864 -1213v-6h876v-124h-1051zM664 1552h-104l-268 294h128l190 -211h4l190 211h128z" />
    <glyph glyph-name="zcaron" unicode="&#x17e;" horiz-adv-x="932" 
d="M80 0v98l619 829v3h-619v110h771v-100l-619 -827v-3h621v-110h-773zM414 1199l-254 301h124l180 -214h4l180 214h124l-254 -301h-104z" />
    <glyph glyph-name="uni04D8" unicode="&#x4d8;" horiz-adv-x="1411" 
d="M697 -30q-282 0 -446.5 190t-166.5 518v67h1094v23q2 258 -137 418t-367 160q-153 0 -262 -65t-163 -191h-140q62 178 213.5 280.5t353.5 102.5q298 0 473 -202.5t175 -547.5q0 -340 -172 -546.5t-455 -206.5zM700 97q196 0 325.5 143.5t149.5 382.5h-942
q12 -245 137 -385.5t330 -140.5z" />
    <glyph glyph-name="uni04D8" unicode="&#x18f;" horiz-adv-x="1411" 
d="M697 -30q-282 0 -446.5 190t-166.5 518v67h1094v23q2 258 -137 418t-367 160q-153 0 -262 -65t-163 -191h-140q62 178 213.5 280.5t353.5 102.5q298 0 473 -202.5t175 -547.5q0 -340 -172 -546.5t-455 -206.5zM700 97q196 0 325.5 143.5t149.5 382.5h-942
q12 -245 137 -385.5t330 -140.5z" />
    <glyph glyph-name="florin" unicode="&#x192;" horiz-adv-x="1218" 
d="M1180 1406v-121q-75 40 -180 40q-118 0 -182 -58t-84 -183l-44 -269h385v-106h-402l-58 -352q-30 -182 -121.5 -270t-254.5 -88q-116 0 -199 43v128q34 -22 87 -36t100 -14q114 0 174.5 59.5t82.5 192.5l55 337h-365v106h383l45 278q58 351 383 351q117 0 195 -38z" />
    <glyph glyph-name="Ohorn" unicode="&#x1a0;" horiz-adv-x="1465" 
d="M732 -23q-302 0 -478.5 200.5t-176.5 543.5t177 544t478 201q69 0 194.5 -17t209.5 -17q79 0 109.5 23t30.5 84v129h122v-168q0 -81 -52.5 -125.5t-149.5 -44.5h-72v-5q119 -73 191.5 -239.5t72.5 -364.5q0 -343 -177 -543.5t-479 -200.5zM732 104q237 0 376.5 167
t139.5 450q0 285 -139.5 451.5t-376.5 166.5t-376 -167t-139 -451t139 -450.5t376 -166.5z" />
    <glyph glyph-name="ohorn" unicode="&#x1a1;" horiz-adv-x="1103" 
d="M536 100q156 0 248 112.5t92 307.5t-92.5 307.5t-247.5 112.5t-247 -112t-92 -308t92 -308t247 -112zM1010 520q0 -245 -130 -391t-344 -146t-344 146t-130 391t130 391t344 146q66 0 149 -14t123 -14q63 0 87.5 21t24.5 74v128h121v-167q0 -69 -39.5 -108.5
t-108.5 -39.5h-47v-4q78 -64 121 -170.5t43 -242.5z" />
    <glyph glyph-name="Uhorn" unicode="&#x1af;" horiz-adv-x="1531" 
d="M693 -23q-254 0 -406 143.5t-152 383.5v939h136v-931q0 -185 115.5 -296.5t306.5 -111.5q192 0 307 111.5t115 296.5v931h163q101 0 101 94v158h122v-182q0 -80 -50 -125t-139 -45h-60v-839q0 -240 -152.5 -383.5t-406.5 -143.5z" />
    <glyph glyph-name="uhorn" unicode="&#x1b0;" horiz-adv-x="1165" 
d="M820 193q-42 -97 -132.5 -153.5t-212.5 -56.5q-169 0 -268 102.5t-99 278.5v676h133v-653q0 -138 70.5 -212t201.5 -74q136 0 219.5 88t83.5 234v617h138q97 0 97 90v138h121v-162q0 -78 -48.5 -121.5t-135.5 -43.5h-40v-941h-125v193h-3z" />
    <glyph glyph-name="dentalclick" unicode="&#x1c0;" horiz-adv-x="626" 
d="M256 -344v1787h114v-1787h-114z" />
    <glyph glyph-name="lateralclick" unicode="&#x1c1;" horiz-adv-x="995" 
d="M256 -344v1787h114v-1787h-114zM626 -344v1787h113v-1787h-113z" />
    <glyph glyph-name="alveolarclick" unicode="&#x1c2;" horiz-adv-x="838" 
d="M766 937h-290v-268h290v-103h-290v-918h-114v918h-290v103h290v268h-290v103h290v403h114v-403h290v-103z" />
    <glyph glyph-name="retroflexclick" unicode="&#x1c3;" horiz-adv-x="531" 
d="M196 1443h138l-8 -987h-121zM265 -9q-39 0 -66 27t-27 66q0 40 27 67t66 27q40 0 67 -27t27 -67q0 -39 -27 -66t-67 -27z" />
    <glyph glyph-name="uni01C4" unicode="&#x1c4;" horiz-adv-x="2588" 
d="M135 1443h468q324 0 504 -189.5t180 -531.5q0 -343 -179.5 -532.5t-504.5 -189.5h-468v1443zM272 1319v-1195h323q266 0 409.5 155t143.5 442q0 288 -143.5 443t-409.5 155h-323zM1451 0v99l866 1214v6h-838v124h1011v-100l-864 -1213v-6h876v-124h-1051zM2028 1552h-104
l-268 294h128l190 -211h4l190 211h128z" />
    <glyph glyph-name="uni01C5" unicode="&#x1c5;" horiz-adv-x="2296" 
d="M135 1443h468q324 0 504 -189.5t180 -531.5q0 -343 -179.5 -532.5t-504.5 -189.5h-468v1443zM272 1319v-1195h323q266 0 409.5 155t143.5 442q0 288 -143.5 443t-409.5 155h-323zM1444 0v98l619 829v3h-619v110h771v-100l-619 -827v-3h621v-110h-773zM1778 1199l-254 301
h124l180 -214h4l180 214h124l-254 -301h-104z" />
    <glyph glyph-name="uni01C6" unicode="&#x1c6;" horiz-adv-x="2051" 
d="M507 -17q-198 0 -321.5 148t-123.5 389q0 242 122.5 389.5t319.5 147.5q123 0 218.5 -63.5t137.5 -167.5h3v617h133v-1443h-126v220h-3q-45 -107 -141 -172t-219 -65zM530 940q-150 0 -241 -115t-91 -305t91 -305t241 -115q149 0 241.5 116t92.5 304t-92.5 304
t-241.5 116zM1199 0v98l619 829v3h-619v110h771v-100l-619 -827v-3h621v-110h-773zM1533 1199l-254 301h124l180 -214h4l180 214h124l-254 -301h-104z" />
    <glyph glyph-name="uni01C7" unicode="&#x1c7;" horiz-adv-x="2039" 
d="M994 124v-124h-859v1443h136v-1319h723zM1094 331h135q5 -104 77.5 -169t184.5 -65q132 0 204.5 78t72.5 222v1046h136v-1048q0 -199 -109.5 -312t-303.5 -113q-173 0 -284.5 101t-112.5 260z" />
    <glyph glyph-name="uni01C8" unicode="&#x1c8;" horiz-adv-x="1431" 
d="M994 124v-124h-859v1443h136v-1319h723zM1307 1040v-1106q0 -149 -72.5 -219t-226.5 -70q-31 0 -32 1v112h27q93 0 132.5 40t39.5 134v1108h132zM1240 1256q-37 0 -63 25.5t-26 62.5t26 62.5t63 25.5t63 -25.5t26 -62.5t-26 -62.5t-63 -25.5z" />
    <glyph glyph-name="uni01C9" unicode="&#x1c9;" horiz-adv-x="757" 
d="M123 0v1443h132v-1443h-132zM633 1040v-1106q0 -149 -72.5 -219t-226.5 -70q-31 0 -32 1v112h27q93 0 132.5 40t39.5 134v1108h132zM566 1256q-37 0 -63 25.5t-26 62.5t26 62.5t63 25.5t63 -25.5t26 -62.5t-26 -62.5t-63 -25.5z" />
    <glyph glyph-name="uni01CA" unicode="&#x1ca;" horiz-adv-x="2380" 
d="M270 0h-135v1443h135l846 -1205h7v1205h135v-1443h-132l-849 1206h-7v-1206zM1435 331h135q5 -104 77.5 -169t184.5 -65q132 0 204.5 78t72.5 222v1046h136v-1048q0 -199 -109.5 -312t-303.5 -113q-173 0 -284.5 101t-112.5 260z" />
    <glyph glyph-name="uni01CB" unicode="&#x1cb;" horiz-adv-x="1771" 
d="M270 0h-135v1443h135l846 -1205h7v1205h135v-1443h-132l-849 1206h-7v-1206zM1648 1040v-1106q0 -149 -72.5 -219t-226.5 -70q-31 0 -32 1v112h27q93 0 132.5 40t39.5 134v1108h132zM1581 1256q-37 0 -63 25.5t-26 62.5t26 62.5t63 25.5t63 -25.5t26 -62.5t-26 -62.5
t-63 -25.5z" />
    <glyph glyph-name="uni01CC" unicode="&#x1cc;" horiz-adv-x="1440" 
d="M114 0v1040h125v-192h3q41 97 130.5 153t212.5 56q171 0 269.5 -103t98.5 -280v-674h-132v653q0 136 -71.5 211t-202.5 75q-135 0 -218 -89t-83 -234v-616h-132zM1317 1040v-1106q0 -149 -72.5 -219t-226.5 -70q-31 0 -32 1v112h27q93 0 132.5 40t39.5 134v1108h132z
M1250 1256q-37 0 -63 25.5t-26 62.5t26 62.5t63 25.5t63 -25.5t26 -62.5t-26 -62.5t-63 -25.5z" />
    <glyph glyph-name="Acaron" unicode="&#x1cd;" horiz-adv-x="1262" 
d="M1094 0l-160 442h-606l-160 -442h-145l540 1443h136l539 -1443h-144zM628 1274l-259 -714h524l-259 714h-6zM683 1552h-104l-268 294h128l190 -211h4l190 211h128z" />
    <glyph glyph-name="acaron" unicode="&#x1ce;" horiz-adv-x="1014" 
d="M449 97q137 0 231 85t94 209v115l-308 -21q-123 -8 -189 -59.5t-66 -137.5q0 -85 66 -138t172 -53zM422 -17q-154 0 -249.5 84.5t-95.5 220.5q0 134 96.5 212t276.5 90l324 20v90q0 113 -68 176.5t-189 63.5q-114 0 -185.5 -53t-88.5 -148h-128q11 142 120.5 230
t284.5 88q178 0 282 -93t104 -252v-712h-126v198h-3q-43 -97 -141 -156t-214 -59zM460 1199l-254 301h124l180 -214h4l180 214h124l-254 -301h-104z" />
    <glyph glyph-name="Icaron" unicode="&#x1cf;" horiz-adv-x="406" 
d="M271 0h-136v1443h136v-1443zM255 1552h-104l-268 294h128l190 -211h4l190 211h128z" />
    <glyph glyph-name="icaron" unicode="&#x1d0;" horiz-adv-x="378" 
d="M123 0v1040h132v-1040h-132zM137 1199l-254 301h124l180 -214h4l180 214h124l-254 -301h-104z" />
    <glyph glyph-name="Ocaron" unicode="&#x1d1;" horiz-adv-x="1465" 
d="M732 1466q302 0 479 -201t177 -544t-177 -543.5t-479 -200.5t-478.5 200.5t-176.5 543.5t177 544t478 201zM732 1339q-237 0 -376 -167t-139 -451t139 -450.5t376 -166.5t376.5 167t139.5 450q0 284 -139.5 451t-376.5 167zM784 1552h-104l-268 294h128l190 -211h4
l190 211h128z" />
    <glyph glyph-name="ocaron" unicode="&#x1d2;" horiz-adv-x="1072" 
d="M536 -17q-214 0 -344 145.5t-130 391.5t130.5 391.5t343.5 145.5q214 0 344 -145.5t130 -391.5t-130 -391.5t-344 -145.5zM536 100q155 0 247.5 112t92.5 308t-92.5 308t-247.5 112t-247 -112t-92 -308t92 -308t247 -112zM485 1199l-254 301h124l180 -214h4l180 214h124
l-254 -301h-104z" />
    <glyph glyph-name="Ucaron" unicode="&#x1d3;" horiz-adv-x="1386" 
d="M271 1443v-931q0 -184 113 -296t309 -112t309 112t113 296v931h137v-939q0 -236 -151 -381.5t-408 -145.5t-407.5 145.5t-150.5 381.5v939h136zM745 1552h-104l-268 294h128l190 -211h4l190 211h128z" />
    <glyph glyph-name="ucaron" unicode="&#x1d4;" horiz-adv-x="1062" 
d="M948 1040v-1040h-125v193h-3q-42 -97 -132.5 -153.5t-212.5 -56.5q-169 0 -268 102.5t-99 278.5v676h133v-653q0 -138 70.5 -212t201.5 -74q136 0 219.5 88t83.5 234v617h132zM477 1199l-254 301h124l180 -214h4l180 214h124l-254 -301h-104z" />
    <glyph glyph-name="Udieresismacron" unicode="&#x1d5;" horiz-adv-x="1386" 
d="M271 1443v-931q0 -184 113 -296t309 -112t309 112t113 296v931h137v-939q0 -236 -151 -381.5t-408 -145.5t-407.5 145.5t-150.5 381.5v939h136zM529 1731q36 0 61.5 -26t25.5 -63t-25.5 -62.5t-61.5 -25.5t-62 25.5t-26 62.5t26 63t62 26zM388 1979h610v-91h-610v91z
M857 1731q36 0 62 -26t26 -63t-26 -62.5t-62 -25.5t-61.5 25.5t-25.5 62.5t25.5 63t61.5 26z" />
    <glyph glyph-name="udieresismacron" unicode="&#x1d6;" horiz-adv-x="1062" 
d="M948 1040v-1040h-125v193h-3q-42 -97 -132.5 -153.5t-212.5 -56.5q-169 0 -268 102.5t-99 278.5v676h133v-653q0 -138 70.5 -212t201.5 -74q136 0 219.5 88t83.5 234v617h132zM356 1221q-37 0 -64 26.5t-27 63.5t27 63.5t64 26.5t64 -26.5t27 -63.5t-27 -63.5t-64 -26.5z
M702 1221q-37 0 -64 26.5t-27 63.5t27 63.5t64 26.5t64 -26.5t27 -63.5t-27 -63.5t-64 -26.5zM798 1658v-95h-538v95h538z" />
    <glyph glyph-name="Udieresisacute" unicode="&#x1d7;" horiz-adv-x="1386" 
d="M271 1443v-931q0 -184 113 -296t309 -112t309 112t113 296v931h137v-939q0 -236 -151 -381.5t-408 -145.5t-407.5 145.5t-150.5 381.5v939h136zM623 1805l183 211h134l-200 -211h-117zM529 1554q-36 0 -62 25.5t-26 62.5t26 63t62 26t61.5 -26t25.5 -63t-25.5 -62.5
t-61.5 -25.5zM857 1554q-36 0 -61.5 25.5t-25.5 62.5t25.5 63t61.5 26t62 -26t26 -63t-26 -62.5t-62 -25.5z" />
    <glyph glyph-name="udieresisacute" unicode="&#x1d8;" horiz-adv-x="1062" 
d="M948 1040v-1040h-125v193h-3q-42 -97 -132.5 -153.5t-212.5 -56.5q-169 0 -268 102.5t-99 278.5v676h133v-653q0 -138 70.5 -212t201.5 -74q136 0 219.5 88t83.5 234v617h132zM451 1510l224 300h129l-241 -300h-112zM358 1211q-36 0 -62 25.5t-26 62.5t26 62.5t62 25.5
q37 0 63 -25.5t26 -62.5t-26 -62.5t-63 -25.5zM700 1211q-37 0 -63 25.5t-26 62.5t26 62.5t63 25.5t62.5 -25.5t25.5 -62.5t-25.5 -62.5t-62.5 -25.5z" />
    <glyph glyph-name="Udieresiscaron" unicode="&#x1d9;" horiz-adv-x="1386" 
d="M271 1443v-931q0 -184 113 -296t309 -112t309 112t113 296v931h137v-939q0 -236 -151 -381.5t-408 -145.5t-407.5 145.5t-150.5 381.5v939h136zM635 1795l-265 223h138l183 -153h4l183 153h138l-265 -223h-116zM529 1731q36 0 61.5 -26t25.5 -63t-25.5 -62.5t-61.5 -25.5
t-62 25.5t-26 62.5t26 63t62 26zM857 1731q36 0 62 -26t26 -63t-26 -62.5t-62 -25.5t-61.5 25.5t-25.5 62.5t25.5 63t61.5 26z" />
    <glyph glyph-name="udieresiscaron" unicode="&#x1da;" horiz-adv-x="1062" 
d="M948 1040v-1040h-125v193h-3q-42 -97 -132.5 -153.5t-212.5 -56.5q-169 0 -268 102.5t-99 278.5v676h133v-653q0 -138 70.5 -212t201.5 -74q136 0 219.5 88t83.5 234v617h132zM356 1221q-37 0 -64 26.5t-27 63.5t27 63.5t64 26.5t64 -26.5t27 -63.5t-27 -63.5t-64 -26.5z
M702 1221q-37 0 -64 26.5t-27 63.5t27 63.5t64 26.5t64 -26.5t27 -63.5t-27 -63.5t-64 -26.5zM582 1495h-106l-269 284h128l192 -203h4l192 203h128z" />
    <glyph glyph-name="Udieresisgrave" unicode="&#x1db;" horiz-adv-x="1386" 
d="M271 1443v-931q0 -184 113 -296t309 -112t309 112t113 296v931h137v-939q0 -236 -151 -381.5t-408 -145.5t-407.5 145.5t-150.5 381.5v939h136zM756 1805h-117l-200 211h134zM529 1554q-36 0 -62 25.5t-26 62.5t26 63t62 26t61.5 -26t25.5 -63t-25.5 -62.5t-61.5 -25.5z
M857 1554q-36 0 -61.5 25.5t-25.5 62.5t25.5 63t61.5 26t62 -26t26 -63t-26 -62.5t-62 -25.5z" />
    <glyph glyph-name="udieresisgrave" unicode="&#x1dc;" horiz-adv-x="1062" 
d="M948 1040v-1040h-125v193h-3q-42 -97 -132.5 -153.5t-212.5 -56.5q-169 0 -268 102.5t-99 278.5v676h133v-653q0 -138 70.5 -212t201.5 -74q136 0 219.5 88t83.5 234v617h132zM607 1510h-112l-241 300h129zM358 1211q-36 0 -62 25.5t-26 62.5t26 62.5t62 25.5
q37 0 63 -25.5t26 -62.5t-26 -62.5t-63 -25.5zM700 1211q-37 0 -63 25.5t-26 62.5t26 62.5t63 25.5t62.5 -25.5t25.5 -62.5t-25.5 -62.5t-62.5 -25.5z" />
    <glyph glyph-name="uni04D9" unicode="&#x4d9;" horiz-adv-x="1059" 
d="M522 98q141 0 230.5 96.5t98.5 259.5h-642q1 -163 86.5 -259.5t226.5 -96.5zM220 779h-132q43 130 155 204t271 74q218 0 345.5 -144.5t127.5 -391.5q0 -245 -126.5 -391.5t-340.5 -146.5q-208 0 -328 139.5t-120 381.5l2 56h777v6q0 169 -93.5 272.5t-243.5 103.5
q-213 0 -294 -163z" />
    <glyph glyph-name="uni04D9" unicode="&#x259;" horiz-adv-x="1059" 
d="M522 98q141 0 230.5 96.5t98.5 259.5h-642q1 -163 86.5 -259.5t226.5 -96.5zM220 779h-132q43 130 155 204t271 74q218 0 345.5 -144.5t127.5 -391.5q0 -245 -126.5 -391.5t-340.5 -146.5q-208 0 -328 139.5t-120 381.5l2 56h777v6q0 169 -93.5 272.5t-243.5 103.5
q-213 0 -294 -163z" />
    <glyph glyph-name="uni04D9" unicode="&#x1dd;" horiz-adv-x="1059" 
d="M522 98q141 0 230.5 96.5t98.5 259.5h-642q1 -163 86.5 -259.5t226.5 -96.5zM220 779h-132q43 130 155 204t271 74q218 0 345.5 -144.5t127.5 -391.5q0 -245 -126.5 -391.5t-340.5 -146.5q-208 0 -328 139.5t-120 381.5l2 56h777v6q0 169 -93.5 272.5t-243.5 103.5
q-213 0 -294 -163z" />
    <glyph glyph-name="Adieresismacron" unicode="&#x1de;" horiz-adv-x="1262" 
d="M1094 0l-160 442h-606l-160 -442h-145l540 1443h136l539 -1443h-144zM628 1274l-259 -714h524l-259 714h-6zM467 1731q36 0 61.5 -26t25.5 -63t-25.5 -62.5t-61.5 -25.5t-62 25.5t-26 62.5t26 63t62 26zM326 1979h610v-91h-610v91zM795 1731q36 0 62 -26t26 -63
t-26 -62.5t-62 -25.5t-61.5 25.5t-25.5 62.5t25.5 63t61.5 26z" />
    <glyph glyph-name="adieresismacron" unicode="&#x1df;" horiz-adv-x="1014" 
d="M449 97q137 0 231 85t94 209v115l-308 -21q-123 -8 -189 -59.5t-66 -137.5q0 -85 66 -138t172 -53zM422 -17q-154 0 -249.5 84.5t-95.5 220.5q0 134 96.5 212t276.5 90l324 20v90q0 113 -68 176.5t-189 63.5q-114 0 -185.5 -53t-88.5 -148h-128q11 142 120.5 230
t284.5 88q178 0 282 -93t104 -252v-712h-126v198h-3q-43 -97 -141 -156t-214 -59zM339 1221q-37 0 -64 26.5t-27 63.5t27 63.5t64 26.5t64 -26.5t27 -63.5t-27 -63.5t-64 -26.5zM685 1221q-37 0 -64 26.5t-27 63.5t27 63.5t64 26.5t64 -26.5t27 -63.5t-27 -63.5t-64 -26.5z
M781 1658v-95h-538v95h538z" />
    <glyph glyph-name="Adotmacron" unicode="&#x1e0;" horiz-adv-x="1262" 
d="M1094 0l-160 442h-606l-160 -442h-145l540 1443h136l539 -1443h-144zM628 1274l-259 -714h524l-259 714h-6zM631 1568q-41 0 -70 29t-29 70q0 40 29 68.5t70 28.5t70 -28.5t29 -68.5q0 -41 -29 -70t-70 -29zM936 1979v-91h-610v91h610z" />
    <glyph glyph-name="adotmacron" unicode="&#x1e1;" horiz-adv-x="1014" 
d="M449 97q137 0 231 85t94 209v115l-308 -21q-123 -8 -189 -59.5t-66 -137.5q0 -85 66 -138t172 -53zM422 -17q-154 0 -249.5 84.5t-95.5 220.5q0 134 96.5 212t276.5 90l324 20v90q0 113 -68 176.5t-189 63.5q-114 0 -185.5 -53t-88.5 -148h-128q11 142 120.5 230
t284.5 88q178 0 282 -93t104 -252v-712h-126v198h-3q-43 -97 -141 -156t-214 -59zM512 1234q-40 0 -69 28t-29 69q0 40 29 68.5t69 28.5t69 -28.5t29 -68.5q0 -41 -29 -69t-69 -28zM781 1651v-95h-538v95h538z" />
    <glyph glyph-name="AEmacron" unicode="&#x1e2;" horiz-adv-x="1941" 
d="M808 1327l-374 -766h544v766h-170zM978 0v443h-600l-214 -443h-141l702 1443h1091v-124h-702v-526h665v-122h-665v-547h702v-124h-838zM1540 1753v-95h-538v95h538z" />
    <glyph glyph-name="aemacron" unicode="&#x1e3;" horiz-adv-x="1734" 
d="M1240 -17q-136 0 -238 66.5t-152 186.5h-8q-54 -119 -159.5 -186t-243.5 -67q-166 0 -266 83t-100 220q0 132 98 207.5t282 85.5l320 18v94q0 112 -73 180.5t-194 68.5q-112 0 -183.5 -55t-82.5 -147h-129q10 141 116.5 230t274.5 89q138 0 234.5 -62.5t124.5 -172.5h7
q50 111 146 173t227 62q197 0 313.5 -139t116.5 -371v-56h-766v-10q0 -172 92 -277t245 -105q111 0 186 53.5t99 142.5h131q-24 -137 -139 -224.5t-279 -87.5zM1231 941q-139 0 -228 -95.5t-98 -249.5h631q-2 156 -85 250.5t-220 94.5zM444 97q138 0 233.5 86.5t95.5 209.5
v100l-305 -19q-127 -8 -193.5 -55.5t-66.5 -130.5q0 -84 65 -137.5t171 -53.5zM1144 1385v-95h-538v95h538z" />
    <glyph glyph-name="Gcaron" unicode="&#x1e6;" horiz-adv-x="1409" 
d="M1324 586q0 -286 -159 -447.5t-440 -161.5q-293 0 -470.5 206t-177.5 547q0 335 176.5 535.5t471.5 200.5q227 0 388 -125t202 -332h-142q-44 154 -163.5 242t-284.5 88q-235 0 -371.5 -163.5t-136.5 -445.5q0 -286 138 -456t370 -170q209 0 336 123t127 327v51h-448v120
h584v-139zM777 1552h-104l-268 294h128l190 -211h4l190 211h128z" />
    <glyph glyph-name="gcaron" unicode="&#x1e7;" horiz-adv-x="1107" 
d="M525 107q150 0 242.5 114.5t92.5 301.5t-92.5 302t-242.5 115q-147 0 -237 -114.5t-90 -303.5q0 -188 90 -301.5t237 -113.5zM538 -385q-168 0 -286.5 82t-140.5 207h137q26 -78 105.5 -126.5t190.5 -48.5q145 0 230.5 77.5t85.5 205.5v209h-3q-43 -103 -138.5 -167
t-217.5 -64q-198 0 -318.5 146t-120.5 387q0 242 121 388t321 146q122 0 217.5 -64.5t142.5 -172.5h3v220h126v-1023q0 -182 -123.5 -292t-331.5 -110zM487 1199l-254 301h124l180 -214h4l180 214h124l-254 -301h-104z" />
    <glyph glyph-name="Kcaron" unicode="&#x1e8;" horiz-adv-x="1209" 
d="M271 0h-136v1443h136v-748h8l686 748h173l-593 -638l652 -805h-175l-573 708l-178 -193v-515zM633 1552h-104l-268 294h128l190 -211h4l190 211h128z" />
    <glyph glyph-name="kcaron" unicode="&#x1e9;" horiz-adv-x="957" 
d="M256 548l514 492h164l-467 -449l476 -591h-155l-416 510l-116 -107v-403h-133v1443h133v-895zM241 1552h-104l-268 294h128l190 -211h4l190 211h128z" />
    <glyph glyph-name="Oogonek" unicode="&#x1ea;" horiz-adv-x="1465" 
d="M217 721q0 -284 139 -450.5t376 -166.5t376.5 167t139.5 450q0 284 -139.5 451t-376.5 167t-376 -167t-139 -451zM1087 -283v-96q-52 -19 -106 -19q-86 0 -143 44t-57 126q0 114 126 225q-83 -20 -175 -20q-302 0 -478.5 200.5t-176.5 543.5t177 544t478 201
q302 0 479 -201t177 -544q0 -215 -72.5 -378t-206.5 -257q-99 -83 -153.5 -150t-54.5 -131q0 -42 25 -72t82 -30q37 0 79 14z" />
    <glyph glyph-name="oogonek" unicode="&#x1eb;" horiz-adv-x="1072" 
d="M197 520q0 -196 92 -308t247 -112t247.5 112t92.5 308t-92.5 308t-247.5 112t-247 -112t-92 -308zM813 -283v-96q-54 -19 -107 -19q-86 0 -143 44t-57 126q0 111 118 218q-39 -7 -88 -7q-214 0 -344 145.5t-130 391.5t130.5 391.5t343.5 145.5q214 0 344 -145.5
t130 -391.5q0 -154 -53 -271t-150 -185q-85 -74 -132.5 -137t-47.5 -122q0 -42 25 -72t81 -30q38 0 80 14z" />
    <glyph glyph-name="Oogonekmacron" unicode="&#x1ec;" horiz-adv-x="1465" 
d="M1001 1753v-95h-538v95h538zM217 721q0 -284 139 -450.5t376 -166.5t376.5 167t139.5 450q0 284 -139.5 451t-376.5 167t-376 -167t-139 -451zM1087 -283v-96q-52 -19 -106 -19q-86 0 -143 44t-57 126q0 114 126 225q-83 -20 -175 -20q-302 0 -478.5 200.5t-176.5 543.5
t177 544t478 201q302 0 479 -201t177 -544q0 -215 -72.5 -378t-206.5 -257q-99 -83 -153.5 -150t-54.5 -131q0 -42 25 -72t82 -30q37 0 79 14z" />
    </font>
</defs>
</svg>
