<!-- Generator: Adobe Illustrator 23.0.3, SVG Export Plug-In  -->
<svg version="1.1" xmlns="http://www.w3.org/2000/svg" xmlns:xlink="http://www.w3.org/1999/xlink" x="0px" y="0px"
	 width="223.501px" height="164.662px" viewBox="0 0 223.501 164.662" style="enable-background:new 0 0 223.501 164.662;"
	 xml:space="preserve">
<style type="text/css">
	.st0{fill:#F77878;}
</style>
<defs>
</defs>
<g>
	<path class="st0" d="M116.164,111.873c3.109-0.018,6.218,0.019,9.327-0.013c2.946-0.031,5.112-1.942,5.32-4.625
		c0.238-3.065-1.43-5.224-4.551-5.779c-1.557-0.277-3.133-0.547-4.707-0.598c-4.242-0.137-7.341,2.821-7.645,7.174
		c-0.061,0.873,0.079,2.015-1.181,1.84c-0.557-0.077-1.255-0.79-1.488-1.383c-3.543-8.997-7.019-18.021-10.511-27.038
		c-1.797-4.643-4.114-6.28-8.91-6.281c-17.557-0.001-35.115,0-52.672,0.001c-4.314,0-7.034,1.59-8.531,5.112v0l-2.478,6.384
		c-0.122,0.255-0.224,0.521-0.296,0.762l-2.812,7.247c-0.031,0.077-0.057,0.143-0.089,0.222c0.001,0,0.001,0.001,0.002,0.001
		l-5.288,13.626h0c-0.344,1.491-1.116,1.803-2.546,1.052c-0.029-0.349-0.065-0.66-0.079-0.973c-0.232-5.032-3.587-8.13-8.441-7.729
		c-1.394,0.115-2.785,0.338-4.16,0.608c-2.866,0.563-4.621,2.817-4.412,5.571c0.216,2.846,2.335,4.774,5.359,4.807
		c2.987,0.033,5.974,0.005,8.962,0.011c2.56,0.004,3.682,1.469,3.191,4.093c-0.22,1.175-0.491,2.366-0.506,3.553
		c-0.143,11.68-0.275,23.36-0.317,35.04c-0.01,2.792,1.855,4.522,4.581,4.588c1.95,0.046,3.902,0.043,5.852,0
		c2.965-0.066,4.626-1.778,4.668-4.863c0.046-3.41,0.006-6.821,0.018-10.232c0.003-0.664,0.07-1.328,0.107-1.977h67.076
		c0,4.103-0.026,8.074,0.008,12.044c0.026,3.234,1.77,4.997,4.907,5.037c1.524,0.019,3.048,0.006,4.572,0.003
		c4.224-0.007,5.703-1.537,5.706-5.933c0.006-9.033,0.088-18.066-0.042-27.097c-0.05-3.517-0.524-7.035-0.929-10.537
		C112.988,113.488,114.131,111.884,116.164,111.873z M47.028,130.505c-0.028,1.999-0.872,2.964-2.747,2.975
		c-5.85,0.037-11.701,0.018-17.552,0.007c-1.718-0.003-2.602-1.026-2.662-2.707c-0.083-2.334-0.084-4.675-0.005-7.008
		c0.064-1.917,1.024-2.794,2.951-2.816c2.864-0.033,5.729-0.009,8.593-0.009c2.804-0.004,5.608-0.029,8.411,0.004
		c2.126,0.025,2.987,0.928,3.013,3.114C47.055,126.211,47.057,128.359,47.028,130.505z M33.075,112.489
		c-2.575,0.006-4.795-0.732-5.99-3.175c-0.379-0.775-0.683-1.589-0.968-2.414c-0.272-0.93,0.089-1.617,0.089-1.617v0c0,0,0,0,0,0
		c0.006-0.018,0.011-0.035,0.017-0.053l5.348-16.066c0.319-0.895,0.624-1.753,1.04-2.922c-0.022-0.003-0.042-0.007-0.064-0.01
		l0.715-2.147v0c0,0,0,0,0,0c1.18-2.948,3.248-4.4,6.266-4.399c17.253,0.006,34.505-0.007,51.758,0.005
		c3.289,0.002,5.239,1.439,6.333,4.657c2.146,6.306,4.246,12.629,6.381,18.94c1.775,5.248-0.848,9.169-6.182,9.178
		c-7.621,0.014-15.241,0.006-22.861,0.006C60.996,112.473,47.035,112.455,33.075,112.489z M106.753,130.701
		c-0.053,1.91-0.875,2.749-2.73,2.78c-2.921,0.049-5.844,0.013-8.766,0.013c-2.801,0.004-5.601,0.028-8.401-0.003
		c-2.165-0.024-2.95-0.847-2.98-3.1c-0.03-2.207-0.043-4.416,0.009-6.623c0.044-1.869,0.91-2.794,2.719-2.807
		c5.784-0.039,11.568-0.038,17.351-0.002c1.894,0.011,2.775,0.954,2.815,2.931C106.816,126.159,106.816,128.432,106.753,130.701z"/>
	<path class="st0" d="M220.055,111.96c-1.16-0.555-2.352-1.038-3.537-1.535c-5.064-2.125-9.374-0.209-11.397,5.041
		c-0.143,0.371-0.435,0.682-0.89,1.374c-0.194-0.863-0.304-1.21-0.348-1.565c-0.598-4.877-1.215-9.751-1.758-14.635
		c-0.044-0.396-0.092-0.763-0.174-1.087l-0.31-2.518c0,0,0,0,0,0c-0.272-2.446-0.54-4.847-0.876-7.868
		c-0.03,0.027-0.055,0.051-0.084,0.078l-0.223-1.811c0.006-0.003,0.012-0.007,0.018-0.01c-0.076-0.94-0.189-1.789-0.336-2.572
		l-0.001-0.007l0,0c-0.801-4.262-2.738-6.33-6.844-7.455c-17.127-4.695-34.255-9.387-51.382-14.078
		c-5.136-1.407-7.869-0.404-11.081,4.063c-5.388,7.493-10.771,14.99-16.172,22.473c-0.421,0.582-0.967,1.066-1.455,1.596
		c-0.149-0.064-0.297-0.128-0.446-0.192c0.615-3.442,0.302-6.62-2.262-9.123c-2.523-2.464-5.729-2.342-9.137-2.646
		c1.589,4.111,3.128,7.939,4.535,11.82c0.458,1.263,1.124,1.906,2.396,2.213c2.406,0.58,2.807,1.737,1.742,4.145
		c-0.34,0.769-0.84,1.767-0.626,2.441c0.793,2.493,1.853,4.895,2.932,7.631c0.236-0.672,0.385-1.007,0.474-1.359
		c1.025-4.03,3.985-6.796,7.955-6.851c2.403-0.033,4.877,0.37,7.205,1.018c2.918,0.811,4.614,4.08,4.12,7.157
		c-0.078,0.482-0.14,0.967-0.223,1.549c1.09,0.312,2.073,0.621,3.07,0.874c1.635,0.415,2.175,1.429,1.718,3.1
		c-0.497,1.82-0.925,3.659-1.41,5.481c-0.672,2.521-1.189,2.825-3.672,2.147c-5.181-1.413-10.357-2.847-15.538-4.257
		c-0.368-0.1-0.766-0.081-0.762-0.081v21.692c0.191,0.013,0.381,0.027,0.572,0.04c0.931-3.552,1.863-7.104,2.829-10.79
		c21.289,5.857,42.37,11.657,63.57,17.49c-0.997,3.927-1.946,7.576-2.846,11.238c-0.825,3.352,0.608,5.851,3.838,6.766
		c1.645,0.466,3.298,0.899,4.947,1.347c4.059,1.103,6.285-0.251,7.35-4.427c1.523-5.977,3.176-11.92,4.578-17.927
		c1.427-6.119,2.724-12.275,3.857-18.458c0.477-2.602,1.196-3.346,3.772-2.668c3.126,0.823,6.225,1.817,9.395,2.378
		c2.891,0.511,5.373-1.381,6.141-4.168C224.059,116.191,222.73,113.239,220.055,111.96z M192.534,135.989
		c-0.457,1.396-1.748,1.125-2.833,0.832c-3.53-0.954-7.053-1.941-10.578-2.916c-1.879-0.519-3.752-1.065-5.638-1.554
		c-1.494-0.387-1.979-1.365-1.617-2.833c0.527-2.137,1.107-4.261,1.656-6.393c0.389-1.508,1.285-2.028,2.747-1.625
		c5.465,1.507,10.947,2.948,16.391,4.532c0.824,0.239,1.48,1.101,2.149,1.626C193.972,130.788,193.373,133.431,192.534,135.989z
		 M189.575,114.986c-10.091-2.773-20.18-5.551-30.27-8.325l0-0.001l-0.686-0.188c-1.596-0.439-3.191-0.878-4.787-1.317
		c-0.037-0.01-0.076-0.017-0.113-0.027l-3.916-1.073c-0.03-0.082-0.06-0.164-0.09-0.246c-0.031,0.07-0.059,0.131-0.089,0.197
		l-10.381-2.845c-4.062-1.115-8.124-2.226-12.183-3.355c-5.088-1.417-6.419-5.183-3.458-9.756c2.886-4.456,5.783-8.904,8.683-13.35
		c4.405-6.752,4.457-6.728,12.091-4.632c16.359,4.491,32.733,8.924,49.088,13.43c0.429,0.118,0.9,0.745,1.033,1.23
		c0.126,0.458,0.244,0.918,0.355,1.376h0c0.137,0.583,1.847,20.388,1.847,20.388l0.004,0c0.053,0.663,0.104,1.327,0.161,1.987
		C197.286,113.322,194.086,116.226,189.575,114.986z M197.632,106.439L197.632,106.439c0.001,0.008,0.001,0.017,0.001,0.025
		c0,0,0,0,0,0C197.633,106.456,197.633,106.448,197.632,106.439z"/>
	<path class="st0" d="M101.54,5.955L101.54,5.955l1.2,7.462c0.069,0.425,0.138,0.862,0.212,1.321l0.362,2.252
		c0.034,0.405,0.067,0.812,0.188,1.171l0.589,3.663c-0.135,0.506,0.079,1.068,0.261,1.622l0.184,1.146
		c-0.006,0.04-0.007,0.082-0.017,0.121c-0.013,0.054,0.023,0.141,0.074,0.233l1.546,9.607c0,0,0.007-0.001,0.009-0.001
		c1.737,11.076,3.535,22.142,5.317,33.21c0.095,0.008,0.19,0.015,0.285,0.023c0.123-0.476,0.285-0.945,0.363-1.428
		c1.71-10.638,3.438-21.273,5.093-31.921c0.055-0.354,0.097-0.711,0.142-1.066c0.002-0.003,0.008-0.006,0.009-0.009
		c0.019-0.152,0.696-4.325,1.502-9.284c0.069-0.36,0.138-0.721,0.206-1.088c0.093-0.502,0.166-0.992,0.212-1.479
		c1.118-6.869,2.309-14.172,2.309-14.172l0,0c0.067-0.413,0.131-0.827,0.198-1.246c0.546-3.426-1.476-6.004-4.825-6.058
		c-3.533-0.056-7.068-0.039-10.601,0.023C103.077,0.115,101.059,2.589,101.54,5.955L101.54,5.955z"/>
	<path class="st0" d="M120.036,61.998c0.207-0.105,0.433-0.182,0.618-0.319c12.921-9.569,25.848-19.131,38.751-28.727
		c2.152-1.6,2.313-4.185,0.448-6.218c-1.719-1.874-3.489-3.7-5.282-5.498c-2.874-2.882-5.026-2.689-7.337,0.654
		c-6.271,9.073-12.526,18.158-18.786,27.239c-2.893,4.197-5.784,8.395-8.676,12.592C119.86,61.813,119.948,61.905,120.036,61.998z"
		/>
	<path class="st0" d="M61.928,33.534c10.651,7.871,21.301,15.745,31.953,23.615c2.208,1.632,4.422,3.254,6.633,4.881
		c0.063-0.097,0.126-0.194,0.189-0.292c-0.047-0.112-0.075-0.238-0.142-0.335c-9.25-13.455-18.497-26.914-27.763-40.357
		c-1.524-2.211-4.115-2.464-6.023-0.59c-1.854,1.822-3.637,3.723-5.436,5.605C58.63,28.892,58.823,31.24,61.928,33.534z"/>
</g>
</svg>