<!-- Generator: Adobe Illustrator 23.0.4, SVG Export Plug-In  -->
<svg version="1.1" xmlns="http://www.w3.org/2000/svg" xmlns:xlink="http://www.w3.org/1999/xlink" x="0px" y="0px"
	 width="542.752px" height="339.735px" viewBox="0 0 542.752 339.735" style="enable-background:new 0 0 542.752 339.735;"
	 xml:space="preserve">
<style type="text/css">
	.st0{fill:#D90912;}
	.st1{fill:#FFFFFF;}
	.st2{fill:#007859;}
</style>
<defs>
</defs>
<polygon class="st0" points="268.014,0 271.791,0 271.791,339.735 268.014,339.735 268.014,0 "/>
<polygon class="st0" points="0,90.893 542.752,90.893 542.752,94.67 0,94.67 0,90.893 "/>
<path class="st1" d="M413.793,191.78v-1.404c-2.385,0-3.358,0.1-4.987,0.1c-1.732,0-2.869-0.1-4.985-0.1L392.6,217.63
	l-11.327-27.254c-2.112,0-2.927,0.1-5.093,0.1c-2.167,0-3.196-0.1-5.094-0.1v1.404l2.275,0.05c2.007,0.056,2.276,0.169,2.276,1.411
	v33.39h1.732v-31.767l12.413,29.813h1.632l12.406-29.813V221.1c0,4.769,1.521,6.017,4.826,6.017h0.593v-33.876
	c0-1.355,0.437-1.355,2.275-1.411L413.793,191.78L413.793,191.78z"/>
<path class="st1" d="M426.287,227.05v-24.62c0-0.437-0.106-0.537-0.65-0.537c-0.487,0-4.547,0.318-8.171,0.318v1.305l3.088,0.05
	c0.645,0,0.811,0.269,0.811,0.924v17.366c0,3.084,1.134,5.194,4.005,5.194H426.287L426.287,227.05z"/>
<path class="st1" d="M504.649,227.093v-18.664c0-4.114-3.246-7.142-8.068-7.142c-3.948,0-6.813,2.054-8.224,5.357v-4.17
	c0-0.437-0.102-0.537-0.646-0.537c-0.487,0-4.544,0.319-8.171,0.319v1.304l3.081,0.05c0.652,0,0.815,0.268,0.815,0.923v22.08h4.922
	v-14.938c0-4.219,2.818-8.221,6.711-8.221c2.762,0,4.653,1.673,4.653,5.624V221.9c0,3.089,1.136,5.193,4.008,5.193H504.649
	L504.649,227.093z"/>
<path class="st1" d="M443.119,221.856v-31.218c0-0.437-0.11-0.543-0.652-0.543c-0.487,0-4.544,0.325-8.168,0.325v1.298l3.087,0.05
	c0.646,0,0.811,0.275,0.811,0.917v34.364h0.921C441.98,227.05,443.119,224.94,443.119,221.856L443.119,221.856z"/>
<path class="st1" d="M472.292,227.05c0-1.186-0.321-3.733-0.321-5.194v-14.288c0-4.051-3.839-6.33-8.602-6.33
	c-6.277,0-10.178,3.521-10.178,5.094c0,1.561,0.921,2.048,2.169,2.048c3.567,0,2.216-5.73,7.357-5.73
	c2.812,0,4.435,1.46,4.435,4.275v4.545c0,0.755-0.05,0.811-0.812,0.811l-1.514,0.05c-7.625,0.275-13.474,3.634-13.474,8.178
	c0,4.488,3.087,6.704,9.632,6.704c3.408,0,5.684-2.378,6.227-4.382c0.269,3.253,1.891,4.22,4.269,4.22H472.292L472.292,227.05z
	 M467.152,218.229c0,3.577-2.216,7.521-5.625,7.521c-3.087,0-4.818-1.46-4.818-5.299c0-3.677,2.921-6.498,8.442-6.767l1.189-0.05
	c0.762-0.057,0.812,0.05,0.812,0.812V218.229L467.152,218.229z"/>
<path class="st1" d="M537.243,213.903c0-6.71-5.084-12.665-12.388-12.665c-7.091,0-12.394,5.955-12.394,12.665
	c0,7.572,4.978,13.309,12.394,13.309C532.268,227.212,537.243,221.475,537.243,213.903L537.243,213.903z M531.668,213.903
	c0,7.416-1.189,11.848-6.813,11.848c-5.574,0-6.822-4.431-6.822-11.848c0-6.167,1.079-11.198,6.822-11.198
	C530.804,202.705,531.668,207.736,531.668,213.903L531.668,213.903z"/>
<path class="st1" d="M337.999,227.367v-36.554c0-0.431-0.106-0.543-0.65-0.543c-0.493,0-4.572,0.324-8.215,0.324v1.305l3.1,0.056
	c0.652,0,0.818,0.275,0.818,0.924v12.946c-0.708-1.91-2.99-4.407-7.126-4.407c-6.91,0-12.125,6.037-12.125,12.728
	c0,7.671,4.185,13.377,11.748,13.377c3.91,0,6.576-1.954,7.772-5.437c0,3.264,1.089,5.28,4.029,5.28H337.999L337.999,227.367z
	 M333.106,214.147c0,6.854-2.282,11.579-6.854,11.579c-5.381,0-6.851-4.894-6.851-11.579c0-6.143,1.252-10.93,6.851-10.93
	C331.367,203.217,333.106,208.653,333.106,214.147L333.106,214.147z"/>
<path class="st1" d="M353.227,227.367v-24.75c0-0.437-0.109-0.543-0.652-0.543c-0.487,0-4.563,0.325-8.209,0.325v1.304l3.102,0.056
	c0.65,0,0.811,0.269,0.811,0.918v17.466c0,3.102,1.142,5.224,4.026,5.224H353.227L353.227,227.367z"/>
<path class="st1" d="M341.632,153.99v-2.61c-2.616,3.477-6.91,6.143-11.967,6.143c-7.503,0-10.062-4.894-10.062-17.51
	c0-10.718,2.5-16.592,10.44-16.592c5.874,0,9.735,3.377,10.175,8.49h1.414c0-1.142-0.109-2.772-0.109-4.026
	c0-1.411,0.109-2.716,0.109-4.027c-1.254,0-5.983-2.066-11.589-2.066c-8.751,0-16.529,6.586-16.529,18.221
	c0,13.059,7.009,19.364,16.151,19.364C334.395,159.377,338.799,157.473,341.632,153.99L341.632,153.99z"/>
<path class="st1" d="M372.715,145.994c0-6.742-5.112-12.728-12.456-12.728c-7.122,0-12.453,5.986-12.453,12.728
	c0,7.621,5.006,13.383,12.453,13.383C367.712,159.377,372.715,153.615,372.715,145.994L372.715,145.994z M367.11,145.994
	c0,7.453-1.196,11.916-6.851,11.916c-5.599,0-6.854-4.463-6.854-11.916c0-6.199,1.086-11.255,6.854-11.255
	C366.243,134.739,367.11,139.795,367.11,145.994L367.11,145.994z"/>
<path class="st1" d="M418.509,159.214v-18.77c0-4.126-3.099-7.178-7.778-7.178c-3.861,0-6.794,2.397-8.049,5.387
	c-0.433-1.854-2.447-5.387-7.668-5.387c-3.645,0-6.526,2.073-7.94,5.387v-4.183c0-0.443-0.109-0.549-0.652-0.549
	c-0.494,0-4.57,0.331-8.215,0.331v1.304l3.102,0.05c0.652,0,0.818,0.275,0.818,0.924v22.191h4.947v-15.012
	c0-4.245,2.99-8.265,6.417-8.265c2.719,0,4.354,1.685,4.354,5.661v12.884c0,3.102,1.136,5.224,4.02,5.224h0.927v-15.505
	c0-4.183,2.934-8.265,6.417-8.265c2.719,0,4.354,1.685,4.354,5.661v12.884c0,3.102,1.136,5.224,4.02,5.224H418.509L418.509,159.214z
	"/>
<path class="st1" d="M450.66,159.214v-24.962h-4.953v14.681c0,4.245-2.716,8.265-6.577,8.265c-2.724,0-4.519-1.685-4.519-5.655
	V134.47c0-0.443-0.109-0.549-0.652-0.549c-0.487,0-4.563,0.331-8.209,0.331v1.304l3.102,0.05c0.652,0,0.812,0.275,0.812,0.924
	v15.661c0,4.139,3.155,7.185,7.943,7.185c3.913,0,6.688-2.073,8.099-5.387c0,3.102,1.145,5.224,4.03,5.224H450.66L450.66,159.214z"
	/>
<path class="st1" d="M483.126,159.214v-18.77c0-4.126-3.265-7.178-8.106-7.178c-3.966,0-6.851,2.073-8.265,5.387v-4.183
	c0-0.443-0.109-0.549-0.652-0.549c-0.49,0-4.57,0.331-8.211,0.331v1.304l3.099,0.05c0.652,0,0.812,0.275,0.812,0.924v22.191h4.953
	v-15.012c0-4.245,2.828-8.265,6.745-8.265c2.775,0,4.678,1.685,4.678,5.661v12.884c0,3.102,1.14,5.224,4.021,5.224H483.126
	L483.126,159.214z"/>
<path class="st1" d="M514.409,145.183c0-5.874-4.46-11.917-10.936-11.917c-6.251,0-11.473,5.874-11.473,12.728
	c0,7.727,4.079,13.383,11.857,13.383c5.056,0,8.155-2.179,9.678-4.027v-2.34c-2.391,3.208-5.599,4.788-9.354,4.788
	c-5.163,0-6.693-4.245-6.693-10.388c0-0.818,0.109-0.924,0.927-0.924h15.225C514.134,146.487,514.409,146.212,514.409,145.183
	L514.409,145.183z M508.913,144.096c0,0.811,0,0.917-0.812,0.917h-9.686c-0.818,0-0.818,0-0.818-0.812
	c0-5.331,1.795-9.463,5.874-9.463C507.39,134.739,508.913,138.921,508.913,144.096L508.913,144.096z"/>
<path class="st1" d="M70.319,24.613v-1.761c-2.977,0-4.198,0.131-6.229,0.131c-2.169,0-3.593-0.131-6.233-0.131L43.83,56.929
	L29.673,22.852c-2.647,0-3.661,0.131-6.374,0.131c-2.709,0-3.995-0.131-6.367-0.131v1.761l2.847,0.063
	c2.506,0.074,2.843,0.206,2.843,1.766v41.736h2.172V28.477l15.515,37.26h2.032l15.516-37.26v32.791c0,5.955,1.898,7.515,6.027,7.515
	h0.748V26.442c0-1.691,0.537-1.691,2.843-1.766L70.319,24.613L70.319,24.613z"/>
<path class="st1" d="M85.937,68.702v-30.78c0-0.537-0.134-0.668-0.812-0.668c-0.608,0-5.683,0.399-10.215,0.399v1.623l3.854,0.075
	c0.812,0,1.015,0.337,1.015,1.149v21.704c0,3.864,1.42,6.498,5.007,6.498H85.937L85.937,68.702z"/>
<path class="st1" d="M183.881,68.702V45.363c0-5.138-4.051-8.92-10.072-8.92c-4.943,0-8.53,2.566-10.287,6.692v-5.212
	c0-0.537-0.134-0.668-0.811-0.668c-0.606,0-5.681,0.399-10.216,0.399v1.623l3.861,0.075c0.805,0,1.011,0.337,1.011,1.149v27.59
	h6.155V49.42c0-5.269,3.517-10.275,8.386-10.275c3.452,0,5.818,2.097,5.818,7.029v16.03c0,3.864,1.426,6.498,5.013,6.498H183.881
	L183.881,68.702z"/>
<path class="st1" d="M106.98,62.204V23.177c0-0.537-0.141-0.674-0.811-0.674c-0.615,0-5.683,0.406-10.215,0.406v1.623l3.854,0.068
	c0.811,0,1.015,0.337,1.015,1.155v42.947h1.145C105.554,68.702,106.98,66.068,106.98,62.204L106.98,62.204z"/>
<path class="st1" d="M143.447,68.702c0-1.486-0.412-4.669-0.412-6.498V44.351c0-5.075-4.801-7.908-10.749-7.908
	c-7.85,0-12.722,4.388-12.722,6.355c0,1.96,1.152,2.566,2.709,2.566c4.464,0,2.775-7.166,9.201-7.166
	c3.514,0,5.546,1.823,5.546,5.344v5.686c0,0.942-0.068,1.005-1.014,1.005l-1.894,0.074c-9.536,0.337-16.842,4.532-16.842,10.213
	c0,5.612,3.854,8.39,12.035,8.39c4.263,0,7.104-2.984,7.781-5.481c0.337,4.057,2.372,5.274,5.344,5.274H143.447L143.447,68.702z
	 M137.02,57.672c0,4.47-2.774,9.407-7.038,9.407c-3.854,0-6.02-1.823-6.02-6.629c0-4.595,3.658-8.122,10.552-8.459l1.493-0.062
	c0.945-0.068,1.014,0.062,1.014,1.018V57.672L137.02,57.672z"/>
<path class="st1" d="M224.631,52.266c0-8.383-6.361-15.824-15.488-15.824c-8.861,0-15.496,7.441-15.496,15.824
	c0,9.47,6.226,16.642,15.496,16.642C218.41,68.908,224.631,61.736,224.631,52.266L224.631,52.266z M217.664,52.266
	c0,9.27-1.489,14.813-8.521,14.813c-6.969,0-8.526-5.543-8.526-14.813c0-7.715,1.354-14.007,8.526-14.007
	C216.584,38.259,217.664,44.551,217.664,52.266L217.664,52.266z"/>
<polygon class="st0" points="165.242,199.427 136.056,199.427 136.056,159.627 113.147,159.627 113.147,199.427 83.462,199.427 
	83.462,222.336 113.147,222.336 113.147,264.946 124.602,268.997 136.056,264.946 136.056,222.336 165.242,222.336 "/>
<path class="st2" d="M65.999,148.79c3.19,4.907,1.994,12.391-1.111,16.942c-1.343,1.892-2.763,3.858-4.648,5.25
	c-3.146,3.077-6.757,6.167-8.406,10.293c-0.04,0.044-0.156,0.119-0.23,0.044l-0.079-0.118c0.921-3.777,2.033-7.485,3.646-10.993
	c1.538-4.282,4.684-7.484,6.754-11.342c0.315-0.812,0.774-1.661,0.506-2.584c-0.116-0.156-0.306-0.156-0.506-0.156
	c-1.57,1.043-2.646,2.896-3.833,4.283c-1.842,2.696-3.805,5.442-5.225,8.414l0.041,0.15l-0.156,0.038
	c-1.571,3.283-2.912,6.716-3.874,10.261c-0.116,0.157,0.078,0.544-0.191,0.544c-0.306-2.972-1.731-5.481-2.116-8.415
	c1.42-6.554,4.648-12.921,10.29-16.735c2.572-1.935,5.184-4.513,6.489-7.372c0.23-0.306,0.689-0.306,1.073-0.269
	C65.194,147.404,65.537,148.141,65.999,148.79L65.999,148.79z"/>
<path class="st2" d="M44.81,160.713c0.343,0.543-0.116,1.117-0.079,1.704c-1.953,5.4-0.995,11.96,0.806,17.122
	c0.998,3.858,1.189,8.452,0.308,12.428c-0.115,0.112-0.308-0.044-0.346-0.193c-0.347-0.662-0.805-1.236-1.074-1.972
	c-2.493-4.014-4.341-8.334-4.915-13.153c-0.269-2.084,0.347-4.126-0.038-6.136c-0.04-0.193-0.194-0.381-0.347-0.499
	c-0.69-0.113-0.768,0.692-1.111,1.079c-2.494,7.247,0.805,14.351,4.226,20.212c0.805,1.511,1.723,2.934,2.259,4.588
	c1.957,4.476,3.34,9.495,2.724,14.82c0,1.005-0.383,1.891-0.614,2.815h-0.075c-0.883-1.929-2.034-3.97-3.873-5.132l-0.847-0.349
	c-0.152-2.547-0.77-4.857-1.464-7.172c-1.301-5.094-4.485-9.102-6.179-14.045c-0.153-0.075-0.153-0.231-0.153-0.418
	c-1.42-3.746-2.11-8.109-1.304-12.354c1.074-5.43,4.226-10.219,9.101-13.108C42.663,160.676,44.042,159.595,44.81,160.713
	L44.81,160.713z"/>
<path class="st2" d="M68.761,171.399c2.154,6.404,0.275,13.428-3.262,18.521c-2.646,4.283-7.294,6.785-10.674,10.487
	c-1.726,1.779-3.415,3.514-4.563,5.599c-0.23-0.193-0.04-0.73-0.152-1.117c-0.041-1.698-0.537-3.202-0.883-4.788
	c0.499-0.462,0.727-1.043,1.111-1.543c3.414-4.588,8.674-7.366,11.63-12.228c1.386-2.122,2.652-4.239,3.033-6.791
	c-0.112-0.387,0.078-0.881-0.381-1.08c-0.805,0.044-1.189,0.887-1.651,1.43c-2.154,4.401-5.684,8.021-9.332,11.111
	c-1.995,1.929-4.027,3.664-5.409,6.055h-0.119c-0.116-0.731,0.119-1.505,0.075-2.241c1.158-8.364,7.063-15.193,13.437-19.901
	c1.847-1.661,3.458-3.515,4.226-5.824c0.191-0.23,0.343-0.505,0.69-0.461C67.878,168.784,68.262,170.32,68.761,171.399
	L68.761,171.399z"/>
<path class="st2" d="M32.179,189.302c0.268,0.387,0.421,0.924,0.421,1.392c0.306,4.158,1.573,7.947,3.074,11.568
	c0.153,0.231,0.269,0.467,0.347,0.736c1.879,3.777,4.409,7.135,5.758,11.149c0.421,0.961,0.652,1.966,0.999,2.933
	c0.496,1.96,1.186,3.895,1.186,6.011h-0.113c-2.884-3.39-6.835-5.862-8.945-9.682c-1.886-2.927-3.149-6.279-3.727-9.838
	c-0.269-1.079-0.228-2.234-0.612-3.24c-0.153-0.306-0.347-0.574-0.652-0.768c-0.727,0.157-0.69,1.08-0.883,1.655
	c-0.421,3.127,0.347,6.179,1.114,9.026c0.343,0.58,0.421,1.28,0.764,1.892c1.651,4.244,4.957,7.64,8.294,10.73
	c2.228,2.079,4.263,4.47,5.989,7.092c-1.073,2.047-1.879,4.207-2.571,6.404l-0.075,0.08c-0.805-1.392-1.695-2.778-2.616-4.088
	c-2.762-4.207-6.295-6.986-9.632-10.761c-3.92-4.589-6.182-10.537-6.22-17.092c0.116-5.673,2.225-10.767,5.952-14.618
	C30.531,189.258,31.489,188.684,32.179,189.302L32.179,189.302z"/>
<path class="st2" d="M66.767,196.974c0.652,0.811-0.04,1.816-0.231,2.666c-1.648,4.245-0.69,9.488-2.341,13.733
	c-1.838,6.211-6.143,10.725-9.754,15.974c-0.268,0.692-0.882,1.31-1.227,2.084c-1.726,3.396-3.146,6.98-3.262,11.105l-0.074,0.044
	c-1.19-1.548-2.691-3.359-4.8-3.745c-0.153-0.231,0.037-0.462,0.074-0.731c1.535-5.131,3.995-9.763,7.256-13.927
	c3.958-4.975,8.021-10.299,8.864-16.972c0.04-0.699,0.156-1.548-0.459-1.928c-0.883,0.187-1.19,1.23-1.495,1.966
	c-0.69,2.235-1.726,4.283-2.762,6.361c-1.074,1.586-1.964,3.277-3.152,4.825c-1.917,2.815-4.448,5.363-6.296,8.252
	c-0.037,0.038-0.19,0.162-0.19,0c-0.652-10.568,4.76-19.514,12.091-25.918c1.726-1.472,3.573-2.708,5.609-3.745
	C65.269,196.825,66.115,196.518,66.767,196.974L66.767,196.974z"/>
<path class="st2" d="M30.337,225.758c2.378,5.436,6.604,9.956,11.289,13.308c4.142,3.627,7.984,7.834,9.862,12.996
	c-0.152,0.163-0.421-0.074-0.614-0.112c-7.1-3.284-14.354-7.366-18.159-14.545c-0.499-0.686-0.768-1.498-1.689-1.654
	c-0.496,0.306-0.343,1.043-0.269,1.542c1.074,4.514,4.304,7.678,7.831,10.531c4.8,4.05,11.096,5.518,16.083,9.376
	c3.112,2.273,6.027,5.094,7.875,8.526c0,0.151-0.231,0.151-0.306,0.113c-0.812-0.462-1.773-0.737-2.653-0.967
	c-1.305-0.231-2.685-0.306-3.874,0.193l-0.194-0.037c-2.075-2.316-4.875-4.282-7.644-5.824c-1.342-0.811-2.762-1.542-4.219-2.122
	c-2.843-1.423-5.836-2.809-8.252-4.894c-6.602-5.287-10.559-13.739-8.565-22.609c0.269-1.617,0.69-3.284,1.732-4.476
	c0.268-0.269,0.574-0.305,0.959-0.231C29.916,225.064,30.106,225.445,30.337,225.758L30.337,225.758z"/>
<path class="st2" d="M66.074,225.758c2.534,6.678,0.999,14.887-1.991,20.868c-1.613,3.857-3.306,7.871-2.731,12.422
	c-0.537-0.269-0.883-0.811-1.38-1.23c-1.114-0.887-2.263-1.929-3.493-2.784c0.231-0.418,0.157-1,0.31-1.461
	c0.343-1.386,0.652-2.822,1.263-4.089c0.079-0.692,0.5-1.198,0.69-1.854c0.921-2.24,2.151-4.357,2.994-6.635
	c1.001-2.779,2.19-5.824,1.464-8.952c-0.078-0.156-0.193-0.268-0.347-0.343c-0.574-0.119-0.727,0.58-0.995,0.924
	c-0.775,2.741-1.617,5.407-2.847,7.947c-1.763,3.627-3.917,7.103-4.57,11.224c-0.152,0-0.152-0.231-0.23-0.343
	c-0.727-2.197-1.112-4.514-1.19-6.942c-0.112-5.25,2.195-9.569,5.072-13.389c1.763-2.547,3.565-5.406,4.148-8.639
	c0.153-0.313,0.422-0.544,0.765-0.656C64.773,222.205,65.463,224.253,66.074,225.758L66.074,225.758z"/>
<path class="st2" d="M40.584,258.898c3.381,3.583,8.181,5.63,12.594,7.597c1.61,0.58,3.111,1.392,4.606,2.166
	c0.462,0.112,0.805,0.418,1.189,0.612c2.147,1.273,4.189,2.778,6.183,4.55c0.343,0.468,0.917,0.886,1.186,1.43
	c-1.454-0.156-2.953-0.425-4.454-0.462c-0.347-0.081-0.728,0-1.036-0.156c-5.606-0.737-10.669-3.128-14.701-6.829
	c-0.574-0.343-1.111-0.886-1.842-0.73c-0.459,0.692,0.231,1.348,0.459,1.966c3.805,4.975,9.826,7.409,15.968,8.371
	c3.458,0.387,6.795,1.005,9.984,2.004c0.269,0.162,0.157,0.468,0.269,0.699c0.537,1.929,1.42,3.777,2.303,5.549
	c-0.268,0.118-0.537-0.038-0.768-0.225c-4.301-1.585-8.905-2.509-13.59-3.246c-1.919-0.381-3.763-0.886-5.568-1.536
	c-5.415-2.166-9.826-5.912-12.784-10.961c-1.42-2.547-2.263-5.437-2.606-8.483c-0.078-1.161-0.194-2.628,0.805-3.246
	C39.626,257.624,40.125,258.467,40.584,258.898L40.584,258.898z"/>
<path class="st2" d="M70.915,246.051c0.5,1.117,0.384,2.503,0.69,3.701c0.883,3.82,3.415,6.985,4.105,10.874
	c1.311,5.793,1.538,11.922,3.111,17.553c0.883,3.09,2.341,6.061,4.105,8.608c-1.342-0.312-2.722-0.855-4.22-0.699
	c-0.574,0.044-1.111,0.2-1.61,0.349c-4.148-5.868-4.759-13.458-5.3-20.942c-0.343-3.09-0.917-6.099-1.648-9.033
	c-0.19-0.499-0.383-1.117-0.842-1.429c-0.697-0.075-0.622,0.661-0.89,1.042c-0.421,3.746,0.849,7.142,0.921,10.844
	c0.313,2.74,0.159,5.555,0.58,8.258c-0.152-0.081-0.268-0.237-0.343-0.387c-0.584-0.58-1.005-1.161-1.388-1.735
	c-2.99-4.476-4.679-9.838-3.989-15.706c0.309-2.235,0.883-4.319,1.611-6.323c0.193-0.156,0.193-0.387,0.268-0.618
	c0.921-1.617,1.726-3.24,3.231-4.438C69.726,245.663,70.647,245.464,70.915,246.051L70.915,246.051z"/>
<path class="st2" d="M65.001,286.744c3.645,1.355,7.678,1.973,11.788,2.085c4.336,0.624,8.674,1.741,12.047,4.282l-0.112,0.118
	c-6.414-0.499-13.283,1.192-19.076-1.236c-0.537-0.15-1.196-0.505-1.732-0.15c-0.074,0.113-0.191,0.225-0.153,0.381
	c0.652,1.043,1.77,1.423,2.769,2.01c3.911,1.617,8.558,1.654,12.974,1.423c6.682-0.194,13.016,1.005,18.651,3.745v0.075
	c-2.799,0.574-5.442,1.386-7.98,2.51c-3.377-0.855-7.104-1.162-10.746-1.08c-0.615-0.044-1.274,0.112-1.926,0
	c-1.495,0.038-2.915-0.269-4.37-0.349c-1.464-0.275-2.961-0.618-4.341-1.118c-5.606-1.891-10.515-6.136-12.862-11.654
	c-0.269-0.73-0.496-1.616-0.228-2.429c0.115-0.268,0.383-0.387,0.611-0.505C62.048,285.128,63.39,286.133,65.001,286.744
	L65.001,286.744z"/>
<path class="st2" d="M83.237,268.66c5.64,1.23,9.863,5.936,12.204,10.917c3.38,6.511,7.447,13.496,13.78,17.428
	c0.425,0.163,0.652,0.35,0.999,0.58c-0.116,0.231-0.537,0.306-0.883,0.306c-6.37,0.812-11.127-3.97-13.78-8.758
	c-1.648-3.046-2.953-6.279-4.757-9.213c-1.117-1.549-2.191-3.546-3.994-4.514c-0.269,0-0.384,0.15-0.5,0.343
	c-0.075,0.931,0.537,1.661,0.846,2.428c3.112,4.401,4.149,9.994,7.563,14.202c0,0.074,0,0.15-0.078,0.186
	c-4.757-1.535-8.52-5.087-10.284-9.875c-1.689-4.158-1.926-8.946-4.304-12.766c-0.074-0.387-0.228-0.886,0.157-1.191
	c0.805-0.619,1.954-0.313,2.918-0.157L83.237,268.66L83.237,268.66z"/>
<path class="st2" d="M184.528,268.56c0.031-0.774,0.031-1.661,0-2.434c0.383,0.037,0.804-0.081,1.073-0.431
	c1.994-2.553,0.652-6.461,2.263-9.176c0.305-0.775,1.074-1.355,1.957-1.355c1.19,0.306,2.038,1.542,2.575,2.59
	c0.19,0.537,0.499,1.192,1.073,1.311c0.079-0.081,0.231-0.081,0.306,0c1.881-1.011,2.225-3.221,2.877-5.037
	c0.384-1.473,0.843-2.903,1.579-4.258c0.537-0.854,1.152-1.592,2.11-1.859c0.153-0.201,0.422,0.037,0.574-0.044
	c0.999,0.349,1.38,1.43,1.42,2.397c0.075,0.312,0.344,0.618,0.612,0.768c1.158,0.193,1.773-0.887,2.462-1.542
	c1.417-2.521,3.299-5.119,6.296-5.78c0.883-0.043,1.841,0.187,2.225,0.955c1.264,2.36-0.193,4.882-0.883,7.092
	c-0.116,0.537-0.231,1.348,0.193,1.816c0.69,0.231,1.495,0.038,2.222,0.269c0.5,0.193,0.961,0.73,0.961,1.31
	c-0.268,2.554-2.687,4.107-4.525,5.35c-1.458,0.973-3.19,1.592-4.189,3.221c-0.038,0.231,0,0.462,0,0.699
	c0.269,0.381,0.73,0.306,1.074,0.456c0.804,0.08,1.578,0.537,1.809,1.31c0.191,1.548-1.348,2.291-2.231,3.065
	c-2.072,1.124-4.416,1.711-6.679,2.41c-1.073,0.505-2.188,0.93-2.952,1.941c-0.079,0.231-0.231,0.58,0,0.812
	c0.652,0.737,1.879,0.269,2.684,0.731c0.805,0.193,1.763,0.736,1.841,1.697c-0.193,1.786-2.072,2.56-3.53,3.146
	c-0.231,0.075-0.459,0.118-0.69,0.231c-0.574,0.194-1.189,0.312-1.81,0.387c-1.111,0.237-2.375,0.275-3.527,0.163
	c0.805-2.167,0.69-5.144-0.959-6.767l-1.036-0.811c2.453-2.091,4.757-4.345,7.026-6.555c0-0.193,0.306-0.306,0.421-0.467
	c1.264-1.43,2.568-2.865,3.795-4.257c0.578-0.581,0.968-1.236,1.427-1.78c0.804-0.973,1.458-2.06,2.225-3.14
	c0-0.162,0.152-0.312,0.228-0.393c0.808-1.198,1.535-2.477,1.841-3.908c-0.037-0.156,0.041-0.386-0.115-0.543
	c-0.113-0.156-0.306-0.231-0.496-0.156c-0.883,0.387-1.535,1.28-2.11,2.022c-5.337,6.935-11.863,12.672-18.391,18.327
	c-0.383,0.087-0.805,0.162-1.189,0.275c-0.805,0-1.382,0.467-2.116,0.593c-0.499-1.205-0.193-2.752,0.153-3.952L184.528,268.56
	L184.528,268.56z"/>
<path class="st2" d="M195.848,198.966c1.348-0.506,3.805,1.616,3.958-0.937c-0.462-3.09-3.115-5.143-4.036-7.922
	c-0.496-1.005-0.805-2.285-0.537-3.408c0.078-0.387,0.383-0.687,0.692-0.918c0.484-0.362,1.826-0.081,2.113,0.057
	c0.652,0.299,1.267,0.349,1.498,0.193c0.306-0.187,0.422-0.543,0.384-0.924c-0.384-1.586-1.535-2.628-2.269-4.058
	c-0.693-1.586-1.767-3.483-0.808-5.263c0.156-0.274,0.34-0.399,0.652-0.481c0.621-0.168,1.127-0.124,1.651,0.1
	c0.658,0.293,1.567,0.825,2.344-0.437c1.28-2.072-0.116-4.837,0.309-7.284c0.229-1.355,0.765-2.977,2.147-3.483
	c0.543-0.194,1.155,0.031,1.579,0.262c2.491,1.511,2.759,4.644,4.601,6.735c0.268,0.306,0.696,0.574,1.12,0.612
	c0.881-0.468,1.38-1.548,2.491-1.629c0.615-0.074,1.189,0.419,1.498,0.961c1.611,3.833-0.693,7.628-0.425,11.573
	c0.116,0.506,0.231,1.049,0.731,1.317c0.537,0.231,0.92-0.162,1.304-0.431c0.543-0.736,1.386-1.317,2.422-1.286
	c0.537,0.156,0.805,0.544,0.995,1.049c0.537,3.595-1.994,6.236-3.184,9.289c-0.112,0.624-0.387,1.436,0.035,1.978
	c0.312,0.306,0.811,0.381,1.233,0.187c0.727-0.349,1.688-0.78,2.493-0.193c0.921,0.849,0.459,2.397,0.075,3.402
	c-0.343,0.811-0.764,1.585-1.264,2.285c-1.573-0.967-4.036-0.805-5.453,0.319c-2.646,1.985-3.805,5-4.072,8.14
	c-0.69-0.393-1.458-0.662-2.223-0.811c0.421-2.516,0.65-5.188,1.073-7.784c-0.078-0.112-0.078-0.225,0-0.343
	c0.153-2.247,0.344-4.763,0.381-7.079c0-4.918-0.306-10.1-1.263-14.862c-0.538-1.236-0.538-2.859-1.842-3.596
	c-0.459,0.081-0.499,0.544-0.612,0.893c-0.116,1.548,0.459,4.949,0.459,4.949c0.652,5.999,0.384,12.46-0.305,18.347
	c-0.269,1.392-0.347,2.94-0.652,4.369c-0.805,5.387-1.886,10.606-3,15.875c-0.037,0.037-0.115,0.074-0.19,0.074
	c-0.652-0.418-1.536-0.536-2.341-0.649c-0.075-0.468-0.038-1.011-0.116-1.51c-0.421-3.833-1.264-7.503-3.228-10.637
	c-0.842-1.661-1.61-3.396-1.494-5.449C194.89,199.939,195.195,199.165,195.848,198.966L195.848,198.966z"/>
<path class="st2" d="M204.68,225.414c-0.153-0.112,0.078-0.23,0.04-0.381c0.113-1.167-0.156-2.166-0.346-3.214
	c0.499,0.193,1.111,0.693,1.725,0.343c0.269-0.193,0.384-0.499,0.422-0.811c0.306-0.774,0-1.66-0.116-2.435
	c-0.537-1.823-1.19-3.639-1.112-5.611c0.038-0.967,0.384-2.129,1.421-2.435c1.532-0.237,2.222,0.993,3.258,1.841
	c0.347,0.081,0.73,0.231,1.079-0.037c1.305-1.086,1.536-2.709,1.879-4.301c0.537-2.129,1.382-4.408,3.336-5.65
	c0.73-0.237,1.579-0.387,2.231,0.15c1.726,1.305,1.842,3.671,1.957,5.8c-0.078,0.268-0.078,0.699-0.078,1.005
	c-0.038,0.662,0.116,1.354,0.652,1.779c0.805,0.269,1.152-0.624,1.804-0.624c0.305-0.275,0.77-0.193,1.195-0.193
	c0.881,0.15,1.112,1.086,1.264,1.86c0,3.752-2.5,6.498-4.301,9.445c-0.193,0.505-0.499,1.242-0.116,1.741
	c0.69,0.581,1.573,0,2.263,0.075c0.306-0.038,0.615,0.112,0.889,0.231c0.574,0.381,0.69,1.079,0.612,1.779
	c-0.228,1.123-0.887,2.122-1.654,2.947c-0.422,0.692-1.114,1.161-1.573,1.741c-0.231,0.156-0.422,0.387-0.653,0.499
	c-1.151,1.399-3.031,2.21-3.374,4.108c0,0.268,0.191,0.543,0.421,0.624c0.959,0.15,1.879-0.313,2.953-0.163
	c0.615,0.156,1.226,0.306,1.611,0.887c0.652,1.741-0.995,3.096-2.147,4.107c-1.226,0.93-2.609,1.554-3.958,2.172
	c-0.112,0.038-0.228-0.074-0.228-0.156c-1.114-1.43-2.841-1.966-4.641-1.804c-1.311,0.269-2.615,0.693-3.611,1.592
	c-0.268-0.893-0.883-1.742-1.689-2.248c1.458-2.047,2.99-4.257,4.263-6.311c0.727-0.967,1.268-2.172,1.957-3.139
	c0.805-1.854,1.879-3.521,2.568-5.463c0.306-1.005,0.805-2.01,1.074-3.09c0.652-2.671,1.426-5.58,0.921-8.52
	c-0.072-0.312-0.153-0.699-0.5-0.893c-0.612,0.044-0.768,0.781-0.995,1.205c-0.462,1.592-0.69,3.252-1.268,4.8
	c-1.495,4.607-3.527,8.989-6.105,13.09c-0.381-1.274-1.494-2.285-2.8-2.503c-0.459-0.081-0.995-0.081-1.464,0
	c-0.152-0.431,0.275-0.737,0.309-1.168C204.375,227.237,204.606,226.35,204.68,225.414L204.68,225.414z"/>
<path class="st2" d="M180.307,157.298c0.615-0.387,1.611-0.23,2.263-0.156c0.193,0.038,0.537,0.038,0.768-0.074
	c1.246-0.332,1.426-1.961,1.099-2.791c-0.671-1.735-3.13-3.589-2.787-5.806c0.193-0.692,0.653-1.267,1.342-1.548
	c2.803-1.099,5.94,2.659,8.125,4.089c0.921,0.543,1.767,1.348,2.955,1.117c0.812-0.58,0.849-1.785,1.848-2.097
	c0.996-0.074,1.838,0.506,2.301,1.317c1.458,2.59,1.801,5.605,2.11,8.664c0.116,1.161,0.153,2.316,0.191,3.483
	c-0.575,0.999-1.074,2.166-1.265,3.402c-0.308,1.78,0,3.602,0.191,5.262c-0.499-0.037-1.036-0.231-1.689-0.15
	c-1.189-5.568-3.362-10.949-6.552-15.587c-0.652-0.774-1.379-1.898-2.453-1.966c-0.269,0.15-0.269,0.455-0.231,0.692
	c0.078,0.388,0.116,0.775,0.347,1.043c0.038,0.349,0.269,0.58,0.343,0.931c2.69,4.869,4.628,10.443,5.824,16.017
	c0.038,0.537-0.537,0.774-0.696,1.28c-0.231,0.73-0.309,1.504-0.425,2.241l-0.112,0.074c-1.804-2.666-6.548-3.115-8.35-5.817
	c-0.459-0.506-0.69-1.399-0.421-2.129c0.537-0.973,1.802-0.586,2.722-0.861c0.269-0.15,0.462-0.425,0.462-0.73
	c-0.462-1.473-1.957-2.36-3.184-3.134c-2.154-1.161-4.532-2.734-5.262-5.218C179.617,158.273,179.771,157.617,180.307,157.298
	L180.307,157.298z"/>
<path class="st2" d="M180.966,173.397c0.578-0.393,1.274-0.2,1.964-0.162c0.269,0.081,0.537,0.193,0.768,0.268
	c2.338,1.08,6.654,4.826,9.26,5.325c0.462,0.118,0.847-0.15,1.152-0.387c0.312,1.28,0.774,2.441,1.501,3.521
	c0.153,0.112,0.231,0.306,0.309,0.461c-1.151,0.275-2.272,1.13-2.768,2.247l-0.225,0.424c-1.158-1.741-3.299-3.489-4.604-4.064
	c-0.215-0.1-0.6,0.193-0.606,0.393c-0.038,1.479,1.274,2.572,2.026,3.671c2.316,3.371,4.173,7.435,5.026,11.068
	c-0.615,0.349-1.311,0.774-1.732,1.436c-1.304,2.135-0.843,5.112,0.152,7.235c0.574,1.316,1.502,2.547,2.001,3.907
	c0.958,2.167,1.495,4.482,1.879,6.842c-0.038,1.011-0.116,2.053,0,3.021c-0.152,0.081-0.038,0.275-0.19,0.312
	c-0.193-0.156-0.116-0.393-0.269-0.543c-1.382-4.644-8.502-9.282-11.495-12.834c-1.458-2.084-3.074-4.369-2.491-7.079
	c0.228-0.656,0.805-1.086,1.495-1.086c0.727-0.074,1.573,0.269,2.337,0.231c0.383-0.081,0.73-0.237,0.883-0.58
	c0.305-1.205-0.537-2.172-1.111-3.059c-0.921-1.242-2.11-2.085-3.184-3.284c-0.116-0.081-0.116-0.268-0.231-0.306
	c-1.117-1.28-2.385-2.353-1.885-4.251c0.421-0.812,1.342-0.737,2.116-0.855c0.269-0.194,0.537-0.387,0.612-0.737
	c0.04-2.284-1.655-3.833-2.575-5.605c-0.653-1.236-1.227-2.628-1.036-4.213C180.277,174.246,180.429,173.703,180.966,173.397
	L180.966,173.397z"/>
<path class="st2" d="M179.661,244.016c0.115-0.893,0.157-1.823,0.384-2.634c0.268-0.924,0.615-1.973,1.689-2.247
	c1.386-0.157,2.537,2.509,3.649,0.686c0.537-1.28,0.078-2.746-0.228-3.982c-0.383-1.393-1.152-2.634-1.458-4.101
	c-0.652-1.236-0.852-2.703-1.005-4.139c0.085-0.73,0.153-1.585,0.811-2.048c0.652-0.699,1.499,0.187,2.225-0.275
	c0.347,0.038,0.5-0.274,0.69-0.468c0.462-2.472-1.189-4.376-0.843-6.885c0.039-1.392,0.538-2.785,1.696-3.527
	c1.295-0.831,3.302-0.062,4.116,0.973c1.015,1.318,1.879,2.791,2.55,4.301c0.965,2.141,1.495,4.095,4.014,2.335
	c0.768-0.537,1.38-1.392,2.494-1.36c0.656,0.118,1.117,0.662,1.308,1.317c0.309,1.511,0.193,3.172-0.306,4.607
	c-0.268,1.005-0.658,1.972-0.696,3.059c-0.116,0.848,0,1.392,0.191,2.128c0.193,0.231,0.275,0.537,0.584,0.574
	c0.611,0.038,1.073-0.543,1.685-0.618c0.615-0.312,1.42-0.349,2.072-0.044c0.5,0.35,0.612,0.961,0.612,1.542
	c-0.306,2.903-3.027,4.583-4.179,7.092c-0.116,0.393-0.19,0.774-0.038,1.161c0.116,0.231,0.306,0.313,0.537,0.35
	c0.038-0.119,0.153-0.081,0.231,0c0.306-0.119,0.69-0.081,0.996-0.269c0.804-0.006,1.763,0.069,2.184,0.843
	c0.537,1.548-0.69,2.784-1.57,3.832H203.9c-0.918-1.155-2.301-1.585-3.764-1.461c-3.911,0.968-5.138,5.094-6.199,9.245
	c-0.275-0.449-0.833-1.105-1.504-1.486c2.999-9.657,2.806-16.792,1.17-24.664c-0.384-1.541-0.537-3.208-1.764-4.331
	c-0.23,0-0.461,0.124-0.574,0.312c-0.347,0.737-0.116,1.623-0.156,2.478c1.336,11.343,0.565,18.284-1.557,25.512
	c-0.628,0-1.663,0.225-2.275,0.731c-2.201,1.81-3.068,4.656-2.878,7.634c-0.037,0.924-0.165,1.516-0.587,2.296
	c-1.779-4.893-4.195-5.399-5.933-4.481C180.61,253.742,179.892,249.278,179.661,244.016L179.661,244.016z"/>
<path class="st2" d="M158.319,273.211c0.831-0.936,2.007-2.191,3.262-1.516c1.214,0.655,0.428,2.471,1.617,3.171
	c1.276,0.749,1.994-1.629,2.435-2.877c0.818-2.316,1.055-4.701,1.976-6.368c0.587-1.061,1.151-2.253,2.606-1.835
	c1.049,0.306,0.902,2.852,2.463,2.666c2.122-0.256,3.081-6.23,6.167-5.556c1.517,0.331,2.941,2.99,2.993,6.46
	c0.031,2.26-0.889,4.526-0.237,6.655c0.115,0.15,0.269,0.306,0.269,0.537c-0.843,0.781-1.81,1.473-2.728,2.172
	c-0.269-0.624-0.652-1.391-1.268-1.853c-0.383-0.349-0.921-0.618-1.342-0.887c0.774-1.704,1.398-3.92,1.208-5.443
	c-0.116-0.193-0.53-0.281-0.721-0.168c-1.151,0.874-1.86,3.446-3.055,5.462c-3.611,0.818-5.605,3.833-7.142,6.898
	c-0.152-0.038-0.122-0.269-0.237-0.388c-0.92-1.048-2.3-1.735-3.835-1.386c-3.84,0.781-5.796,4.795-8.015,8.127
	c-0.574-1.592-1.732-1.835-3.184-2.316C154.927,280.67,155.635,276.232,158.319,273.211L158.319,273.211z"/>
<path class="st2" d="M144.948,293.542c1.802-2.247,3.009-4.807,5.351-6.174c0.433-0.25,1.31-0.306,1.781-0.043
	c0.761,0.411,0.839,2.391,2.054,2.309c1.629-0.1,3.93-3.083,5.044-4.713c1.008-1.473,2.269-2.946,4.07-3.34
	c0.615-0.074,1.19,0.075,1.495,0.581c0.615,1.005-0.113,2.627,0.846,3.439c0.995,0.074,1.617-0.693,2.191-1.355
	c0.768-0.78,1.189-1.935,1.841-2.715c0.038-0.343,0.306-0.662,0.5-0.967c1.227-1.705,2.606-3.527,4.722-3.995
	c0.69-0.112,1.343,0.157,1.651,0.775c0.269,0.461,0.344,1.079,0.344,1.623c-0.153,0.118,0.078,0.231,0,0.387
	c0.04,0.349,0.193,0.692,0.499,0.774c0.768,0.225,1.535-0.081,2.185-0.393c2.806-1.049,4.341-3.758,7.294-4.5
	c1.158-0.388,2.806-0.388,3.805,0.343c1.074,0.812,0.959,2.478,0.652,3.633c-0.194,0.074-0.04,0.274-0.116,0.393
	c-0.73,1.898-2.034,3.558-2.877,5.381c0.078,0.274-0.116,0.425-0.153,0.692c0,0.588,0,1.168,0.422,1.549
	c0.269,0.193,0.69,0.305,0.958,0.43c0.653,0.269,1.23,0.65,1.536,1.311c0.19,1.08-0.653,1.898-1.495,2.441
	c-3.152,1.972-7.373,1.248-10.715,2.803c-0.921,0.275-2.185,0.774-2.378,1.823c-0.075,0.462,0.231,0.699,0.499,0.93
	c0.615,0.269,1.458,0.812,1.536,1.586c0.037,1.354-1.305,1.935-2.341,2.365c-0.269,0.075-0.574,0.15-0.883,0.269
	c-5.07,1.13-10.597-0.524-15.706,0.375c-1.264,0.2-2.606,0.393-3.758,0.892c-0.421,0.05-0.69-0.268-1.073-0.343
	c-1.995-0.73-3.958-1.542-6.105-1.96c1.382-0.313,2.8-0.63,4.151-0.899c0.19-0.112,0.496-0.081,0.69-0.156
	c0.995-0.431,2.032-0.356,2.953-0.818c0.421,0.038,0.727-0.306,1.111-0.269c1.535-0.549,3.115-1.017,4.725-1.523
	c1.264-0.543,2.606-1.048,3.948-1.517c0.156-0.186,0.431-0.186,0.543-0.23c0.309-0.119,0.537-0.35,0.883-0.35
	c0.462-0.274,1.036-0.468,1.535-0.693c1.994-0.973,4.107-1.866,5.949-3.033c0.577-0.238,1.267-0.662,1.841-1.012
	c2.532-1.704,5.3-3.296,7.064-5.93c0.116-0.237,0.269-0.618,0.038-0.855c-0.537-0.306-1.149,0.081-1.686,0.237
	c-2.73,1.86-5.262,3.371-8.099,4.851c-1.501,0.699-2.921,1.398-4.416,2.097c-0.383,0.156-0.805,0.275-1.189,0.425
	c-1.495,0.705-3.074,1.248-4.61,1.829c-1.074,0.355-2.263,0.668-3.336,1.011c-0.727,0.237-1.427,0.456-2.154,0.662
	c-4.598,1.33-11.084,2.89-14.857,3.627c-1.277,0.243-2.607,0.543-3.911,0.705c-0.075-0.037,0-0.118,0.038-0.193
	C142.511,296.726,143.875,294.884,144.948,293.542L144.948,293.542z"/>
<path class="st0" d="M115.972,298.81c3.183-1.123,6.026-2.715,8.636-4.851c2.8,2.547,6.411,3.971,9.862,5.325v0.075
	c-3.03,2.946-6.333,5.35-9.9,7.254c-0.268,0-0.346-0.2-0.577-0.275c-2.8-1.617-5.796-3.509-8.175-5.868
	c-0.421-0.269-0.805-0.731-1.196-1.117C115.051,299.123,115.55,299.047,115.972,298.81L115.972,298.81z"/>
<path class="st2" d="M95.513,305.097c0.268-0.225,0.696-0.15,1.001-0.387c3.262-1.086,6.564-1.792,9.941-2.534
	c1.648-0.424,3.342-0.855,4.953-1.361c1.037,1.198,2.11,2.01,3.222,2.971c-1.227,0.587-2.607,0.899-3.911,1.286
	c-4.304,1.405-8.948,1.954-13.205,3.427c-2.962,1.055-5.836,2.335-7.952,4.7c-1.036,0.968-1.764,2.248-2.341,3.565
	c-0.921-1.28-1.533-2.672-2.491-3.864C87.067,308.948,91.524,306.726,95.513,305.097L95.513,305.097z"/>
<path class="st2" d="M131.062,306.076c0.041-0.156,0.193-0.231,0.309-0.156c0.843,0.462,1.842,0.693,2.722,1.043
	c2.653,0.999,5.491,1.61,8.299,2.266c0.727,0.038,1.38,0.349,2.147,0.381c1.842,0.425,3.842,0.805,5.568,1.392
	c0.343,0.225,0.805,0.15,1.111,0.456c3.574,1.236,6.91,3.777,8.368,7.304l0.116,0.418c-0.999,1.479-1.804,2.796-2.763,4.301
	c-0.268-0.225-0.152-0.693-0.309-1.043c-1.226-5.449-7.1-7.497-11.9-8.683c-6.065-1.148-11.979-2.722-17.469-5.231
	C128.609,307.862,129.836,306.894,131.062,306.076L131.062,306.076z"/>
<path class="st0" d="M137.245,300.726c4.454,1.543,9.363,1.992,13.82,3.459c3.917,1.192,7.522,3.083,10.559,5.705
	c0.768,0.931,1.689,1.779,2.11,2.897c-0.461,0.431-0.615,0.973-0.999,1.442c-0.495,0.73-0.958,1.623-1.495,2.353
	c-0.115-0.074-0.084-0.268-0.152-0.343c-0.849-1.972-2.385-3.552-3.995-4.944c-0.153-0.044-0.306-0.231-0.499-0.35
	c-4.991-3.352-11.365-3.883-17.239-5.387c-1.841-0.537-3.683-0.999-5.453-1.729C134.976,302.824,136.172,301.813,137.245,300.726
	L137.245,300.726z"/>
<path class="st0" d="M92.098,314.778c3.184-2.865,7.522-4.076,11.748-4.937c0.231-0.15,0.5-0.075,0.768-0.193
	c0.422-0.038,0.881-0.194,1.342-0.275c1.264-0.349,2.647-0.543,3.918-0.93c2.494-0.706,4.95-1.486,7.332-2.491
	c1.23,0.886,2.456,1.854,3.798,2.621c-5.874,2.603-12.132,4.358-18.621,5.531c-2.99,0.899-5.983,2.061-8.327,4.27
	c-1.346,1.472-2.188,3.214-2.532,5.156h-0.078c-0.842-1.399-1.732-2.865-2.575-4.139C89.368,317.644,90.756,316.064,92.098,314.778
	L92.098,314.778z"/>
<path class="st2" d="M112.598,280.933c-0.409-0.412-3.664-1.499-5.856-1.499c3.124,4.139,8.199,10.831,12.37,14.682
	c1.226-0.574,2.147-1.174,3.183-2.072C118.837,288.567,115.607,284.859,112.598,280.933L112.598,280.933z"/>
<path class="st0" d="M102.448,278.329c-0.431-0.624-3.158-1.292-5.434-1.292c4.038,6.286,10.327,14.794,15.412,19.994
	c1.349-0.443,2.55-0.911,3.758-1.499C109.829,288.698,106.761,284.553,102.448,278.329L102.448,278.329z"/>
<path class="st2" d="M136.605,280.933c0.409-0.412,3.664-1.499,5.856-1.499c-3.124,4.139-8.203,10.831-12.369,14.682
	c-1.226-0.574-2.141-1.174-3.183-2.072C130.366,288.567,133.597,284.859,136.605,280.933L136.605,280.933z"/>
<path class="st0" d="M146.756,278.329c0.437-0.624,3.158-1.292,5.434-1.292c-4.032,6.286-10.328,14.794-15.412,19.994
	c-1.348-0.443-2.55-0.911-3.757-1.499C139.374,288.698,142.442,284.553,146.756,278.329L146.756,278.329z"/>
<path class="st1" d="M124.602,272.443c-0.608-0.755-1.592-1.467-3.031-2.297c-5.553-2.99-14.675-3.701-19.719-4.47
	c-12.468-1.879-20.965-10.592-20.965-22.796v-85.812h87.429v85.812c0,12.204-8.496,20.918-20.964,22.796
	c-5.044,0.769-14.168,1.479-19.719,4.47C126.193,270.976,125.21,271.688,124.602,272.443L124.602,272.443z M124.602,267.811
	c6.52-4.014,14.619-4.513,22.276-5.662c10.197-1.536,17.887-8.477,17.887-19.157v-82.372H84.439v82.372
	c0,10.681,7.69,17.622,17.893,19.157C109.982,263.299,118.088,263.797,124.602,267.811L124.602,267.811z"/>
<polygon class="st1" points="90.897,120.931 94.451,120.931 94.451,128.203 90.897,128.203 90.897,120.931 "/>
<polygon class="st1" points="119.595,113.496 123.15,113.496 123.15,117.211 126.053,117.211 126.053,113.496 129.608,113.496 
	129.608,120.762 119.595,120.762 119.595,113.496 "/>
<polygon class="st1" points="97.345,125.538 97.345,117.211 100.9,117.211 100.9,124.483 104.455,129.958 104.455,141.263 
	100.9,141.263 100.9,131.012 97.345,125.538 "/>
<polygon class="st1" points="107.348,120.931 110.251,120.931 110.251,124.483 103.796,124.483 103.796,117.211 107.348,117.211 
	107.348,120.931 "/>
<polygon class="st1" points="113.472,147.711 87.994,147.711 87.994,134.733 84.439,129.258 84.439,120.931 87.994,120.931 
	87.994,128.197 91.549,133.678 91.549,144.158 113.472,144.158 113.472,147.711 "/>
<polygon class="st1" points="154.752,120.931 158.307,120.931 158.307,128.203 154.752,128.203 154.752,120.931 "/>
<polygon class="st1" points="151.858,125.538 151.858,117.211 148.303,117.211 148.303,124.483 144.748,129.958 144.748,141.263 
	148.303,141.263 148.303,131.012 151.858,125.538 "/>
<polygon class="st1" points="141.855,120.931 138.952,120.931 138.952,124.483 145.407,124.483 145.407,117.211 141.855,117.211 
	141.855,120.931 "/>
<path class="st1" d="M87.994,154.171v-3.559h28.381v-6.454c0-4.544,3.683-8.227,8.227-8.227c4.544,0,8.227,3.683,8.227,8.227v6.454
	h28.381v3.559h-31.936v-10.013c0-2.584-2.09-4.669-4.672-4.669s-4.673,2.085-4.673,4.669v10.013H87.994L87.994,154.171z"/>
<polygon class="st1" points="135.732,147.711 161.209,147.711 161.209,134.733 164.765,129.258 164.765,120.931 161.209,120.931 
	161.209,128.197 157.654,133.678 157.654,144.158 135.732,144.158 135.732,147.711 "/>
<path class="st1" d="M119.929,134.052v-8.32l-3.227-4.97v-7.266h-3.555v8.321l3.228,4.97v9.881
	C117.367,135.575,118.575,134.683,119.929,134.052L119.929,134.052z"/>
<path class="st1" d="M129.274,134.052v-8.32l3.228-4.97v-7.266h3.555v8.321l-3.228,4.97v9.881
	C131.837,135.575,130.635,134.683,129.274,134.052L129.274,134.052z"/>
</svg>