<!-- Generator: Adobe Illustrator 23.0.3, SVG Export Plug-In  -->
<svg version="1.1" xmlns="http://www.w3.org/2000/svg" xmlns:xlink="http://www.w3.org/1999/xlink" x="0px" y="0px"
	 width="358.237px" height="594.818px" viewBox="0 0 358.237 594.818" style="enable-background:new 0 0 358.237 594.818;"
	 xml:space="preserve">
<style type="text/css">
	.st0{fill:#94ABD4;}
	.st1{fill:#F7CCCC;}
</style>
<defs>
</defs>
<g>
	<path class="st0" d="M273.518,145.999c5.25-5.109,11.277-14.192,9.356-28.083c0,0-2.591-13.75-15.244-16.52
		c-4.541-0.994-8.172-4.299-9.773-8.591l8.06-11.018c-1.011-0.54-2.008-1.016-2.99-1.431c-0.32-0.136-0.639-0.265-0.956-0.389
		l-80.724,110.071l-12.604-0.151l82.351-112.112c-0.421-0.006-0.837-0.006-1.243,0.004c-7.503,0.196-12.378,3.138-12.378,3.138
		c-11.607-9.436-17.384-21.659-20.237-32.265c-0.05-0.185-0.099-0.369-0.147-0.553c-8.318-1.079-57.826-7.387-84.489-8.256
		l-11.474-20.021c25.696,1.99,62.372,4.859,93.354,7.341c-0.011,1.053,0.011,2.478,0.115,4.194
		c0.627,10.365,4.334,31.451,23.127,46.728c0,0,24-13,47.333,19.5c8.75,12.188,9.471,20.011,9.667,26.5
		c0.117,3.883-0.175,7.07-0.594,9.577c-0.748,4.477-1.906,6.756-1.906,6.756s23.469-1.254,41.833-16.167
		c20.018-16.256,32.98-48.919,17.333-83.167c0,0-26.49,28.643-61.838,8.53l5.859-8.009l-9.375-6l-0.021,0.029l-3.541-2.266
		l-5.287,7.198c-0.504-0.528-0.981-1.07-1.419-1.633l0.697-1.117l18.833-30.167L299.974,0h-9.016H112.124h-8.593l4.246,7.471
		l19.537,34.372c0.233,3.075,0.807,12.26-0.063,18.834c-0.281,2.122-1.782,4.374-2.424,5.336l-0.225,0.34
		c-1.153,1.768-2.567,3.791-3.935,5.747c-6.075,8.688-8.498,12.359-7.42,15.99c0.861,2.901,3.164,4.632,4.845,5.896
		c0.369,0.278,0.718,0.54,1.002,0.776c0.566,0.471,1.013,0.92,1.343,1.289c-0.042,0.073-0.08,0.137-0.11,0.187
		c-0.095,0.161-0.177,0.302-0.241,0.417c-1.379,2.482-1.423,5.288-0.119,7.505c0.078,0.133,0.161,0.263,0.247,0.389
		c-0.549,1.939-0.568,4.194-0.176,6.346c0.16,0.879,0.495,1.571,0.919,2.447c0.531,1.097,1.775,3.665,1.383,4.953
		c-2.486,8.167-1.99,12.121-1.779,13.138l0.083,0.399l0.146,0.38c0.634,1.649,2.207,4.152,5.976,5.222
		c-30.686,21.34-114.476,66.15-114.476,66.15l-0.167,93.818h-0.012v122.667l71.333,28l1.273,0.751
		c-5.25,5.109-11.277,14.192-9.356,28.083c0,0,2.591,13.75,15.244,16.52c4.541,0.994,8.172,4.299,9.773,8.591l-8.06,11.018
		c1.011,0.54,2.008,1.016,2.99,1.431c0.32,0.136,0.639,0.265,0.956,0.389l80.724-110.071l12.604,0.151l-82.351,112.112
		c0.421,0.006,0.837,0.006,1.243-0.004c7.503-0.196,12.378-3.138,12.378-3.138c11.607,9.436,17.384,21.659,20.237,32.265
		c0.05,0.185,0.099,0.369,0.147,0.553c8.318,1.079,57.826,7.387,84.489,8.256l11.474,20.021c-25.696-1.99-62.372-4.859-93.354-7.341
		c0.011-1.052-0.011-2.478-0.115-4.194c-0.627-10.365-4.334-31.451-23.127-46.728c0,0-24,13-47.333-19.5
		c-8.75-12.188-9.471-20.011-9.667-26.5c-0.117-3.883,0.175-7.07,0.594-9.577c0.748-4.477,1.906-6.756,1.906-6.756
		s-23.469,1.254-41.833,16.167c-20.018,16.256-32.98,48.918-17.333,83.167c0,0,26.49-28.643,61.838-8.53l-5.859,8.009l9.375,6
		l0.021-0.029l3.541,2.266l5.287-7.198c0.504,0.528,0.981,1.07,1.419,1.633l-0.697,1.117L63.037,587.17l-4.775,7.648h9.016h178.833
		h8.593l-4.246-7.471l-19.537-34.372c-0.233-3.075-0.807-12.26,0.063-18.834c0.281-2.122,1.782-4.374,2.424-5.336l0.225-0.34
		c1.153-1.768,2.567-3.791,3.935-5.747c6.075-8.688,8.498-12.359,7.42-15.99c-0.861-2.901-3.164-4.632-4.845-5.896
		c-0.369-0.278-0.718-0.54-1.002-0.776c-0.566-0.471-1.013-0.92-1.343-1.289c0.042-0.073,0.08-0.137,0.11-0.187
		c0.095-0.161,0.177-0.302,0.241-0.417c1.379-2.482,1.423-5.288,0.119-7.505c-0.078-0.133-0.161-0.263-0.247-0.389
		c0.549-1.939,0.568-4.194,0.176-6.346c-0.16-0.879-0.495-1.571-0.919-2.447c-0.531-1.097-1.775-3.665-1.383-4.953
		c2.486-8.167,1.99-12.121,1.779-13.138l-0.083-0.399l-0.146-0.38c-0.634-1.649-2.207-4.152-5.976-5.222
		c30.686-21.34,114.476-66.15,114.476-66.15l0.167-93.818h0.012V174.75l-71.333-28L273.518,145.999z M282.625,34.715l8.531,5.46
		l-5.306,7.235c-2.104-1.376-4.235-2.917-6.392-4.66c-0.586-0.474-1.132-0.966-1.656-1.469L282.625,34.715z M272.593,33.236
		c-0.136-0.399-0.26-0.806-0.373-1.22c0.39,0.042,0.719,0.079,0.969,0.11L272.593,33.236z M119.93,18.733L112.124,5h178.833
		l-16.524,26.467l-0.199-0.133c-0.081-0.054-0.87-0.159-2.258-0.308c-0.565-2.511-0.748-5.3-0.519-8.443c0,0-20.833-11.667-57,2.5
		c0,0-0.03,0.388-0.053,1.072c-32.717-2.624-71.167-5.617-94.241-7.404L119.93,18.733z M75.612,560.103l-8.531-5.46l5.306-7.235
		c2.104,1.376,4.235,2.917,6.392,4.66c0.586,0.474,1.132,0.966,1.656,1.469L75.612,560.103z M85.643,561.583
		c0.136,0.399,0.26,0.806,0.373,1.22c-0.39-0.042-0.719-0.079-0.969-0.11L85.643,561.583z M238.306,576.085l7.806,13.733H67.279
		l16.524-26.467l0.199,0.133c0.081,0.054,0.87,0.159,2.258,0.308c0.565,2.511,0.748,5.3,0.519,8.443c0,0,20.833,11.667,57-2.5
		c0,0,0.03-0.388,0.053-1.072c32.717,2.624,71.167,5.617,94.241,7.404L238.306,576.085z M218.744,146.277
		c1.636,1.08,3.322,2.093,5.068,3.014c2.6,1.372,5.419,2.634,8.414,3.67c2.355,0.814,4.819,1.487,7.375,1.958
		c4.945,0.911,10.232,1.065,15.725,0.038c-5.625,1.388-11.056,1.493-16.155,0.771l-0.057,0.108l-11.51,21.63l-14.88,27.981
		c-1.684-3.328-3.401-5.785-4.914-7.553l9.443-17.378l10.21-18.79l4.178-7.691c-3.653-1.125-7.063-2.607-10.164-4.244
		c-1.274-0.672-2.515-1.394-3.731-2.151L218.744,146.277z M201.307,170.115c8.346-1.6,16.173-4.081,24.282-7.68l-10.21,18.79
		c-6.988,1.822-13.288,2.847-20.112,3.547c-0.837-0.968-1.687-1.958-2.529-2.943L201.307,170.115z M171.689,191.343l-0.023,0.032
		l1.332-0.058l4.367-0.088l-0.011-0.017c0.148,0.011,0.296,0.018,0.444,0.021l1.349,0.044l2.697,0.12
		c0.9,0.036,1.798,0.085,2.696,0.15c0.898,0.059,1.797,0.118,2.69,0.255c-0.515-0.137-1.035-0.249-1.557-0.351l0.327-0.409
		l4.09-5.591c1.146,1.333,2.365,2.741,3.632,4.194c2.212,2.538,4.758,5.116,8.013,8.112c2.18,2.007,5.383,5.81,8.261,12.526
		c3.48,8.116,9.728,13.872,13.255,16.656l-14.694,27.042l-9.171-13.065h-0.26c-9.404,0-29.515-13.772-29.717-13.912l-0.121-0.084
		l-9.327-0.264c-1.243-0.038-3.16-0.123-5.228-0.308c-1.383-0.134-2.538-0.273-3.533-0.427l-9.1-1.377
		c-1.875-0.361-6.762-1.789-6.854-4.027c-0.014-0.371,0.088-0.646,0.32-0.862c0.433-0.402,1.284-0.604,2.54-0.604
		c0.54,0,1.155,0.037,1.844,0.112c1.327,0.148,3.179,0.263,4.61,0.283l7.684,0.088v0.002l16.631-0.45l-15.374-0.509
		c0.566-1.008,0.834-2.66,0.834-4.221c0-1.755-0.317-3.309-0.843-4.225l15.05-0.298l-16.092-0.638
		c-0.031-0.007-0.057-0.006-0.086-0.01c-0.037-0.005-0.077-0.017-0.112-0.018c0.006-0.011,0.009-0.026,0.015-0.038
		c0.115-0.237,0.218-0.501,0.306-0.789c0.003-0.009,0.006-0.017,0.009-0.026c0.09-0.298,0.165-0.619,0.227-0.955
		c0.005-0.024,0.008-0.049,0.012-0.073c0.056-0.321,0.1-0.653,0.13-0.994c0.003-0.031,0.006-0.061,0.008-0.092
		c0.029-0.361,0.046-0.728,0.046-1.094c0-0.183-0.005-0.367-0.012-0.549c-0.002-0.057-0.006-0.114-0.009-0.171
		c-0.007-0.127-0.015-0.253-0.025-0.379c-0.005-0.063-0.011-0.126-0.017-0.189c-0.012-0.125-0.026-0.247-0.042-0.37
		c-0.007-0.055-0.013-0.111-0.021-0.166c-0.023-0.161-0.048-0.318-0.077-0.473c-0.002-0.013-0.004-0.027-0.007-0.04
		c-0.032-0.168-0.069-0.33-0.108-0.489c-0.011-0.044-0.023-0.086-0.035-0.13c-0.03-0.113-0.062-0.224-0.096-0.331
		c-0.016-0.049-0.031-0.097-0.048-0.144c-0.035-0.101-0.071-0.198-0.109-0.293c-0.017-0.041-0.033-0.083-0.05-0.123
		c-0.05-0.115-0.102-0.223-0.157-0.325c-0.006-0.012-0.012-0.026-0.018-0.037l3.956-0.06c0.004,0,0.007,0.001,0.011,0.001
		c0.008,0,0.017-0.001,0.025-0.001l0.169-0.003l0,0.01l13.003-0.417l-11.88-0.533c0.567-1.015,0.828-2.669,0.828-4.145
		c0-1.497-0.265-3.119-0.822-4.119L171.689,191.343z M193.824,240.991l-18.839,35.426h-9.845l20.937-38.527
		C188.721,239.154,191.381,240.26,193.824,240.991z M154.341,227.314l-36.053,49.102h-13.994l37.445-50.926
		c0.106,0.022,0.194,0.04,0.251,0.051l9.06,1.369C151.985,227.055,153.07,227.188,154.341,227.314z M150.875,209.297
		c-0.328,0-1.13-1.469-1.13-4.19s0.802-4.19,1.13-4.19s1.13,1.469,1.13,4.19S151.203,209.297,150.875,209.297z M152.115,210.217
		l0.09-0.051c0.068,0,0.199,0.098,0.344,0.328c0.478,0.717,0.786,2.232,0.786,3.862c0,0.339-0.012,0.657-0.034,0.956
		c-0.155,2.092-0.796,3.205-1.095,3.223c-0.325,0-1.12-1.465-1.12-4.18c0-0.31,0.01-0.617,0.028-0.914
		C151.243,211.665,151.715,210.475,152.115,210.217z M150.092,214.128c-0.001,0.078-0.007,0.151-0.007,0.229
		c0,1.035,0.12,2.072,0.356,2.946l-0.24-0.003h-0.01l-1.96-0.02c-0.139-0.002-0.3-0.009-0.448-0.013L150.092,214.128z
		 M155.026,195.749c0-2.686,0.781-4.079,1.183-4.079c0.003,0,0.006,0,0.009,0c0.448,0.217,1.068,1.755,1.068,4.079
		c0,2.342-0.604,3.791-0.991,4.047c-0.031,0.016-0.092,0.037-0.117,0.04c-0.04,0.005-0.087,0-0.083,0.006
		C155.65,199.631,155.026,198.083,155.026,195.749z M172.748,182.612c-0.401-1.323-0.673-2.696-0.794-4.087l-0.064-1.427
		c0.028,0.003,0.061-0.005,0.09-0.003c0.021,0.001,0.039,0.01,0.06,0.01c0.046,0,0.099-0.013,0.147-0.017
		c0.102-0.006,0.203-0.015,0.311-0.036c0.031-0.006,0.063-0.016,0.094-0.024c1.011-0.234,2.251-1.06,3.369-2.07
		c0.19-0.172,0.377-0.348,0.557-0.528c1.141-1.141,1.975-2.312,2.387-3.273c0.333,0.548,0.684,1.109,1.041,1.655L172.748,182.612z
		 M171.832,175.993c-0.116-0.496,0.557-2.074,2.366-3.883c1.753-1.754,3.235-2.394,3.768-2.394c0.089,0,0.15,0.018,0.184,0.051
		c0.02,0.02,0.032,0.036,0.039,0.09l0.496-0.061l-0.495,0.077c0.087,0.637-0.779,2.25-2.377,3.848
		C173.763,175.761,172.086,176.295,171.832,175.993z M125.458,130.417c0,0-0.64-3.087,1.667-10.667
		c0.99-3.252-0.857-6.913-1.74-8.739c0.129,0.072,0.257,0.153,0.387,0.21c0.443,0.188,0.89,0.323,1.338,0.424
		c0.895,0.209,1.791,0.297,2.684,0.354c1.787,0.103,3.563,0.036,5.331-0.083c-1.771-0.047-3.542-0.149-5.277-0.414
		c-0.865-0.137-1.726-0.307-2.537-0.58c-0.406-0.132-0.796-0.294-1.152-0.486c-0.177-0.098-0.339-0.206-0.481-0.322
		c-0.058-0.061-0.137-0.118-0.176-0.178c-0.047-0.038-0.097-0.16-0.066-0.084L124.958,110c-0.142-0.783-0.575-5.172,1.25-5.583
		c0.264-0.06,0.551-0.087,0.853-0.087c3.179,0,8.147,3.004,8.147,3.004s-4.477-5.509-7.169-5.51c-0.269,0-0.521,0.055-0.748,0.176
		c-0.557,0.297-1.069,0.429-1.515,0.429c-1.551,0-2.29-1.597-1.319-3.346c0.404-0.727,1.865-2.857,1.167-4.333
		c-0.404-0.854-1.605-2.397-3.333-3.833c-1.604-1.333-3.738-2.524-4.25-4.25c-0.604-2.035,6.485-11.043,10.75-17.583
		c0.679-1.041,2.944-4.185,3.417-7.75c1.008-7.611,0.24-18.109,0.043-20.498c3.659,0.116,7.758,0.336,12.128,0.632
		c0.038,1.684,0.371,16.464,0.371,18.449h1c0-1.963-0.322-16.298-0.369-18.38c9.013,0.629,19.102,1.566,28.829,2.574
		c0.081,0.111,0.18,0.247,0.287,0.397c2.639,3.695,12.78,19.333,12.127,40.659c-0.424,13.853,5.626,28.105,10.964,37.877
		c2.584,4.73,5.711,9.128,9.309,13.077l-1.23,1.674c-4.065-4.245-7.568-9.046-10.412-14.252c-1.006-1.841-2.037-3.842-3.046-5.969
		c-0.695-1.467-1.378-2.995-2.036-4.571c-10.321,4.433-27.325,11.461-38.716,14.747c-4.808,1.387-14.507,5.201-20.683,5.201
		C128.154,132.951,126.169,132.265,125.458,130.417z M108.574,151.78c19.492,13.389,40.259,20.099,64.024,20.608
		c-1.1,1.319-1.933,2.794-1.751,3.741l-0.002,0l0.111,2.461c0.15,1.733,0.509,3.423,1.058,5.02l-1.709,2.326
		c-29.949-0.469-56.243-8.282-79.771-23.486L108.574,151.78z M80.791,278.417h16h122h4.333v9H80.791V278.417z M91.505,443.708
		c-0.418,0.221-2.152,1.177-4.36,2.959l-4.533-2.015l67.139-126.25h9.845L91.505,443.708z M139.492,448.541
		c-1.636-1.08-3.322-2.093-5.068-3.014c-2.6-1.372-5.419-2.634-8.414-3.67c-2.355-0.814-4.819-1.487-7.375-1.958
		c-4.945-0.911-10.232-1.065-15.725-0.038c5.625-1.388,11.056-1.493,16.155-0.771l0.057-0.108l11.51-21.63l14.88-27.981
		c1.684,3.328,3.401,5.785,4.914,7.553l-9.443,17.378l-10.21,18.79l-4.178,7.691c3.653,1.125,7.063,2.607,10.164,4.244
		c1.274,0.672,2.515,1.394,3.731,2.151L139.492,448.541z M156.929,424.703c-8.346,1.6-16.173,4.081-24.282,7.68l10.21-18.79
		c6.988-1.822,13.288-2.847,20.112-3.547c0.837,0.968,1.687,1.958,2.529,2.943L156.929,424.703z M186.547,403.475l0.023-0.032
		l-1.332,0.058l-4.367,0.088l0.011,0.017c-0.148-0.011-0.296-0.018-0.444-0.021l-1.349-0.044l-2.697-0.12
		c-0.9-0.036-1.798-0.085-2.696-0.15c-0.898-0.059-1.797-0.118-2.69-0.255c0.515,0.137,1.035,0.249,1.557,0.351l-0.327,0.409
		l-4.09,5.591c-1.146-1.333-2.365-2.741-3.632-4.194c-2.212-2.538-4.758-5.116-8.013-8.112c-2.18-2.007-5.383-5.81-8.261-12.526
		c-3.48-8.116-9.728-13.872-13.255-16.656l14.694-27.042l9.171,13.065h0.26c9.404,0,29.515,13.772,29.717,13.912l0.121,0.084
		l9.327,0.264c1.243,0.038,3.16,0.123,5.228,0.308c1.383,0.134,2.538,0.273,3.533,0.427l9.1,1.377
		c1.875,0.361,6.762,1.789,6.854,4.027c0.014,0.371-0.088,0.646-0.32,0.862c-0.433,0.402-1.284,0.604-2.54,0.604
		c-0.54,0-1.155-0.037-1.844-0.112c-1.327-0.148-3.179-0.263-4.61-0.283l-7.684-0.088v-0.002l-16.631,0.45l15.374,0.509
		c-0.566,1.008-0.834,2.66-0.834,4.221c0,1.755,0.317,3.309,0.843,4.225l-15.05,0.298l16.092,0.638
		c0.031,0.007,0.057,0.006,0.086,0.01c0.037,0.005,0.077,0.017,0.112,0.018c-0.006,0.011-0.009,0.026-0.015,0.038
		c-0.115,0.237-0.218,0.501-0.306,0.789c-0.003,0.009-0.006,0.017-0.009,0.026c-0.09,0.298-0.165,0.619-0.227,0.955
		c-0.005,0.024-0.008,0.049-0.012,0.073c-0.056,0.321-0.1,0.653-0.13,0.994c-0.003,0.031-0.006,0.061-0.008,0.092
		c-0.029,0.361-0.046,0.728-0.046,1.094c0,0.183,0.005,0.367,0.012,0.549c0.002,0.057,0.006,0.114,0.009,0.171
		c0.007,0.127,0.015,0.253,0.025,0.379c0.005,0.063,0.011,0.126,0.017,0.189c0.012,0.125,0.026,0.247,0.042,0.37
		c0.007,0.055,0.013,0.111,0.021,0.166c0.023,0.161,0.048,0.318,0.077,0.473c0.002,0.013,0.004,0.027,0.007,0.04
		c0.032,0.168,0.069,0.33,0.108,0.489c0.011,0.044,0.023,0.086,0.035,0.13c0.03,0.113,0.062,0.224,0.096,0.331
		c0.016,0.049,0.031,0.097,0.048,0.144c0.035,0.101,0.071,0.198,0.109,0.293c0.017,0.041,0.033,0.083,0.05,0.123
		c0.05,0.115,0.102,0.223,0.157,0.325c0.006,0.012,0.012,0.026,0.018,0.037l-3.956,0.06c-0.004,0-0.007-0.001-0.011-0.001
		c-0.008,0-0.017,0.001-0.025,0.001l-0.169,0.003l0-0.01l-13.003,0.417l11.88,0.533c-0.567,1.015-0.828,2.669-0.828,4.145
		c0,1.497,0.265,3.119,0.822,4.119L186.547,403.475z M164.412,353.828l18.839-35.426h9.845l-20.937,38.527
		C169.515,355.664,166.855,354.558,164.412,353.828z M203.896,367.504l36.053-49.102h13.994l-37.445,50.926
		c-0.106-0.022-0.194-0.04-0.251-0.051l-9.06-1.369C206.251,367.763,205.166,367.631,203.896,367.504z M207.362,385.521
		c0.328,0,1.13,1.469,1.13,4.19s-0.802,4.19-1.13,4.19s-1.13-1.469-1.13-4.19S207.034,385.521,207.362,385.521z M206.122,384.601
		l-0.09,0.051c-0.068,0-0.199-0.098-0.344-0.328c-0.478-0.717-0.786-2.232-0.786-3.862c0-0.339,0.012-0.657,0.034-0.956
		c0.155-2.092,0.796-3.205,1.095-3.223c0.325,0,1.12,1.465,1.12,4.18c0,0.31-0.01,0.617-0.028,0.914
		C206.994,383.153,206.521,384.344,206.122,384.601z M208.145,380.691c0.001-0.078,0.007-0.151,0.007-0.229
		c0-1.035-0.12-2.072-0.356-2.946l0.24,0.003h0.01l1.96,0.02c0.139,0.002,0.3,0.009,0.448,0.013L208.145,380.691z M203.21,399.069
		c0,2.686-0.781,4.079-1.183,4.079c-0.003,0-0.006,0-0.009,0c-0.448-0.217-1.068-1.755-1.068-4.079c0-2.342,0.604-3.791,0.991-4.047
		c0.031-0.016,0.092-0.037,0.117-0.04c0.04-0.005,0.087,0,0.083-0.006C202.586,395.187,203.21,396.735,203.21,399.069z
		 M185.489,412.207c0.401,1.323,0.673,2.696,0.794,4.087l0.064,1.427c-0.028-0.003-0.061,0.005-0.09,0.003
		c-0.021-0.001-0.039-0.01-0.06-0.01c-0.046,0-0.099,0.013-0.147,0.017c-0.102,0.006-0.203,0.015-0.311,0.036
		c-0.031,0.006-0.063,0.016-0.094,0.024c-1.011,0.234-2.251,1.06-3.369,2.07c-0.19,0.172-0.377,0.348-0.557,0.528
		c-1.141,1.141-1.975,2.312-2.387,3.273c-0.333-0.548-0.684-1.109-1.041-1.655L185.489,412.207z M186.405,418.825
		c0.116,0.496-0.557,2.074-2.366,3.883c-1.753,1.754-3.235,2.394-3.768,2.394c-0.089,0-0.15-0.018-0.184-0.051
		c-0.02-0.02-0.032-0.036-0.039-0.09l-0.496,0.061l0.495-0.077c-0.087-0.637,0.779-2.25,2.377-3.848
		C184.473,419.057,186.151,418.523,186.405,418.825z M232.779,464.402c0,0,0.64,3.087-1.667,10.667
		c-0.99,3.252,0.857,6.913,1.74,8.739c-0.129-0.072-0.257-0.153-0.387-0.21c-0.443-0.188-0.89-0.323-1.338-0.424
		c-0.895-0.209-1.792-0.297-2.684-0.354c-1.787-0.103-3.563-0.036-5.331,0.083c1.771,0.047,3.542,0.149,5.277,0.414
		c0.865,0.137,1.726,0.307,2.537,0.58c0.406,0.132,0.796,0.294,1.152,0.486c0.177,0.098,0.339,0.206,0.481,0.322
		c0.058,0.061,0.137,0.118,0.176,0.178c0.047,0.038,0.097,0.16,0.066,0.084l0.478-0.147c0.142,0.783,0.575,5.172-1.25,5.583
		c-0.264,0.06-0.551,0.087-0.853,0.087c-3.179,0-8.147-3.004-8.147-3.004s4.477,5.509,7.169,5.51c0.269,0,0.521-0.055,0.748-0.176
		c0.557-0.297,1.069-0.429,1.515-0.429c1.551,0,2.29,1.597,1.319,3.346c-0.404,0.727-1.865,2.857-1.167,4.333
		c0.404,0.854,1.605,2.397,3.333,3.833c1.604,1.333,3.738,2.524,4.25,4.25c0.604,2.035-6.485,11.043-10.75,17.583
		c-0.679,1.041-2.944,4.185-3.417,7.75c-1.008,7.611-0.24,18.109-0.043,20.498c-3.659-0.116-7.758-0.336-12.128-0.632
		c-0.038-1.684-0.371-16.464-0.371-18.449h-1c0,1.963,0.322,16.298,0.369,18.38c-9.013-0.629-19.102-1.566-28.829-2.574
		c-0.081-0.11-0.18-0.247-0.287-0.397c-2.639-3.695-12.78-19.333-12.127-40.659c0.424-13.853-5.626-28.105-10.964-37.877
		c-2.584-4.73-5.711-9.128-9.309-13.077l1.23-1.674c4.065,4.245,7.568,9.046,10.412,14.252c1.006,1.841,2.037,3.842,3.046,5.969
		c0.695,1.467,1.378,2.995,2.036,4.571c10.321-4.433,27.325-11.461,38.716-14.747c4.808-1.387,14.507-5.201,20.683-5.201
		C230.082,461.867,232.068,462.553,232.779,464.402z M249.662,443.038c-19.492-13.389-40.259-20.099-64.024-20.608
		c1.1-1.319,1.933-2.794,1.751-3.741l0.002,0l-0.111-2.461c-0.15-1.733-0.509-3.423-1.058-5.02l1.709-2.326
		c29.949,0.469,56.243,8.282,79.771,23.486L249.662,443.038z M277.445,316.402h-16h-122h-4.333v-9h142.333V316.402z
		 M208.486,276.417h-9.845l68.091-125.306c0.418-0.221,2.152-1.177,4.36-2.959l4.533,2.015L208.486,276.417z"/>
	<path class="st1" d="M215.379,181.225l10.21-18.79c-8.109,3.599-15.937,6.08-24.282,7.68l-8.568,11.714
		c0.842,0.985,1.692,1.975,2.529,2.943C202.091,184.072,208.392,183.047,215.379,181.225z"/>
	<path class="st1" d="M172.014,183.61c-0.548-1.597-0.908-3.286-1.058-5.02l-0.111-2.461l0.002,0
		c-0.182-0.947,0.651-2.423,1.751-3.741c-23.765-0.508-44.532-7.218-64.024-20.608l-18.04,10.67
		c23.528,15.205,49.822,23.017,79.771,23.486L172.014,183.61z"/>
	<path class="st1" d="M214.458,25.083c36.167-14.167,57-2.5,57-2.5c-0.229,3.143-0.045,5.932,0.519,8.443
		c1.388,0.149,2.177,0.254,2.258,0.308l0.199,0.133L290.958,5H112.124l7.806,13.733l0.233,0.018
		c23.074,1.787,61.524,4.78,94.241,7.404C214.428,25.471,214.458,25.083,214.458,25.083z"/>
	<path class="st1" d="M272.593,33.236l0.596-1.11c-0.25-0.031-0.579-0.068-0.969-0.11C272.334,32.43,272.457,32.837,272.593,33.236z
		"/>
	<path class="st1" d="M141.496,62.524c0.005,2.287,0.343,5.689,1.287,6.732l12.683-2.205c-2.777-1.41-9.422-4.528-13.881-4.528
		C141.555,62.523,141.525,62.524,141.496,62.524z"/>
	<path class="st1" d="M125.273,87.857c0.711,0.344,1.453,0.732,1.915,1.059c0.479,0.338,2.465,0.157,3.611-0.458
		c0.329-0.177,0.479-0.331,0.535-0.43C130.925,87.827,129.27,87.599,125.273,87.857z"/>
	<path class="st1" d="M151.458,127.75c11.391-3.286,28.395-10.314,38.716-14.747c0.658,1.576,1.341,3.105,2.036,4.571
		c1.008,2.127,2.039,4.128,3.046,5.969c2.844,5.206,6.347,10.006,10.412,14.252l1.23-1.674c-3.598-3.95-6.725-8.347-9.309-13.077
		c-5.338-9.771-11.388-24.024-10.964-37.877c0.653-21.327-9.489-36.965-12.127-40.659c-0.108-0.151-0.206-0.287-0.287-0.397
		c-9.727-1.007-19.816-1.945-28.829-2.574c0.047,2.082,0.369,16.417,0.369,18.38h-1c0-1.985-0.333-16.765-0.371-18.449
		c-4.369-0.296-8.468-0.516-12.128-0.632c0.197,2.389,0.965,12.887-0.043,20.498c-0.472,3.565-2.738,6.709-3.417,7.75
		c-4.265,6.541-11.354,15.548-10.75,17.583c0.512,1.726,2.646,2.917,4.25,4.25c1.728,1.436,2.929,2.98,3.333,3.833
		c0.699,1.476-0.763,3.606-1.167,4.333c-0.971,1.748-0.232,3.346,1.319,3.346c0.445,0,0.957-0.132,1.515-0.429
		c0.227-0.121,0.479-0.176,0.748-0.176c2.692,0,7.169,5.51,7.169,5.51s-4.968-3.004-8.147-3.004c-0.302,0-0.589,0.027-0.853,0.087
		c-1.825,0.411-1.392,4.801-1.25,5.583l0.478-0.147c-0.031-0.075,0.019,0.046,0.066,0.084c0.039,0.059,0.118,0.116,0.176,0.178
		c0.143,0.116,0.305,0.223,0.481,0.322c0.356,0.192,0.746,0.354,1.152,0.486c0.811,0.273,1.672,0.442,2.537,0.58
		c1.735,0.266,3.506,0.367,5.277,0.414c-1.768,0.12-3.544,0.186-5.331,0.083c-0.893-0.057-1.79-0.145-2.684-0.354
		c-0.448-0.101-0.894-0.236-1.338-0.424c-0.13-0.057-0.258-0.138-0.387-0.21c0.882,1.826,2.729,5.487,1.74,8.739
		c-2.307,7.58-1.667,10.667-1.667,10.667c0.711,1.849,2.697,2.535,5.317,2.535C136.951,132.951,146.65,129.137,151.458,127.75z
		 M131.272,89.339c-0.767,0.411-2.067,0.743-3.159,0.743c-0.607,0-1.149-0.103-1.501-0.351c-0.456-0.321-1.373-0.802-2.581-1.353
		l-0.001-0.001c-0.321-0.146-0.495-0.479-0.434-0.825c0.062-0.348,0.34-0.601,0.693-0.628c6.756-0.521,7.535,0.179,7.791,0.408
		c0.225,0.202,0.276,0.428,0.281,0.581C132.373,88.291,132.192,88.845,131.272,89.339z M153.055,94.005
		c-1.218-2.204-2.238-4.51-3.165-6.851c-0.913-2.348-1.688-4.747-2.382-7.169c-0.684-2.428-1.288-4.867-1.753-7.366l0.988-0.155
		c0.372,2.449,0.893,4.906,1.49,7.328c0.608,2.423,1.297,4.829,2.126,7.188c0.842,2.353,1.779,4.677,2.916,6.907
		c1.158,2.216,2.485,4.352,4.099,6.279C155.698,98.296,154.293,96.196,153.055,94.005z M173.458,96.646
		c0.946-2.285,2.158-4.458,3.54-6.514c1.37-2.066,2.941-4.002,4.673-5.785c0.839-0.865,1.708-1.694,2.617-2.482
		c0.01,0.372,0.02,0.744,0.025,1.12c-0.724,0.609-1.433,1.238-2.111,1.893c-1.76,1.693-3.371,3.547-4.792,5.54
		c-1.433,1.984-2.706,4.094-3.722,6.33c-1.086,2.208-1.821,4.565-2.48,6.938C171.784,101.295,172.441,98.903,173.458,96.646z
		 M147.874,48.292c0,0,14.625,3,18.375,10.625c0,0-6-6.25-18.375-7V48.292z M158.624,64.292c-0.447-0.682-0.915-1.347-1.491-1.916
		c-0.556-0.583-1.174-1.102-1.836-1.55c-0.659-0.452-1.355-0.846-2.08-1.169c-0.717-0.321-1.49-0.593-2.214-0.755l0.242-0.97
		c0.843,0.283,1.581,0.639,2.313,1.058c0.726,0.417,1.409,0.902,2.042,1.439c0.637,0.533,1.217,1.131,1.721,1.783
		C157.847,62.849,158.251,63.57,158.624,64.292z M157.243,66.854l1.236,0.688l-15.988,2.781l-0.175-0.138
		c-1.884-1.48-1.831-7.421-1.817-8.141c-0.745-0.446-1.424-0.977-2.021-1.579c-0.803-0.798-1.492-1.697-2.02-2.673
		c1.345,1.753,3.182,3.12,5.182,3.743l-0.002,0.004C147.643,61.56,156.839,66.63,157.243,66.854z M142.461,47.772l0.101,3.544
		l-6.15-0.78l-0.975-3.519L142.461,47.772z M134.846,89.136c-0.169,0.267-0.396,0.492-0.6,0.723
		c-0.241,0.202-0.481,0.398-0.747,0.558c0.098-0.305,0.225-0.573,0.344-0.839c0.096-0.278,0.217-0.536,0.308-0.798
		c0.18-0.527,0.318-1.039,0.378-1.556c0.103-1.032-0.121-2.066-0.655-3.183c0.567,0.276,1.014,0.775,1.299,1.357
		c0.297,0.583,0.403,1.266,0.35,1.928C135.432,87.985,135.205,88.61,134.846,89.136z"/>
	<path class="st0" d="M124.29,86.925c-0.354,0.027-0.632,0.28-0.693,0.628c-0.062,0.347,0.112,0.679,0.434,0.825l0.001,0.001
		c1.208,0.551,2.125,1.031,2.581,1.353c0.352,0.248,0.894,0.351,1.501,0.351c1.092,0,2.393-0.332,3.159-0.743
		c0.92-0.494,1.101-1.048,1.09-1.425c-0.005-0.153-0.057-0.379-0.281-0.581C131.825,87.104,131.046,86.404,124.29,86.925z
		 M130.799,88.457c-1.146,0.615-3.132,0.796-3.611,0.458c-0.462-0.326-1.204-0.715-1.915-1.059c3.997-0.258,5.652-0.029,6.062,0.171
		C131.279,88.126,131.129,88.281,130.799,88.457z"/>
	<path class="st0" d="M135.173,85.399c-0.285-0.582-0.732-1.081-1.299-1.357c0.534,1.116,0.758,2.15,0.655,3.183
		c-0.06,0.516-0.197,1.029-0.378,1.556c-0.091,0.262-0.212,0.52-0.308,0.798c-0.119,0.266-0.246,0.534-0.344,0.839
		c0.266-0.161,0.505-0.357,0.747-0.558c0.204-0.231,0.431-0.455,0.6-0.723c0.359-0.526,0.586-1.151,0.677-1.808
		C135.576,86.665,135.47,85.983,135.173,85.399z"/>
	<path class="st0" d="M147.874,48.292v3.625c12.375,0.75,18.375,7,18.375,7C162.499,51.292,147.874,48.292,147.874,48.292z"/>
	<polygon class="st0" points="142.562,51.316 142.461,47.772 135.437,47.017 136.412,50.536 	"/>
	<path class="st0" d="M155.601,60.429c-0.633-0.538-1.316-1.023-2.042-1.439c-0.732-0.419-1.471-0.776-2.313-1.058l-0.242,0.97
		c0.724,0.162,1.497,0.434,2.214,0.755c0.725,0.323,1.421,0.717,2.08,1.169c0.663,0.447,1.281,0.966,1.836,1.55
		c0.576,0.569,1.044,1.234,1.491,1.916c-0.374-0.721-0.778-1.443-1.302-2.08C156.818,61.56,156.238,60.962,155.601,60.429z"/>
	<path class="st0" d="M150.359,86.981c-0.829-2.359-1.518-4.765-2.126-7.188c-0.597-2.422-1.118-4.88-1.49-7.328l-0.988,0.155
		c0.465,2.5,1.07,4.938,1.753,7.366c0.694,2.422,1.468,4.821,2.382,7.169c0.927,2.341,1.947,4.648,3.165,6.851
		c1.238,2.19,2.643,4.29,4.32,6.161c-1.614-1.926-2.941-4.062-4.099-6.279C152.138,91.658,151.201,89.334,150.359,86.981z"/>
	<path class="st0" d="M177.408,90.419c1.421-1.993,3.032-3.848,4.792-5.54c0.678-0.655,1.387-1.284,2.111-1.893
		c-0.004-0.376-0.014-0.748-0.025-1.12c-0.909,0.789-1.778,1.618-2.617,2.482c-1.732,1.783-3.302,3.719-4.673,5.785
		c-1.382,2.056-2.594,4.229-3.54,6.514c-1.017,2.257-1.674,4.649-2.251,7.04c0.659-2.373,1.393-4.73,2.48-6.938
		C174.701,94.513,175.975,92.402,177.408,90.419z"/>
	<path class="st0" d="M141.64,61.534c-2-0.623-3.837-1.99-5.182-3.743c0.528,0.977,1.218,1.875,2.02,2.673
		c0.597,0.602,1.276,1.133,2.021,1.579c-0.014,0.72-0.067,6.661,1.817,8.141l0.175,0.138l15.988-2.781l-1.236-0.688
		c-0.404-0.224-9.6-5.294-15.605-5.315L141.64,61.534z M155.465,67.051l-12.683,2.205c-0.944-1.043-1.282-4.445-1.287-6.732
		c0.029,0,0.06-0.001,0.089-0.001C146.044,62.523,152.688,65.641,155.465,67.051z"/>
	<path class="st1" d="M231.643,154.035l-4.178,7.691l-10.21,18.79l-9.443,17.378c1.513,1.769,3.23,4.226,4.914,7.553l14.88-27.981
		l11.51-21.63l0.057-0.108c5.099,0.722,10.53,0.617,16.155-0.771c-5.494,1.027-10.781,0.873-15.725-0.038
		c-2.556-0.471-5.02-1.144-7.375-1.958c-2.995-1.036-5.814-2.298-8.414-3.67c-1.745-0.921-3.431-1.934-5.068-3.014l-0.997,1.363
		c1.216,0.758,2.458,1.479,3.731,2.151C224.579,151.428,227.99,152.911,231.643,154.035z"/>
	<path class="st1" d="M141.989,225.541c-0.057-0.011-0.145-0.028-0.251-0.051l-37.445,50.926h13.994l36.053-49.102
		c-1.271-0.127-2.356-0.259-3.292-0.404L141.989,225.541z"/>
	<path class="st1" d="M148.231,217.28l1.96,0.02h0.01l0.24,0.003c-0.236-0.874-0.356-1.911-0.356-2.946
		c0-0.078,0.006-0.151,0.007-0.229l-2.308,3.14C147.932,217.271,148.092,217.278,148.231,217.28z"/>
	<path class="st1" d="M174.986,276.417l18.839-35.426c-2.443-0.73-5.103-1.837-7.747-3.101l-20.937,38.527H174.986z"/>
	<path class="st1" d="M158.286,195.749c0,1.476-0.261,3.13-0.828,4.145l11.88,0.533l-13.003,0.417l0-0.01l-0.169,0.003
		c-0.008,0-0.017,0.001-0.025,0.001c-0.004,0-0.007-0.001-0.011-0.001l-3.956,0.06c0.006,0.011,0.012,0.025,0.018,0.037
		c0.055,0.102,0.108,0.211,0.157,0.325c0.017,0.04,0.033,0.082,0.05,0.123c0.038,0.094,0.075,0.192,0.109,0.293
		c0.016,0.047,0.032,0.095,0.048,0.144c0.034,0.107,0.066,0.218,0.096,0.331c0.011,0.043,0.024,0.085,0.035,0.13
		c0.039,0.159,0.076,0.321,0.108,0.489c0.002,0.013,0.004,0.027,0.007,0.04c0.029,0.155,0.055,0.312,0.077,0.473
		c0.008,0.055,0.014,0.11,0.021,0.166c0.016,0.122,0.03,0.245,0.042,0.37c0.006,0.063,0.012,0.126,0.017,0.189
		c0.01,0.126,0.018,0.252,0.025,0.379c0.003,0.057,0.007,0.114,0.009,0.171c0.007,0.183,0.012,0.366,0.012,0.549
		c0,0.367-0.017,0.734-0.046,1.094c-0.003,0.031-0.006,0.061-0.008,0.092c-0.03,0.341-0.073,0.674-0.13,0.994
		c-0.004,0.024-0.008,0.049-0.012,0.073c-0.062,0.336-0.137,0.657-0.227,0.955c-0.003,0.009-0.006,0.017-0.009,0.026
		c-0.088,0.288-0.191,0.552-0.306,0.789c-0.005,0.011-0.009,0.027-0.015,0.038c0.034,0.001,0.075,0.013,0.112,0.018
		c0.029,0.004,0.055,0.003,0.086,0.01l16.092,0.638l-15.05,0.298c0.526,0.917,0.843,2.47,0.843,4.225
		c0,1.561-0.268,3.213-0.834,4.221l15.374,0.509l-16.631,0.45v-0.002l-7.684-0.088c-1.432-0.021-3.283-0.135-4.61-0.283
		c-0.688-0.075-1.304-0.112-1.844-0.112c-1.256,0-2.107,0.202-2.54,0.604c-0.232,0.217-0.334,0.491-0.32,0.862
		c0.093,2.238,4.979,3.666,6.854,4.027l9.1,1.377c0.995,0.153,2.15,0.293,3.533,0.427c2.067,0.185,3.984,0.27,5.228,0.308
		l9.327,0.264l0.121,0.084c0.202,0.14,20.312,13.912,29.717,13.912h0.26l9.171,13.065l14.694-27.042
		c-3.527-2.784-9.775-8.54-13.255-16.656c-2.878-6.717-6.081-10.52-8.261-12.526c-3.255-2.996-5.801-5.574-8.013-8.112
		c-1.267-1.453-2.485-2.861-3.632-4.194l-4.09,5.591l-0.327,0.409c0.522,0.102,1.042,0.215,1.557,0.351
		c-0.892-0.137-1.792-0.196-2.69-0.255c-0.897-0.065-1.796-0.114-2.696-0.15l-2.697-0.12l-1.349-0.044
		c-0.148-0.003-0.296-0.01-0.444-0.021l0.011,0.017l-4.367,0.088l-1.332,0.058l0.023-0.032l-14.226,0.287
		C158.02,192.63,158.286,194.252,158.286,195.749z"/>
	<path class="st1" d="M176.518,174.43c-0.181,0.18-0.367,0.356-0.557,0.528c-1.117,1.011-2.358,1.836-3.369,2.07
		c-0.031,0.007-0.063,0.017-0.094,0.024c-0.108,0.021-0.21,0.03-0.311,0.036c-0.048,0.004-0.101,0.017-0.147,0.017
		c-0.022,0-0.039-0.009-0.06-0.01c-0.029-0.001-0.062,0.006-0.09,0.003l0.064,1.427c0.121,1.391,0.393,2.764,0.794,4.087l7.198-9.8
		c-0.357-0.547-0.708-1.107-1.041-1.655C178.493,172.118,177.66,173.288,176.518,174.43z"/>
	<path class="st1" d="M266.731,151.111l-68.091,125.306h9.845l67.139-126.25l-4.533-2.015
		C268.883,149.934,267.149,150.89,266.731,151.111z"/>
	<path class="st1" d="M285.85,47.41l5.306-7.235l-8.531-5.46l-4.823,6.565c0.524,0.503,1.07,0.996,1.656,1.469
		C281.615,44.494,283.746,46.035,285.85,47.41z"/>
	<path class="st1" d="M294.624,124.083c-0.195-6.489-0.917-14.312-9.667-26.5c-23.333-32.5-47.333-19.5-47.333-19.5
		c-18.793-15.277-22.5-36.363-23.127-46.728c-0.104-1.716-0.126-3.141-0.115-4.194c-30.982-2.481-67.658-5.351-93.354-7.341
		l11.474,20.021c26.662,0.869,76.17,7.177,84.489,8.256c0.048,0.184,0.097,0.368,0.147,0.553
		c2.853,10.607,8.629,22.829,20.237,32.265c0,0,4.875-2.942,12.378-3.138c0.406-0.011,0.822-0.01,1.243-0.004l-82.351,112.112
		l12.604,0.151l80.724-110.071c0.317,0.123,0.635,0.253,0.956,0.389c0.982,0.416,1.979,0.891,2.99,1.431
		c5.892,3.149,12.231,8.508,18.54,17.295c8.75,12.188,9.471,20.011,9.667,26.5c0.103,3.426,0.04,6.064-0.094,8.077
		C294.45,131.154,294.741,127.966,294.624,124.083z"/>
	<ellipse class="st1" cx="150.875" cy="205.107" rx="1.13" ry="4.19"/>
	<path class="st1" d="M151.085,214.357c0,2.715,0.795,4.18,1.12,4.18c0.3-0.019,0.94-1.131,1.095-3.223
		c0.022-0.299,0.034-0.618,0.034-0.956c0-1.63-0.309-3.146-0.786-3.862c-0.145-0.23-0.275-0.328-0.344-0.328l-0.09,0.051
		c-0.399,0.258-0.872,1.448-1.002,3.226C151.094,213.74,151.085,214.047,151.085,214.357z"/>
	<path class="st1" d="M156.177,199.836c0.025-0.003,0.086-0.024,0.117-0.04c0.387-0.256,0.991-1.705,0.991-4.047
		c0-2.324-0.62-3.862-1.068-4.079c-0.003,0-0.006,0-0.009,0c-0.401,0-1.183,1.394-1.183,4.079c0,2.334,0.624,3.882,1.068,4.093
		C156.09,199.836,156.137,199.841,156.177,199.836z"/>
	<path class="st1" d="M175.812,173.722c1.598-1.598,2.464-3.211,2.377-3.848l0.495-0.077l-0.496,0.061
		c-0.007-0.054-0.02-0.07-0.039-0.09c-0.033-0.033-0.095-0.051-0.184-0.051c-0.532,0-2.015,0.64-3.768,2.394
		c-1.81,1.809-2.482,3.387-2.366,3.883C172.086,176.295,173.763,175.761,175.812,173.722z"/>
	<polygon class="st1" points="223.124,278.417 218.791,278.417 96.791,278.417 80.791,278.417 80.791,287.417 223.124,287.417 	"/>
	<path class="st1" d="M142.857,413.593l-10.21,18.79c8.109-3.599,15.937-6.08,24.282-7.68l8.568-11.714
		c-0.842-0.985-1.692-1.975-2.529-2.943C156.145,410.746,149.845,411.771,142.857,413.593z"/>
	<path class="st1" d="M186.222,411.208c0.548,1.597,0.908,3.286,1.058,5.02l0.111,2.461l-0.002,0
		c0.182,0.947-0.651,2.423-1.751,3.741c23.765,0.508,44.532,7.218,64.024,20.608l18.04-10.67
		c-23.528-15.205-49.822-23.017-79.771-23.486L186.222,411.208z"/>
	<path class="st1" d="M143.779,569.735c-36.167,14.167-57,2.5-57,2.5c0.229-3.143,0.045-5.932-0.519-8.443
		c-1.388-0.149-2.177-0.254-2.258-0.308l-0.199-0.133l-16.524,26.467h178.833l-7.806-13.733l-0.233-0.018
		c-23.074-1.787-61.524-4.78-94.241-7.404C143.809,569.347,143.779,569.735,143.779,569.735z"/>
	<path class="st1" d="M85.643,561.583l-0.596,1.11c0.25,0.031,0.579,0.068,0.969,0.11C85.903,562.389,85.779,561.981,85.643,561.583
		z"/>
	<path class="st1" d="M216.741,532.295c-0.005-2.287-0.343-5.689-1.287-6.732l-12.683,2.205c2.777,1.41,9.422,4.528,13.881,4.528
		C216.681,532.296,216.711,532.295,216.741,532.295z"/>
	<path class="st1" d="M232.963,506.962c-0.711-0.344-1.453-0.732-1.915-1.059c-0.479-0.338-2.465-0.157-3.611,0.458
		c-0.329,0.177-0.479,0.331-0.535,0.43C227.311,506.991,228.966,507.219,232.963,506.962z"/>
	<path class="st1" d="M206.779,467.068c-11.391,3.286-28.395,10.314-38.716,14.747c-0.658-1.576-1.341-3.105-2.036-4.571
		c-1.008-2.127-2.039-4.128-3.046-5.969c-2.844-5.206-6.347-10.006-10.412-14.252l-1.23,1.674c3.598,3.95,6.725,8.347,9.309,13.077
		c5.338,9.771,11.388,24.024,10.964,37.877c-0.653,21.327,9.489,36.965,12.127,40.659c0.108,0.151,0.206,0.287,0.287,0.397
		c9.727,1.007,19.816,1.945,28.829,2.574c-0.047-2.082-0.369-16.417-0.369-18.38h1c0,1.985,0.333,16.765,0.371,18.449
		c4.369,0.296,8.468,0.516,12.128,0.632c-0.197-2.39-0.965-12.887,0.043-20.498c0.472-3.565,2.738-6.709,3.417-7.75
		c4.265-6.541,11.354-15.548,10.75-17.583c-0.512-1.726-2.646-2.917-4.25-4.25c-1.728-1.436-2.929-2.98-3.333-3.833
		c-0.699-1.476,0.763-3.606,1.167-4.333c0.971-1.748,0.232-3.346-1.319-3.346c-0.445,0-0.957,0.132-1.515,0.429
		c-0.227,0.121-0.479,0.176-0.748,0.176c-2.692,0-7.169-5.51-7.169-5.51s4.968,3.004,8.147,3.004c0.302,0,0.589-0.027,0.853-0.087
		c1.825-0.411,1.392-4.801,1.25-5.583l-0.478,0.147c0.031,0.075-0.019-0.046-0.066-0.084c-0.039-0.059-0.118-0.116-0.176-0.178
		c-0.143-0.116-0.305-0.223-0.481-0.322c-0.356-0.192-0.746-0.354-1.152-0.486c-0.811-0.273-1.672-0.442-2.537-0.58
		c-1.735-0.266-3.506-0.367-5.277-0.414c1.768-0.12,3.544-0.186,5.331-0.083c0.893,0.057,1.79,0.145,2.684,0.354
		c0.448,0.101,0.894,0.236,1.338,0.424c0.13,0.057,0.258,0.138,0.387,0.21c-0.882-1.826-2.729-5.487-1.74-8.739
		c2.307-7.58,1.667-10.667,1.667-10.667c-0.711-1.849-2.697-2.535-5.317-2.535C221.285,461.867,211.587,465.681,206.779,467.068z
		 M226.964,505.479c0.767-0.411,2.067-0.743,3.159-0.743c0.607,0,1.149,0.103,1.501,0.351c0.456,0.321,1.373,0.802,2.581,1.353
		l0.001,0.001c0.321,0.146,0.495,0.479,0.434,0.825c-0.062,0.348-0.34,0.601-0.693,0.628c-6.756,0.521-7.535-0.179-7.791-0.408
		c-0.225-0.202-0.276-0.428-0.281-0.581C225.864,506.527,226.044,505.973,226.964,505.479z M205.182,500.813
		c1.218,2.204,2.238,4.51,3.165,6.851c0.913,2.348,1.688,4.747,2.382,7.169c0.684,2.428,1.288,4.867,1.753,7.366l-0.988,0.155
		c-0.372-2.449-0.893-4.906-1.49-7.328c-0.608-2.423-1.297-4.829-2.126-7.188c-0.842-2.353-1.779-4.677-2.916-6.907
		c-1.158-2.216-2.485-4.352-4.099-6.279C202.539,496.523,203.944,498.623,205.182,500.813z M184.779,498.172
		c-0.946,2.285-2.158,4.458-3.54,6.514c-1.37,2.066-2.941,4.002-4.673,5.785c-0.839,0.865-1.708,1.694-2.617,2.482
		c-0.01-0.372-0.02-0.744-0.025-1.12c0.724-0.609,1.433-1.238,2.111-1.893c1.76-1.693,3.371-3.547,4.792-5.54
		c1.433-1.984,2.706-4.094,3.722-6.33c1.086-2.208,1.821-4.565,2.48-6.938C186.453,493.523,185.796,495.915,184.779,498.172z
		 M210.362,546.527c0,0-14.625-3-18.375-10.625c0,0,6,6.25,18.375,7V546.527z M199.612,530.527c0.447,0.682,0.915,1.347,1.491,1.916
		c0.556,0.583,1.174,1.102,1.836,1.55c0.659,0.452,1.355,0.846,2.08,1.169c0.717,0.322,1.49,0.593,2.214,0.755l-0.242,0.97
		c-0.843-0.282-1.581-0.639-2.313-1.058c-0.726-0.417-1.409-0.902-2.042-1.439c-0.637-0.532-1.217-1.131-1.721-1.783
		C200.39,531.97,199.986,531.248,199.612,530.527z M200.994,527.965l-1.236-0.688l15.988-2.781l0.175,0.138
		c1.884,1.48,1.831,7.421,1.817,8.141c0.745,0.446,1.424,0.977,2.021,1.579c0.803,0.798,1.492,1.697,2.02,2.673
		c-1.345-1.753-3.182-3.12-5.182-3.743l0.002-0.004C210.593,533.258,201.397,528.189,200.994,527.965z M215.775,547.046
		l-0.101-3.544l6.15,0.78l0.975,3.519L215.775,547.046z M223.39,505.683c0.169-0.267,0.396-0.492,0.6-0.723
		c0.241-0.202,0.481-0.398,0.747-0.558c-0.098,0.305-0.225,0.573-0.344,0.839c-0.096,0.278-0.217,0.536-0.308,0.798
		c-0.18,0.527-0.318,1.039-0.378,1.556c-0.103,1.032,0.121,2.066,0.655,3.182c-0.567-0.276-1.014-0.775-1.299-1.357
		c-0.297-0.583-0.403-1.266-0.35-1.928C222.804,506.834,223.031,506.208,223.39,505.683z"/>
	<path class="st0" d="M233.947,507.893c0.354-0.027,0.632-0.28,0.693-0.628c0.062-0.347-0.112-0.679-0.434-0.825l-0.001-0.001
		c-1.208-0.551-2.125-1.031-2.581-1.353c-0.352-0.248-0.894-0.351-1.501-0.351c-1.092,0-2.393,0.332-3.159,0.743
		c-0.92,0.494-1.101,1.048-1.09,1.425c0.005,0.153,0.057,0.379,0.281,0.581C226.412,507.715,227.191,508.415,233.947,507.893z
		 M227.437,506.361c1.146-0.615,3.132-0.796,3.611-0.458c0.462,0.326,1.204,0.715,1.915,1.059c-3.997,0.258-5.652,0.029-6.062-0.171
		C226.958,506.692,227.108,506.538,227.437,506.361z"/>
	<path class="st0" d="M223.063,509.419c0.285,0.582,0.732,1.081,1.299,1.357c-0.534-1.116-0.758-2.15-0.655-3.182
		c0.06-0.516,0.197-1.029,0.378-1.556c0.091-0.262,0.212-0.52,0.308-0.798c0.119-0.266,0.246-0.534,0.344-0.839
		c-0.266,0.161-0.505,0.357-0.747,0.558c-0.204,0.231-0.431,0.455-0.6,0.723c-0.359,0.526-0.586,1.151-0.677,1.808
		C222.66,508.153,222.766,508.836,223.063,509.419z"/>
	<path class="st0" d="M210.362,546.527v-3.625c-12.375-0.75-18.375-7-18.375-7C195.737,543.527,210.362,546.527,210.362,546.527z"/>
	<polygon class="st0" points="215.675,543.502 215.775,547.046 222.8,547.801 221.824,544.282 	"/>
	<path class="st0" d="M202.636,534.389c0.633,0.538,1.316,1.023,2.042,1.439c0.732,0.419,1.471,0.776,2.313,1.058l0.242-0.97
		c-0.724-0.162-1.497-0.434-2.214-0.755c-0.725-0.323-1.421-0.717-2.08-1.169c-0.663-0.447-1.281-0.966-1.836-1.55
		c-0.576-0.569-1.044-1.234-1.491-1.916c0.374,0.722,0.778,1.443,1.302,2.08C201.419,533.258,201.998,533.857,202.636,534.389z"/>
	<path class="st0" d="M207.877,507.837c0.829,2.359,1.518,4.765,2.126,7.188c0.597,2.422,1.118,4.88,1.49,7.328l0.988-0.155
		c-0.465-2.5-1.07-4.938-1.753-7.366c-0.694-2.422-1.468-4.821-2.382-7.169c-0.927-2.341-1.947-4.648-3.165-6.851
		c-1.238-2.19-2.643-4.29-4.32-6.161c1.614,1.926,2.941,4.062,4.099,6.279C206.098,503.161,207.035,505.484,207.877,507.837z"/>
	<path class="st0" d="M180.829,504.4c-1.421,1.993-3.032,3.848-4.792,5.54c-0.678,0.655-1.387,1.284-2.111,1.893
		c0.004,0.376,0.014,0.748,0.025,1.12c0.909-0.789,1.778-1.618,2.617-2.482c1.732-1.783,3.302-3.719,4.673-5.785
		c1.382-2.056,2.594-4.229,3.54-6.514c1.017-2.257,1.674-4.649,2.251-7.04c-0.659,2.373-1.393,4.73-2.48,6.938
		C183.535,500.306,182.262,502.416,180.829,504.4z"/>
	<path class="st0" d="M216.597,533.284c2,0.623,3.837,1.99,5.182,3.743c-0.528-0.977-1.218-1.875-2.02-2.673
		c-0.597-0.602-1.276-1.133-2.021-1.579c0.014-0.72,0.067-6.661-1.817-8.141l-0.175-0.138l-15.988,2.781l1.236,0.688
		c0.404,0.224,9.6,5.294,15.605,5.315L216.597,533.284z M202.771,527.767l12.683-2.205c0.944,1.043,1.282,4.445,1.287,6.732
		c-0.029,0-0.06,0.001-0.089,0.001C212.193,532.296,205.548,529.177,202.771,527.767z"/>
	<path class="st1" d="M126.594,440.783l4.178-7.691l10.21-18.79l9.443-17.378c-1.513-1.769-3.23-4.226-4.914-7.553l-14.88,27.981
		l-11.51,21.63l-0.057,0.108c-5.099-0.722-10.53-0.617-16.155,0.771c5.494-1.027,10.781-0.873,15.725,0.038
		c2.556,0.471,5.02,1.144,7.375,1.958c2.995,1.036,5.814,2.298,8.414,3.67c1.745,0.921,3.431,1.934,5.068,3.014l0.997-1.363
		c-1.216-0.758-2.458-1.479-3.731-2.151C133.657,443.39,130.246,441.908,126.594,440.783z"/>
	<path class="st1" d="M216.248,369.277c0.057,0.011,0.145,0.028,0.251,0.051l37.445-50.926h-13.994l-36.053,49.102
		c1.271,0.127,2.356,0.259,3.292,0.404L216.248,369.277z"/>
	<path class="st1" d="M210.005,377.538l-1.96-0.02h-0.01l-0.24-0.003c0.236,0.874,0.356,1.911,0.356,2.946
		c0,0.078-0.006,0.151-0.007,0.229l2.308-3.14C210.305,377.547,210.144,377.54,210.005,377.538z"/>
	<path class="st1" d="M183.251,318.402l-18.839,35.426c2.443,0.73,5.103,1.837,7.747,3.101l20.937-38.527H183.251z"/>
	<path class="st1" d="M199.951,399.069c0-1.476,0.261-3.13,0.828-4.145l-11.88-0.533l13.003-0.417l0,0.01l0.169-0.003
		c0.008,0,0.017-0.001,0.025-0.001c0.004,0,0.007,0.001,0.011,0.001l3.956-0.06c-0.006-0.011-0.012-0.025-0.018-0.037
		c-0.055-0.102-0.108-0.211-0.157-0.325c-0.017-0.04-0.033-0.082-0.05-0.123c-0.038-0.094-0.075-0.192-0.109-0.293
		c-0.016-0.047-0.032-0.095-0.048-0.144c-0.034-0.107-0.066-0.218-0.096-0.331c-0.011-0.043-0.024-0.085-0.035-0.13
		c-0.039-0.159-0.076-0.321-0.108-0.489c-0.002-0.013-0.004-0.027-0.007-0.04c-0.029-0.155-0.055-0.312-0.077-0.473
		c-0.008-0.055-0.014-0.11-0.021-0.166c-0.016-0.122-0.03-0.245-0.042-0.37c-0.006-0.063-0.012-0.126-0.017-0.189
		c-0.01-0.126-0.018-0.252-0.025-0.379c-0.003-0.057-0.007-0.114-0.009-0.171c-0.007-0.183-0.012-0.366-0.012-0.549
		c0-0.367,0.017-0.734,0.046-1.094c0.003-0.031,0.006-0.061,0.008-0.092c0.03-0.341,0.073-0.674,0.13-0.994
		c0.004-0.024,0.008-0.049,0.012-0.073c0.062-0.336,0.137-0.657,0.227-0.955c0.003-0.009,0.006-0.017,0.009-0.026
		c0.088-0.288,0.191-0.552,0.306-0.789c0.005-0.011,0.009-0.027,0.015-0.038c-0.034-0.001-0.075-0.013-0.112-0.018
		c-0.029-0.004-0.055-0.003-0.086-0.01l-16.092-0.638l15.05-0.298c-0.526-0.917-0.843-2.47-0.843-4.225
		c0-1.561,0.268-3.213,0.834-4.221l-15.374-0.509l16.631-0.45v0.002l7.684,0.088c1.432,0.021,3.283,0.135,4.61,0.283
		c0.688,0.075,1.304,0.112,1.844,0.112c1.256,0,2.107-0.202,2.54-0.604c0.232-0.217,0.334-0.491,0.32-0.862
		c-0.093-2.238-4.979-3.666-6.854-4.027l-9.1-1.377c-0.995-0.153-2.15-0.293-3.533-0.427c-2.067-0.185-3.984-0.27-5.228-0.308
		l-9.327-0.264l-0.121-0.084c-0.202-0.14-20.312-13.912-29.717-13.912h-0.26l-9.171-13.065l-14.694,27.042
		c3.527,2.784,9.775,8.54,13.255,16.656c2.878,6.717,6.081,10.52,8.261,12.526c3.255,2.996,5.801,5.574,8.013,8.112
		c1.267,1.453,2.485,2.861,3.632,4.194l4.09-5.591l0.327-0.409c-0.522-0.102-1.042-0.215-1.557-0.351
		c0.892,0.137,1.792,0.196,2.69,0.255c0.897,0.065,1.796,0.114,2.696,0.15l2.697,0.12l1.349,0.044
		c0.148,0.003,0.296,0.01,0.444,0.021l-0.011-0.017l4.367-0.088l1.332-0.058l-0.023,0.032l14.226-0.287
		C200.216,402.188,199.951,400.566,199.951,399.069z"/>
	<path class="st1" d="M181.718,420.388c0.181-0.18,0.367-0.356,0.557-0.528c1.117-1.011,2.358-1.836,3.369-2.07
		c0.031-0.007,0.063-0.017,0.094-0.024c0.108-0.021,0.21-0.03,0.311-0.036c0.048-0.004,0.101-0.017,0.147-0.017
		c0.022,0,0.039,0.009,0.06,0.01c0.029,0.001,0.062-0.006,0.09-0.003l-0.064-1.427c-0.121-1.391-0.393-2.764-0.794-4.087l-7.198,9.8
		c0.357,0.547,0.708,1.107,1.041,1.655C179.743,422.7,180.577,421.53,181.718,420.388z"/>
	<path class="st1" d="M149.751,318.402l-67.139,126.25l4.533,2.015c2.208-1.782,3.942-2.738,4.36-2.959l68.091-125.306H149.751z"/>
	<path class="st1" d="M72.387,547.408l-5.306,7.235l8.531,5.46l4.823-6.565c-0.524-0.503-1.07-0.996-1.656-1.469
		C76.621,550.325,74.491,548.784,72.387,547.408z"/>
	<path class="st1" d="M63.612,470.735c0.195,6.489,0.917,14.312,9.667,26.5c23.333,32.5,47.333,19.5,47.333,19.5
		c18.793,15.277,22.5,36.363,23.127,46.728c0.104,1.716,0.126,3.141,0.115,4.194c30.982,2.481,67.658,5.351,93.354,7.341
		l-11.474-20.021c-26.662-0.869-76.17-7.177-84.489-8.256c-0.048-0.184-0.097-0.368-0.147-0.553
		c-2.853-10.607-8.629-22.83-20.237-32.265c0,0-4.875,2.942-12.378,3.138c-0.406,0.01-0.822,0.01-1.243,0.004l82.351-112.112
		l-12.604-0.151L96.264,514.851c-0.317-0.123-0.635-0.253-0.956-0.389c-0.982-0.416-1.979-0.891-2.99-1.431
		c-5.892-3.149-12.231-8.508-18.54-17.295c-8.75-12.188-9.471-20.011-9.667-26.5c-0.103-3.426-0.04-6.064,0.094-8.077
		C63.787,463.665,63.495,466.853,63.612,470.735z"/>
	<ellipse class="st1" cx="207.362" cy="389.712" rx="1.13" ry="4.19"/>
	<path class="st1" d="M207.152,380.462c0-2.715-0.795-4.18-1.12-4.18c-0.3,0.019-0.94,1.131-1.095,3.223
		c-0.022,0.299-0.034,0.618-0.034,0.956c0,1.63,0.309,3.146,0.786,3.862c0.145,0.23,0.275,0.328,0.344,0.328l0.09-0.051
		c0.399-0.258,0.872-1.448,1.002-3.226C207.142,381.079,207.152,380.771,207.152,380.462z"/>
	<path class="st1" d="M202.059,394.982c-0.025,0.003-0.086,0.024-0.117,0.04c-0.387,0.256-0.991,1.705-0.991,4.047
		c0,2.324,0.62,3.862,1.068,4.079c0.003,0,0.006,0,0.009,0c0.401,0,1.183-1.394,1.183-4.079c0-2.334-0.624-3.882-1.068-4.093
		C202.146,394.982,202.099,394.977,202.059,394.982z"/>
	<path class="st1" d="M182.424,421.096c-1.598,1.598-2.464,3.211-2.377,3.848l-0.495,0.077l0.496-0.061
		c0.007,0.054,0.02,0.07,0.039,0.09c0.033,0.033,0.095,0.051,0.184,0.051c0.532,0,2.015-0.64,3.768-2.394
		c1.81-1.809,2.482-3.387,2.366-3.883C186.151,418.523,184.473,419.057,182.424,421.096z"/>
	<polygon class="st1" points="135.112,316.402 139.445,316.402 261.445,316.402 277.445,316.402 277.445,307.402 135.112,307.402 	
		"/>
</g>
</svg>