<!-- Generator: Adobe Illustrator 23.0.3, SVG Export Plug-In  -->
<svg version="1.1" xmlns="http://www.w3.org/2000/svg" xmlns:xlink="http://www.w3.org/1999/xlink" x="0px" y="0px"
	 width="166.987px" height="166.866px" viewBox="0 0 166.987 166.866" style="enable-background:new 0 0 166.987 166.866;"
	 xml:space="preserve">
<style type="text/css">
	.st0{fill:#F7CCCC;}
</style>
<defs>
</defs>
<g>
	<path class="st0" d="M155.136,63.805c-0.105-28.996-23.478-52.031-52.01-51.928c-28.84,0.106-51.819,23.175-51.914,51.877
		c-0.095,28.596,23.304,52.033,51.944,52.029C131.822,115.78,155.174,92.428,155.136,63.805 M60.433,111.182v17.777
		c-1.511-0.281-1.883,0.756-2.53,1.685c-1.147,1.646-2.451,3.214-3.865,4.638c-9.158,9.224-18.382,18.382-27.546,27.599
		c-3.725,3.747-8.067,4.88-13.068,3.278c-2.326-0.745-4.115-2.354-5.716-4.15c-2.113-2.37-4.491-4.57-6.225-7.194
		c-2.424-3.665-1.785-9.461,1.244-12.715c4.012-4.309,8.234-8.424,12.39-12.598c5.839-5.865,11.722-11.686,17.541-17.57
		c2.256-2.281,4.804-3.957,8.058-4.188c1.543-0.109,3.109,0.12,4.852,0.206v-8.977h4.241C37.611,78.56,35.761,57.641,45.815,36.155
		c6.769-14.468,17.809-24.876,32.461-31.03c28.07-11.789,58.149-2.368,75.017,19.328c20.507,26.377,16.351,59.947-1.687,80.811
		c-11.627,13.447-26.482,20.944-44.212,22.138C89.719,128.592,74.156,122.992,60.433,111.182"/>
	<path class="st0" d="M90.111,53.314c-0.24-0.045-0.334-0.095-0.401-0.071c-4.864,1.78-8.951,4.723-12.477,8.462
		c-0.37,0.392-0.573,1.149-0.518,1.703c0.504,5.03,1.477,9.928,3.901,14.464c2.835,5.303,6.999,9.034,12.635,11.099
		c4.839,1.773,9.848,2.05,14.893,1.329c7.453-1.064,13.501-4.43,17.402-11.112c2.591-4.438,3.716-9.294,4.275-14.347
		c0.18-1.629-0.089-2.866-1.434-3.897c-1.135-0.871-2.087-1.978-3.213-2.862c-2.647-2.078-5.485-3.838-9.129-4.977
		c3.148,3.946,4.262,8.14,3.748,12.737c-0.526,4.717-2.839,8.481-6.561,11.339c-5.835,4.483-14.71,5.055-21.506-1.167
		c-2.587-2.368-4.302-5.342-4.989-8.763C85.715,62.159,86.879,57.48,90.111,53.314 M71.435,70.069
		c-0.352,0.758-0.72,1.51-1.052,2.276c-1.284,2.958-3.552,4.512-6.754,4.336c-2.452-0.135-4.291-1.471-5.32-3.752
		c-0.87-1.927-0.674-3.907,0.133-5.764c3.03-6.975,7.351-13.019,13.125-18.018c4.335-3.754,9.202-6.589,14.581-8.498
		c5.727-2.034,11.679-2.848,17.749-2.78c5.43,0.06,10.763,0.856,15.889,2.624c5.082,1.752,9.751,4.333,13.936,7.755
		c5.727,4.684,10.126,10.403,13.339,17.044c0.936,1.934,1.863,3.874,1.455,6.174c-0.409,2.306-2.481,4.607-4.793,5.091
		c-2.791,0.584-5.597-0.516-6.894-2.752c-0.664-1.146-1.25-2.338-1.85-3.468c-6.082,18.465-18.262,27.817-38.026,24.983
		C84.466,93.529,74.031,82.641,71.435,70.069"/>
</g>
</svg>