<!-- Generator: Adobe Illustrator 23.0.3, SVG Export Plug-In  -->
<svg version="1.1" xmlns="http://www.w3.org/2000/svg" xmlns:xlink="http://www.w3.org/1999/xlink" x="0px" y="0px"
	 width="2113.37px" height="391.061px" viewBox="0 0 2113.37 391.061" style="enable-background:new 0 0 2113.37 391.061;"
	 xml:space="preserve">
<style type="text/css">
	.st0{clip-path:url(#SVGID_2_);fill:none;stroke:#F5B2B2;stroke-width:5;stroke-linecap:round;stroke-linejoin:round;}
	
		.st1{clip-path:url(#SVGID_2_);fill:none;stroke:#F5B2B2;stroke-width:5;stroke-linecap:round;stroke-linejoin:round;stroke-dasharray:11.91,11.91;}
	
		.st2{clip-path:url(#SVGID_2_);fill:none;stroke:#F5B2B2;stroke-width:5;stroke-linecap:round;stroke-linejoin:round;stroke-dasharray:12.089,12.089;}
	
		.st3{clip-path:url(#SVGID_2_);fill:none;stroke:#F5B2B2;stroke-width:5;stroke-linecap:round;stroke-linejoin:round;stroke-dasharray:11.789,11.789;}
	
		.st4{clip-path:url(#SVGID_2_);fill:none;stroke:#F5B2B2;stroke-width:5;stroke-linecap:round;stroke-linejoin:round;stroke-dasharray:12.129,12.129;}
	
		.st5{clip-path:url(#SVGID_2_);fill:none;stroke:#F5B2B2;stroke-width:5;stroke-linecap:round;stroke-linejoin:round;stroke-dasharray:11.603,11.603;}
	.st6{clip-path:url(#SVGID_4_);fill:none;stroke:#F5B2B2;stroke-width:5;stroke-linecap:round;stroke-linejoin:round;}
	
		.st7{clip-path:url(#SVGID_4_);fill:none;stroke:#F5B2B2;stroke-width:5;stroke-linecap:round;stroke-linejoin:round;stroke-dasharray:11.91,11.91;}
	
		.st8{clip-path:url(#SVGID_4_);fill:none;stroke:#F5B2B2;stroke-width:5;stroke-linecap:round;stroke-linejoin:round;stroke-dasharray:12.089,12.089;}
	
		.st9{clip-path:url(#SVGID_4_);fill:none;stroke:#F5B2B2;stroke-width:5;stroke-linecap:round;stroke-linejoin:round;stroke-dasharray:11.789,11.789;}
	
		.st10{clip-path:url(#SVGID_4_);fill:none;stroke:#F5B2B2;stroke-width:5;stroke-linecap:round;stroke-linejoin:round;stroke-dasharray:12.129,12.129;}
	
		.st11{clip-path:url(#SVGID_4_);fill:none;stroke:#F5B2B2;stroke-width:5;stroke-linecap:round;stroke-linejoin:round;stroke-dasharray:11.603,11.603;}
</style>
<defs>
</defs>
<g>
	<defs>
		<rect id="SVGID_1_" width="2113.37" height="391.06"/>
	</defs>
	<clipPath id="SVGID_2_">
		<use xlink:href="#SVGID_1_"  style="overflow:visible;"/>
	</clipPath>
	<path class="st0" d="M2.5,244.038c0,0,134.499-227.279,338.715-161.461s378.698,262.844,531.36,171.137
		s267.143-318.604,504.776-231.78c237.634,86.827,392.165,210.51,491.55,198.327c99.386-12.188,220-123.002,220-123.002"/>
	<path class="st0" d="M24.469,354.972c0,0,134.499-227.279,338.715-161.461s378.698,262.844,531.36,171.137
		s267.143-318.604,504.776-231.78c237.634,86.827,392.165,210.51,491.55,198.327c99.386-12.188,220-123.002,220-123.002"/>
	<path class="st1" d="M21.508,278.505c33.629-48.398,151.52-195.217,317.505-149.92"/>
	<path class="st2" d="M367.588,137.839c192.196,69.139,357.821,245.785,503.636,171.152"/>
	<path class="st3" d="M896.723,293.654C1039.742,198.412,1153-5.84,1375.429,67.47"/>
	<path class="st4" d="M1403.615,77.685c218.732,82.855,365.22,194.365,462.403,192.797"/>
	<path class="st5" d="M1895.251,266.664c79.342-17.793,166.752-88.74,194.159-112.328"/>
	<path class="st0" d="M2093.787,150.527c2.818-2.477,4.327-3.863,4.327-3.863 M1872.078,270.232
		c2.034-0.135,4.046-0.326,6.036-0.566c1.908-0.237,3.823-0.506,5.745-0.811 M1381.011,69.363c1.843,0.641,3.694,1.301,5.552,1.976
		c1.903,0.696,3.8,1.395,5.692,2.092 M876.556,306.146c1.747-0.973,3.491-1.978,5.232-3.027c1.681-1.01,3.357-2.035,5.028-3.078
		 M344.74,130.218c1.89,0.563,3.786,1.151,5.688,1.764c1.916,0.617,3.831,1.248,5.742,1.889 M11.713,293.443
		c0,0,1.068-1.807,3.159-5.049"/>
</g>
</svg>