<!-- Generator: Adobe Illustrator 23.0.3, SVG Export Plug-In  -->
<svg version="1.1" xmlns="http://www.w3.org/2000/svg" xmlns:xlink="http://www.w3.org/1999/xlink" x="0px" y="0px"
	 width="561.819px" height="430.646px" viewBox="0 0 561.819 430.646" style="enable-background:new 0 0 561.819 430.646;"
	 xml:space="preserve">
<style type="text/css">
	.st0{clip-path:url(#SVGID_35_);fill:#3D3D3B;}
	.st1{clip-path:url(#SVGID_36_);fill:#3870D4;}
	.st2{clip-path:url(#SVGID_37_);fill:#3870D4;}
	.st3{clip-path:url(#SVGID_38_);fill:#3870D4;}
	.st4{clip-path:url(#SVGID_39_);fill:#3870D4;}
	.st5{clip-path:url(#SVGID_40_);fill:#3870D4;}
	.st6{clip-path:url(#SVGID_41_);fill:#3870D4;}
	.st7{clip-path:url(#SVGID_42_);fill:#668CD4;}
	.st8{clip-path:url(#SVGID_43_);fill:#668CD4;}
	.st9{clip-path:url(#SVGID_44_);fill:#668CD4;}
	.st10{clip-path:url(#SVGID_45_);fill:#668CD4;}
	.st11{clip-path:url(#SVGID_46_);fill:#668CD4;}
	.st12{clip-path:url(#SVGID_47_);fill:#668CD4;}
	.st13{clip-path:url(#SVGID_48_);fill:#7D9CD4;}
	.st14{clip-path:url(#SVGID_49_);fill:#7D9CD4;}
	.st15{clip-path:url(#SVGID_50_);fill:#7D9CD4;}
	.st16{clip-path:url(#SVGID_51_);fill:#7D9CD4;}
	.st17{clip-path:url(#SVGID_52_);fill:#7D9CD4;}
	.st18{clip-path:url(#SVGID_53_);fill:#7D9CD4;}
	.st19{clip-path:url(#SVGID_54_);fill:#7D9CD4;}
	.st20{clip-path:url(#SVGID_55_);fill:#7D9CD4;}
	.st21{clip-path:url(#SVGID_56_);fill:#4F7DD4;}
	.st22{clip-path:url(#SVGID_57_);fill:#4F7DD4;}
	.st23{clip-path:url(#SVGID_58_);fill:#4F7DD4;}
	.st24{clip-path:url(#SVGID_59_);fill:#4F7DD4;}
	.st25{clip-path:url(#SVGID_60_);fill:#4F7DD4;}
	.st26{clip-path:url(#SVGID_61_);fill:#4F7DD4;}
	.st27{clip-path:url(#SVGID_62_);fill:#94ABD4;}
	.st28{clip-path:url(#SVGID_63_);fill:#94ABD4;}
	.st29{clip-path:url(#SVGID_64_);fill:#94ABD4;}
	.st30{clip-path:url(#SVGID_65_);fill:#94ABD4;}
	.st31{clip-path:url(#SVGID_66_);fill:#94ABD4;}
	.st32{clip-path:url(#SVGID_67_);fill:#94ABD4;}
	.st33{fill:#3870D4;}
	.st34{fill:#7D9CD4;}
	.st35{fill:#4F7DD4;}
	.st36{fill:#94ABD4;}
	.st37{fill:#668CD4;}
	.st38{clip-path:url(#SVGID_68_);fill:#D8DFEF;}
	.st39{clip-path:url(#SVGID_70_);fill:#3D3D3B;}
	.st40{clip-path:url(#SVGID_72_);fill:#3870D4;}
	.st41{clip-path:url(#SVGID_74_);fill:#3870D4;}
	.st42{clip-path:url(#SVGID_76_);fill:#3870D4;}
	.st43{clip-path:url(#SVGID_78_);fill:#3870D4;}
	.st44{clip-path:url(#SVGID_80_);fill:#3870D4;}
	.st45{clip-path:url(#SVGID_82_);fill:#3870D4;}
	.st46{clip-path:url(#SVGID_84_);fill:#668CD4;}
	.st47{clip-path:url(#SVGID_86_);fill:#668CD4;}
	.st48{clip-path:url(#SVGID_88_);fill:#668CD4;}
	.st49{clip-path:url(#SVGID_90_);fill:#668CD4;}
	.st50{clip-path:url(#SVGID_92_);fill:#668CD4;}
	.st51{clip-path:url(#SVGID_94_);fill:#668CD4;}
	.st52{clip-path:url(#SVGID_96_);fill:#7D9CD4;}
	.st53{clip-path:url(#SVGID_98_);fill:#7D9CD4;}
	.st54{clip-path:url(#SVGID_100_);fill:#7D9CD4;}
	.st55{clip-path:url(#SVGID_102_);fill:#7D9CD4;}
	.st56{clip-path:url(#SVGID_104_);fill:#7D9CD4;}
	.st57{clip-path:url(#SVGID_106_);fill:#7D9CD4;}
	.st58{clip-path:url(#SVGID_108_);fill:#7D9CD4;}
	.st59{clip-path:url(#SVGID_110_);fill:#7D9CD4;}
	.st60{clip-path:url(#SVGID_112_);fill:#4F7DD4;}
	.st61{clip-path:url(#SVGID_114_);fill:#4F7DD4;}
	.st62{clip-path:url(#SVGID_116_);fill:#4F7DD4;}
	.st63{clip-path:url(#SVGID_118_);fill:#4F7DD4;}
	.st64{clip-path:url(#SVGID_120_);fill:#4F7DD4;}
	.st65{clip-path:url(#SVGID_122_);fill:#4F7DD4;}
	.st66{clip-path:url(#SVGID_124_);fill:#94ABD4;}
	.st67{clip-path:url(#SVGID_126_);fill:#94ABD4;}
	.st68{clip-path:url(#SVGID_128_);fill:#94ABD4;}
	.st69{clip-path:url(#SVGID_130_);fill:#94ABD4;}
	.st70{clip-path:url(#SVGID_132_);fill:#94ABD4;}
	.st71{clip-path:url(#SVGID_134_);fill:#94ABD4;}
	.st72{clip-path:url(#SVGID_136_);fill:#D8DFEF;}
</style>
<defs>
</defs>
<g>
	<defs>
		<rect id="SVGID_34_" x="0" y="0" width="561.819" height="430.646"/>
	</defs>
	<clipPath id="SVGID_35_">
		<use xlink:href="#SVGID_34_"  style="overflow:visible;"/>
	</clipPath>
	<path class="st0" d="M476.114,215.323c0,118.92-96.404,215.323-215.323,215.323c-118.92,0-215.323-96.403-215.323-215.323
		S141.871,0,260.791,0C379.71,0,476.114,96.403,476.114,215.323"/>
</g>
<g>
	<defs>
		<path id="SVGID_33_" d="M410.218,161.142v-7.347c0-1.164,0.442-1.766,1.325-1.766c0.884,0,1.326,0.602,1.326,1.846v7.267
			c0,1.245-0.442,1.886-1.326,1.886C410.66,163.028,410.218,162.387,410.218,161.142 M405.698,140.906
			c-0.093,0.544-0.136,1.134-0.136,1.769v18.868c0,3.092,1.566,5.781,5.58,5.781h0.843c4.015,0,5.54-2.769,5.54-5.981v-9.917
			c0-1.485-0.802-3.532-3.292-3.532h-0.16c-1.847,0-3.132,1.525-3.894,2.689v-8.068c0-0.683,0.16-1.446,1.083-1.446
			c0.924,0,1.085,0.763,1.085,1.446v3.412h4.616v-4.417c0-0.206-0.009-0.407-0.027-0.604H405.698z"/>
	</defs>
	<clipPath id="SVGID_36_">
		<use xlink:href="#SVGID_33_"  style="overflow:visible;"/>
	</clipPath>
	<rect x="365.819" y="140.906" class="st1" width="66" height="66"/>
</g>
<g>
	<defs>
		<path id="SVGID_32_" d="M410.861,136.813c-3.576,0-5.078,1.901-5.276,5.093h4.652c0.104-0.461,0.376-0.837,1.025-0.837
			c0.649,0,0.922,0.376,1.026,0.837h4.675v-0.396c0-2.729-1.565-4.697-5.299-4.697H410.861z"/>
	</defs>
	<clipPath id="SVGID_37_">
		<use xlink:href="#SVGID_32_"  style="overflow:visible;"/>
	</clipPath>
	<rect x="365.819" y="75.906" class="st2" width="66" height="66"/>
</g>
<g>
	<defs>
		<path id="SVGID_31_" d="M423.178,160.78v-17.343c0-1.485,0.282-2.208,1.365-2.208c1.084,0,1.405,0.643,1.405,2.208v17.343
			c0,1.165-0.28,2.008-1.445,2.008C423.339,162.788,423.178,161.865,423.178,160.78 M418.834,140.906
			c-0.187,0.817-0.273,1.744-0.273,2.772v17.423c0,4.136,1.887,6.223,5.42,6.223h1.004c3.653,0,5.58-2.65,5.58-6.223v-17.503
			c0-0.978-0.073-1.883-0.247-2.692H418.834z"/>
	</defs>
	<clipPath id="SVGID_38_">
		<use xlink:href="#SVGID_31_"  style="overflow:visible;"/>
	</clipPath>
	<rect x="365.819" y="140.906" class="st3" width="66" height="66"/>
</g>
<g>
	<defs>
		<path id="SVGID_30_" d="M424.222,136.813c-3.534,0-5.162,1.849-5.561,5.093h4.73c0.196-0.453,0.55-0.677,1.152-0.677
			c0.618,0,0.988,0.209,1.191,0.677h4.744c-0.345-3.08-1.785-5.093-5.413-5.093H424.222z"/>
	</defs>
	<clipPath id="SVGID_39_">
		<use xlink:href="#SVGID_30_"  style="overflow:visible;"/>
	</clipPath>
	<rect x="365.819" y="75.906" class="st4" width="66" height="66"/>
</g>
<g>
	<defs>
		<path id="SVGID_29_" d="M444.047,163.149v-5.66c0-0.522,0.201-0.924,0.722-0.924c0.603,0,0.804,0.402,0.804,0.924v5.66
			c0,0.482-0.201,0.923-0.804,0.923C444.248,164.072,444.047,163.631,444.047,163.149 M444.488,153.554
			c-2.248,0-3.692,1.365-3.692,3.894v5.781c0,2.569,1.565,3.894,3.692,3.894h0.764c2.287,0,3.573-1.525,3.573-3.894v-5.781
			c0-2.449-1.366-3.894-3.614-3.894H444.488z M436.098,140.906v5.583c0,0.521-0.241,0.923-0.843,0.923
			c-0.482,0-0.722-0.402-0.722-0.923v-5.583h-3.252v5.663c0,2.57,1.565,3.894,3.693,3.894h0.763c2.288,0,3.613-1.525,3.613-3.894
			v-5.663H436.098z M442.633,140.906l-9.386,26.057h2.971l9.386-26.057H442.633z"/>
	</defs>
	<clipPath id="SVGID_40_">
		<use xlink:href="#SVGID_29_"  style="overflow:visible;"/>
	</clipPath>
	<rect x="430.819" y="140.906" class="st5" width="66" height="66"/>
</g>
<g>
	<defs>
		<path id="SVGID_28_" d="M444.007,137.095l-1.734,4.811h2.971l1.734-4.811H444.007z M434.974,136.894
			c-2.248,0-3.693,1.365-3.693,3.894v1.118h3.252v-1.078c0-0.522,0.24-0.923,0.722-0.923c0.602,0,0.843,0.401,0.843,0.923v1.078
			h3.252v-1.118c0-2.449-1.365-3.894-3.613-3.894H434.974z"/>
	</defs>
	<clipPath id="SVGID_41_">
		<use xlink:href="#SVGID_28_"  style="overflow:visible;"/>
	</clipPath>
	<rect x="430.819" y="75.906" class="st6" width="66" height="66"/>
</g>
<g>
	<defs>
		<path id="SVGID_27_" d="M410.218,101.142v-7.347c0-1.164,0.442-1.766,1.325-1.766c0.884,0,1.326,0.602,1.326,1.847v7.266
			c0,1.244-0.442,1.887-1.326,1.887C410.66,103.029,410.218,102.386,410.218,101.142 M410.861,76.814
			c-3.854,0-5.299,2.207-5.299,5.861v18.868c0,3.091,1.566,5.782,5.58,5.782h0.843c4.015,0,5.54-2.771,5.54-5.983v-9.915
			c0-1.486-0.802-3.533-3.292-3.533h-0.16c-1.847,0-3.132,1.525-3.894,2.69v-8.07c0-0.682,0.16-1.445,1.083-1.445
			c0.924,0,1.085,0.763,1.085,1.445v3.412h4.616v-4.415c0-2.73-1.565-4.697-5.299-4.697H410.861z"/>
	</defs>
	<clipPath id="SVGID_42_">
		<use xlink:href="#SVGID_27_"  style="overflow:visible;"/>
	</clipPath>
	<rect x="365.819" y="75.906" class="st7" width="66" height="66"/>
</g>
<g>
	<defs>
		<path id="SVGID_26_" d="M410.861,76.814c-0.457,0-0.879,0.03-1.27,0.092h3.385c-0.403-0.061-0.841-0.092-1.312-0.092H410.861z"/>
	</defs>
	<clipPath id="SVGID_43_">
		<use xlink:href="#SVGID_26_"  style="overflow:visible;"/>
	</clipPath>
	<rect x="365.819" y="10.906" class="st8" width="66" height="66"/>
</g>
<g>
	<defs>
		<path id="SVGID_25_" d="M423.178,100.781V83.438c0-1.486,0.282-2.209,1.365-2.209c1.084,0,1.405,0.643,1.405,2.209v17.343
			c0,1.163-0.28,2.007-1.445,2.007C423.339,102.788,423.178,101.864,423.178,100.781 M424.222,76.814
			c-4.134,0-5.661,2.529-5.661,6.864v17.424c0,4.135,1.887,6.223,5.42,6.223h1.004c3.653,0,5.58-2.65,5.58-6.223V83.598
			c0-4.014-1.244-6.784-5.5-6.784H424.222z"/>
	</defs>
	<clipPath id="SVGID_44_">
		<use xlink:href="#SVGID_25_"  style="overflow:visible;"/>
	</clipPath>
	<rect x="365.819" y="75.906" class="st9" width="66" height="66"/>
</g>
<g>
	<defs>
		<path id="SVGID_24_" d="M424.222,76.814c-0.457,0-0.883,0.03-1.277,0.092h3.376c-0.386-0.061-0.804-0.092-1.256-0.092H424.222z"/>
	</defs>
	<clipPath id="SVGID_45_">
		<use xlink:href="#SVGID_24_"  style="overflow:visible;"/>
	</clipPath>
	<rect x="365.819" y="10.906" class="st10" width="66" height="66"/>
</g>
<g>
	<defs>
		<path id="SVGID_23_" d="M444.047,103.15v-5.662c0-0.522,0.201-0.923,0.722-0.923c0.603,0,0.804,0.401,0.804,0.923v5.662
			c0,0.481-0.201,0.923-0.804,0.923C444.248,104.073,444.047,103.631,444.047,103.15 M444.488,93.555
			c-2.248,0-3.692,1.364-3.692,3.893v5.782c0,2.569,1.565,3.894,3.692,3.894h0.764c2.287,0,3.573-1.526,3.573-3.894v-5.782
			c0-2.449-1.366-3.893-3.614-3.893H444.488z M444.007,77.095l-10.76,29.868h2.971l10.76-29.868H444.007z M434.533,86.489v-5.661
			c0-0.521,0.24-0.924,0.722-0.924c0.602,0,0.843,0.403,0.843,0.924v5.661c0,0.522-0.241,0.923-0.843,0.923
			C434.773,87.412,434.533,87.011,434.533,86.489 M434.974,76.894c-2.248,0-3.693,1.365-3.693,3.894v5.781
			c0,2.569,1.565,3.894,3.693,3.894h0.763c2.288,0,3.613-1.525,3.613-3.894v-5.781c0-2.449-1.365-3.894-3.613-3.894H434.974z"/>
	</defs>
	<clipPath id="SVGID_46_">
		<use xlink:href="#SVGID_23_"  style="overflow:visible;"/>
	</clipPath>
	<rect x="430.819" y="75.906" class="st11" width="66" height="66"/>
</g>
<g>
	<defs>
		<path id="SVGID_22_" d="M434.974,76.894c-0.119,0-0.237,0.003-0.353,0.012h1.459c-0.112-0.009-0.226-0.012-0.343-0.012H434.974z"
			/>
	</defs>
	<clipPath id="SVGID_47_">
		<use xlink:href="#SVGID_22_"  style="overflow:visible;"/>
	</clipPath>
	<rect x="430.819" y="10.906" class="st12" width="66" height="66"/>
</g>
<g>
	<defs>
		<path id="SVGID_21_" d="M208.803,207.813h4.335v-1.907h-4.335V207.813z M215.388,205.906c-0.086,0.884-0.362,1.765-1.246,3.312
			l-2.61,4.617c-2.89,5.019-3.492,6.986-3.492,10.88v2.248h12.365v-9.996h-4.577v5.74h-4.015c0-1.244,0.161-2.288,2.85-6.141
			c0.924-1.285,2.088-2.852,2.891-4.095c1.94-2.941,2.465-4.394,2.603-6.565H215.388z"/>
	</defs>
	<clipPath id="SVGID_48_">
		<use xlink:href="#SVGID_21_"  style="overflow:visible;"/>
	</clipPath>
	<rect x="170.819" y="205.906" class="st13" width="66" height="66"/>
</g>
<g>
	<defs>
		<path id="SVGID_20_" d="M213.74,196.813c-3.774,0-4.937,2.69-4.937,5.541v4.552h4.335v-4.191c0-1.124,0.282-1.565,1.124-1.565
			c0.763,0,1.165,0.441,1.165,1.565v1.927c0,0.837,0,1.469-0.23,2.264h4.859c0.129-0.886,0.148-1.845,0.148-3.067v-1.485
			c0-4.015-2.168-5.541-5.541-5.541H213.74z"/>
	</defs>
	<clipPath id="SVGID_49_">
		<use xlink:href="#SVGID_20_"  style="overflow:visible;"/>
	</clipPath>
	<rect x="170.819" y="140.906" class="st14" width="66" height="66"/>
</g>
<g>
	<defs>
		<path id="SVGID_19_" d="M227.182,207.693v7.949h-2.73C225.455,212.952,226.379,210.303,227.182,207.693 M224.652,205.906
			c-1.349,3.832-2.767,7.757-3.653,10.097v3.733h6.183v7.227h4.456v-7.227h2.771v-4.094h-2.771v-9.736H224.652z"/>
	</defs>
	<clipPath id="SVGID_50_">
		<use xlink:href="#SVGID_19_"  style="overflow:visible;"/>
	</clipPath>
	<rect x="170.819" y="205.906" class="st15" width="66" height="66"/>
</g>
<g>
	<defs>
		<path id="SVGID_18_" d="M227.704,196.974c-0.731,2.277-2.061,6.131-3.405,9.932h7.339v-9.932H227.704z"/>
	</defs>
	<clipPath id="SVGID_51_">
		<use xlink:href="#SVGID_18_"  style="overflow:visible;"/>
	</clipPath>
	<rect x="170.819" y="140.906" class="st16" width="66" height="66"/>
</g>
<g>
	<defs>
		<path id="SVGID_17_" d="M236.248,226.963h0.571v-1.584L236.248,226.963z M234.281,205.906v0.663c0,2.076,1.022,3.339,2.538,3.748
			v-4.411H234.281z"/>
	</defs>
	<clipPath id="SVGID_52_">
		<use xlink:href="#SVGID_17_"  style="overflow:visible;"/>
	</clipPath>
	<rect x="170.819" y="205.906" class="st17" width="66" height="66"/>
</g>
<g>
	<defs>
		<path id="SVGID_16_" d="M247.047,223.149v-5.66c0-0.522,0.201-0.923,0.723-0.923c0.602,0,0.803,0.401,0.803,0.923v5.66
			c0,0.482-0.201,0.924-0.803,0.924C247.248,224.073,247.047,223.631,247.047,223.149 M247.488,213.554
			c-2.248,0-3.692,1.366-3.692,3.895v5.78c0,2.57,1.565,3.895,3.692,3.895h0.763c2.288,0,3.573-1.526,3.573-3.895v-5.78
			c0-2.449-1.365-3.895-3.613-3.895H247.488z M239.098,205.906v0.582c0,0.522-0.241,0.924-0.843,0.924
			c-0.481,0-0.722-0.402-0.722-0.924v-0.582h-1.714v3.969c0.596,0.39,1.334,0.588,2.155,0.588h0.763
			c2.288,0,3.613-1.526,3.613-3.894v-0.663H239.098z M243.833,205.906l-7.585,21.057h2.97l7.585-21.057H243.833z"/>
	</defs>
	<clipPath id="SVGID_53_">
		<use xlink:href="#SVGID_16_"  style="overflow:visible;"/>
	</clipPath>
	<rect x="235.819" y="205.906" class="st18" width="66" height="66"/>
</g>
<g>
	<defs>
		<path id="SVGID_15_" d="M234.281,200.788v5.781c0,0.116,0.003,0.227,0.009,0.337h2.529v-9.875
			C235.243,197.435,234.281,198.724,234.281,200.788"/>
	</defs>
	<clipPath id="SVGID_54_">
		<use xlink:href="#SVGID_15_"  style="overflow:visible;"/>
	</clipPath>
	<rect x="170.819" y="140.906" class="st19" width="66" height="66"/>
</g>
<g>
	<defs>
		<path id="SVGID_14_" d="M247.007,197.094l-3.534,9.812h2.97l3.535-9.812H247.007z M237.974,196.893
			c-0.842,0-1.572,0.192-2.155,0.565v9.448h1.775c-0.041-0.124-0.061-0.265-0.061-0.418v-5.66c0-0.522,0.241-0.923,0.722-0.923
			c0.602,0,0.843,0.401,0.843,0.923v5.66c0,0.153-0.02,0.294-0.063,0.418h3.306c0.007-0.11,0.009-0.222,0.009-0.337v-5.781
			c0-2.449-1.365-3.895-3.613-3.895H237.974z"/>
	</defs>
	<clipPath id="SVGID_55_">
		<use xlink:href="#SVGID_14_"  style="overflow:visible;"/>
	</clipPath>
	<rect x="235.819" y="140.906" class="st20" width="66" height="66"/>
</g>
<g>
	<defs>
		<path id="SVGID_13_" d="M524.098,281.463v-6.343c0-1.244,0.282-1.727,1.205-1.727c0.922,0,1.244,0.603,1.244,1.727v6.343
			c0,0.843-0.361,1.486-1.204,1.486C524.419,282.949,524.098,282.306,524.098,281.463 M520.858,270.906
			c-0.764,0.732-1.497,1.909-1.497,3.692v7.106c0,3.092,1.526,5.621,5.5,5.621h0.843c3.975,0,5.58-2.529,5.58-5.541v-7.186
			c0-1.832-0.56-2.918-1.528-3.692H520.858z"/>
	</defs>
	<clipPath id="SVGID_56_">
		<use xlink:href="#SVGID_13_"  style="overflow:visible;"/>
	</clipPath>
	<rect x="495.819" y="270.906" class="st21" width="66" height="66"/>
</g>
<g>
	<defs>
		<path id="SVGID_12_" d="M524.179,267.251v-4.777c0-0.843,0.04-1.646,1.124-1.646c1.084,0,1.164,0.803,1.164,1.646v4.818
			c0,0.923-0.361,1.485-1.124,1.485C524.499,268.777,524.179,268.094,524.179,267.251 M524.821,256.814
			c-4.014,0-5.179,2.689-5.179,5.098v4.657c0,2.127,0.964,3.171,1.806,3.854c-0.461,0.321-0.982,0.802-1.388,1.483h10.59
			c-0.385-0.63-0.933-1.095-1.614-1.483c0.924-0.603,1.927-1.727,1.927-3.854v-4.497c0-3.051-1.606-5.258-5.34-5.258H524.821z"/>
	</defs>
	<clipPath id="SVGID_57_">
		<use xlink:href="#SVGID_12_"  style="overflow:visible;"/>
	</clipPath>
	<rect x="495.819" y="205.906" class="st22" width="66" height="66"/>
</g>
<g>
	<defs>
		<rect id="SVGID_11_" x="535.09" y="270.906" width="4.577" height="16.057"/>
	</defs>
	<clipPath id="SVGID_58_">
		<use xlink:href="#SVGID_11_"  style="overflow:visible;"/>
	</clipPath>
	<rect x="495.819" y="270.906" class="st23" width="66" height="66"/>
</g>
<g>
	<defs>
		<path id="SVGID_10_" d="M536.014,257.095c-0.441,2.368-1.284,3.131-3.975,3.292v3.692h3.051v7.827h4.578v-14.811H536.014z"/>
	</defs>
	<clipPath id="SVGID_59_">
		<use xlink:href="#SVGID_10_"  style="overflow:visible;"/>
	</clipPath>
	<rect x="495.819" y="205.906" class="st24" width="66" height="66"/>
</g>
<g>
	<defs>
		<path id="SVGID_9_" d="M554.047,283.15v-5.662c0-0.521,0.201-0.923,0.723-0.923c0.602,0,0.803,0.402,0.803,0.923v5.662
			c0,0.481-0.201,0.923-0.803,0.923C554.248,284.073,554.047,283.631,554.047,283.15 M554.488,273.555
			c-2.247,0-3.693,1.364-3.693,3.893v5.782c0,2.569,1.566,3.894,3.693,3.894h0.763c2.289,0,3.573-1.526,3.573-3.894v-5.782
			c0-2.449-1.365-3.893-3.613-3.893H554.488z M549.031,270.906l-5.783,16.057h2.971l5.783-16.057H549.031z"/>
	</defs>
	<clipPath id="SVGID_60_">
		<use xlink:href="#SVGID_9_"  style="overflow:visible;"/>
	</clipPath>
	<rect x="495.819" y="270.906" class="st25" width="66" height="66"/>
</g>
<g>
	<defs>
		<path id="SVGID_8_" d="M554.007,257.095l-5.335,14.811h2.97l5.336-14.811H554.007z M544.532,266.489v-5.661
			c0-0.521,0.242-0.924,0.723-0.924c0.602,0,0.843,0.403,0.843,0.924v5.661c0,0.522-0.241,0.923-0.843,0.923
			C544.774,267.412,544.532,267.011,544.532,266.489 M544.974,256.894c-2.248,0-3.693,1.365-3.693,3.894v5.781
			c0,2.569,1.566,3.894,3.693,3.894h0.763c2.288,0,3.613-1.525,3.613-3.894v-5.781c0-2.449-1.365-3.894-3.613-3.894H544.974z"/>
	</defs>
	<clipPath id="SVGID_61_">
		<use xlink:href="#SVGID_8_"  style="overflow:visible;"/>
	</clipPath>
	<rect x="495.819" y="205.906" class="st26" width="66" height="66"/>
</g>
<g>
	<defs>
		<path id="SVGID_7_" d="M188.38,335.906c-1.905,3.582-2.34,5.499-2.34,8.809v2.248h12.365v-9.996h-4.577v5.741h-4.014
			c0-1.245,0.16-2.289,2.85-6.143c0.153-0.213,0.313-0.433,0.476-0.659H188.38z"/>
	</defs>
	<clipPath id="SVGID_62_">
		<use xlink:href="#SVGID_7_"  style="overflow:visible;"/>
	</clipPath>
	<rect x="170.819" y="335.906" class="st27" width="66" height="66"/>
</g>
<g>
	<defs>
		<path id="SVGID_6_" d="M191.74,316.813c-3.773,0-4.938,2.69-4.938,5.541v5.46h4.336v-5.099c0-1.124,0.281-1.566,1.124-1.566
			c0.763,0,1.164,0.442,1.164,1.566v1.927c0,1.485,0,2.328-1.284,4.577l-2.609,4.617c-0.673,1.167-1.222,2.17-1.668,3.07h4.563
			c0.077-0.111,0.155-0.225,0.236-0.341c0.923-1.285,2.088-2.85,2.891-4.095c2.488-3.773,2.649-5.098,2.649-8.631v-1.485
			c0-4.015-2.168-5.541-5.54-5.541H191.74z"/>
	</defs>
	<clipPath id="SVGID_63_">
		<use xlink:href="#SVGID_6_"  style="overflow:visible;"/>
	</clipPath>
	<rect x="170.819" y="270.906" class="st28" width="66" height="66"/>
</g>
<g>
	<defs>
		<path id="SVGID_5_" d="M206.949,335.906v4.874c0,1.165-0.281,2.008-1.446,2.008c-1.164,0-1.325-0.923-1.325-2.008v-4.874h-4.617
			v5.195c0,4.136,1.888,6.223,5.42,6.223h1.004c3.653,0,5.581-2.65,5.581-6.223v-5.195H206.949z"/>
	</defs>
	<clipPath id="SVGID_64_">
		<use xlink:href="#SVGID_5_"  style="overflow:visible;"/>
	</clipPath>
	<rect x="170.819" y="335.906" class="st29" width="66" height="66"/>
</g>
<g>
	<defs>
		<path id="SVGID_4_" d="M205.223,316.813c-4.136,0-5.662,2.53-5.662,6.865v13.228h4.617v-13.469c0-1.485,0.281-2.208,1.366-2.208
			c1.083,0,1.405,0.643,1.405,2.208v13.469h4.617v-13.308c0-4.015-1.245-6.785-5.501-6.785H205.223z"/>
	</defs>
	<clipPath id="SVGID_65_">
		<use xlink:href="#SVGID_4_"  style="overflow:visible;"/>
	</clipPath>
	<rect x="170.819" y="270.906" class="st30" width="66" height="66"/>
</g>
<g>
	<defs>
		<path id="SVGID_3_" d="M219.231,335.906l-3.983,11.057h2.97l3.984-11.057H219.231z M226.047,343.149v-5.66
			c0-0.522,0.2-0.924,0.722-0.924c0.602,0,0.803,0.402,0.803,0.924v5.66c0,0.482-0.201,0.923-0.803,0.923
			C226.247,344.072,226.047,343.631,226.047,343.149 M223.012,335.906c-0.142,0.452-0.217,0.967-0.217,1.542v5.781
			c0,2.569,1.566,3.894,3.694,3.894h0.763c2.288,0,3.573-1.525,3.573-3.894v-5.781c0-0.57-0.074-1.086-0.216-1.542H223.012z"/>
	</defs>
	<clipPath id="SVGID_66_">
		<use xlink:href="#SVGID_3_"  style="overflow:visible;"/>
	</clipPath>
	<rect x="170.819" y="335.906" class="st31" width="66" height="66"/>
</g>
<g>
	<defs>
		<path id="SVGID_2_" d="M226.489,333.554c-2.082,0-3.475,1.171-3.671,3.352h3.349c0.111-0.21,0.304-0.341,0.602-0.341
			c0.344,0,0.557,0.131,0.676,0.341h3.356c-0.19-2.119-1.513-3.352-3.59-3.352H226.489z M226.007,317.095l-7.136,19.811h2.971
			l7.136-19.811H226.007z M216.533,326.489v-5.661c0-0.522,0.24-0.923,0.722-0.923c0.603,0,0.843,0.401,0.843,0.923v5.661
			c0,0.521-0.24,0.923-0.843,0.923C216.773,327.412,216.533,327.01,216.533,326.489 M216.974,316.894
			c-2.248,0-3.694,1.365-3.694,3.894v5.781c0,2.57,1.566,3.894,3.694,3.894h0.763c2.288,0,3.613-1.525,3.613-3.894v-5.781
			c0-2.449-1.365-3.894-3.613-3.894H216.974z"/>
	</defs>
	<clipPath id="SVGID_67_">
		<use xlink:href="#SVGID_2_"  style="overflow:visible;"/>
	</clipPath>
	<rect x="170.819" y="270.906" class="st32" width="66" height="66"/>
</g>
<rect x="62.626" y="140.906" class="st33" width="44.193" height="37.099"/>
<rect x="105.818" y="140.906" class="st33" width="66.001" height="37.099"/>
<rect x="170.818" y="140.906" class="st33" width="66.001" height="37.099"/>
<rect x="235.819" y="140.906" class="st33" width="66" height="37.099"/>
<rect x="300.819" y="140.906" class="st33" width="66" height="37.099"/>
<rect x="365.818" y="140.906" class="st33" width="24.887" height="37.099"/>
<rect x="62.626" y="132.004" class="st33" width="44.193" height="9.902"/>
<rect x="105.818" y="132.004" class="st33" width="66.001" height="9.902"/>
<rect x="170.818" y="132.004" class="st33" width="66.001" height="9.902"/>
<rect x="235.819" y="132.004" class="st33" width="66" height="9.902"/>
<rect x="300.819" y="132.004" class="st33" width="66" height="9.902"/>
<rect x="365.818" y="132.004" class="st33" width="24.887" height="9.902"/>
<rect x="62.626" y="205.907" class="st34" width="44.193" height="32.279"/>
<rect x="105.818" y="205.907" class="st34" width="66.001" height="32.279"/>
<rect x="170.818" y="205.907" class="st34" width="23.039" height="32.279"/>
<rect x="62.626" y="192.186" class="st34" width="44.193" height="14.72"/>
<rect x="105.818" y="192.186" class="st34" width="66.001" height="14.72"/>
<rect x="170.818" y="192.186" class="st34" width="23.039" height="14.72"/>
<rect x="62.626" y="270.906" class="st35" width="44.193" height="27.461"/>
<rect x="105.818" y="270.906" class="st35" width="66.001" height="27.461"/>
<rect x="170.818" y="270.906" class="st35" width="66.001" height="27.461"/>
<rect x="235.819" y="270.906" class="st35" width="66" height="27.461"/>
<rect x="300.819" y="270.906" class="st35" width="66" height="27.461"/>
<rect x="365.818" y="270.906" class="st35" width="66" height="27.461"/>
<rect x="430.818" y="270.906" class="st35" width="66.001" height="27.461"/>
<rect x="495.819" y="270.906" class="st35" width="9.715" height="27.461"/>
<rect x="62.626" y="252.367" class="st35" width="44.193" height="19.539"/>
<rect x="105.818" y="252.367" class="st35" width="66.001" height="19.539"/>
<rect x="170.818" y="252.367" class="st35" width="66.001" height="19.539"/>
<rect x="235.819" y="252.367" class="st35" width="66" height="19.539"/>
<rect x="300.819" y="252.367" class="st35" width="66" height="19.539"/>
<rect x="365.818" y="252.367" class="st35" width="66" height="19.539"/>
<rect x="430.818" y="252.367" class="st35" width="66.001" height="19.539"/>
<rect x="495.819" y="252.367" class="st35" width="9.715" height="19.539"/>
<rect x="62.626" y="335.906" class="st36" width="44.193" height="22.642"/>
<rect x="105.818" y="335.906" class="st36" width="66.001" height="22.642"/>
<rect x="170.818" y="335.906" class="st36" width="1.167" height="22.642"/>
<rect x="62.626" y="312.548" class="st36" width="44.193" height="24.358"/>
<rect x="105.818" y="312.548" class="st36" width="66.001" height="24.358"/>
<rect x="170.818" y="312.548" class="st36" width="1.167" height="24.358"/>
<rect x="62.626" y="75.906" class="st37" width="44.193" height="42.099"/>
<rect x="105.818" y="75.906" class="st37" width="66.001" height="42.099"/>
<rect x="170.818" y="75.906" class="st37" width="66.001" height="42.099"/>
<rect x="235.819" y="75.906" class="st37" width="66" height="42.099"/>
<rect x="300.819" y="75.906" class="st37" width="66" height="42.099"/>
<rect x="365.818" y="75.906" class="st37" width="24.887" height="42.099"/>
<rect x="62.626" y="72.005" class="st37" width="44.193" height="4.901"/>
<rect x="105.818" y="72.005" class="st37" width="66.001" height="4.901"/>
<rect x="170.818" y="72.005" class="st37" width="66.001" height="4.901"/>
<rect x="235.819" y="72.005" class="st37" width="66" height="4.901"/>
<rect x="300.819" y="72.005" class="st37" width="66" height="4.901"/>
<rect x="365.818" y="72.005" class="st37" width="24.887" height="4.901"/>
<g>
	<defs>
		<rect id="SVGID_1_" x="0" y="0" width="561.819" height="430.646"/>
	</defs>
	<clipPath id="SVGID_68_">
		<use xlink:href="#SVGID_1_"  style="overflow:visible;"/>
	</clipPath>
	<path class="st38" d="M37.367,107.63c-3.424,3.425-7.977,5.311-12.82,5.311c-2.835,0-5.55-0.637-8.069-1.891l-1.629-0.811
		l-7.169,1.698l1.51-7.325l-0.803-1.571c-1.307-2.561-1.97-5.33-1.97-8.231c0-4.843,1.886-9.396,5.31-12.82
		c3.394-3.394,8.021-5.311,12.82-5.311c4.843,0.001,9.396,1.886,12.82,5.311c3.425,3.424,5.311,7.977,5.311,12.82
		C42.678,99.609,40.761,104.237,37.367,107.63 M23.415,71.682c-12.33,0.587-22.06,10.856-22.023,23.2
		c0.012,3.759,0.919,7.308,2.52,10.444l-2.458,11.933c-0.133,0.645,0.449,1.21,1.091,1.058l11.692-2.77
		c3.005,1.497,6.379,2.361,9.95,2.415c12.602,0.193,23.111-9.814,23.504-22.412C48.112,82.046,36.966,71.037,23.415,71.682"/>
	<path class="st38" d="M35.784,99.832l-4.485-1.288c-0.59-0.169-1.225-0.002-1.654,0.436l-1.097,1.117
		c-0.463,0.471-1.164,0.623-1.777,0.375c-2.121-0.858-6.584-4.827-7.724-6.812c-0.329-0.572-0.275-1.288,0.129-1.81l0.958-1.239
		c0.375-0.486,0.454-1.137,0.206-1.699l-1.887-4.267c-0.452-1.022-1.758-1.32-2.612-0.598c-1.251,1.058-2.737,2.667-2.917,4.45
		c-0.319,3.142,1.029,7.103,6.125,11.86c5.888,5.495,10.603,6.221,13.673,5.477c1.741-0.421,3.132-2.112,4.01-3.496
		C37.331,101.394,36.858,100.14,35.784,99.832"/>
	<path class="st38" d="M36.269,162.241c-1.493-1.474-3.357-1.474-4.841,0c-1.131,1.122-2.263,2.245-3.376,3.386
		c-0.304,0.314-0.561,0.38-0.932,0.171c-0.732-0.4-1.512-0.723-2.216-1.16c-3.281-2.064-6.029-4.718-8.464-7.704
		c-1.208-1.483-2.282-3.072-3.034-4.86c-0.152-0.361-0.123-0.599,0.171-0.893c1.132-1.094,2.235-2.216,3.348-3.339
		c1.55-1.559,1.55-3.385-0.009-4.954c-0.885-0.894-1.769-1.769-2.654-2.663c-0.913-0.913-1.816-1.836-2.739-2.739
		c-1.493-1.455-3.357-1.455-4.84,0.009c-1.142,1.122-2.235,2.273-3.396,3.376c-1.074,1.018-1.616,2.264-1.731,3.719
		c-0.18,2.368,0.4,4.603,1.218,6.781c1.674,4.508,4.222,8.511,7.313,12.182c4.175,4.965,9.159,8.893,14.988,11.727
		c2.625,1.274,5.345,2.254,8.303,2.415c2.035,0.114,3.804-0.399,5.221-1.987c0.97-1.085,2.064-2.074,3.091-3.11
		c1.522-1.541,1.531-3.405,0.019-4.927C39.902,165.855,38.085,164.048,36.269,162.241"/>
	<path class="st38" d="M25.671,144.98c2.032,0.553,3.876,1.619,5.396,3.139c1.415,1.415,2.443,3.129,3.023,5.017
		c0.264,0.86,1.117,1.397,2.004,1.245c1.057-0.18,1.718-1.247,1.405-2.272c-0.75-2.449-2.087-4.669-3.921-6.511
		c-1.963-1.962-4.342-3.342-6.966-4.056c-1.037-0.282-2.087,0.405-2.236,1.469l-0.001,0.005
		C24.25,143.904,24.806,144.745,25.671,144.98"/>
	<path class="st38" d="M46.834,151.588c-1.142-4.607-3.503-8.783-6.893-12.181c-3.598-3.598-8.044-6.019-12.958-7.068
		c-1.01-0.216-1.991,0.471-2.134,1.493l-0.001,0.006c-0.129,0.918,0.468,1.789,1.374,1.983c4.25,0.908,8.097,3.004,11.208,6.106
		c2.929,2.929,4.969,6.54,5.951,10.518c0.223,0.902,1.108,1.476,2.024,1.319C46.422,153.591,47.082,152.59,46.834,151.588"/>
	<path class="st38" d="M46.599,252.39c-0.182-0.159-0.422-0.232-0.665-0.203l-26.137,3.382c-0.42,0.054-0.735,0.411-0.735,0.835
		v5.073v3.552v21.402c-1.539-1.851-3.985-3.055-6.745-3.055c-4.649,0-8.431,3.404-8.431,7.588c0,4.185,3.782,7.589,8.431,7.589
		s8.431-3.404,8.431-7.589c0-0.195-0.016-0.388-0.032-0.579c0.011-0.055,0.032-0.104,0.032-0.162v-22.945
		c0-0.863,0.641-1.591,1.496-1.702l21.019-2.72c1.027-0.133,1.936,0.667,1.936,1.702v13.441c-1.539-1.85-3.985-3.054-6.745-3.054
		c-4.649,0-8.431,3.403-8.431,7.588s3.782,7.588,8.431,7.588c4.607,0,8.358-3.344,8.426-7.476c0-0.011,0.006-0.02,0.006-0.031
		v-20.968v-3.551v-5.072C46.886,252.78,46.781,252.549,46.599,252.39"/>
	<path class="st38" d="M42.726,346.052c0,4.841-3.938,8.779-8.779,8.779H12.939c-4.841,0-8.779-3.938-8.779-8.779v-21.008
		c0-4.841,3.938-8.779,8.779-8.779h21.008c4.841,0,8.779,3.938,8.779,8.779V346.052z M33.947,312.105H12.939
		C5.804,312.105,0,317.91,0,325.044v21.008c0,7.135,5.804,12.939,12.939,12.939h21.008c7.135,0,12.939-5.805,12.939-12.939v-21.008
		C46.886,317.91,41.082,312.105,33.947,312.105"/>
	<path class="st38" d="M23.443,343.469c-4.368,0-7.921-3.553-7.921-7.921c0-4.368,3.553-7.921,7.921-7.921s7.921,3.553,7.921,7.921
		C31.364,339.916,27.811,343.469,23.443,343.469 M23.443,323.467c-6.662,0-12.081,5.42-12.081,12.081
		c0,6.662,5.419,12.081,12.081,12.081s12.081-5.419,12.081-12.081C35.524,328.887,30.105,323.467,23.443,323.467"/>
	<path class="st38" d="M36.031,319.94c-0.802,0-1.589,0.324-2.155,0.893c-0.569,0.566-0.896,1.353-0.896,2.158
		c0,0.801,0.328,1.589,0.896,2.157c0.566,0.566,1.353,0.893,2.155,0.893c0.804,0,1.589-0.327,2.158-0.893
		c0.568-0.568,0.893-1.356,0.893-2.157c0-0.805-0.325-1.592-0.893-2.158C37.623,320.264,36.835,319.94,36.031,319.94"/>
	<path class="st38" d="M39.5,231.701c0,0.47-0.37,0.84-0.84,0.84H21.17c-0.46,0-0.84-0.37-0.84-0.84v-32.4
		c0-0.46,0.38-0.83,0.84-0.83h17.49c0.47,0,0.84,0.37,0.84,0.83V231.701z M30.06,238.291c-1.29,0.08-2.35-0.98-2.27-2.27
		c0.07-1.05,0.93-1.91,1.99-1.98c1.28-0.08,2.34,0.98,2.26,2.26C31.98,237.361,31.12,238.221,30.06,238.291 M26.72,195.741
		c0-0.26,0.13-0.47,0.29-0.47h5.82c0.15,0,0.28,0.21,0.28,0.47v0.13c0,0.26-0.13,0.47-0.28,0.47h-5.82c-0.16,0-0.29-0.21-0.29-0.47
		V195.741z M37.62,194.341c0-0.4,0.04-0.79,0.14-1.17c-0.24-0.03-0.39-0.03-0.39-0.03H22.46c0,0-4.26,0-4.26,4.27v38.39
		c0,4.27,4.26,4.27,4.26,4.27h14.91c0,0,4.26,0,4.26-4.27v-36.38C39.33,198.881,37.62,196.811,37.62,194.341"/>
	<path class="st38" d="M43.403,196.062h-0.784v-2.684h-0.915v-0.521c0.241-0.011,0.409-0.027,0.506-0.048
		c0.153-0.034,0.278-0.102,0.374-0.204c0.066-0.07,0.116-0.163,0.15-0.279c0.02-0.07,0.03-0.122,0.03-0.156h0.639V196.062z
		 M42.851,190.301c-2.228,0-4.035,1.806-4.035,4.035c0,2.228,1.807,4.035,4.035,4.035c2.229,0,4.035-1.807,4.035-4.035
		C46.886,192.107,45.08,190.301,42.851,190.301"/>
</g>
</svg>