<!-- Generator: Adobe Illustrator 23.0.3, SVG Export Plug-In  -->
<svg version="1.1" xmlns="http://www.w3.org/2000/svg" xmlns:xlink="http://www.w3.org/1999/xlink" x="0px" y="0px"
	 width="364.633px" height="632.631px" viewBox="0 0 364.633 632.631" style="enable-background:new 0 0 364.633 632.631;"
	 xml:space="preserve">
<style type="text/css">
	.st0{clip-path:url(#SVGID_2_);fill:#F2DEDE;}
	.st1{clip-path:url(#SVGID_4_);fill:#F2DEDE;}
</style>
<defs>
</defs>
<g>
	<defs>
		<rect id="SVGID_1_" x="0.001" width="364.633" height="632.631"/>
	</defs>
	<clipPath id="SVGID_2_">
		<use xlink:href="#SVGID_1_"  style="overflow:visible;"/>
	</clipPath>
	<path class="st0" d="M270.751,526.237c0,5.974-4.703,10.679-10.677,10.679H37.753c-5.847,0-10.677-4.705-10.677-10.679V114.391
		c0-5.846,4.83-10.549,10.677-10.549h222.321c5.974,0,10.677,4.703,10.677,10.549V526.237z M150.757,610.008
		c-16.398,1.012-29.872-12.461-28.855-28.855c0.89-13.35,11.821-24.282,25.296-25.168c16.27-1.018,29.744,12.457,28.727,28.724
		C175.163,598.184,164.231,609.114,150.757,610.008 M108.301,69.139c0-3.305,1.653-5.973,3.686-5.973h73.98
		c1.907,0,3.56,2.668,3.56,5.973v1.652c0,3.307-1.653,5.975-3.56,5.975h-73.98c-2.033,0-3.686-2.668-3.686-5.975V69.139z
		 M246.854,51.344c0-5.086,0.509-10.043,1.779-14.873c-3.05-0.383-4.957-0.383-4.957-0.383H54.151c0,0-54.151,0-54.151,54.279
		v487.987c0,54.277,54.151,54.277,54.151,54.277h189.525c0,0,54.151,0,54.151-54.277V115.916
		C268.59,109.053,246.854,82.74,246.854,51.344"/>
	<path class="st0" d="M320.353,73.232h-9.962V39.113h-11.634v-6.617c3.063-0.141,5.206-0.344,6.433-0.615
		c1.948-0.432,3.537-1.299,4.763-2.594c0.84-0.885,1.476-2.07,1.907-3.547c0.249-0.888,0.374-1.547,0.374-1.978h8.119V73.232z
		 M313.343,0c-28.327,0-51.292,22.963-51.292,51.291c0,28.326,22.965,51.291,51.292,51.291c28.327,0,51.29-22.965,51.29-51.291
		C364.633,22.963,341.67,0,313.343,0"/>
</g>
</svg>