<!-- Generator: Adobe Illustrator 23.0.4, SVG Export Plug-In  -->
<svg version="1.1" xmlns="http://www.w3.org/2000/svg" xmlns:xlink="http://www.w3.org/1999/xlink" x="0px" y="0px"
	 width="579.984px" height="579.985px" viewBox="0 0 579.984 579.985" style="enable-background:new 0 0 579.984 579.985;"
	 xml:space="preserve">
<style type="text/css">
	.st0{clip-path:url(#SVGID_2_);fill:#2E2F2D;}
	.st1{clip-path:url(#SVGID_2_);fill:none;stroke:#EF787A;stroke-width:46.894;stroke-miterlimit:10;}
	.st2{fill:#F1DFDD;}
	.st3{clip-path:url(#SVGID_4_);fill:#F9CDCC;}
	.st4{clip-path:url(#SVGID_6_);fill:#2E2F2D;}
	.st5{clip-path:url(#SVGID_6_);fill:none;stroke:#EF787A;stroke-width:46.894;stroke-miterlimit:10;}
	.st6{clip-path:url(#SVGID_8_);fill:#F9CDCC;}
</style>
<defs>
</defs>
<g>
	<defs>
		<rect id="SVGID_1_" width="579.984" height="579.985"/>
	</defs>
	<clipPath id="SVGID_2_">
		<use xlink:href="#SVGID_1_"  style="overflow:visible;"/>
	</clipPath>
	<path class="st0" d="M579.984,289.993c0,160.158-129.834,289.992-289.992,289.992C129.833,579.985,0,450.151,0,289.993
		S129.833,0.001,289.992,0.001C450.15,0.001,579.984,129.835,579.984,289.993"/>
	<path class="st1" d="M369.016,498.207c74.05-28.267,130.494-95.404,141.122-179.53C525.492,197.142,439.411,86.172,317.87,70.819
		c-9.343-1.18-18.622-1.756-27.801-1.767"/>
</g>
<g>
	<path class="st2" d="M237.638,78.859c1.471-3.887,4.623-12.782,5.849-16.599h3.432v16.284h2.416v3.572h-2.416v6.303h-3.887v-6.303
		h-5.394V78.859z M243.032,71.61c-0.701,2.276-1.506,4.587-2.382,6.934h2.382V71.61z"/>
	<path class="st2" d="M249.754,78.859c1.471-3.887,4.623-12.782,5.849-16.599h3.432v16.284h2.416v3.572h-2.416v6.303h-3.887v-6.303
		h-5.394V78.859z M255.147,71.61c-0.701,2.276-1.506,4.587-2.382,6.934h2.382V71.61z"/>
</g>
<g>
	<path class="st2" d="M261.17,65.587c0-2.206,1.261-3.396,3.222-3.396h0.666c1.961,0,3.151,1.261,3.151,3.396v5.043
		c0,2.066-1.155,3.397-3.151,3.397h-0.666c-1.855,0-3.222-1.156-3.222-3.397V65.587z M274.862,62.365l-9.385,26.054h-2.592
		l9.386-26.054H274.862z M265.372,65.622c0-0.455-0.21-0.805-0.735-0.805c-0.42,0-0.63,0.35-0.63,0.805v4.938
		c0,0.456,0.21,0.806,0.63,0.806c0.525,0,0.735-0.35,0.735-0.806V65.622z M269.47,80.12c0-2.207,1.261-3.397,3.222-3.397h0.63
		c1.962,0,3.152,1.261,3.152,3.397v5.042c0,2.066-1.121,3.397-3.117,3.397h-0.665c-1.856,0-3.222-1.156-3.222-3.397V80.12z
		 M273.637,85.093v-4.938c0-0.455-0.175-0.805-0.7-0.805c-0.455,0-0.63,0.35-0.63,0.805v4.938c0,0.42,0.175,0.805,0.63,0.805
		C273.462,85.898,273.637,85.513,273.637,85.093z"/>
</g>
<g>
	<defs>
		<rect id="SVGID_3_" width="579.984" height="579.985"/>
	</defs>
	<clipPath id="SVGID_4_">
		<use xlink:href="#SVGID_3_"  style="overflow:visible;"/>
	</clipPath>
	<path class="st3" d="M149.61,283.569c2.749,0.038,4.536-2.136,4.603-4.493c0.07-2.414-2.007-4.527-4.443-4.576
		c-2.574-0.052-4.683,1.959-4.731,4.513C144.993,281.465,147.074,283.54,149.61,283.569 M149.338,286.594
		c-0.473,0.029-1.192-0.017-1.779-0.318c-0.953-0.49-1.556-0.267-2.311,0.451c-3.421,3.251-6.924,6.415-10.372,9.638
		c-1.286,1.202-1.59,1.206-2.697-0.141c-0.704-0.856-1.446-1.68-2.19-2.501c-0.789-0.871-0.765-1.251,0.136-1.997
		c3.882-3.213,7.75-6.443,11.651-9.635c0.511-0.418,0.645-0.754,0.499-1.42c-0.645-2.945,0.272-5.474,2.517-7.386
		c2.347-2,5.105-2.309,7.927-1.098c0.801,0.343,1.135-0.105,1.552-0.449c4.219-3.48,8.413-6.99,12.626-10.478
		c5.834-4.829,11.683-9.641,17.519-14.469c3.936-3.257,7.861-6.527,11.779-9.806c0.219-0.183,0.762-0.249,0.244-0.841
		c-2.582-2.95-5.169-5.889-8.17-8.43c-0.572-0.483-1.121-0.999-1.731-1.429c-0.641-0.454-0.726-0.904-0.324-1.585
		c1.737-2.946,3.437-5.914,5.15-8.875c0.677-1.171,1.382-2.328,2.012-3.523c0.367-0.695,0.706-0.781,1.363-0.326
		c3.376,2.334,6.554,4.91,9.579,7.679c4.088,3.741,7.669,7.931,10.901,12.42c1.165,1.616,2.197,3.328,3.309,4.983
		c0.436,0.648,0.452,1.062-0.335,1.509c-4.613,2.623-9.203,5.289-13.786,7.966c-0.672,0.393-1.013,0.309-1.456-0.369
		c-1.6-2.445-2.867-5.097-4.658-7.427c-0.404-0.525-0.565-0.511-1.008-0.099c-6.816,6.33-13.645,12.647-20.475,18.962
		c-6.405,5.922-12.808,11.846-19.236,17.743c-0.633,0.581-0.842,1.038-0.636,1.961C158.028,282.177,154.624,286.49,149.338,286.594"
		/>
	<path class="st3" d="M221.001,279.275c-3.008,0-6.017-0.036-9.024,0.022c-0.915,0.018-1.109-0.282-1.121-1.146
		c-0.058-4.19-0.379-8.364-1.165-12.485c-0.769-4.035-1.808-8.001-3.349-11.818c-0.283-0.701-0.289-1.08,0.482-1.515
		c4.837-2.726,9.645-5.504,14.434-8.313c0.675-0.396,0.936-0.373,1.277,0.352c3.363,7.148,5.809,14.594,7.242,22.36
		c0.714,3.868,1.278,7.76,1.447,11.701c0.033,0.759-0.216,0.881-0.88,0.876c-3.114-0.027-6.229-0.012-9.343-0.012V279.275z"/>
	<path class="st3" d="M152.724,204.877c0-1.862,0.007-3.724-0.002-5.586c-0.008-1.376,0.175-1.48,1.495-1.32
		c1.586,0.193,3.182,0.189,4.778,0.453c4.021,0.664,8.011,1.4,11.947,2.497c3.853,1.073,7.562,2.499,11.218,4.077
		c1.922,0.83,3.766,1.835,5.662,2.726c0.697,0.328,0.707,0.63,0.302,1.275c-2.133,3.403-4.115,6.896-6.062,10.409
		c-0.179,0.324-0.379,0.661-0.61,0.975c-1.114,1.516-1.039,1.458-2.653,0.49c-3.625-2.176-7.437-3.95-11.425-5.397
		c-2.499-0.907-5.015-1.73-7.591-2.31c-1.92-0.433-3.831-1.065-5.817-1.095c-1.067-0.016-1.267-0.509-1.256-1.394
		c0.023-1.933,0.007-3.867,0.007-5.8H152.724z"/>
	<path class="st3" d="M146.503,204.717c0,2.039-0.029,4.078,0.028,6.115c0.01,0.354-0.017,0.441-0.321,0.458
		c-0.143,0.009-0.287,0.017-0.43,0.009c-3.434-0.182-6.848,0.217-10.258,0.484c-1.92,0.151-3.829,0.602-5.726,1.05
		c-1.958,0.462-3.955,0.759-5.86,1.444c-2.192,0.787-4.439,1.42-6.565,2.386c-0.845,0.385-1.472,0.48-2.071-0.538
		c-1.565-2.657-2.885-5.456-4.627-8.009c-0.476-0.698-0.078-1.115,0.489-1.449c1.454-0.857,3.025-1.476,4.551-2.186
		c2.846-1.324,5.81-2.366,8.789-3.296c3.27-1.02,6.616-1.814,10.028-2.324c2.996-0.447,5.978-0.87,9.014-0.905
		c0.68-0.008,1.382-0.245,2.093-0.302c0.684-0.055,0.876,0.182,0.867,0.835c-0.029,2.075-0.011,4.152-0.011,6.228H146.503z"/>
	<path class="st3" d="M110.303,219.638c0.08,0.474-0.043,0.564-0.263,0.695c-3.979,2.378-7.761,5.017-11.231,8.115
		c-1.859,1.659-3.674,3.344-5.369,5.17c-2.177,2.348-4.164,4.84-5.953,7.492c-0.339,0.503-0.684,0.954-1.376,0.487
		c-2.042-1.378-4.205-2.55-6.373-3.713c-0.744-0.399-0.895-0.743-0.408-1.549c3.35-5.539,7.352-10.55,11.942-15.104
		c3.687-3.657,7.641-6.985,11.966-9.867c1.612-1.074,1.558-1.062,2.565,0.72c1.136,2.01,2.418,3.938,3.514,5.969
		C109.646,218.663,110.101,219.204,110.303,219.638"/>
	<path class="st3" d="M71.395,278.72c-0.93,0-1.861-0.028-2.789,0.011c-0.522,0.022-0.67-0.161-0.682-0.667
		c-0.084-3.364,0.224-6.703,0.573-10.041c0.438-4.197,1.308-8.309,2.402-12.38c1.027-3.822,2.42-7.509,4.071-11.096
		c0.846-1.839,0.914-1.799,2.705-0.763c1.689,0.976,3.387,1.938,5.082,2.903c0.557,0.317,0.792,0.578,0.399,1.325
		c-1.667,3.167-3.226,6.403-4.363,9.798c-1.466,4.375-2.608,8.834-3.253,13.427c-0.298,2.125-0.396,4.25-0.568,6.375
		c-0.065,0.798-0.287,1.247-1.219,1.139c-0.776-0.09-1.571-0.018-2.358-0.018V278.72z"/>
	<path class="st3" d="M77.976,315.76c-0.527-1.701-1.572-3.149-2.314-4.747c-2.406-5.178-4.306-10.521-5.625-16.085
		c-0.743-3.133-1.131-6.312-1.643-9.476c-0.079-0.493,0.128-0.624,0.58-0.62c1.824,0.02,3.649,0.032,5.473,0.017
		c0.484-0.004,0.619,0.216,0.612,0.637c-0.064,3.854,0.691,7.615,1.465,11.35c0.828,4.001,2.051,7.905,3.624,11.691
		c0.926,2.229,1.896,4.435,3.056,6.554c0.443,0.811,0.462,1.418-0.587,1.805c-0.654,0.241-1.253,0.67-1.823,1.089
		c-0.668,0.49-1.076,0.42-1.539-0.306c-0.409-0.641-0.544-1.479-1.271-1.907L77.976,315.76z"/>
	<path class="st3" d="M86.826,321.622c0.298,0.058,0.407,0.297,0.553,0.489c1.245,1.633,2.411,3.323,3.711,4.92
		c3.211,3.943,6.81,7.484,10.779,10.654c2.505,2.001,5.123,3.843,7.9,5.451c0.455,0.263,0.682,0.495,0.28,0.983
		c-0.178,0.217-0.321,0.481-0.416,0.746c-0.212,0.6-0.537,0.619-1.058,0.343c-3.88-2.049-7.582-4.376-11.043-7.075
		c-4.567-3.563-8.69-7.584-12.355-12.071c-0.247-0.302-0.479-0.616-0.718-0.924c-1.178-1.518-1.18-1.521,0.509-2.491
		C85.586,322.292,86.215,321.958,86.826,321.622"/>
	<path class="st3" d="M141.69,353.859c-2.719,0.286-5.367-0.209-8.03-0.544c-3.719-0.466-7.342-1.375-10.937-2.378
		c-2.391-0.668-4.733-1.518-7.036-2.458c-0.399-0.163-0.914-0.352-0.482-0.868c0.32-0.383,0.212-1.426,1.276-0.893
		c3.378,1.691,6.93,2.978,10.528,4.078c2.956,0.904,5.972,1.662,9.053,2.097C137.946,353.159,139.815,353.533,141.69,353.859"/>
	<polyline class="st3" points="77.984,315.762 77.957,315.791 77.976,315.76 77.984,315.762 	"/>
	<path class="st3" d="M422.573,316.597c-3.453-0.81-6.76-1.575-10.062-2.364c-5.629-1.343-11.233-2.797-16.891-4.004
		c-2.115-0.451-4.357-0.28-6.53-0.498c-6.457-0.647-12.698-2.211-18.702-4.667c-2.591-1.06-3.486-3.371-3.684-5.89
		c-0.414-5.277-0.663-10.567-0.958-15.853c-0.523-9.353-1.011-18.708-1.556-28.059c-0.141-2.424-0.986-4.374-3.272-5.78
		c-3.157-1.942-6.168-4.153-9.077-6.457c-3.602-2.855-7.516-4.959-11.985-6.059c-1.474-0.363-2.883-0.987-4.351-1.38
		c-2.957-0.791-4.469-2.817-5.071-5.681c-1.068-5.079,3.392-10.835,8.136-10.257c2.034,0.247,4.004,1.093,5.977,1.748
		c5.44,1.804,10.927,3.491,16.269,5.555c2.212,0.854,4.307,2.316,6.099,3.903c6.671,5.911,13.266,11.912,19.749,18.028
		c4.559,4.302,10.11,6.489,15.927,8.309c6.297,1.97,12.552,4.074,18.835,6.089c0.811,0.261,1.235,0.561,1.233,1.545
		c-0.034,16.912-0.023,33.824-0.024,50.736C422.635,315.811,422.606,316.061,422.573,316.597"/>
	<path class="st3" d="M330.021,181.677c2.028,0,4.057,0.037,6.083-0.032c0.392-0.013,0.77-0.441,1.154-0.677
		c-0.397-0.282-0.79-0.803-1.191-0.809c-4.056-0.06-8.113-0.056-12.168-0.005c-0.385,0.005-0.764,0.452-1.146,0.694
		c0.395,0.277,0.78,0.776,1.185,0.792C325.962,181.722,327.992,181.678,330.021,181.677 M364.78,224.246
		c-1.784-0.774-3.346-1.371-4.814-2.147c-0.367-0.195-0.603-0.967-0.606-1.475c-0.039-6.824-0.026-13.649-0.026-20.473v-9.03
		h-58.484v47.636c-1.743-0.584-3.246-1.087-4.83-1.617c0-5.092-0.003-10.13,0.001-15.167c0.008-9.88-0.046-19.761,0.081-29.64
		c0.031-2.411,0.48-4.86,1.063-7.21c1.067-4.307,3.941-6.845,8.299-7.745c6.112-1.262,12.304-1.611,18.517-1.568
		c7.685,0.054,15.374,0.134,23.053,0.419c2.926,0.108,5.871,0.633,8.734,1.288c4.897,1.118,7.793,4.518,8.366,10.026
		c0.447,4.289,0.568,8.622,0.62,12.939C364.846,208.319,364.78,216.158,364.78,224.246"/>
	<path class="st3" d="M330.319,307.211c1.933,0,3.867-0.04,5.798,0.013c1.492,0.041,1.932-0.672,1.895-2.066
		c-0.033-1.282-0.036-2.332-1.784-2.307c-3.916,0.057-7.833,0.044-11.75,0.011c-1.583-0.014-1.788,0.91-1.803,2.187
		c-0.016,1.327,0.322,2.188,1.845,2.168C326.452,307.19,328.386,307.211,330.319,307.211 M296.179,288.991h4.557v4.442h58.586
		v-39.86c0.146-0.017,0.291-0.034,0.437-0.052c0.153,0.913,0.392,1.821,0.445,2.739c0.709,12.345,1.385,24.692,2.085,37.037
		c0.196,3.45,0.471,6.896,0.632,10.348c0.023,0.489-0.307,1.063-0.623,1.488c-2.906,3.913-6.927,6.145-11.671,6.362
		c-7.876,0.36-15.773,0.286-23.661,0.299c-5.597,0.009-11.203,0.022-16.79-0.258c-7.126-0.358-12.973-5.273-13.911-11.922
		C295.775,296.138,296.179,292.535,296.179,288.991"/>
	<path class="st3" d="M306.977,270.245c4.352,1.355,5.723,3.491,5.29,8.11c-0.21,2.25-1.09,4.232-2.591,5.898
		c-1.392,1.547-3.122,2.378-5.28,2.229c-3.199-0.221-6.401-0.407-9.604-0.545c-1.614-0.07-2.604-0.914-2.979-2.367
		c-0.34-1.319-0.462-2.699-0.616-4.06c-0.148-1.31-0.173-2.634-0.325-3.943c-0.212-1.822,0.389-3.297,1.989-4.627
		c-1.086-0.395-2.006-0.72-2.919-1.065c-1.794-0.678-2.675-1.706-2.414-3.579c0.412-2.954,1.058-5.882,1.755-8.786
		c0.185-0.774,0.914-1.418,1.44-2.191c-0.345-0.152-0.745-0.347-1.159-0.508c-1.402-0.546-2.247-1.633-2.031-3.061
		c0.476-3.148,0.996-6.314,1.863-9.37c0.603-2.125,3.314-3.244,5.758-2.491c3.925,1.208,7.808,2.575,11.641,4.05
		c2.113,0.813,3.111,3.616,2.553,6.29c-0.636,3.044-1.771,4.708-5.253,7.595c2.833,0.682,5.072,1.971,5.358,5.099
		C309.705,265.681,308.568,268.047,306.977,270.245"/>
	<path class="st3" d="M293.847,237.349c-2.106-0.749-4.06-1.205-5.777-2.11c-2.824-1.487-3.949-5.162-3.002-8.85
		c0.915-3.565,4.119-6.419,7.222-6.518c1.147-0.037,1.604,0.274,1.587,1.538C293.805,226.593,293.847,231.779,293.847,237.349"/>
</g>
<g>
	<path class="st2" d="M161.342,294.395v3.675h-4.9v6.636h3.846v3.845h-3.846v7.316h5.104v3.845h-8.949v-25.316H161.342z"/>
	<path class="st2" d="M168.963,308.687h3.776v5.853c0,2.722-0.918,5.479-4.594,5.479h-0.851c-3.913,0-4.729-2.791-4.729-5.343
		v-15.448c0-2.586,1.123-5.07,4.594-5.07h0.885c4.22,0,4.695,2.791,4.695,5.274v4.525h-3.776V299.5c0-1.089-0.341-1.668-1.293-1.668
		c-0.953,0-1.191,0.545-1.191,1.668v15.04c0,1.156,0.408,1.735,1.226,1.735c0.918,0,1.259-0.646,1.259-1.701V308.687z"/>
	<path class="st2" d="M180.394,308.687h3.776v5.853c0,2.722-0.918,5.479-4.594,5.479h-0.851c-3.913,0-4.729-2.791-4.729-5.343
		v-15.448c0-2.586,1.123-5.07,4.594-5.07h0.885c4.22,0,4.695,2.791,4.695,5.274v4.525h-3.776V299.5c0-1.089-0.341-1.668-1.293-1.668
		c-0.953,0-1.191,0.545-1.191,1.668v15.04c0,1.156,0.408,1.735,1.226,1.735c0.918,0,1.259-0.646,1.259-1.701V308.687z"/>
	<path class="st2" d="M194.275,294.395v3.675h-4.899v6.636h3.845v3.845h-3.845v7.316h5.104v3.845h-8.949v-25.316H194.275z"/>
	<path class="st2" d="M200.944,294.157c3.164,0,4.389,1.396,4.389,4.39v4.151h-3.709v-3.641c0-0.851-0.17-1.497-1.089-1.497
		c-0.918,0-1.122,0.578-1.122,1.77v0.476c0,1.43,0.271,2.212,1.564,3.88l2.45,3.164c1.735,2.246,2.28,3.505,2.28,6.397v0.816
		c0,3.709-1.565,5.921-4.968,5.921h-0.749c-3.097,0-4.695-1.668-4.695-4.798v-5.07h3.811v4.424c0,1.19,0.408,1.77,1.259,1.77
		c0.919,0,1.259-0.579,1.259-2.178v-0.579c0-1.837-0.17-2.416-1.564-4.253l-2.45-3.131c-1.634-2.109-2.109-3.743-2.109-6.261v-0.816
		c0-3.403,1.701-4.935,4.729-4.935H200.944z"/>
	<path class="st2" d="M212.273,294.157c3.165,0,4.39,1.396,4.39,4.39v4.151h-3.709v-3.641c0-0.851-0.17-1.497-1.089-1.497
		s-1.123,0.578-1.123,1.77v0.476c0,1.43,0.272,2.212,1.565,3.88l2.45,3.164c1.735,2.246,2.279,3.505,2.279,6.397v0.816
		c0,3.709-1.565,5.921-4.968,5.921h-0.749c-3.096,0-4.695-1.668-4.695-4.798v-5.07h3.812v4.424c0,1.19,0.408,1.77,1.259,1.77
		c0.919,0,1.259-0.579,1.259-2.178v-0.579c0-1.837-0.17-2.416-1.565-4.253l-2.45-3.131c-1.633-2.109-2.109-3.743-2.109-6.261v-0.816
		c0-3.403,1.701-4.935,4.729-4.935H212.273z"/>
	<path class="st2" d="M228.673,314.063c0,3.539-1.19,5.955-4.899,5.955h-0.646c-3.675,0-4.968-2.416-4.968-5.955v-14.087
		c0-3.539,1.293-5.819,4.934-5.819h0.646c3.743,0,4.934,2.314,4.934,5.785V314.063z M224.76,299.772c0-1.293-0.442-1.94-1.327-1.94
		c-0.986,0-1.36,0.613-1.36,1.94v14.563c0,1.089,0.306,1.939,1.395,1.939c1.055,0,1.293-0.851,1.293-1.939V299.772z"/>
	<path class="st2" d="M233.605,294.395h5.887c3.3,0,4.321,1.872,4.321,4.866v15.414c0,3.131-1.157,5.036-4.321,5.036h-5.887V294.395
		z M237.45,316.037h0.919c1.19,0,1.497-0.612,1.497-1.974v-14.258c0-1.463-0.374-1.974-1.327-1.974h-1.089V316.037z"/>
	<path class="st2" d="M249.153,319.712h-3.845v-25.316h3.845V319.712z"/>
</g>
<g>
</g>
<g>
	<path class="st2" d="M151.848,328.42h3.913l1.735,17.422l1.77-17.422h3.641l-3.199,25.316h-4.661L151.848,328.42z"/>
	<path class="st2" d="M172.467,328.42v3.675h-4.899v6.636h3.845v3.845h-3.845v7.316h5.104v3.845h-8.949V328.42H172.467z"/>
	<path class="st2" d="M177.637,328.42v21.403h4.696v3.913h-8.541V328.42H177.637z"/>
	<path class="st2" d="M193.868,348.087c0,3.539-1.191,5.955-4.9,5.955h-0.646c-3.675,0-4.968-2.416-4.968-5.955v-14.087
		c0-3.539,1.293-5.819,4.934-5.819h0.646c3.743,0,4.935,2.314,4.935,5.785V348.087z M189.955,333.796c0-1.294-0.442-1.94-1.327-1.94
		c-0.987,0-1.361,0.613-1.361,1.94v14.563c0,1.089,0.307,1.939,1.396,1.939c1.055,0,1.293-0.851,1.293-1.939V333.796z"/>
	<path class="st2" d="M201.625,342.712h3.776v5.853c0,2.722-0.918,5.479-4.594,5.479h-0.851c-3.913,0-4.729-2.791-4.729-5.343
		v-15.448c0-2.586,1.123-5.07,4.594-5.07h0.885c4.22,0,4.695,2.791,4.695,5.274v4.525h-3.776v-4.457
		c0-1.089-0.341-1.668-1.293-1.668c-0.953,0-1.191,0.545-1.191,1.668v15.04c0,1.156,0.408,1.735,1.226,1.735
		c0.918,0,1.259-0.646,1.259-1.701V342.712z"/>
	<path class="st2" d="M210.606,353.736h-3.845V328.42h3.845V353.736z"/>
</g>
<g>
	<path class="st2" d="M221.802,328.42v3.675h-3.232v21.642h-3.812v-21.642h-3.232v-3.675H221.802z"/>
	<path class="st2" d="M228.809,348.972h-2.824l-0.476,4.764h-3.438l3.097-25.316h4.56l3.301,25.316h-3.709L228.809,348.972z
		 M225.918,327.433l-1.497-3.709h3.198l1.429,3.709H225.918z M226.394,345.195h2.007l-1.021-9.357L226.394,345.195z"/>
</g>
<g>
	<path class="st2" d="M291.106,324.711h3.913v20.042c0,1.089,0.374,1.804,1.225,1.804c0.919,0,1.26-0.681,1.26-1.804v-20.042h3.912
		v19.804c0,3.573-1.429,5.819-4.831,5.819h-0.681c-3.402,0-4.798-2.145-4.798-5.819V324.711z"/>
	<path class="st2" d="M308.254,324.472c3.164,0,4.39,1.396,4.39,4.39v4.151h-3.709v-3.641c0-0.851-0.17-1.497-1.089-1.497
		s-1.123,0.578-1.123,1.77v0.476c0,1.43,0.272,2.212,1.565,3.88l2.449,3.164c1.735,2.246,2.28,3.505,2.28,6.397v0.816
		c0,3.709-1.565,5.921-4.968,5.921h-0.749c-3.097,0-4.695-1.668-4.695-4.798v-5.07h3.811v4.424c0,1.19,0.408,1.77,1.26,1.77
		c0.918,0,1.259-0.579,1.259-2.178v-0.579c0-1.837-0.17-2.416-1.565-4.253l-2.45-3.131c-1.633-2.109-2.109-3.743-2.109-6.261v-0.816
		c0-3.403,1.701-4.935,4.729-4.935H308.254z"/>
	<path class="st2" d="M324.654,344.379c0,3.539-1.191,5.955-4.9,5.955h-0.646c-3.675,0-4.968-2.416-4.968-5.955v-14.087
		c0-3.539,1.293-5.819,4.934-5.819h0.646c3.743,0,4.935,2.314,4.935,5.785V344.379z M320.741,330.087c0-1.294-0.442-1.94-1.327-1.94
		c-0.987,0-1.361,0.613-1.361,1.94v14.563c0,1.089,0.307,1.939,1.395,1.939c1.056,0,1.294-0.851,1.294-1.939V330.087z"/>
	<path class="st2" d="M329.585,324.711h5.887c3.301,0,4.322,1.872,4.322,4.866v15.414c0,3.131-1.157,5.036-4.322,5.036h-5.887
		V324.711z M333.43,346.352h0.919c1.19,0,1.497-0.612,1.497-1.974v-14.258c0-1.463-0.375-1.974-1.327-1.974h-1.089V346.352z"/>
	<path class="st2" d="M350.034,324.711v3.675h-4.899v6.636h3.845v3.845h-3.845v7.316h5.104v3.845h-8.949v-25.316H350.034z"/>
	<path class="st2" d="M355.205,324.711v21.403h4.695v3.913h-8.541v-25.316H355.205z"/>
	<path class="st2" d="M364.868,324.711v21.403h4.695v3.913h-8.541v-25.316H364.868z"/>
	<path class="st2" d="M381.097,344.379c0,3.539-1.191,5.955-4.9,5.955h-0.646c-3.675,0-4.968-2.416-4.968-5.955v-14.087
		c0-3.539,1.293-5.819,4.934-5.819h0.646c3.743,0,4.935,2.314,4.935,5.785V344.379z M377.184,330.087c0-1.294-0.442-1.94-1.327-1.94
		c-0.987,0-1.361,0.613-1.361,1.94v14.563c0,1.089,0.307,1.939,1.395,1.939c1.056,0,1.294-0.851,1.294-1.939V330.087z"/>
</g>
<g>
	<path class="st2" d="M283.982,358.511c3.165,0,4.39,1.396,4.39,4.39v4.151h-3.709v-3.641c0-0.851-0.17-1.497-1.089-1.497
		s-1.123,0.578-1.123,1.77v0.476c0,1.43,0.272,2.212,1.565,3.88l2.45,3.164c1.735,2.246,2.279,3.505,2.279,6.397v0.816
		c0,3.709-1.565,5.921-4.968,5.921h-0.749c-3.096,0-4.695-1.668-4.695-4.798v-5.07h3.812v4.424c0,1.19,0.408,1.77,1.259,1.77
		c0.919,0,1.259-0.579,1.259-2.178v-0.579c0-1.837-0.17-2.416-1.565-4.253l-2.45-3.131c-1.633-2.109-2.109-3.743-2.109-6.261v-0.816
		c0-3.403,1.701-4.935,4.729-4.935H283.982z"/>
	<path class="st2" d="M289.97,358.75h4.934l1.838,13.373l1.871-13.373h4.594v25.316h-3.606v-16.367l-2.313,16.367h-1.531
		l-2.349-16.367v16.367h-3.437V358.75z"/>
	<path class="st2" d="M310.69,379.302h-2.824l-0.477,4.764h-3.437l3.097-25.316h4.56l3.301,25.316h-3.709L310.69,379.302z
		 M308.274,375.525h2.008l-1.021-9.357L308.274,375.525z"/>
	<path class="st2" d="M319.502,384.066h-3.846V358.75h6.228c2.586,0,3.845,1.055,3.845,3.913v4.492c0,2.109-0.986,2.96-1.667,3.232
		c0.851,0.374,1.667,1.021,1.667,2.756v8.881c0,1.056,0.204,1.498,0.374,1.872v0.17h-3.811c-0.17-0.272-0.374-0.715-0.374-2.075
		v-7.622c0-1.123-0.204-1.6-1.43-1.6h-0.986V384.066z M319.502,369.162h1.021c1.055,0,1.396-0.68,1.396-1.803v-3.539
		c0-1.089-0.204-1.634-1.396-1.634h-1.021V369.162z"/>
	<path class="st2" d="M336.99,358.75v3.675h-3.232v21.642h-3.811v-21.642h-3.232v-3.675H336.99z"/>
	<path class="st2" d="M341.923,373.551v10.515h-3.846V358.75h6.091c2.723,0,3.947,1.157,3.947,4.186v5.989
		c0,2.994-1.327,4.627-3.947,4.627H341.923z M341.923,369.911h0.986c1.191,0,1.327-0.782,1.327-1.838v-4.15
		c0-0.987-0.204-1.736-1.327-1.736h-0.986V369.911z"/>
	<path class="st2" d="M353.253,384.066h-3.846V358.75h3.846v10.141h2.62V358.75h3.845v25.316h-3.845v-11.127h-2.62V384.066z"/>
	<path class="st2" d="M371.694,378.418c0,3.539-1.191,5.955-4.9,5.955h-0.646c-3.675,0-4.968-2.416-4.968-5.955v-14.087
		c0-3.539,1.293-5.819,4.934-5.819h0.646c3.743,0,4.935,2.314,4.935,5.785V378.418z M367.781,364.127c0-1.294-0.442-1.94-1.327-1.94
		c-0.987,0-1.361,0.613-1.361,1.94v14.563c0,1.089,0.306,1.939,1.396,1.939c1.055,0,1.293-0.851,1.293-1.939V364.127z"/>
	<path class="st2" d="M376.626,358.75l3.301,13.577V358.75h3.505v25.316h-3.13l-3.676-14.563v14.563h-3.471V358.75H376.626z"/>
	<path class="st2" d="M393.74,358.75v3.675h-4.899v6.636h3.845v3.845h-3.845v7.316h5.104v3.845h-8.949V358.75H393.74z"/>
</g>
</svg>