<!-- Generator: Adobe Illustrator 23.0.3, SVG Export Plug-In  -->
<svg version="1.1" xmlns="http://www.w3.org/2000/svg" xmlns:xlink="http://www.w3.org/1999/xlink" x="0px" y="0px"
	 width="455.859px" height="430.646px" viewBox="0 0 455.859 430.646" style="enable-background:new 0 0 455.859 430.646;"
	 xml:space="preserve">
<style type="text/css">
	.st0{fill:#3D3D3B;}
	.st1{fill:#2161D9;}
	.st2{fill:#7D9CD4;}
	.st3{clip-path:url(#SVGID_17_);fill:#7D9CD4;}
	.st4{clip-path:url(#SVGID_18_);fill:#7D9CD4;}
	.st5{clip-path:url(#SVGID_19_);fill:#7D9CD4;}
	.st6{clip-path:url(#SVGID_20_);fill:#7D9CD4;}
	.st7{clip-path:url(#SVGID_22_);fill:#7D9CD4;}
	.st8{clip-path:url(#SVGID_24_);fill:#7D9CD4;}
	.st9{clip-path:url(#SVGID_26_);fill:#7D9CD4;}
	.st10{clip-path:url(#SVGID_28_);fill:#7D9CD4;}
	.st11{clip-path:url(#SVGID_30_);fill:#7D9CD4;}
	.st12{clip-path:url(#SVGID_32_);fill:#7D9CD4;}
	.st13{clip-path:url(#SVGID_34_);fill:#7D9CD4;}
	.st14{clip-path:url(#SVGID_36_);fill:#7D9CD4;}
	.st15{clip-path:url(#SVGID_37_);fill:#7D9CD4;}
	.st16{clip-path:url(#SVGID_38_);fill:#7D9CD4;}
	.st17{clip-path:url(#SVGID_39_);fill:#7D9CD4;}
	.st18{clip-path:url(#SVGID_40_);fill:#7D9CD4;}
	.st19{clip-path:url(#SVGID_42_);fill:#7D9CD4;}
	.st20{clip-path:url(#SVGID_44_);fill:#7D9CD4;}
	.st21{clip-path:url(#SVGID_46_);fill:#7D9CD4;}
	.st22{clip-path:url(#SVGID_48_);fill:#7D9CD4;}
	.st23{clip-path:url(#SVGID_50_);fill:#7D9CD4;}
	.st24{clip-path:url(#SVGID_52_);fill:#7D9CD4;}
	.st25{clip-path:url(#SVGID_54_);fill:#7D9CD4;}
	.st26{clip-path:url(#SVGID_56_);fill:#7D9CD4;}
	.st27{clip-path:url(#SVGID_57_);fill:#7D9CD4;}
	.st28{clip-path:url(#SVGID_58_);fill:#7D9CD4;}
	.st29{clip-path:url(#SVGID_59_);fill:#7D9CD4;}
	.st30{clip-path:url(#SVGID_60_);fill:#7D9CD4;}
	.st31{clip-path:url(#SVGID_61_);fill:#7D9CD4;}
	.st32{clip-path:url(#SVGID_62_);fill:#7D9CD4;}
	.st33{clip-path:url(#SVGID_63_);fill:#7D9CD4;}
	.st34{clip-path:url(#SVGID_64_);fill:#7D9CD4;}
</style>
<defs>
</defs>
<g>
	<g>
		<path class="st0" d="M455.859,215.323c0,118.92-96.403,215.323-215.323,215.323S25.213,334.243,25.213,215.323
			C25.213,96.404,121.616,0,240.536,0S455.859,96.404,455.859,215.323"/>
	</g>
	<g>
		<path class="st1" d="M0.923,172.627h6.945c3.894,0,5.099,2.208,5.099,5.74v18.187c0,3.693-1.365,5.941-5.099,5.941H0.923V172.627z
			 M5.46,198.16h1.084c1.405,0,1.766-0.723,1.766-2.328V179.01c0-1.727-0.441-2.328-1.565-2.328H5.46V198.16z"/>
		<path class="st1" d="M19.271,202.496h-4.537v-29.868h7.347c3.051,0,4.537,1.244,4.537,4.616v5.3c0,2.488-1.165,3.492-1.967,3.813
			c1.004,0.441,1.967,1.204,1.967,3.252v10.478c0,1.245,0.241,1.767,0.441,2.208v0.201h-4.496c-0.201-0.321-0.442-0.843-0.442-2.449
			v-8.992c0-1.325-0.241-1.887-1.686-1.887h-1.164V202.496z M19.271,184.912h1.204c1.245,0,1.646-0.803,1.646-2.128v-4.175
			c0-1.285-0.241-1.927-1.646-1.927h-1.204V184.912z"/>
	</g>
	<g>
		<path class="st1" d="M35.41,196.876h-3.332l-0.562,5.62h-4.055l3.653-29.868h5.379l3.894,29.868h-4.376L35.41,196.876z
			 M32.56,192.419h2.368l-1.204-11.041L32.56,192.419z"/>
		<path class="st1" d="M41.271,172.627h5.821l2.168,15.777l2.208-15.777h5.419v29.868h-4.255v-19.311l-2.73,19.311h-1.807
			l-2.77-19.311v19.311h-4.055V172.627z"/>
	</g>
	<g>
		<path class="st1" d="M58.495,172.627h5.821l2.168,15.777l2.208-15.777h5.419v29.868h-4.255v-19.311l-2.73,19.311H65.32
			l-2.77-19.311v19.311h-4.055V172.627z"/>
		<path class="st1" d="M82.945,196.876h-3.332l-0.562,5.62h-4.055l3.653-29.868h5.379l3.894,29.868h-4.376L82.945,196.876z
			 M80.095,192.419h2.368l-1.204-11.041L80.095,192.419z"/>
	</g>
	<g>
		<path class="st1" d="M99.164,172.627v4.335H95.35v25.533h-4.496v-25.533H87.04v-4.335H99.164z"/>
		<path class="st1" d="M104.986,202.496h-4.537v-29.868h4.537V202.496z"/>
		<path class="st1" d="M114.26,189.489h4.456v6.904c0,3.212-1.084,6.464-5.42,6.464h-1.003c-4.617,0-5.581-3.292-5.581-6.303
			v-18.227c0-3.051,1.325-5.981,5.42-5.981h1.044c4.978,0,5.54,3.292,5.54,6.223v5.339h-4.456v-5.259
			c0-1.284-0.402-1.967-1.526-1.967s-1.405,0.642-1.405,1.967v17.744c0,1.365,0.481,2.048,1.445,2.048
			c1.084,0,1.486-0.763,1.486-2.008V189.489z"/>
		<path class="st1" d="M132.606,195.832c0,4.175-1.405,7.025-5.781,7.025h-0.763c-4.335,0-5.861-2.851-5.861-7.025v-16.62
			c0-4.176,1.526-6.865,5.821-6.865h0.763c4.416,0,5.821,2.729,5.821,6.824V195.832z M127.99,178.97
			c0-1.525-0.522-2.288-1.566-2.288c-1.164,0-1.605,0.723-1.605,2.288v17.183c0,1.284,0.361,2.288,1.646,2.288
			c1.245,0,1.526-1.004,1.526-2.288V178.97z"/>
		<path class="st1" d="M147.02,183.426c2.489,0,3.292,2.048,3.292,3.533v9.916c0,3.211-1.526,5.981-5.54,5.981h-0.843
			c-4.015,0-5.58-2.689-5.58-5.781v-18.868c0-3.653,1.445-5.861,5.299-5.861h0.803c3.733,0,5.299,1.967,5.299,4.697v4.416h-4.617
			v-3.413c0-0.682-0.161-1.445-1.084-1.445s-1.084,0.764-1.084,1.445v8.069c0.763-1.164,2.047-2.689,3.894-2.689H147.02z
			 M145.654,196.674v-7.267c0-1.244-0.441-1.847-1.325-1.847s-1.325,0.603-1.325,1.767v7.347c0,1.245,0.441,1.887,1.325,1.887
			S145.654,197.919,145.654,196.674z"/>
		<path class="st1" d="M160.509,183.426c2.489,0,3.292,2.048,3.292,3.533v9.916c0,3.211-1.526,5.981-5.54,5.981h-0.843
			c-4.015,0-5.58-2.689-5.58-5.781v-18.868c0-3.653,1.445-5.861,5.299-5.861h0.803c3.733,0,5.299,1.967,5.299,4.697v4.416h-4.617
			v-3.413c0-0.682-0.161-1.445-1.084-1.445s-1.084,0.764-1.084,1.445v8.069c0.763-1.164,2.047-2.689,3.894-2.689H160.509z
			 M159.144,196.674v-7.267c0-1.244-0.441-1.847-1.325-1.847s-1.325,0.603-1.325,1.767v7.347c0,1.245,0.441,1.887,1.325,1.887
			S159.144,197.919,159.144,196.674z"/>
		<path class="st1" d="M165.046,176.321c0-2.529,1.445-3.895,3.693-3.895h0.763c2.249,0,3.613,1.445,3.613,3.895v5.78
			c0,2.369-1.325,3.895-3.613,3.895h-0.763c-2.127,0-3.693-1.325-3.693-3.895V176.321z M180.743,172.627l-10.759,29.868h-2.971
			l10.759-29.868H180.743z M169.863,176.361c0-0.522-0.241-0.924-0.843-0.924c-0.482,0-0.723,0.401-0.723,0.924v5.66
			c0,0.522,0.241,0.924,0.723,0.924c0.602,0,0.843-0.401,0.843-0.924V176.361z M174.561,192.981c0-2.529,1.445-3.895,3.693-3.895
			h0.723c2.248,0,3.613,1.445,3.613,3.895v5.781c0,2.368-1.285,3.894-3.573,3.894h-0.763c-2.128,0-3.693-1.324-3.693-3.894V192.981z
			 M179.338,198.682v-5.661c0-0.521-0.201-0.923-0.803-0.923c-0.522,0-0.723,0.401-0.723,0.923v5.661
			c0,0.481,0.201,0.923,0.723,0.923C179.137,199.605,179.338,199.164,179.338,198.682z"/>
	</g>
	<rect x="0.51" y="220.581" class="st2" width="4.537" height="29.868"/>
	<g>
		<defs>
			<path id="SVGID_16_" d="M11.047,224.635h1.204c1.406,0,1.646,0.643,1.646,1.927v4.175c0,1.325-0.401,2.128-1.646,2.128h-1.204
				V224.635z M6.511,220.581v29.868h4.536v-13.328h1.164c1.446,0,1.686,0.562,1.686,1.887V248c0,1.606,0.241,2.128,0.442,2.449
				h4.496v-0.201c-0.2-0.441-0.442-0.963-0.442-2.207v-10.479c0-2.047-0.963-2.81-1.966-3.252c0.803-0.321,1.966-1.324,1.966-3.813
				v-5.3c0-3.372-1.485-4.616-4.536-4.616H6.511z"/>
		</defs>
		<clipPath id="SVGID_17_">
			<use xlink:href="#SVGID_16_"  style="overflow:visible;"/>
		</clipPath>
		<rect x="5.087" y="207.449" class="st3" width="66" height="66"/>
	</g>
	<g>
		<defs>
			<path id="SVGID_15_" d="M25.006,244.106v-17.182c0-1.566,0.442-2.289,1.606-2.289c1.044,0,1.566,0.763,1.566,2.289v17.182
				c0,1.285-0.281,2.289-1.525,2.289C25.368,246.395,25.006,245.391,25.006,244.106 M26.211,220.299
				c-4.295,0-5.821,2.69-5.821,6.865v16.621c0,4.175,1.526,7.025,5.861,7.025h0.763c4.375,0,5.781-2.85,5.781-7.025v-16.66
				c0-4.095-1.406-6.826-5.821-6.826H26.211z"/>
		</defs>
		<clipPath id="SVGID_18_">
			<use xlink:href="#SVGID_15_"  style="overflow:visible;"/>
		</clipPath>
		<rect x="5.087" y="207.449" class="st4" width="66" height="66"/>
	</g>
	<polygon class="st2" points="41.499,220.581 41.499,236.599 37.605,220.581 33.511,220.581 33.511,250.449 37.605,250.449 
		37.605,233.267 41.941,250.449 45.634,250.449 45.634,220.581 	"/>
	<rect x="47.51" y="220.581" class="st2" width="4.537" height="29.868"/>
	<g>
		<defs>
			<path id="SVGID_14_" d="M58.81,220.299c-4.095,0-5.42,2.931-5.42,5.983v18.225c0,3.012,0.964,6.303,5.581,6.303h1.002
				c4.337,0,5.421-3.252,5.421-6.463v-6.905h-4.457v6.945c0,1.244-0.401,2.008-1.485,2.008c-0.964,0-1.445-0.683-1.445-2.048
				v-17.744c0-1.325,0.281-1.968,1.405-1.968s1.525,0.683,1.525,1.968v5.259h4.457v-5.34c0-2.931-0.562-6.223-5.54-6.223H58.81z"/>
		</defs>
		<clipPath id="SVGID_19_">
			<use xlink:href="#SVGID_14_"  style="overflow:visible;"/>
		</clipPath>
		<rect x="5.087" y="207.449" class="st5" width="66" height="66"/>
	</g>
	<g>
		<defs>
			<path id="SVGID_13_" d="M66.39,227.164v16.621c0,3.777,1.249,6.47,4.697,6.949v-5.706c-0.057-0.281-0.081-0.592-0.081-0.922
				v-17.182c0-0.377,0.026-0.706,0.081-0.987v-5.569C67.647,220.81,66.39,223.376,66.39,227.164"/>
		</defs>
		<clipPath id="SVGID_20_">
			<use xlink:href="#SVGID_13_"  style="overflow:visible;"/>
		</clipPath>
		<rect x="5.087" y="207.449" class="st6" width="66" height="66"/>
	</g>
	<g>
		<defs>
			<path id="SVGID_12_" d="M71.006,244.106v-17.182c0-1.566,0.442-2.289,1.606-2.289c1.044,0,1.566,0.763,1.566,2.289v17.182
				c0,1.285-0.281,2.289-1.526,2.289C71.368,246.395,71.006,245.391,71.006,244.106 M72.211,220.299
				c-0.802,0-1.508,0.094-2.124,0.274v29.942c0.627,0.193,1.345,0.295,2.164,0.295h0.763c4.376,0,5.781-2.85,5.781-7.025v-16.66
				c0-4.095-1.405-6.826-5.821-6.826H72.211z"/>
		</defs>
		<clipPath id="SVGID_22_">
			<use xlink:href="#SVGID_12_"  style="overflow:visible;"/>
		</clipPath>
		<rect x="70.087" y="207.449" class="st7" width="66" height="66"/>
	</g>
	<g>
		<defs>
			<path id="SVGID_11_" d="M89.248,220.299c-3.694,0-4.697,3.132-4.697,5.5v3.774h4.215v-3.372c0-1.244,0.321-1.606,1.123-1.606
				c0.844,0,1.165,0.401,1.165,1.646v4.175c0,1.325-0.16,1.687-1.284,1.687h-2.128v4.656h2.449c1.083,0,1.204,0.442,1.204,1.526
				v6.222c0,1.165-0.401,1.767-1.245,1.767c-0.883,0-1.324-0.602-1.324-1.767v-4.897h-4.497v6.062c0,2.85,1.405,5.138,5.26,5.138
				h1.244c3.212,0,5.259-2.248,5.259-5.901v-7.347c0-2.208-0.763-3.051-2.168-3.573c1.085-0.522,1.887-1.605,1.887-4.697v-3.412
				c0-3.333-1.606-5.581-5.339-5.581H89.248z"/>
		</defs>
		<clipPath id="SVGID_24_">
			<use xlink:href="#SVGID_11_"  style="overflow:visible;"/>
		</clipPath>
		<rect x="70.087" y="207.449" class="st8" width="66" height="66"/>
	</g>
	<g>
		<defs>
			<path id="SVGID_10_" d="M104.051,231.179v7.949h-2.731C102.325,236.438,103.248,233.788,104.051,231.179 M104.572,220.46
				c-1.405,4.376-5.018,14.573-6.704,19.029v3.734h6.183v7.226h4.456v-7.226h2.77v-4.095h-2.77V220.46H104.572z"/>
		</defs>
		<clipPath id="SVGID_26_">
			<use xlink:href="#SVGID_10_"  style="overflow:visible;"/>
		</clipPath>
		<rect x="70.087" y="207.449" class="st9" width="66" height="66"/>
	</g>
	<g>
		<defs>
			<path id="SVGID_9_" d="M122.916,246.635v-5.66c0-0.522,0.2-0.923,0.722-0.923c0.603,0,0.803,0.401,0.803,0.923v5.66
				c0,0.482-0.2,0.923-0.803,0.923C123.116,247.558,122.916,247.117,122.916,246.635 M123.357,237.04
				c-2.248,0-3.693,1.365-3.693,3.894v5.781c0,2.57,1.565,3.894,3.693,3.894h0.763c2.289,0,3.573-1.525,3.573-3.894v-5.781
				c0-2.449-1.365-3.894-3.614-3.894H123.357z M122.875,220.581l-10.758,29.868h2.97l10.759-29.868H122.875z M113.401,229.975
				v-5.661c0-0.522,0.241-0.923,0.723-0.923c0.602,0,0.842,0.401,0.842,0.923v5.661c0,0.522-0.24,0.924-0.842,0.924
				C113.642,230.899,113.401,230.497,113.401,229.975 M113.843,220.38c-2.248,0-3.694,1.365-3.694,3.895v5.78
				c0,2.57,1.565,3.895,3.694,3.895h0.762c2.289,0,3.614-1.526,3.614-3.895v-5.78c0-2.45-1.366-3.895-3.614-3.895H113.843z"/>
		</defs>
		<clipPath id="SVGID_28_">
			<use xlink:href="#SVGID_9_"  style="overflow:visible;"/>
		</clipPath>
		<rect x="70.087" y="207.449" class="st10" width="66" height="66"/>
	</g>
	<g>
		<path class="st1" d="M0.923,172.627h6.945c3.894,0,5.099,2.208,5.099,5.74v18.187c0,3.693-1.365,5.941-5.099,5.941H0.923V172.627z
			 M5.46,198.16h1.084c1.405,0,1.766-0.723,1.766-2.328V179.01c0-1.727-0.441-2.328-1.565-2.328H5.46V198.16z"/>
		<path class="st1" d="M19.271,202.496h-4.537v-29.868h7.347c3.051,0,4.537,1.244,4.537,4.616v5.3c0,2.488-1.165,3.492-1.967,3.813
			c1.004,0.441,1.967,1.204,1.967,3.252v10.478c0,1.245,0.241,1.767,0.441,2.208v0.201h-4.496c-0.201-0.321-0.442-0.843-0.442-2.449
			v-8.992c0-1.325-0.241-1.887-1.686-1.887h-1.164V202.496z M19.271,184.912h1.204c1.245,0,1.646-0.803,1.646-2.128v-4.175
			c0-1.285-0.241-1.927-1.646-1.927h-1.204V184.912z"/>
	</g>
	<g>
		<path class="st1" d="M35.41,196.876h-3.332l-0.562,5.62h-4.055l3.653-29.868h5.379l3.894,29.868h-4.376L35.41,196.876z
			 M32.56,192.419h2.368l-1.204-11.041L32.56,192.419z"/>
		<path class="st1" d="M41.271,172.627h5.821l2.168,15.777l2.208-15.777h5.419v29.868h-4.255v-19.311l-2.73,19.311h-1.807
			l-2.77-19.311v19.311h-4.055V172.627z"/>
	</g>
	<g>
		<path class="st1" d="M58.495,172.627h5.821l2.168,15.777l2.208-15.777h5.419v29.868h-4.255v-19.311l-2.73,19.311H65.32
			l-2.77-19.311v19.311h-4.055V172.627z"/>
		<path class="st1" d="M82.945,196.876h-3.332l-0.562,5.62h-4.055l3.653-29.868h5.379l3.894,29.868h-4.376L82.945,196.876z
			 M80.095,192.419h2.368l-1.204-11.041L80.095,192.419z"/>
	</g>
	<g>
		<path class="st1" d="M99.164,172.627v4.335H95.35v25.533h-4.496v-25.533H87.04v-4.335H99.164z"/>
		<path class="st1" d="M104.986,202.496h-4.537v-29.868h4.537V202.496z"/>
		<path class="st1" d="M114.26,189.489h4.456v6.904c0,3.212-1.084,6.464-5.42,6.464h-1.003c-4.617,0-5.581-3.292-5.581-6.303
			v-18.227c0-3.051,1.325-5.981,5.42-5.981h1.044c4.978,0,5.54,3.292,5.54,6.223v5.339h-4.456v-5.259
			c0-1.284-0.402-1.967-1.526-1.967s-1.405,0.642-1.405,1.967v17.744c0,1.365,0.481,2.048,1.445,2.048
			c1.084,0,1.486-0.763,1.486-2.008V189.489z"/>
		<path class="st1" d="M132.606,195.832c0,4.175-1.405,7.025-5.781,7.025h-0.763c-4.335,0-5.861-2.851-5.861-7.025v-16.62
			c0-4.176,1.526-6.865,5.821-6.865h0.763c4.416,0,5.821,2.729,5.821,6.824V195.832z M127.99,178.97
			c0-1.525-0.522-2.288-1.566-2.288c-1.164,0-1.605,0.723-1.605,2.288v17.183c0,1.284,0.361,2.288,1.646,2.288
			c1.245,0,1.526-1.004,1.526-2.288V178.97z"/>
		<path class="st1" d="M147.02,183.426c2.489,0,3.292,2.048,3.292,3.533v9.916c0,3.211-1.526,5.981-5.54,5.981h-0.843
			c-4.015,0-5.58-2.689-5.58-5.781v-18.868c0-3.653,1.445-5.861,5.299-5.861h0.803c3.733,0,5.299,1.967,5.299,4.697v4.416h-4.617
			v-3.413c0-0.682-0.161-1.445-1.084-1.445s-1.084,0.764-1.084,1.445v8.069c0.763-1.164,2.047-2.689,3.894-2.689H147.02z
			 M145.654,196.674v-7.267c0-1.244-0.441-1.847-1.325-1.847s-1.325,0.603-1.325,1.767v7.347c0,1.245,0.441,1.887,1.325,1.887
			S145.654,197.919,145.654,196.674z"/>
		<path class="st1" d="M160.509,183.426c2.489,0,3.292,2.048,3.292,3.533v9.916c0,3.211-1.526,5.981-5.54,5.981h-0.843
			c-4.015,0-5.58-2.689-5.58-5.781v-18.868c0-3.653,1.445-5.861,5.299-5.861h0.803c3.733,0,5.299,1.967,5.299,4.697v4.416h-4.617
			v-3.413c0-0.682-0.161-1.445-1.084-1.445s-1.084,0.764-1.084,1.445v8.069c0.763-1.164,2.047-2.689,3.894-2.689H160.509z
			 M159.144,196.674v-7.267c0-1.244-0.441-1.847-1.325-1.847s-1.325,0.603-1.325,1.767v7.347c0,1.245,0.441,1.887,1.325,1.887
			S159.144,197.919,159.144,196.674z"/>
		<path class="st1" d="M165.046,176.321c0-2.529,1.445-3.895,3.693-3.895h0.763c2.249,0,3.613,1.445,3.613,3.895v5.78
			c0,2.369-1.325,3.895-3.613,3.895h-0.763c-2.127,0-3.693-1.325-3.693-3.895V176.321z M180.743,172.627l-10.759,29.868h-2.971
			l10.759-29.868H180.743z M169.863,176.361c0-0.522-0.241-0.924-0.843-0.924c-0.482,0-0.723,0.401-0.723,0.924v5.66
			c0,0.522,0.241,0.924,0.723,0.924c0.602,0,0.843-0.401,0.843-0.924V176.361z M174.561,192.981c0-2.529,1.445-3.895,3.693-3.895
			h0.723c2.248,0,3.613,1.445,3.613,3.895v5.781c0,2.368-1.285,3.894-3.573,3.894h-0.763c-2.128,0-3.693-1.324-3.693-3.894V192.981z
			 M179.338,198.682v-5.661c0-0.521-0.201-0.923-0.803-0.923c-0.522,0-0.723,0.401-0.723,0.923v5.661
			c0,0.481,0.201,0.923,0.723,0.923C179.137,199.605,179.338,199.164,179.338,198.682z"/>
	</g>
	<rect x="0.51" y="220.581" class="st2" width="4.537" height="29.868"/>
	<g>
		<defs>
			<path id="SVGID_8_" d="M11.047,224.635h1.204c1.406,0,1.646,0.643,1.646,1.927v4.175c0,1.325-0.401,2.128-1.646,2.128h-1.204
				V224.635z M6.511,220.581v29.868h4.536v-13.328h1.164c1.446,0,1.686,0.562,1.686,1.887V248c0,1.606,0.241,2.128,0.442,2.449
				h4.496v-0.201c-0.2-0.441-0.442-0.963-0.442-2.207v-10.479c0-2.047-0.963-2.81-1.966-3.252c0.803-0.321,1.966-1.324,1.966-3.813
				v-5.3c0-3.372-1.485-4.616-4.536-4.616H6.511z"/>
		</defs>
		<clipPath id="SVGID_30_">
			<use xlink:href="#SVGID_8_"  style="overflow:visible;"/>
		</clipPath>
		<rect x="5.087" y="207.449" class="st11" width="66" height="66"/>
	</g>
	<g>
		<defs>
			<path id="SVGID_7_" d="M25.006,244.106v-17.182c0-1.566,0.442-2.289,1.606-2.289c1.044,0,1.566,0.763,1.566,2.289v17.182
				c0,1.285-0.281,2.289-1.525,2.289C25.368,246.395,25.006,245.391,25.006,244.106 M26.211,220.299
				c-4.295,0-5.821,2.69-5.821,6.865v16.621c0,4.175,1.526,7.025,5.861,7.025h0.763c4.375,0,5.781-2.85,5.781-7.025v-16.66
				c0-4.095-1.406-6.826-5.821-6.826H26.211z"/>
		</defs>
		<clipPath id="SVGID_32_">
			<use xlink:href="#SVGID_7_"  style="overflow:visible;"/>
		</clipPath>
		<rect x="5.087" y="207.449" class="st12" width="66" height="66"/>
	</g>
	<polygon class="st2" points="41.499,220.581 41.499,236.599 37.605,220.581 33.511,220.581 33.511,250.449 37.605,250.449 
		37.605,233.267 41.941,250.449 45.634,250.449 45.634,220.581 	"/>
	<rect x="47.51" y="220.581" class="st2" width="4.537" height="29.868"/>
	<g>
		<defs>
			<path id="SVGID_6_" d="M58.81,220.299c-4.095,0-5.42,2.931-5.42,5.983v18.225c0,3.012,0.964,6.303,5.581,6.303h1.002
				c4.337,0,5.421-3.252,5.421-6.463v-6.905h-4.457v6.945c0,1.244-0.401,2.008-1.485,2.008c-0.964,0-1.445-0.683-1.445-2.048
				v-17.744c0-1.325,0.281-1.968,1.405-1.968s1.525,0.683,1.525,1.968v5.259h4.457v-5.34c0-2.931-0.562-6.223-5.54-6.223H58.81z"/>
		</defs>
		<clipPath id="SVGID_34_">
			<use xlink:href="#SVGID_6_"  style="overflow:visible;"/>
		</clipPath>
		<rect x="5.087" y="207.449" class="st13" width="66" height="66"/>
	</g>
	<g>
		<defs>
			<path id="SVGID_5_" d="M66.39,227.164v16.621c0,3.777,1.249,6.47,4.697,6.949v-5.706c-0.057-0.281-0.081-0.592-0.081-0.922
				v-17.182c0-0.377,0.026-0.706,0.081-0.987v-5.569C67.647,220.81,66.39,223.376,66.39,227.164"/>
		</defs>
		<clipPath id="SVGID_36_">
			<use xlink:href="#SVGID_5_"  style="overflow:visible;"/>
		</clipPath>
		<rect x="5.087" y="207.449" class="st14" width="66" height="66"/>
	</g>
	<g>
		<defs>
			<path id="SVGID_4_" d="M71.006,244.106v-17.182c0-1.566,0.442-2.289,1.606-2.289c1.044,0,1.566,0.763,1.566,2.289v17.182
				c0,1.285-0.281,2.289-1.526,2.289C71.368,246.395,71.006,245.391,71.006,244.106 M72.211,220.299
				c-0.802,0-1.508,0.094-2.124,0.274v29.942c0.627,0.193,1.345,0.295,2.164,0.295h0.763c4.376,0,5.781-2.85,5.781-7.025v-16.66
				c0-4.095-1.405-6.826-5.821-6.826H72.211z"/>
		</defs>
		<clipPath id="SVGID_37_">
			<use xlink:href="#SVGID_4_"  style="overflow:visible;"/>
		</clipPath>
		<rect x="70.087" y="207.449" class="st15" width="66" height="66"/>
	</g>
	<g>
		<defs>
			<path id="SVGID_3_" d="M89.248,220.299c-3.694,0-4.697,3.132-4.697,5.5v3.774h4.215v-3.372c0-1.244,0.321-1.606,1.123-1.606
				c0.844,0,1.165,0.401,1.165,1.646v4.175c0,1.325-0.16,1.687-1.284,1.687h-2.128v4.656h2.449c1.083,0,1.204,0.442,1.204,1.526
				v6.222c0,1.165-0.401,1.767-1.245,1.767c-0.883,0-1.324-0.602-1.324-1.767v-4.897h-4.497v6.062c0,2.85,1.405,5.138,5.26,5.138
				h1.244c3.212,0,5.259-2.248,5.259-5.901v-7.347c0-2.208-0.763-3.051-2.168-3.573c1.085-0.522,1.887-1.605,1.887-4.697v-3.412
				c0-3.333-1.606-5.581-5.339-5.581H89.248z"/>
		</defs>
		<clipPath id="SVGID_38_">
			<use xlink:href="#SVGID_3_"  style="overflow:visible;"/>
		</clipPath>
		<rect x="70.087" y="207.449" class="st16" width="66" height="66"/>
	</g>
	<g>
		<defs>
			<path id="SVGID_2_" d="M104.051,231.179v7.949h-2.731C102.325,236.438,103.248,233.788,104.051,231.179 M104.572,220.46
				c-1.405,4.376-5.018,14.573-6.704,19.029v3.734h6.183v7.226h4.456v-7.226h2.77v-4.095h-2.77V220.46H104.572z"/>
		</defs>
		<clipPath id="SVGID_39_">
			<use xlink:href="#SVGID_2_"  style="overflow:visible;"/>
		</clipPath>
		<rect x="70.087" y="207.449" class="st17" width="66" height="66"/>
	</g>
	<g>
		<defs>
			<path id="SVGID_1_" d="M122.916,246.635v-5.66c0-0.522,0.2-0.923,0.722-0.923c0.603,0,0.803,0.401,0.803,0.923v5.66
				c0,0.482-0.2,0.923-0.803,0.923C123.116,247.558,122.916,247.117,122.916,246.635 M123.357,237.04
				c-2.248,0-3.693,1.365-3.693,3.894v5.781c0,2.57,1.565,3.894,3.693,3.894h0.763c2.289,0,3.573-1.525,3.573-3.894v-5.781
				c0-2.449-1.365-3.894-3.614-3.894H123.357z M122.875,220.581l-10.758,29.868h2.97l10.759-29.868H122.875z M113.401,229.975
				v-5.661c0-0.522,0.241-0.923,0.723-0.923c0.602,0,0.842,0.401,0.842,0.923v5.661c0,0.522-0.24,0.924-0.842,0.924
				C113.642,230.899,113.401,230.497,113.401,229.975 M113.843,220.38c-2.248,0-3.694,1.365-3.694,3.895v5.78
				c0,2.57,1.565,3.895,3.694,3.895h0.762c2.289,0,3.614-1.526,3.614-3.895v-5.78c0-2.45-1.366-3.895-3.614-3.895H113.843z"/>
		</defs>
		<clipPath id="SVGID_40_">
			<use xlink:href="#SVGID_1_"  style="overflow:visible;"/>
		</clipPath>
		<rect x="70.087" y="207.449" class="st18" width="66" height="66"/>
	</g>
</g>
<g>
	<path class="st1" d="M80.552,313.47 M241.61,70.948c79.545,0,144.03,64.484,144.03,144.03s-64.484,144.03-144.03,144.03
		c-52.921,0-99.176-28.542-124.211-71.072L80.552,313.47c33.182,54.144,92.901,90.267,161.057,90.267
		c104.249,0,188.759-84.51,188.759-188.759S345.858,26.219,241.61,26.219V70.948z"/>
</g>
<g>
	<path class="st2" d="M241.61,134.354c44.705,0,80.945,36.24,80.945,80.945c0,15.426-4.318,29.843-11.807,42.113l40.168,24.654
		c0.148-0.242,0.304-0.478,0.451-0.721c11.629-19.285,18.32-41.884,18.32-66.045c0-70.735-57.342-128.077-128.077-128.077h0
		L241.61,134.354L241.61,134.354z"/>
</g>
</svg>