<!-- Generator: Adobe Illustrator 23.0.3, SVG Export Plug-In  -->
<svg version="1.1" xmlns="http://www.w3.org/2000/svg" xmlns:xlink="http://www.w3.org/1999/xlink" x="0px" y="0px"
	 width="80.371px" height="421px" viewBox="0 0 80.371 421" style="enable-background:new 0 0 80.371 421;" xml:space="preserve">
<style type="text/css">
	.st0{fill:#94ABD4;}
</style>
<defs>
</defs>
<g>
	<path class="st0" d="M62.962,405.947c-2.067,0-3.489,0.027-4.268,0.081c-1.342,0.081-2.244-0.369-2.888-0.235
		c2.98-1.772,5.073-3.69,6.281-5.758c1.262-2.147,1.892-4.952,1.892-8.415c0-2.764-0.497-5.228-1.49-7.388
		c-0.993-2.16-2.51-4.1-4.55-5.818c-4-3.355-9.247-5.033-15.743-5.033c-6.764,0-12.065,1.678-15.904,5.033
		c-1.933,1.691-3.375,3.678-4.328,5.959c-0.952,2.282-1.429,4.859-1.429,7.731c0,2.845,0.66,5.382,1.98,7.61
		c1.455,2.362,3.488,4.416,6.102,6.16h-6.788c0,7.948,6.488,14.485,13.781,14.485l44.762-0.095v-14.316H62.962z M49.731,403.825
		c-1.848,1.687-4.353,2.531-7.514,2.531c-3.215,0-5.706-0.844-7.475-2.531c-1.821-1.58-2.732-3.83-2.732-6.75
		c0-2.893,0.911-5.169,2.732-6.83c1.796-1.634,4.287-2.451,7.475-2.451c3.134,0,5.639,0.817,7.514,2.451
		c1.796,1.634,2.693,3.911,2.693,6.83C52.424,400.022,51.527,402.271,49.731,403.825z"/>
	<path class="st0" d="M36.077,365.944h26.333V351.61H21.743C21.743,359.526,28.16,365.944,36.077,365.944z"/>
	<path class="st0" d="M29.997,328.499c-4.559,0-8.254,3.695-8.254,8.254v4.872h40.667v-14.092H45.337
		c-4.938,0-8.509-0.683-10.71-2.048c-2.201-1.392-3.302-3.561-3.302-6.506c0-2.355,0.739-4.055,2.215-5.1
		c1.423-1.044,3.785-1.566,7.086-1.566h21.783c0-7.961-6.454-14.415-14.415-14.415h-8.858c-3.65,0-6.589,0.229-8.818,0.686
		c-1.745,0.377-3.396,1.145-4.952,2.302c-1.556,1.265-2.792,2.92-3.704,4.966c-0.805,2.065-1.208,4.425-1.208,7.08
		c0,3.513,0.765,6.503,2.295,8.97C24.36,324.45,26.776,326.648,29.997,328.499z"/>
	<path class="st0" d="M62.409,274.551H44.331l18.079-15.341v-18.884l-21.098,19.931l-19.568-18.28v17.797l17.756,14.777H14.092
		C6.309,274.551,0,280.86,0,288.643h48.317C56.1,288.643,62.409,282.334,62.409,274.551z"/>
	<path class="st0" d="M80.367,235.663v-15.985l-44.563-19.435c-6.636-2.894-14.061,1.969-14.061,9.208l14.696,5.758
		c1.315,0.564,2.443,0.953,3.382,1.168c1.074,0.322,2.094,0.564,3.06,0.725c-0.993,0.215-1.986,0.47-2.98,0.765
		c-0.966,0.215-2.12,0.604-3.463,1.168l-14.696,5.677v15.904l34.466-16.387L80.367,235.663z"/>
	<path class="st0" d="M80.367,148.975H21.743c0,7.939,6.436,14.374,14.374,14.374h44.25V148.975z"/>
	<path class="st0" d="M3.468,150.465c-1.507,1.584-2.26,3.49-2.26,5.717c0,2.174,0.781,4.04,2.341,5.597
		c1.453,1.53,3.297,2.295,5.531,2.295c2.207,0,4.077-0.765,5.611-2.295c1.615-1.611,2.422-3.476,2.422-5.597
		c0-2.201-0.773-4.073-2.321-5.617c-1.548-1.543-3.452-2.315-5.712-2.315S4.949,148.989,3.468,150.465z"/>
	<path class="st0" d="M9.127,405.176c-2.26,0-4.131,0.739-5.611,2.215c-1.507,1.584-2.26,3.49-2.26,5.717
		c0,2.174,0.781,4.04,2.341,5.597C5.05,420.235,6.894,421,9.127,421c2.207,0,4.077-0.765,5.611-2.295
		c1.615-1.611,2.422-3.476,2.422-5.597c0-2.201-0.773-4.073-2.321-5.617C13.291,405.948,11.388,405.176,9.127,405.176z"/>
	<path class="st0" d="M22.434,114.71c-1.32,2.198-1.98,4.825-1.98,7.882c0,5.71,1.947,10.268,5.838,13.672
		c3.892,3.405,9.167,5.107,15.824,5.107c3.328,0,6.321-0.415,8.979-1.247c2.657-0.831,4.966-2.037,6.925-3.619
		c3.973-3.217,5.959-7.547,5.959-12.99c0-3.137-0.658-5.878-1.973-8.224c-1.315-2.345-3.382-4.47-6.201-6.373h6.603V95.712H35.03
		c-7.338,0-13.287,5.949-13.287,13.287h6.712C25.707,110.581,23.7,112.484,22.434,114.71z M34.581,110.885
		c1.768-1.688,4.26-2.532,7.475-2.532c3.215,0,5.72,0.851,7.515,2.552c1.795,1.701,2.692,3.998,2.692,6.891
		c0,2.92-0.897,5.197-2.693,6.831c-1.821,1.715-4.326,2.572-7.514,2.572c-3.161,0-5.679-0.857-7.555-2.572
		c-1.821-1.661-2.732-3.937-2.732-6.831C31.768,114.903,32.706,112.599,34.581,110.885z"/>
	<path class="st0" d="M48.719,56.869c1.101,1.021,1.987,2.229,2.657,3.624c0.591,1.315,0.886,2.684,0.886,4.107
		c0,3.006-0.939,5.355-2.818,7.046c-1.825,1.745-4.294,2.617-7.409,2.617c-3.247,0-5.798-0.846-7.65-2.537
		c-1.878-1.637-2.818-3.892-2.818-6.764c0-1.556,0.282-2.912,0.846-4.067c0.564-1.288,1.463-2.631,2.698-4.026H22.991
		c-0.832,1.423-1.463,2.994-1.892,4.711c-0.429,1.772-0.644,3.638-0.644,5.597c0,6.255,2.007,11.348,6.019,15.28
		c4.013,3.932,9.227,5.899,15.643,5.899c2.229,0,4.282-0.221,6.16-0.664c1.879-0.443,3.624-1.087,5.234-1.933
		s3.087-1.926,4.429-3.241c4.026-3.839,6.04-8.898,6.04-15.18c0-1.664-0.215-3.422-0.644-5.275
		c-0.537-1.745-1.262-3.476-2.174-5.194H48.719z"/>
	<path class="st0" d="M62.409,34.224H44.331l18.079-15.341V0L41.311,19.931L21.743,1.651v17.797l17.756,14.777H14.092
		C6.309,34.224,0,40.534,0,48.317h48.317C56.1,48.317,62.409,42.007,62.409,34.224z"/>
</g>
</svg>