<!-- Generator: Adobe Illustrator 23.0.3, SVG Export Plug-In  -->
<svg version="1.1" xmlns="http://www.w3.org/2000/svg" xmlns:xlink="http://www.w3.org/1999/xlink" x="0px" y="0px"
	 width="152.807px" height="164.661px" viewBox="0 0 152.807 164.661" style="enable-background:new 0 0 152.807 164.661;"
	 xml:space="preserve">
<style type="text/css">
	.st0{fill:#F79494;}
</style>
<defs>
</defs>
<path class="st0" d="M33.797,31.697c-1.973,2.968-4.082,5.853-5.89,8.921c-3.667,6.222-7.11,12.569-9.949,19.245
	c-1.275,2.999-2.866,5.861-4.326,8.778c-0.677,1.352-1.1,2.751-0.717,4.268c0.498,1.977,1.95,2.997,3.721,3.653
	c0.607,0.224,1.23,0.405,1.892,0.62c-0.595,1.605-1.215,3.089-1.697,4.618c-1.478,4.689-1.537,9.473-0.984,14.327
	c0.435,3.82,0.514,7.666-0.299,11.464c-0.174,0.818-0.428,1.641-0.79,2.39c-0.95,1.969-2.671,2.621-4.696,1.923
	c-2.477-0.854-4.204-2.582-5.348-4.885c-2.903-5.848-4.216-12.105-4.569-18.618c-0.656-12.089,0.938-23.875,4.338-35.452
	c1.46-4.969,3.032-9.875,5.606-14.39c2.284-4.004,5.27-7.405,9.102-9.844c4.634-2.949,9.494-5.527,14.218-8.334
	c3.82-2.27,7.339-4.937,10.132-8.492c1.671-2.127,2.162-4.69,2.615-7.256C46.417,3.15,46.526,1.638,46.72,0
	c1.564,0.274,3.181,0.561,4.8,0.839c5.548,0.952,10.972,2.374,16.206,4.483c1.542,0.621,3.014,1.423,4.52,2.136
	c0.56,0.264,0.689,0.68,0.575,1.282c-1.144,6.035-2.816,11.882-5.566,17.399c-1.722,3.457-3.899,6.577-6.318,9.529
	c-2.283,2.785-5.184,4.858-8.13,6.862c-3.74,2.544-7.763,4.73-10.922,8.045c-2.136,2.241-4.095,4.683-5.931,7.188
	c-2.48,3.387-4.694,6.975-7.16,10.374c-1.87,2.58-3.918,5.041-6.757,6.627c-1.957,1.094-4.011,1.033-6.043,0.317
	c-1.91-0.672-2.628-2.891-1.665-4.949c1.933-4.129,3.972-8.21,5.816-12.38c2.979-6.737,6.684-13.04,10.636-19.218
	c1.327-2.074,2.349-4.35,3.511-6.533C34.127,31.899,33.962,31.798,33.797,31.697"/>
<path class="st0" d="M105.956,0.04c0.393,2.367,0.787,4.612,1.136,6.865c0.511,3.293,2.465,5.68,4.746,7.854
	c3.782,3.606,8.256,6.133,12.811,8.563c5.407,2.884,10.763,5.873,14.846,10.681c2.474,2.913,4.342,6.205,5.742,9.749
	c2.328,5.892,4.053,11.984,5.342,18.191c2.076,9.994,2.809,20.087,1.737,30.267c-0.55,5.224-1.941,10.23-4.315,14.916
	c-1.151,2.271-2.881,3.943-5.309,4.786c-1.977,0.687-3.728,0.076-4.616-1.867c-0.546-1.192-0.896-2.521-1.086-3.827
	c-0.565-3.894-0.326-7.792,0.092-11.695c0.589-5.494-0.093-10.826-2.3-15.918c-0.181-0.417-0.35-0.84-0.575-1.38
	c0.762-0.271,1.503-0.52,2.234-0.798c2.645-1.003,3.763-2.8,3.453-5.638c-0.058-0.54-0.264-1.086-0.502-1.58
	c-1.234-2.56-2.527-5.092-3.749-7.658c-1.208-2.535-2.294-5.132-3.546-7.643c-1.456-2.92-3.006-5.794-4.571-8.656
	c-1.243-2.276-2.482-4.563-3.882-6.739c-1.502-2.337-3.191-4.55-4.798-6.817c-0.127,0.078-0.254,0.155-0.381,0.233
	c1.1,2.093,2.118,4.235,3.316,6.267c2.082,3.533,4.504,6.877,6.369,10.518c3.212,6.271,6.108,12.709,9.131,19.079
	c0.494,1.041,1.093,2.055,1.41,3.152c0.613,2.124-0.491,3.861-2.613,4.375c-2.649,0.641-4.975,0.046-7.088-1.726
	c-3.256-2.731-5.589-6.228-8.018-9.659c-2.789-3.94-5.487-7.957-8.472-11.739c-2.333-2.955-5.502-5.018-8.613-7.085
	c-3.651-2.426-7.449-4.658-10.541-7.853c-3.631-3.753-6.483-8.058-8.657-12.831c-2.283-5.012-3.72-10.288-4.758-15.692
	C79.8,8.051,80.038,7.648,80.61,7.405c2.74-1.174,5.435-2.486,8.241-3.47c5.485-1.921,11.181-2.981,16.901-3.892
	C105.852,0.027,105.956,0.04,105.956,0.04"/>
<path class="st0" d="M77.769,141.378c-6.106,0-12.212-0.032-18.317,0.02c-1.845,0.015-3.099-0.728-3.942-2.361
	c-2.461-4.769-4.958-9.519-7.416-14.289c-3.454-6.7-6.884-13.412-10.327-20.118c-1.795-3.495-3.613-6.979-5.381-10.488
	c-0.317-0.629-0.7-0.83-1.372-0.817c-2.185,0.04-4.371,0.027-6.556,0.014c-2.238-0.014-3.726-1.472-3.741-3.635
	c-0.015-2.253,1.432-3.715,3.747-3.73c3.191-0.019,6.383-0.018,9.575-0.001c1.585,0.008,2.737,0.69,3.502,2.181
	c5.087,9.927,10.216,19.832,15.324,29.748c2.586,5.02,5.168,10.043,7.721,15.081c0.363,0.718,0.79,0.977,1.602,0.974
	c10.442-0.033,20.885-0.03,31.327-0.009c0.71,0.002,1.115-0.202,1.465-0.852c2.744-5.097,5.526-10.172,8.299-15.252
	c3.343-6.125,6.679-12.254,10.041-18.368c1.032-1.879,3.233-2.561,4.904-1.595c1.913,1.105,2.501,3.315,1.419,5.274
	c-0.661,1.198-1.289,2.415-1.947,3.615c-2.412,4.398-4.838,8.788-7.243,13.189c-3.463,6.337-6.93,12.67-10.354,19.028
	c-0.87,1.616-2.061,2.412-3.91,2.398c-6.139-0.047-12.28-0.018-18.42-0.018V141.378z"/>
<path class="st0" d="M96.449,104.648c-0.934,3.13-2.856,5.096-6.112,5.146c-3.253,0.051-5.235-1.841-6.284-5.134
	c-1.015,3.357-3.064,5.242-6.375,5.131c-3.186-0.106-5.139-1.991-5.96-5.221c-1.016,3.435-3.259,5.287-6.234,5.257
	c-2.918-0.028-5.242-1.939-6.153-5.296c-0.554,2.068-1.458,3.595-3.177,4.508c-1.701,0.903-3.439,1.073-5.216,0.367
	c-2.739-1.089-4.295-3.815-3.913-6.74c0.35-2.678,2.482-4.977,4.935-5.307c2.783-0.374,5.847,0.34,7.372,4.965
	c1.175-3.578,3.456-5.45,7.174-4.968c2.863,0.371,4.372,2.314,5.198,5.095c1.053-3.625,3.303-5.519,7.041-5.103
	c2.857,0.318,4.449,2.173,5.282,5.067c1.141-3.443,3.222-5.401,6.802-5.099c3.091,0.26,4.775,2.214,5.649,5.292
	c0.3-1.987,1.3-3.298,2.715-4.344c1.464-1.083,3.119-1.119,4.783-0.868c2.672,0.403,4.895,3.299,4.851,6.186
	c-0.047,3.076-2.338,5.747-5.368,6.195C100.87,110.16,97.425,108.739,96.449,104.648"/>
<path class="st0" d="M65.551,116.204c-1.901,4.073-4.299,5.604-7.516,4.885c-2.93-0.654-4.799-2.989-4.831-6.032
	c-0.03-3.005,1.839-5.547,4.6-6.256c3.252-0.835,5.667,0.668,7.765,4.891c0.94-3.132,2.911-5.044,6.145-5.044
	c3.248,0,5.181,1.966,6.168,5.026c1.307-3.475,3.557-5.223,6.475-5.058c2.858,0.161,4.968,2.031,5.878,5.366
	c0.519-1.92,1.356-3.431,2.938-4.41c1.569-0.971,3.231-1.211,4.989-0.701c2.739,0.795,4.541,3.409,4.434,6.398
	c-0.103,2.864-2.055,5.2-4.866,5.821c-3.25,0.718-5.445-0.71-7.501-4.879c-1.338,3.5-3.442,5.149-6.431,5.041
	c-2.72-0.098-4.902-1.957-5.903-5.119c-0.966,3.147-2.93,5.06-6.156,5.089C68.497,121.252,66.544,119.321,65.551,116.204"/>
<path class="st0" d="M71.727,125.156c0.995-3.461,3.149-5.313,6.703-5.157c2.573,0.114,4.558,1.944,5.61,5.174
	c0.618-1.977,1.559-3.519,3.264-4.445c1.73-0.938,3.503-1.009,5.313-0.287c2.541,1.013,4.161,3.853,3.8,6.631
	c-0.377,2.894-2.604,5.113-5.511,5.49c-2.974,0.385-5.455-1.399-6.856-5.092c-0.989,3.24-3.019,5.151-6.244,5.102
	c-3.217-0.05-5.225-1.949-6.102-5.333c-0.45,1.926-1.321,3.312-2.748,4.284c-1.416,0.965-2.98,1.282-4.662,0.952
	c-2.82-0.553-5.001-3.255-5.002-6.192c0-3.03,2.232-5.747,5.188-6.248C66.896,119.626,70.324,120.573,71.727,125.156"/>
<path class="st0" d="M65.098,157.282c2.052-0.002,3.933-1.886,3.968-3.974c0.033-1.962-1.91-3.945-3.89-3.972
	c-2.212-0.03-3.985,1.743-3.994,3.994C61.174,155.504,62.937,157.284,65.098,157.282 M65.129,141.946
	c6.154,0.022,11.167,5.155,11.138,11.405c-0.03,6.352-5.007,11.332-11.305,11.31c-6.146-0.022-11.107-5.139-11.083-11.433
	C53.902,147.009,58.973,141.924,65.129,141.946"/>
<path class="st0" d="M85.5,153.265c-0.003,2.259,1.648,4.005,3.802,4.018c2.129,0.013,3.934-1.776,3.95-3.913
	c0.016-2.238-1.713-3.977-3.958-3.979C87.141,149.389,85.504,151.061,85.5,153.265 M89.337,141.942
	c6.054-0.027,11.157,5.051,11.18,11.125c0.025,6.54-4.804,11.579-11.11,11.594c-6.239,0.015-11.244-5.026-11.28-11.36
	C78.091,147.118,83.172,141.97,89.337,141.942"/>
</svg>