<!-- Generator: Adobe Illustrator 23.0.3, SVG Export Plug-In  -->
<svg version="1.1" xmlns="http://www.w3.org/2000/svg" xmlns:xlink="http://www.w3.org/1999/xlink" x="0px" y="0px"
	 width="300.271px" height="359.111px" viewBox="0 0 300.271 359.111" style="enable-background:new 0 0 300.271 359.111;"
	 xml:space="preserve">
<style type="text/css">
	.st0{clip-path:url(#SVGID_2_);fill:#F1DFDD;}
	.st1{clip-path:url(#SVGID_4_);fill:#F1DFDD;}
</style>
<defs>
</defs>
<g>
	<defs>
		<rect id="SVGID_1_" y="0.001" width="300.271" height="359.11"/>
	</defs>
	<clipPath id="SVGID_2_">
		<use xlink:href="#SVGID_1_"  style="overflow:visible;"/>
	</clipPath>
	<path class="st0" d="M124.768,74.819c0.238,0.16,0.476,0.32,0.714,0.48c3.139-3.944,6.277-7.887,9.646-12.12
		c-10.143-0.376-10.407-0.133-10.36,8.947C124.772,73.024,124.768,73.921,124.768,74.819 M175.231,75.362
		c0.374-0.132,0.748-0.265,1.122-0.397c-0.397-3.589,0.163-7.767-1.548-10.548c-1.026-1.668-5.598-1.156-8.576-1.623
		c-0.071,0.317-0.143,0.634-0.214,0.95C169.087,67.617,172.159,71.489,175.231,75.362 M210.837,343.169
		c2.658-1.292,4.811-2.147,6.734-3.365c0.799-0.506,1.537-1.771,1.567-2.714c0.141-4.515,0.115-9.04-0.025-13.556
		c-0.078-2.5-1.409-4.224-4.094-4.196c-2.852,0.029-4.157,1.79-4.172,4.518C210.814,330.049,210.837,336.242,210.837,343.169
		 M89.931,343.181c0-6.823,0.015-12.853-0.007-18.884c-0.01-2.769-1.034-4.889-4.144-4.924c-3.1-0.036-4.234,2.05-4.274,4.818
		c-0.063,4.237-0.123,8.48,0.069,12.709c0.048,1.042,0.828,2.413,1.697,2.982C85.154,341.113,87.312,341.923,89.931,343.181
		 M57.979,294.728c0,7.801,0.014,15.267-0.005,22.732c-0.016,6.418,2.902,10.247,9.273,12.154v-34.886H57.979z M233.469,330.458
		c2.579-1.881,4.625-3.207,6.464-4.776c1.103-0.942,2.658-2.245,2.686-3.417c0.221-9.225,0.123-18.458,0.123-27.84h-9.273V330.458z
		 M245.925,320.862c9.268-8.196,17.27-16.464,23.993-26.487h-23.993V320.862z M54.836,294.489H31.302
		c-0.241,0.335-0.482,0.671-0.722,1.006c7.733,8.432,15.467,16.864,23.2,25.295c0.352-0.253,0.705-0.507,1.056-0.76V294.489z
		 M70.61,311.074c4.477-3.041,8.373-5.532,12.085-8.273c1.879-1.387,3.229-1.298,5.088,0.066c4.064,2.985,8.322,5.705,12.743,8.697
		V294.43H70.61V311.074z M200.189,311.515c4.221-2.844,8.053-5.166,11.576-7.888c2.633-2.033,4.683-2.229,7.392-0.075
		c3.356,2.668,7.089,4.861,10.981,7.475v-16.631h-29.949V311.515z M230.094,180.115v-16.927h-29.821v17.387
		c4.594-3.111,8.795-5.834,12.851-8.76c1.749-1.262,3.058-1.281,4.811-0.006C221.759,174.59,225.737,177.159,230.094,180.115
		 M245.826,239.872c4.904-3.34,9.152-6.423,13.622-9.141c1.071-0.652,3.205-0.635,4.293,0.011c4.049,2.405,7.865,5.2,12.303,8.211
		v-16.447h-30.218V239.872z M70.797,163.151v16.829c4.215-2.836,8.048-5.23,11.66-7.92c1.985-1.478,3.433-1.504,5.442-0.029
		c4,2.935,8.211,5.581,12.602,8.527v-17.407H70.797z M54.82,239.823v-17.569c-9.624,0-19.011-0.037-28.397,0.073
		c-0.695,0.009-1.957,1.048-1.977,1.641c-0.163,4.803-0.091,9.614-0.091,15.178c4.712-3.191,8.555-6,12.631-8.417
		c1.085-0.644,3.217-0.638,4.293,0.016C45.755,233.467,50.01,236.55,54.82,239.823 M78.55,336.876c0-4.401-0.079-8.39,0.02-12.375
		c0.128-5.205,2.891-8.175,7.344-8.097c4.179,0.073,6.822,3.094,6.917,8.134c0.086,4.647-0.002,9.298,0.011,13.947
		c0.017,6.46,0.026,6.462,6.211,8.458c0.471,0.152,0.965,0.23,1.753,0.413c0-6.515-0.713-12.921,0.164-19.101
		c1.375-9.684-2.034-15.775-10.584-20.381c-4.095-2.207-6.331-2.158-10.383,0.038c-7.777,4.217-10.785,9.699-9.748,18.504
		C71.081,333.424,70.766,333.966,78.55,336.876 M199.964,347.453c1.316-0.4,2.033-0.669,2.774-0.833
		c3.931-0.871,5.663-2.939,5.263-7.293c-0.47-5.118-0.185-10.314-0.081-15.473c0.094-4.574,2.989-7.493,7.132-7.449
		c4.07,0.044,6.795,2.724,6.955,7.198c0.156,4.327,0.034,8.664,0.034,13.189c7.489-2.515,7.519-3.533,8.442-9.51
		c1.499-9.7-2.12-15.909-10.771-19.746c-0.811-0.36-1.44-1.306-2.248-1.451c-1.295-0.234-2.968-0.518-3.959,0.082
		c-3.965,2.4-7.794,5.044-11.521,7.804c-0.959,0.711-1.916,2.165-1.933,3.292C199.901,327.188,199.964,337.116,199.964,347.453
		 M200.206,111.836v47.921h30.576c-0.54-3.939,0.155-8.395-1.726-10.966C220.009,136.432,210.266,124.583,200.206,111.836
		 M100.487,159.877v-48.04c-9.175,11.645-17.63,22.899-26.696,33.636c-3.865,4.577-3.584,9.193-3.055,14.404H100.487z
		 M162.066,159.825c0-10.31,0.166-20.236-0.062-30.152c-0.134-5.818-5.314-10.586-11.127-10.909
		c-5.683-0.316-11.767,3.751-12.036,9.275c-0.512,10.506-0.149,21.056-0.149,31.786H162.066z M162.038,218.629
		c0-10.41,0.24-20.571-0.093-30.714c-0.188-5.723-5.487-10.174-11.154-10.308c-6.054-0.144-11.691,3.643-11.946,9.232
		c-0.477,10.501-0.137,21.039-0.137,31.79H162.038z M276.009,219.219c0.728-6.084,0.582-11.2-3.655-16.121
		c-8.146-9.461-15.585-19.531-23.331-29.338c-0.869-1.101-1.822-2.137-2.99-3.5v48.959H276.009z M54.859,169.715
		c-9.601,12.206-18.376,23.823-27.692,34.989c-3.921,4.7-2.621,9.451-2.711,14.458h30.403V169.715z M179.116,294.396v59.126
		c5.171-1.369,9.961-2.738,14.805-3.877c2.477-0.582,3.163-1.867,3.143-4.342c-0.114-14.466-0.059-28.933-0.061-43.4
		c0-2.423,0-4.846,0-7.507H179.116z M103.748,294.359c0,17.778-0.014,35.082,0.047,52.385c0.003,0.749,0.542,2.002,1.088,2.166
		c5.453,1.633,10.961,3.087,16.601,4.633v-59.184H103.748z M100.785,291.075c0-1.474,0-2.736,0-3.999
		c0-9.554,0.05-19.109-0.021-28.663c-0.039-5.12,1.313-11.118-0.884-15.112c-2.223-4.041-8.112-6.016-12.274-9.062
		c-1.705-1.249-2.942-1.447-4.729-0.082c-3.069,2.346-6.286,4.533-9.608,6.505c-2.312,1.373-2.924,3.117-2.901,5.694
		c0.122,13.814,0.064,27.629,0.088,41.444c0.001,1.099,0.148,2.198,0.226,3.275H100.785z M245.703,291.272
		c7.704,0,14.791,0.006,21.878-0.002c5.327-0.006,8.635-2.995,8.684-8.275c0.116-12.64,0.094-25.282,0.01-37.922
		c-0.007-1.11-0.557-2.644-1.388-3.251c-4.341-3.171-8.854-6.106-13.305-9.122c-4.827,3.258-9.51,6.233-13.94,9.545
		c-1.074,0.803-1.827,2.711-1.854,4.127c-0.167,8.768-0.084,17.541-0.085,26.312V291.272z M230.011,291.082
		c0.125-0.684,0.293-1.173,0.294-1.662c0.018-14.847,0.062-29.695-0.056-44.541c-0.009-1.159-0.894-2.68-1.849-3.396
		c-3.402-2.549-7.081-4.728-10.512-7.242c-1.718-1.26-2.968-1.368-4.742-0.039c-3.403,2.549-6.959,4.909-10.568,7.161
		c-1.956,1.22-2.698,2.63-2.676,4.995c0.124,13.684,0.056,27.37,0.067,41.055c0.002,1.226,0.109,2.452,0.167,3.669H230.011z
		 M54.438,291.279c0.312-0.62,0.523-0.845,0.524-1.07c0.043-14.98,0.097-29.96,0.03-44.94c-0.004-0.937-0.742-2.19-1.527-2.751
		c-4.707-3.362-9.528-6.565-14.346-9.845c-4.443,3.009-8.765,5.83-12.944,8.849c-0.896,0.648-1.8,2.008-1.81,3.048
		c-0.121,12.914-0.128,25.829-0.039,38.743c0.022,3.217,3.384,7.898,5.614,7.926C38.171,291.341,46.404,291.279,54.438,291.279
		 M100.805,239.725c0-13.845,0.021-26.869-0.01-39.893c-0.012-5.155,1.488-11.176-0.667-15.223
		c-2.153-4.044-8.015-6.113-12.252-9.047c-0.212-0.146-0.428-0.391-0.651-0.401c-1.334-0.058-2.968-0.568-3.952,0.01
		c-3.553,2.084-6.813,4.662-10.332,6.81c-2.044,1.247-2.579,2.787-2.566,5.075c0.089,16.137,0.043,32.274,0.056,48.412
		c0.001,0.97,0.13,1.939,0.238,3.456c3.391-2.269,6.567-4.006,9.272-6.299c3.574-3.03,6.577-3.486,10.318-0.127
		C93.186,235.126,96.777,237.015,100.805,239.725 M175.724,250.174v-27.632h-50.597v27.346
		C142.14,239.201,158.738,239.225,175.724,250.174 M230.324,239.178c0-18.484,0.033-36.144-0.087-53.803
		c-0.006-1-1.06-2.286-1.982-2.936c-4.103-2.896-8.266-7.647-12.543-7.796c-4.009-0.138-8.189,4.665-12.292,7.296
		c-0.326,0.208-0.621,0.474-0.965,0.642c-1.952,0.956-2.542,2.432-2.527,4.646c0.107,15.488,0.057,30.978,0.056,46.468
		c0,1.746,0,3.492,0,5.983c4.765-3.216,8.975-5.893,12.988-8.838c1.901-1.394,3.282-1.322,5.133,0.027
		C221.839,233.588,225.739,236.082,230.324,239.178 M288.394,221.07c-0.494-0.152-0.989-0.305-1.484-0.457V175.4h-7.417v102.733
		c2.674-3.948,5.508-7.935,6.361-12.307c1.239-6.35,1.048-12.979,1.466-19.493c1.761,0.032,1.761,0.032,3.003,7.329
		c9.326-25.684,6.603-52.016,6.953-78.255h-7.434c0,1.72,0,3.229,0,4.739c0,12.521,0.036,25.042-0.064,37.562
		C289.769,218.832,288.877,219.95,288.394,221.07 M13.859,175.405c0,1.593,0,2.981,0,4.37c0.003,12.404,0.046,24.808-0.05,37.21
		c-0.01,1.29-0.842,2.573-1.293,3.86c-0.535-1.334-1.52-2.664-1.533-4.003c-0.12-12.274-0.071-24.548-0.072-36.823
		c0-1.505,0-3.011,0-4.653c-1.671-0.076-2.816-0.184-3.959-0.163c-1.109,0.02-2.216,0.172-3.646,0.294
		c0.371,26.343-2.307,52.633,7.336,78.772c0.596-8.013,0.596-8.013,3.238-7.709c0,5.508-0.837,11.218,0.236,16.543
		c1.071,5.32,4.053,10.256,6.197,15.36c0.308-0.126,0.616-0.253,0.924-0.38V175.405H13.859z M125.135,90.586h50.567
		c0.84-8.656,0.878-8.685-4.094-15.045c-6.959-8.904-13.982-17.759-21.234-26.96c-7.223,9.135-13.882,18.135-21.19,26.571
		C125.161,79.796,123.911,84.589,125.135,90.586 M100.8,70.645c-12.985,4.567-24.424,10.663-35.07,18.276
		c-0.582,0.417-1.346,1.118-1.361,1.704c-0.114,4.45-0.063,8.905-0.063,13.304c2.315,0.135,4.071,0.237,6.302,0.368v40.8
		c10.254-13.029,19.84-25.186,29.372-37.385c0.504-0.645,0.782-1.64,0.786-2.474C100.816,93.876,100.8,82.513,100.8,70.645
		 M199.964,70.635c0,11.918-0.049,23.148,0.069,34.376c0.014,1.265,0.731,2.712,1.539,3.75c8.717,11.208,17.511,22.357,26.31,33.502
		c0.556,0.704,1.32,1.242,2.578,2.402v-40.372c2.158-0.151,4.016-0.282,6.056-0.426c0-4.302,0.077-8.292-0.061-12.275
		c-0.031-0.872-0.612-2.02-1.312-2.529C224.456,81.301,212.866,75.258,199.964,70.635 M175.712,219.192v-55.923h-50.596v55.77
		h10.435c0-10.157-0.148-19.968,0.045-29.772c0.168-8.518,6.598-14.64,14.869-14.593c7.851,0.046,14.318,6.432,14.534,14.648
		c0.177,6.713,0.047,13.434,0.052,20.151c0.002,3.182,0,6.363,0,9.719H175.712z M233.565,290.957h8.912v-183.76h-8.912V290.957z
		 M67.256,107.255h-9.048v184.199h9.048V107.255z M161.526,355.865c0.306-0.761,0.483-0.996,0.483-1.231
		c0.031-23.644,0.108-47.289,0.019-70.933c-0.02-5.197-4.033-9.607-9.05-10.737c-7.859-1.77-14.456,3.633-14.539,12.194
		c-0.125,12.92-0.034,25.842-0.035,38.763c0,9.433-0.065,18.866,0.078,28.296c0.018,1.224,1.075,3.467,1.712,3.49
		C147.371,355.957,154.56,355.865,161.526,355.865 M175.76,159.864V94.082h-50.779v65.72h10.566c0-1.601,0.001-2.982,0-4.363
		c-0.003-8.134-0.061-16.268,0.006-24.401c0.07-8.584,6.672-15.309,14.771-15.181c8.276,0.131,14.658,6.741,14.721,15.349
		c0.051,7.101-0.001,14.202-0.006,21.303c-0.002,2.404,0,4.807,0,7.355H175.76z M245.527,104.245
		c0.065,1.428,0.17,2.686,0.171,3.943c0.01,17.703-0.064,35.406,0.099,53.107c0.02,2.111,0.828,4.587,2.105,6.254
		c8.404,10.97,17.032,21.768,25.605,32.609c0.653,0.827,1.443,1.546,2.884,3.072v-30.728c1.901-0.191,3.386-0.339,5.124-0.513
		c0-9.665,0.037-19.081-0.05-28.495c-0.01-1.08-0.587-2.221-1.116-3.22c-9.445-17.815-22.093-32.992-37.763-45.661
		c-0.834-0.674-1.779-1.21-2.835-1.92v11.257C241.763,104.053,243.525,104.143,245.527,104.245 M24.401,202.471
		c0.26,0.14,0.519,0.28,0.779,0.42c0.431-0.59,0.842-1.195,1.294-1.769c8.85-11.255,17.768-22.457,26.484-33.815
		c1.207-1.573,1.987-3.903,2.004-5.891c0.156-17.677,0.096-35.354,0.1-53.032c0-1.367,0-2.734,0-4.159
		c2.296-0.104,4.061-0.183,5.898-0.266V92.601c-0.782,0.509-1.223,0.75-1.613,1.056c-16.373,12.847-29.333,28.551-39.173,46.859
		c-0.362,0.672-0.842,1.413-0.847,2.124c-0.056,9.763-0.037,19.526-0.037,29.363c1.838,0.233,3.307,0.419,5.111,0.648V202.471z
		 M165.042,355.4c1.918-0.203,3.429-0.285,4.913-0.533c6.042-1.01,6.041-1.028,6.041-7.325c-0.004-29.954-0.054-59.908,0.063-89.861
		c0.011-2.717-0.99-4.238-3.036-5.682c-13.144-9.281-31.421-9.491-44.806-0.567c-2.467,1.645-3.562,3.428-3.534,6.563
		c0.171,18.978,0.085,37.958,0.085,56.938v39.041c3.612,0.51,6.971,0.985,10.574,1.494c0.087-1.687,0.197-2.826,0.197-3.965
		c0.007-21.69-0.02-43.381,0.027-65.072c0.004-2.165,0.102-4.435,0.737-6.476c2.235-7.19,9.122-11.167,16.703-9.911
		c6.932,1.148,12.015,7.333,12.033,14.976c0.052,21.562,0.009,43.123,0.003,64.685C165.042,351.482,165.042,353.259,165.042,355.4
		 M179.223,47.717v243.35h7.257c0-1.751,0.001-3.271,0-4.792c-0.013-12.271-0.048-24.542-0.011-36.812
		c0.005-1.556-0.745-3.988,2.858-3.203v4.18c0,11.754-0.001,23.509,0.001,35.263c0.001,5.804,0.003,5.812,5.673,5.567
		c0.596-0.026,1.185-0.214,1.761-0.324V47.822h-7.435v4.803c0.001,34.488,0.021,68.976-0.057,103.465
		c-0.005,1.784-0.858,3.567-1.316,5.351c-0.505-1.761-1.445-3.522-1.449-5.284c-0.074-34.488-0.035-68.976-0.036-103.464
		c0-1.618-0.155-3.236-0.244-4.976H179.223z M104.045,47.702v243.365h7.3c0-1.743,0-3.262,0-4.782
		c-0.001-12.403-0.035-24.807,0.056-37.209c0.008-1.021,0.861-2.035,1.321-3.052c0.476,0.999,1.359,1.994,1.367,2.997
		c0.097,12.273,0.065,24.548,0.067,36.822c0,1.647,0,3.293,0,5.196h7.315V47.785h-7.06c-0.095,1.326-0.245,2.454-0.246,3.582
		c-0.011,11.628,0.008,23.256,0.007,34.884c-0.003,24.032,0.004,48.063-0.077,72.095c-0.003,1.031-0.835,2.06-1.282,3.09
		c-0.488-0.994-1.04-1.964-1.437-2.993c-0.173-0.45-0.033-1.022-0.033-1.539c0-34.755,0.004-69.51-0.008-104.265
		c0-1.615-0.135-3.231-0.211-4.937H104.045z M0,172.462c2.441-0.146,3.712-0.222,5.543-0.331c0-1.443,0-2.806,0-4.169
		c0.007-12.404-0.024-24.808,0.087-37.211c0.01-1.083,0.954-2.158,1.464-3.236c0.436,0.175,0.872,0.35,1.308,0.524v43.958h7.841
		v-44.05c2.294,0.245,2.294,0.245,3.39,6.531c4.79-6.638,9.038-13.769,14.503-19.795c7.693-8.483,16.203-16.237,24.568-24.085
		c1.769-1.66,2.669-3.072,2.622-5.518c-0.152-7.878-0.1-15.762-0.001-23.643c0.011-0.898,0.818-1.787,1.257-2.681
		c0.548,0.942,1.556,1.876,1.572,2.825c0.127,7.97,0.072,15.942,0.072,23.614c12.126-6.219,24.098-12.358,36.598-18.768v-21.36
		c1.697-0.228,3.192-0.429,5.23-0.703c0-1.415,0.001-2.784,0-4.153c-0.01-12.275-0.052-24.549,0.026-36.823
		c0.006-1.038,0.813-2.071,1.247-3.106c0.532,1.074,1.517,2.143,1.527,3.221c0.109,12.015,0.067,24.032,0.066,36.048v4.844h7.56
		c0-3.977-0.001-7.816,0-11.655c0-9.82-0.048-19.641,0.067-29.459c0.013-1.093,0.95-2.175,1.458-3.261l1.351,0.494v43.844
		c1.914,0.249,3.521,0.459,5.464,0.712v15.985c3.952-0.426,7.568-0.64,11.104-1.29c1.333-0.245,2.762-1.266,3.662-2.34
		c3.563-4.251,6.933-8.663,10.768-13.513c3.174,4.011,6.309,7.707,9.133,11.627c2.091,2.903,4.321,4.815,8.232,4.578
		c2.522-0.153,5.099,0.622,8.063,1.039V45.12c1.945-0.273,3.54-0.496,5.498-0.771V0.627c2.906,0.054,2.945,0.054,2.948,2.956
		c0.009,12.146-0.008,24.291-0.015,36.437c0,1.391,0,2.783,0,4.407h7.295c0.071-1.36,0.202-2.725,0.204-4.089
		c0.022-12.275-0.015-24.55,0.085-36.824c0.009-1.175,0.829-2.343,1.273-3.514c0.51,0.131,1.02,0.261,1.529,0.392V44.37
		c1.979,0.248,3.486,0.437,5.386,0.675c0,6.676-0.06,13.23,0.062,19.781c0.019,1.059,0.566,2.68,1.35,3.066
		c11.622,5.732,23.324,11.3,35.125,16.962c0-2.799-0.003-6.346,0.001-9.893c0.004-4.005-0.103-8.016,0.084-12.013
		c0.067-1.421,0.856-2.809,1.315-4.211c0.523,1.34,1.472,2.671,1.499,4.022c0.154,7.62-0.027,15.248,0.189,22.865
		c0.044,1.538,0.902,3.565,2.076,4.482c15.456,12.071,28.222,26.472,38.201,43.35c0.258,0.435,0.577,0.833,1.641,1.265
		c0-1.417-0.163-2.859,0.055-4.241c0.152-0.954,0.83-1.826,1.273-2.734c0.538,0.931,1.536,1.858,1.544,2.794
		c0.108,12.402,0.077,24.807,0.08,37.211c0,1.388,0,2.777,0,4.341h7.775v-4.175c0-12.275-0.037-24.55,0.059-36.824
		c0.009-1.127,0.856-2.248,1.315-3.372c0.506,1.124,1.441,2.243,1.451,3.372c0.108,11.757,0.068,23.515,0.068,35.273v5.569
		c1.685,0.207,3.048,0.375,4.415,0.541c0.156,0.2,0.444,0.403,0.442,0.603c-0.182,20.12,1.417,40.274-1.577,60.338
		c-8.684,58.183-55.681,109.291-113.218,121.584c-58.943,12.594-109.107-3.772-149.148-48.884
		C16.203,283.744,4.449,257.072,1.72,227.189C0.072,209.138,0.508,190.896,0,172.462"/>
	<path class="st0" d="M114.15,203.78c0,4.896,0.067,9.793-0.061,14.685c-0.023,0.911-0.828,1.801-1.272,2.701
		c-0.49-0.861-1.396-1.719-1.405-2.585c-0.098-9.919-0.097-19.839,0.008-29.758c0.009-0.831,0.959-1.653,1.473-2.479
		c0.419,0.916,1.178,1.825,1.201,2.751C114.215,193.987,114.15,198.885,114.15,203.78"/>
	<path class="st0" d="M189.186,186.809v33.875c-0.31,0.236-0.62,0.472-0.931,0.707c-0.597-0.756-1.705-1.506-1.714-2.269
		c-0.116-10.29-0.115-20.582-0.006-30.872c0.009-0.766,1.071-1.521,1.644-2.282C188.514,186.249,188.85,186.529,189.186,186.809"/>
	<path class="st0" d="M219.193,219.569c0-9.223,0.055-17.967-0.033-26.709c-0.027-2.628-1.319-4.494-4.253-4.417
		c-2.914,0.076-4.027,1.929-4.039,4.606c-0.025,5.283-0.011,10.567-0.012,15.85c-0.001,3.559,0,7.117,0,10.67H219.193z
		 M207.913,222.437c0-10.334-0.112-20.253,0.054-30.167c0.069-4.078,3.115-6.775,6.951-6.821c3.802-0.045,6.856,2.318,6.947,6.277
		c0.232,10.152,0.077,20.313,0.077,30.711H207.913z"/>
	<path class="st0" d="M89.914,219.617c0-9.153,0.052-17.912-0.031-26.669c-0.025-2.611-1.263-4.542-4.186-4.541
		c-2.917,0-4.124,1.907-4.19,4.535c-0.105,4.259-0.038,8.523-0.041,12.785c-0.002,4.595,0,9.19,0,13.89H89.914z M78.673,222.348
		c0-10.256-0.173-20.422,0.087-30.578c0.101-3.945,3.24-6.337,6.989-6.315c3.872,0.023,6.899,2.619,6.984,6.791
		c0.202,9.92,0.065,19.847,0.065,30.102H78.673z"/>
	<path class="st0" d="M43.635,278.484c0-9.305,0.161-18.172-0.164-27.021c-0.052-1.42-2.193-3.75-3.52-3.862
		c-1.358-0.115-4.128,1.932-4.173,3.113c-0.352,9.198-0.194,18.414-0.194,27.77H43.635z M46.566,281.435H32.592
		c0-2.736,0-5.39,0-8.043c0.001-7.216-0.054-14.432,0.022-21.647c0.048-4.549,2.938-7.43,7.13-7.349
		c4.037,0.077,6.769,2.869,6.8,7.258C46.614,261.438,46.566,271.224,46.566,281.435"/>
	<path class="st0" d="M219.167,278.499c0-9.347,0.081-18.216-0.052-27.08c-0.036-2.447-1.503-4.154-4.198-4.077
		c-2.886,0.083-4.05,1.906-4.07,4.59c-0.032,4.38-0.015,8.76-0.016,13.14c-0.001,4.462,0,8.924,0,13.427H219.167z M222.051,281.416
		h-13.853c-0.102-0.982-0.289-1.961-0.291-2.94c-0.023-8.635-0.047-17.27,0-25.904c0.029-5.177,2.772-8.226,7.19-8.18
		c4.319,0.046,6.879,2.852,6.928,7.996C222.116,261.916,222.051,271.444,222.051,281.416"/>
	<path class="st0" d="M265.194,278.499c0-9.386,0.165-18.378-0.181-27.35c-0.051-1.325-2.497-3.533-3.868-3.558
		c-1.355-0.025-3.897,2.154-3.947,3.442c-0.346,9.089-0.183,18.198-0.183,27.466H265.194z M268.124,281.408H254.26
		c0-10.58-0.154-20.97,0.085-31.351c0.081-3.535,3.396-5.792,7.059-5.658c3.52,0.13,6.578,2.632,6.65,6.258
		C268.253,260.802,268.124,270.953,268.124,281.408"/>
	<path class="st0" d="M89.87,278.469c0-9.199,0.167-18.209-0.179-27.199c-0.052-1.365-2.293-3.377-3.861-3.786
		c-2.542-0.662-4.22,1.366-4.261,3.821c-0.15,8.996-0.059,17.997-0.059,27.164H89.87z M92.834,281.39H78.571
		c0-3.817-0.001-7.523,0-11.229c0.001-5.94-0.068-11.882,0.027-17.821c0.081-5.056,2.728-7.943,7.034-7.952
		c4.3-0.009,7.139,2.961,7.179,7.844C92.89,261.881,92.834,271.532,92.834,281.39"/>
</g>
</svg>